<?xml version="1.0" encoding="UTF-8" standalone="no"?>
<!-- Created with Inkscape (http://www.inkscape.org/) -->

<svg
   width="12.673912mm"
   height="31.693735mm"
   viewBox="0 0 12.673912 31.693735"
   version="1.1"
   id="svg1628"
   inkscape:version="1.1.1 (eb90963e84, 2021-10-02)"
   sodipodi:docname="anson.svg"
   xmlns:inkscape="http://www.inkscape.org/namespaces/inkscape"
   xmlns:sodipodi="http://sodipodi.sourceforge.net/DTD/sodipodi-0.dtd"
   xmlns="http://www.w3.org/2000/svg"
   xmlns:svg="http://www.w3.org/2000/svg">
  <sodipodi:namedview
     id="namedview1630"
     pagecolor="#ffffff"
     bordercolor="#666666"
     borderopacity="1.0"
     inkscape:pageshadow="2"
     inkscape:pageopacity="0.0"
     inkscape:pagecheckerboard="0"
     inkscape:document-units="mm"
     showgrid="false"
     inkscape:zoom="0.5550014"
     inkscape:cx="-146.84648"
     inkscape:cy="173.87343"
     inkscape:window-width="1920"
     inkscape:window-height="1017"
     inkscape:window-x="0"
     inkscape:window-y="30"
     inkscape:window-maximized="1"
     inkscape:current-layer="layer1"
     fit-margin-top="0"
     fit-margin-left="0"
     fit-margin-right="0"
     fit-margin-bottom="0" />
  <defs
     id="defs1625" />
  <g
     inkscape:label="Layer 1"
     inkscape:groupmode="layer"
     id="layer1"
     transform="translate(-91.868499,-124.78716)">
    <path
       d="m 100.87969,149.31606 c -0.035,0.2094 -0.059,0.42649 -0.0696,0.65032 -0.0831,1.73098 0.64134,2.84755 1.59854,2.88988 0.95785,0.042 1.7858,-1.00627 1.86886,-2.73723 0.011,-0.22383 0.008,-0.44221 -0.007,-0.65354 0,0 -0.77443,0.0591 -1.70051,0.0166 -0.92546,-0.0424 -1.69057,-0.16611 -1.69057,-0.16611"
       style="fill:#ffffff;fill-opacity:1;fill-rule:nonzero;stroke:none;stroke-width:0.0320669"
       id="path54291"
       inkscape:export-filename="/home/bolarinwa/Downloads/path54255.png"
       inkscape:export-xdpi="98.489998"
       inkscape:export-ydpi="98.489998" />
    <path
       d="m 102.65556,149.81181 -0.10488,-0.007 c -0.12185,-0.008 -0.21485,-0.11127 -0.20781,-0.2328 l 0.0917,-1.61073 c 0.008,-0.12185 0.11128,-0.21484 0.23314,-0.20779 l 0.10488,0.007 c 0.12156,0.007 0.21453,0.11095 0.20781,0.23249 l -0.092,1.61103 c -0.007,0.12154 -0.11097,0.21453 -0.23281,0.2078 z"
       style="fill:none;stroke:#0e0f0e;stroke-width:0.30047;stroke-linecap:round;stroke-linejoin:miter;stroke-miterlimit:10;stroke-dasharray:none;stroke-opacity:1"
       id="path54297"
       inkscape:export-filename="/home/bolarinwa/Downloads/path54255.png"
       inkscape:export-xdpi="98.489998"
       inkscape:export-ydpi="98.489998" />
    <path
       d="m 102.61964,150.68308 -0.10521,-0.007 c -0.12153,-0.008 -0.2142,-0.11096 -0.20747,-0.23281 l 0.0917,-1.61073 c 0.008,-0.12152 0.11128,-0.21485 0.23314,-0.20779 l 0.10487,0.007 c 0.12186,0.007 0.21485,0.11129 0.20747,0.23281 l -0.0917,1.61104 c -0.007,0.12154 -0.11128,0.21421 -0.23281,0.20748 z"
       style="fill:none;stroke:#0e0f0e;stroke-width:0.30047;stroke-linecap:round;stroke-linejoin:miter;stroke-miterlimit:10;stroke-dasharray:none;stroke-opacity:1"
       id="path54301"
       inkscape:export-filename="/home/bolarinwa/Downloads/path54255.png"
       inkscape:export-xdpi="98.489998"
       inkscape:export-ydpi="98.489998" />
    <path
       d="m 102.00364,141.25894 c 0,0 -1.48054,2.29374 -3.497545,5.59406 -2.02534,3.31445 -5.09832,8.57503 -5.09832,8.57503 0,0 -0.56727,-1.45938 -0.48711,-4.20077 0.0802,-2.7414 0.63205,-7.53894 1.87753,-8.91333 0,0 6.673445,-5.20446 7.205435,-1.05499"
       style="fill:#ffffff;fill-opacity:1;fill-rule:nonzero;stroke:none;stroke-width:0.0320669"
       id="path54309"
       inkscape:export-filename="/home/bolarinwa/Downloads/path54255.png"
       inkscape:export-xdpi="98.489998"
       inkscape:export-ydpi="98.489998" />
    <path
       d="m 102.00364,141.25894 c 0,0 -1.48054,2.29374 -3.497545,5.59406 -2.02534,3.31445 -5.09832,8.57503 -5.09832,8.57503 0,0 -0.56727,-1.45938 -0.48711,-4.20077 0.0802,-2.7414 0.63205,-7.53894 1.87753,-8.91333 0,0 6.673445,-5.20446 7.205445,-1.05499 z"
       style="fill:none;stroke:#0e0f0e;stroke-width:0.30047;stroke-linecap:round;stroke-linejoin:round;stroke-miterlimit:10;stroke-dasharray:none;stroke-opacity:1"
       id="path54311"
       inkscape:export-filename="/home/bolarinwa/Downloads/path54255.png"
       inkscape:export-xdpi="98.489998"
       inkscape:export-ydpi="98.489998" />
    <path
       d="m 95.297795,146.13823 c 0,0 -0.62788,0.77024 -1.01493,1.72328 -0.42456,1.04602 -0.9575,3.2115 -0.94917,4.06256 0.0111,1.19032 -0.11288,2.30401 0.0741,3.50396 0,0 2.04748,-2.11353 2.74847,-4.52337 0.14333,-0.49191 0.21868,-1.7592 0.25813,-2.82765 0.0341,-0.92289 -0.21517,-1.66973 -0.21517,-1.66973 l -0.9014,-0.26905"
       style="fill:#859bb9;fill-opacity:1;fill-rule:nonzero;stroke:none;stroke-width:0.0320669"
       id="path54313"
       inkscape:export-filename="/home/bolarinwa/Downloads/path54255.png"
       inkscape:export-xdpi="98.489998"
       inkscape:export-ydpi="98.489998" />
    <path
       d="m 95.297795,146.13823 c 0,0 -0.62788,0.77024 -1.01493,1.72328 -0.42456,1.04602 -0.9575,3.2115 -0.94917,4.06256 0.0111,1.19032 -0.11288,2.30401 0.0741,3.50396 0,0 2.04748,-2.11353 2.74847,-4.52337 0.14333,-0.49191 0.21868,-1.7592 0.25813,-2.82765 0.0341,-0.92289 -0.21517,-1.66973 -0.21517,-1.66973 z"
       style="fill:none;stroke:#0e0f0e;stroke-width:0.30047;stroke-linecap:round;stroke-linejoin:round;stroke-miterlimit:10;stroke-dasharray:none;stroke-opacity:1"
       id="path54315"
       inkscape:export-filename="/home/bolarinwa/Downloads/path54255.png"
       inkscape:export-xdpi="98.489998"
       inkscape:export-ydpi="98.489998" />
    <path
       d="m 94.754255,144.78212 c 0,0 0.14303,0.93924 0.52078,1.54724 0,0 0.1831,0.16001 0.70483,0.1398 0.52141,-0.0202 1.03801,-0.38319 1.75118,-1.40998 0,0 -0.57207,-1.41351 -1.20861,-2.04235 0,0 -1.69987,1.32084 -1.76818,1.76529"
       style="fill:#859bb9;fill-opacity:1;fill-rule:nonzero;stroke:none;stroke-width:0.0320669"
       id="path54319"
       inkscape:export-filename="/home/bolarinwa/Downloads/path54255.png"
       inkscape:export-xdpi="98.489998"
       inkscape:export-ydpi="98.489998" />
    <path
       d="m 94.754255,144.78212 c 0,0 0.14303,0.93924 0.52078,1.54724 0,0 0.1831,0.16001 0.70483,0.1398 0.52141,-0.0202 1.03801,-0.38319 1.75118,-1.40998 0,0 -0.57207,-1.41351 -1.20861,-2.04235 0,0 -1.69987,1.32084 -1.76818,1.76529 z"
       style="fill:none;stroke:#0e0f0e;stroke-width:0.30047;stroke-linecap:round;stroke-linejoin:round;stroke-miterlimit:10;stroke-dasharray:none;stroke-opacity:1"
       id="path54321"
       inkscape:export-filename="/home/bolarinwa/Downloads/path54255.png"
       inkscape:export-xdpi="98.489998"
       inkscape:export-ydpi="98.489998" />
    <path
       d="m 96.443555,141.07935 -2.56922,1.36509 -0.45181,0.82989 -1.30994,1.26313 c 0,0 -0.60221,4.22898 1.22816,11.01274 0,0 0.0539,-2.8469 0.16579,-7.32602 0.051,-2.04746 0.47139,-3.31219 0.83245,-4.23924 0.20556,-0.52718 1.32021,-2.01251 2.10457,-2.90559"
       style="fill:#ffffff;fill-opacity:1;fill-rule:nonzero;stroke:none;stroke-width:0.0320669"
       id="path54323"
       inkscape:export-filename="/home/bolarinwa/Downloads/path54255.png"
       inkscape:export-xdpi="98.489998"
       inkscape:export-ydpi="98.489998" />
    <path
       d="m 96.443555,141.07935 -2.56922,1.36509 -0.45181,0.82989 -1.30994,1.26313 c 0,0 -0.60221,4.22898 1.22816,11.01274 0,0 0.0539,-2.8469 0.16579,-7.32602 0.051,-2.04746 0.47139,-3.31219 0.83245,-4.23924 0.20556,-0.52718 1.32021,-2.01251 2.10457,-2.90559 z"
       style="fill:none;stroke:#0e0f0e;stroke-width:0.30047;stroke-linecap:round;stroke-linejoin:round;stroke-miterlimit:10;stroke-dasharray:none;stroke-opacity:1"
       id="path54325"
       inkscape:export-filename="/home/bolarinwa/Downloads/path54255.png"
       inkscape:export-xdpi="98.489998"
       inkscape:export-ydpi="98.489998" />
    <path
       d="m 96.040475,136.80451 c 0.14206,1.01364 0.13595,2.19466 0.14975,3.18489 0.008,0.59421 0.0292,0.9123 0.0584,1.49079 0.011,0.20395 0.37518,1.03673 0.37518,1.03673 0,0 0.51403,-0.14559 2.29375,-0.94534 1.656245,-0.74426 2.111615,-1.26664 2.111615,-1.26664 -0.0962,-0.20459 -0.022,-2.21005 0.0757,-3.98207 l -5.064325,0.48164"
       style="fill:#efdac9;fill-opacity:1;fill-rule:nonzero;stroke:none;stroke-width:0.0320669"
       id="path54343"
       inkscape:export-filename="/home/bolarinwa/Downloads/path54255.png"
       inkscape:export-xdpi="98.489998"
       inkscape:export-ydpi="98.489998" />
    <path
       d="m 96.040475,136.80451 c 0.14206,1.01364 0.13595,2.19466 0.14975,3.18489 0.008,0.59421 0.0292,0.9123 0.0584,1.49079 0.011,0.20395 0.37518,1.03673 0.37518,1.03673 0,0 0.51403,-0.14559 2.29375,-0.94534 1.656245,-0.74426 2.111615,-1.26664 2.111615,-1.26664 -0.0962,-0.20459 -0.022,-2.21005 0.0757,-3.98207 z"
       style="fill:none;stroke:#0e0f0e;stroke-width:0.30047;stroke-linecap:round;stroke-linejoin:round;stroke-miterlimit:10;stroke-dasharray:none;stroke-opacity:1"
       id="path54345"
       inkscape:export-filename="/home/bolarinwa/Downloads/path54255.png"
       inkscape:export-xdpi="98.489998"
       inkscape:export-ydpi="98.489998" />
    <path
       d="m 102.00364,140.68942 c 0,0 0.13468,-0.0235 0.86228,0.28861 0.67628,0.29021 1.26824,0.77666 1.26824,0.77666 0,0 -1.26984,1.45776 -2.30145,2.0959 -0.21709,0.13403 1.18905,0.92128 1.18905,0.92128 -4.274525,5.55623 -3.870145,6.11579 -10.456705,11.55883 0,0 4.34411,-8.98483 6.72604,-12.53591 0.15808,-0.23602 2.627875,-2.89629 2.712535,-3.10537"
       style="fill:#ffffff;fill-opacity:1;fill-rule:nonzero;stroke:none;stroke-width:0.0320669"
       id="path54347"
       inkscape:export-filename="/home/bolarinwa/Downloads/path54255.png"
       inkscape:export-xdpi="98.489998"
       inkscape:export-ydpi="98.489998" />
    <path
       d="m 102.00364,140.68942 c 0,0 0.13468,-0.0235 0.86228,0.28861 0.67628,0.29021 1.26824,0.77666 1.26824,0.77666 0,0 -1.26984,1.45776 -2.30145,2.0959 -0.21709,0.13403 1.18905,0.92128 1.18905,0.92128 -4.274525,5.55623 -3.870145,6.11579 -10.456705,11.55883 0,0 4.34411,-8.98483 6.72604,-12.53591 0.15808,-0.23602 2.627875,-2.89629 2.712545,-3.10537 z"
       style="fill:none;stroke:#0e0f0e;stroke-width:0.30047;stroke-linecap:round;stroke-linejoin:round;stroke-miterlimit:10;stroke-dasharray:none;stroke-opacity:1"
       id="path54349"
       inkscape:export-filename="/home/bolarinwa/Downloads/path54255.png"
       inkscape:export-xdpi="98.489998"
       inkscape:export-ydpi="98.489998" />
    <path
       d="m 101.84524,134.6307 c -0.24726,0.74203 -0.7661,2.03048 -0.0811,2.25847 0.68431,0.228 1.42281,-0.0567 2.08307,-1.49432 0.32644,-0.71092 0.0478,-1.65498 -0.63685,-1.88329 -0.68431,-0.22799 -1.11818,0.37711 -1.36509,1.11914"
       style="fill:#efdac9;fill-opacity:1;fill-rule:nonzero;stroke:none;stroke-width:0.0320669"
       id="path54385"
       inkscape:export-filename="/home/bolarinwa/Downloads/path54255.png"
       inkscape:export-xdpi="98.489998"
       inkscape:export-ydpi="98.489998" />
    <path
       d="m 101.84524,134.6307 c -0.24726,0.74203 -0.7661,2.03048 -0.0811,2.25847 0.68431,0.228 1.42281,-0.0567 2.08307,-1.49432 0.32644,-0.71092 0.0478,-1.65498 -0.63685,-1.88329 -0.68431,-0.22799 -1.11818,0.37711 -1.36509,1.11914 z"
       style="fill:none;stroke:#0e0f0e;stroke-width:0.30047;stroke-linecap:round;stroke-linejoin:round;stroke-miterlimit:10;stroke-dasharray:none;stroke-opacity:1"
       id="path54387"
       inkscape:export-filename="/home/bolarinwa/Downloads/path54255.png"
       inkscape:export-xdpi="98.489998"
       inkscape:export-ydpi="98.489998" />
    <path
       d="m 98.018045,126.69285 c -1.82237,-0.0292 -3.74223,1.07424 -4.34156,4.03049 0,0 -1.4196,8.09209 3.20702,9.41165 0,0 3.278215,0.81449 4.865525,-3.07939 0,0 0.99439,-3.10825 1.04153,-5.80283 0.026,-1.47476 -0.78436,-4.49579 -4.772515,-4.55992"
       style="fill:#efdac9;fill-opacity:1;fill-rule:nonzero;stroke:none;stroke-width:0.0320669"
       id="path54389"
       inkscape:export-filename="/home/bolarinwa/Downloads/path54255.png"
       inkscape:export-xdpi="98.489998"
       inkscape:export-ydpi="98.489998" />
    <path
       d="m 93.441765,133.15947 c 0,0 -0.44959,5.85734 3.4751,7.08263"
       style="fill:none;stroke:#0e0f0e;stroke-width:0.30047;stroke-linecap:round;stroke-linejoin:round;stroke-miterlimit:10;stroke-dasharray:none;stroke-opacity:1"
       id="path54391"
       inkscape:export-filename="/home/bolarinwa/Downloads/path54255.png"
       inkscape:export-xdpi="98.489998"
       inkscape:export-ydpi="98.489998" />
    <path
       d="m 101.93886,136.40753 c 0,0 -0.12475,0.89338 -1.21535,2.37263"
       style="fill:none;stroke:#0e0f0e;stroke-width:0.30047;stroke-linecap:round;stroke-linejoin:round;stroke-miterlimit:10;stroke-dasharray:none;stroke-opacity:1"
       id="path54395"
       inkscape:export-filename="/home/bolarinwa/Downloads/path54255.png"
       inkscape:export-xdpi="98.489998"
       inkscape:export-ydpi="98.489998" />
    <path
       d="m 99.543155,134.25918 c -0.004,0.25268 -0.19657,0.45439 -0.42938,0.45087 -0.23345,-0.003 -0.41911,-0.21165 -0.41494,-0.46433 0.004,-0.25269 0.19625,-0.45472 0.42938,-0.45118 0.23311,0.003 0.41878,0.21195 0.41494,0.46464"
       style="fill:#0e0f0e;fill-opacity:1;fill-rule:nonzero;stroke:none;stroke-width:0.0320669"
       id="path54397"
       inkscape:export-filename="/home/bolarinwa/Downloads/path54255.png"
       inkscape:export-xdpi="98.489998"
       inkscape:export-ydpi="98.489998" />
    <path
       d="m 95.843255,134.26248 c -0.004,0.25269 -0.19626,0.45471 -0.42971,0.45085 -0.23281,-0.003 -0.41879,-0.21164 -0.41463,-0.46432 0.004,-0.2527 0.19626,-0.45471 0.42939,-0.45086 0.23345,0.003 0.41911,0.21164 0.41495,0.46433"
       style="fill:#0e0f0e;fill-opacity:1;fill-rule:nonzero;stroke:none;stroke-width:0.0320669"
       id="path54399"
       inkscape:export-filename="/home/bolarinwa/Downloads/path54255.png"
       inkscape:export-xdpi="98.489998"
       inkscape:export-ydpi="98.489998" />
    <path
       d="m 94.633105,133.04759 c 0,0 0.52014,-0.6981 1.59213,-0.23602"
       style="fill:none;stroke:#0e0f0e;stroke-width:0.30047;stroke-linecap:round;stroke-linejoin:round;stroke-miterlimit:10;stroke-dasharray:none;stroke-opacity:1"
       id="path54401"
       inkscape:export-filename="/home/bolarinwa/Downloads/path54255.png"
       inkscape:export-xdpi="98.489998"
       inkscape:export-ydpi="98.489998" />
    <path
       d="m 99.963535,133.04504 c 0,0 -0.64646,-0.71253 -1.54049,-0.21678"
       style="fill:none;stroke:#0e0f0e;stroke-width:0.30047;stroke-linecap:round;stroke-linejoin:round;stroke-miterlimit:10;stroke-dasharray:none;stroke-opacity:1"
       id="path54403"
       inkscape:export-filename="/home/bolarinwa/Downloads/path54255.png"
       inkscape:export-xdpi="98.489998"
       inkscape:export-ydpi="98.489998" />
    <path
       d="m 96.883505,135.484 -0.38864,1.12074 0.2094,0.14558"
       style="fill:none;stroke:#0e0f0e;stroke-width:0.30047;stroke-linecap:round;stroke-linejoin:round;stroke-miterlimit:10;stroke-dasharray:none;stroke-opacity:1"
       id="path54405"
       inkscape:export-filename="/home/bolarinwa/Downloads/path54255.png"
       inkscape:export-xdpi="98.489998"
       inkscape:export-ydpi="98.489998" />
    <path
       d="m 104.35766,130.47002 c 0.28573,-1.98014 -1.24675,-6.33836 -4.869985,-5.0467 -0.57817,-0.48453 -4.14786,-1.38754 -5.89392,1.96346 -0.57175,0.73016 -0.83983,1.83198 -0.83983,3.12877 0,1.61393 0.26937,1.9317 0.68784,2.64392 0.045,0.076 2.86005,-2.27483 3.91602,-4.37971 1.13581,2.26008 5.130695,4.81742 5.203175,4.81742 0.74139,9.1e-4 1.56679,-1.52991 1.7967,-3.12716"
       style="fill:#4e545d;fill-opacity:1;fill-rule:nonzero;stroke:none;stroke-width:0.0320669"
       id="path54407"
       inkscape:export-filename="/home/bolarinwa/Downloads/path54255.png"
       inkscape:export-xdpi="98.489998"
       inkscape:export-ydpi="98.489998" />
    <path
       d="m 104.35766,130.47002 c 0.28573,-1.98014 -1.24675,-6.33836 -4.869985,-5.0467 -0.57817,-0.48453 -4.14786,-1.38754 -5.89392,1.96346 -0.57175,0.73016 -0.83983,1.83198 -0.83983,3.12877 0,1.61393 0.26937,1.9317 0.68784,2.64392 0.045,0.076 2.86005,-2.27483 3.91602,-4.37971 1.13581,2.26008 5.130695,4.81742 5.203175,4.81742 0.74139,9.1e-4 1.56679,-1.52991 1.7967,-3.12716 z"
       style="fill:none;stroke:#0e0f0e;stroke-width:0.30047;stroke-linecap:round;stroke-linejoin:round;stroke-miterlimit:10;stroke-dasharray:none;stroke-opacity:1"
       id="path54409"
       inkscape:export-filename="/home/bolarinwa/Downloads/path54255.png"
       inkscape:export-xdpi="98.489998"
       inkscape:export-ydpi="98.489998" />
    <path
       d="m 95.564275,129.24377 c 0,0 -0.54995,0.26392 -0.78405,1.27178"
       style="fill:none;stroke:#0e0f0e;stroke-width:0.30047;stroke-linecap:round;stroke-linejoin:round;stroke-miterlimit:10;stroke-dasharray:none;stroke-opacity:1"
       id="path54411"
       inkscape:export-filename="/home/bolarinwa/Downloads/path54255.png"
       inkscape:export-xdpi="98.489998"
       inkscape:export-ydpi="98.489998" />
    <path
       d="m 94.303085,129.28033 c 0,0 -0.68496,0.5631 -0.82572,1.75951"
       style="fill:none;stroke:#0e0f0e;stroke-width:0.30047;stroke-linecap:round;stroke-linejoin:round;stroke-miterlimit:10;stroke-dasharray:none;stroke-opacity:1"
       id="path54413"
       inkscape:export-filename="/home/bolarinwa/Downloads/path54255.png"
       inkscape:export-xdpi="98.489998"
       inkscape:export-ydpi="98.489998" />
    <path
       d="m 100.35091,129.38712 c 0,0 0.8671,0.77313 0.8764,1.79639"
       style="fill:none;stroke:#0e0f0e;stroke-width:0.30047;stroke-linecap:round;stroke-linejoin:round;stroke-miterlimit:10;stroke-dasharray:none;stroke-opacity:1"
       id="path54415"
       inkscape:export-filename="/home/bolarinwa/Downloads/path54255.png"
       inkscape:export-xdpi="98.489998"
       inkscape:export-ydpi="98.489998" />
    <path
       d="m 101.88531,129.42398 c 0,0 1.05211,0.86133 0.81803,2.12508"
       style="fill:none;stroke:#0e0f0e;stroke-width:0.30047;stroke-linecap:round;stroke-linejoin:round;stroke-miterlimit:10;stroke-dasharray:none;stroke-opacity:1"
       id="path54417"
       inkscape:export-filename="/home/bolarinwa/Downloads/path54255.png"
       inkscape:export-xdpi="98.489998"
       inkscape:export-ydpi="98.489998" />
    <path
       d="m 98.194405,137.59401 c -1.02229,1.67452 -1.9362,0.01 -1.9362,0.01 l 1.9362,-0.01"
       style="fill:#ffffff;fill-opacity:1;fill-rule:nonzero;stroke:none;stroke-width:0.0320669"
       id="path54419"
       inkscape:export-filename="/home/bolarinwa/Downloads/path54255.png"
       inkscape:export-xdpi="98.489998"
       inkscape:export-ydpi="98.489998" />
    <path
       d="m 98.194405,137.59401 c -1.02229,1.67452 -1.9362,0.01 -1.9362,0.01 z"
       style="fill:none;stroke:#0e0f0e;stroke-width:0.225352;stroke-linecap:round;stroke-linejoin:round;stroke-miterlimit:10;stroke-dasharray:none;stroke-opacity:1"
       id="path54421"
       inkscape:export-filename="/home/bolarinwa/Downloads/path54255.png"
       inkscape:export-xdpi="98.489998"
       inkscape:export-ydpi="98.489998" />
    <path
       d="m 103.13464,133.29511 -2.13919,0.46882"
       style="fill:none;stroke:#0e0f0e;stroke-width:0.30047;stroke-linecap:round;stroke-linejoin:round;stroke-miterlimit:10;stroke-dasharray:none;stroke-opacity:1"
       id="path54423"
       inkscape:export-filename="/home/bolarinwa/Downloads/path54255.png"
       inkscape:export-xdpi="98.489998"
       inkscape:export-ydpi="98.489998" />
    <path
       d="m 96.654235,134.0474 c 0,0 0.53969,-0.23505 0.97868,0.0148"
       style="fill:none;stroke:#0e0f0e;stroke-width:0.30047;stroke-linecap:round;stroke-linejoin:round;stroke-miterlimit:10;stroke-dasharray:none;stroke-opacity:1"
       id="path54425"
       inkscape:export-filename="/home/bolarinwa/Downloads/path54255.png"
       inkscape:export-xdpi="98.489998"
       inkscape:export-ydpi="98.489998" />
    <path
       d="m 93.597605,133.99032 c -0.0215,0.23088 0.0663,0.41174 -0.0863,0.39987 -0.15199,-0.0116 -0.43034,-0.22671 -0.40917,-0.45727 0.0211,-0.23056 0.33349,-0.38961 0.48613,-0.37807 0.152,0.0118 0.0302,0.20491 0.009,0.43547"
       style="fill:#0e0f0e;fill-opacity:1;fill-rule:nonzero;stroke:none;stroke-width:0.0320669"
       id="path54427"
       inkscape:export-filename="/home/bolarinwa/Downloads/path54255.png"
       inkscape:export-xdpi="98.489998"
       inkscape:export-ydpi="98.489998" />
    <path
       d="m 100.66678,133.99032 c 0.0212,0.23088 -0.0663,0.41174 0.0859,0.39987 0.15231,-0.0116 0.43032,-0.22671 0.40948,-0.45727 -0.0215,-0.23056 -0.3335,-0.38961 -0.48614,-0.37807 -0.15231,0.0118 -0.0304,0.20491 -0.009,0.43547"
       style="fill:#0e0f0e;fill-opacity:1;fill-rule:nonzero;stroke:none;stroke-width:0.0320669"
       id="path54429"
       inkscape:export-filename="/home/bolarinwa/Downloads/path54255.png"
       inkscape:export-xdpi="98.489998"
       inkscape:export-ydpi="98.489998" />
    <path
       d="m 93.953555,135.14569 h 2.20525 c 0.22447,0 0.4066,-0.18182 0.4066,-0.40628 v -0.78628 c 0,-0.22448 -0.18213,-0.4063 -0.4066,-0.4063 h -2.20525 c -0.22416,0 -0.40597,0.18182 -0.40597,0.4063 v 0.78628 c 0,0.22446 0.18181,0.40628 0.40597,0.40628 z"
       style="fill:none;stroke:#0e0f0e;stroke-width:0.30047;stroke-linecap:round;stroke-linejoin:round;stroke-miterlimit:10;stroke-dasharray:none;stroke-opacity:1"
       id="path54431"
       inkscape:export-filename="/home/bolarinwa/Downloads/path54255.png"
       inkscape:export-xdpi="98.489998"
       inkscape:export-ydpi="98.489998" />
    <path
       d="m 98.090835,135.14569 h 2.205245 c 0.22415,0 0.40596,-0.18182 0.40596,-0.40628 v -0.78628 c 0,-0.22448 -0.18181,-0.4063 -0.40596,-0.4063 h -2.205245 c -0.22447,0 -0.40629,0.18182 -0.40629,0.4063 v 0.78628 c 0,0.22446 0.18182,0.40628 0.40629,0.40628 z"
       style="fill:none;stroke:#0e0f0e;stroke-width:0.30047;stroke-linecap:round;stroke-linejoin:round;stroke-miterlimit:10;stroke-dasharray:none;stroke-opacity:1"
       id="path54433"
       inkscape:export-filename="/home/bolarinwa/Downloads/path54255.png"
       inkscape:export-xdpi="98.489998"
       inkscape:export-ydpi="98.489998" />
  </g>
</svg>
