<?xml version="1.0" encoding="UTF-8" standalone="no"?>
<!-- Created with Inkscape (http://www.inkscape.org/) -->

<svg
   width="44.647228mm"
   height="50.212231mm"
   viewBox="0 0 44.647228 50.212231"
   version="1.1"
   id="svg27041"
   inkscape:version="1.1.1 (eb90963e84, 2021-10-02)"
   sodipodi:docname="bob.svg"
   xmlns:inkscape="http://www.inkscape.org/namespaces/inkscape"
   xmlns:sodipodi="http://sodipodi.sourceforge.net/DTD/sodipodi-0.dtd"
   xmlns="http://www.w3.org/2000/svg"
   xmlns:svg="http://www.w3.org/2000/svg">
  <sodipodi:namedview
     id="namedview27043"
     pagecolor="#ffffff"
     bordercolor="#666666"
     borderopacity="1.0"
     inkscape:pageshadow="2"
     inkscape:pageopacity="0.0"
     inkscape:pagecheckerboard="0"
     inkscape:document-units="mm"
     showgrid="false"
     fit-margin-top="0"
     fit-margin-left="0"
     fit-margin-right="0"
     fit-margin-bottom="0"
     inkscape:zoom="1.894824"
     inkscape:cx="3.1665211"
     inkscape:cy="16.360359"
     inkscape:window-width="1920"
     inkscape:window-height="1013"
     inkscape:window-x="0"
     inkscape:window-y="30"
     inkscape:window-maximized="1"
     inkscape:current-layer="layer1" />
  <defs
     id="defs27038">
    <clipPath
       clipPathUnits="userSpaceOnUse"
       id="clipPath33136">
      <path
         d="m 3173.53,8811.49 c -0.57,0 -1.13,0 -1.7,0.01 l -64.34,0.73 c -3.78,0.05 -7.53,0.23 -11.24,0.56 -3.11,2.78 -7.27,4.17 -11.32,4.17 -2.38,0 -4.72,-0.48 -6.78,-1.45 -67.53,14.5 -118.2,75.25 -117.38,146.83 l 0.28,24.1 c 0.44,38.82 32.34,70.27 71.06,70.27 0.28,0 0.55,0 0.82,0 l 48.76,-0.56 c -0.03,-1.74 -0.03,-3.5 0.01,-5.27 1.09,-45.44 28.01,-81.74 60.36,-81.74 0.35,0 0.7,0 1.04,0.01 32.81,0.78 58.52,38.65 57.43,84.57 -0.01,0.36 -0.02,0.72 -0.03,1.07 l 51.44,-0.58 c 32.88,-0.38 60.48,-23.33 68.15,-53.88 -0.49,-1.38 -0.96,-2.78 -1.42,-4.18 -8.17,-24.84 -11.67,-49.77 -10.99,-73.34 -7.44,4.68 -16.22,7.39 -25.57,7.39 -0.38,0 -0.77,0 -1.16,-0.01 l -65.85,-1.57 c -26.5,-0.64 -47.66,-22.84 -47.03,-49.34 0.63,-26.12 22.19,-47.05 48.17,-47.05 0.39,0 0.78,0.01 1.17,0.02 l 32.87,0.78 c -22.45,-13.66 -48.75,-21.54 -76.75,-21.54"
         id="path33134" />
    </clipPath>
  </defs>
  <g
     inkscape:label="Layer 1"
     inkscape:groupmode="layer"
     id="layer1"
     transform="translate(-89.058133,-146.26368)">
    <path
       d="m 102.11836,151.01314 c 0,0 -7.453438,3.26562 -2.911448,13.08937 l 1.413788,2.52877 c 0,0 0.18299,-10.65771 1.49766,-15.61814"
       style="fill:#f9f6f2;fill-opacity:1;fill-rule:nonzero;stroke:none;stroke-width:0.0181535"
       id="path32004"
       inkscape:export-filename="/home/bolarinwa/Downloads/case1-title.png"
       inkscape:export-xdpi="98.489998"
       inkscape:export-ydpi="98.489998" />
    <path
       d="m 118.01007,151.12806 c 0,0 7.14048,1.86599 4.21832,12.28679 l -1.89613,1.84929 c 0,0 -0.23545,-9.44796 -2.32219,-14.13608"
       style="fill:#f9f6f2;fill-opacity:1;fill-rule:nonzero;stroke:none;stroke-width:0.0181535"
       id="path32006"
       inkscape:export-filename="/home/bolarinwa/Downloads/case1-title.png"
       inkscape:export-xdpi="98.489998"
       inkscape:export-ydpi="98.489998" />
    <path
       d="m 105.36946,177.23754 c 1.1286,-0.7487 5.29355,-1.90867 5.68875,-1.75154 0.38903,-0.17275 3.38144,1.16291 4.53818,1.8664 0.38921,0.23669 0.6597,0.3352 1.07105,0.56289 7.0272,3.88846 16.90794,6.58423 17.03792,12.93545 0,0 -0.0494,4.82018 -3.7033,4.8924 l -18.50998,0.36589 -18.509988,0.36608 c -3.65392,0.0723 -3.88919,-4.74228 -3.88919,-4.74228 -0.86919,-4.6965 14.833548,-10.58314 16.276558,-14.49529"
       style="fill:#ddd3cc;fill-opacity:1;fill-rule:nonzero;stroke:none;stroke-width:0.0182651"
       id="path32038"
       inkscape:export-filename="/home/bolarinwa/Downloads/case1-title.png"
       inkscape:export-xdpi="98.489998"
       inkscape:export-ydpi="98.489998" />
    <path
       d="m 110.87413,185.66263 h -0.31932 c -2.1176,0 -3.85016,-1.73257 -3.85016,-3.85017 v -6.44955 c 0,-2.1176 1.73256,-3.85017 3.85016,-3.85017 h 0.31932 c 2.1176,0 3.85017,1.73257 3.85017,3.85017 v 6.44955 c 0,2.1176 -1.73257,3.85017 -3.85017,3.85017"
       style="fill:#ffaa82;fill-opacity:1;fill-rule:nonzero;stroke:none;stroke-width:0.0181535"
       id="path32040"
       inkscape:export-filename="/home/bolarinwa/Downloads/case1-title.png"
       inkscape:export-xdpi="98.489998"
       inkscape:export-ydpi="98.489998" />
    <path
       d="m 111.05894,176.67958 -0.16883,0.004 c -5.12417,0.12239 -9.41837,-4.03439 -9.54273,-9.23754 l -0.29971,-12.54228 c -0.10765,-4.49716 1.95277,-4.483 6.75036,-4.46902 0.75319,0.002 1.57391,0.004 2.46433,-0.0109 l 0.16883,-0.004 c 5.12417,-0.12254 9.59646,-0.25633 9.72081,4.94681 l -0.003,11.63001 c 0.12435,5.20313 -3.96617,9.56052 -9.09034,9.68287"
       style="fill:#ffaa82;fill-opacity:1;fill-rule:nonzero;stroke:none;stroke-width:0.0181535"
       id="path32044"
       inkscape:export-filename="/home/bolarinwa/Downloads/case1-title.png"
       inkscape:export-xdpi="98.489998"
       inkscape:export-ydpi="98.489998" />
    <path
       d="m 107.90677,169.41184 5.58164,-0.13342 c 0.50993,-0.0122 0.86066,0.50266 0.66787,0.97502 -0.42588,1.04364 -1.38239,2.53749 -3.37509,2.58523 -1.99289,0.0476 -3.01965,-1.3989 -3.4949,-2.42113 -0.21512,-0.46255 0.11055,-0.99354 0.62048,-1.0057"
       style="fill:#f9f6f2;fill-opacity:1;fill-rule:nonzero;stroke:none;stroke-width:0.0181535"
       id="path32046"
       inkscape:export-filename="/home/bolarinwa/Downloads/case1-title.png"
       inkscape:export-xdpi="98.489998"
       inkscape:export-ydpi="98.489998" />
    <path
       d="m 123.18235,166.58553 c -0.5377,1.63472 -1.9878,2.62644 -3.23893,2.2149 -1.25114,-0.41153 -1.82951,-2.0704 -1.2918,-3.70511 0.53752,-1.63472 1.98762,-2.62627 3.23875,-2.21473 1.25132,0.41154 1.82969,2.07023 1.29198,3.70494"
       style="fill:#ffaa82;fill-opacity:1;fill-rule:nonzero;stroke:none;stroke-width:0.0181535"
       id="path32048"
       inkscape:export-filename="/home/bolarinwa/Downloads/case1-title.png"
       inkscape:export-xdpi="98.489998"
       inkscape:export-ydpi="98.489998" />
    <path
       d="m 102.64536,165.12345 c 0.67912,1.58116 0.24888,3.28433 -0.96123,3.80424 -1.21011,0.51991 -2.741898,-0.34038 -3.421198,-1.92136 -0.6793,-1.58116 -0.24888,-3.28432 0.96123,-3.80424 1.210108,-0.51992 2.741888,0.34038 3.421198,1.92136"
       style="fill:#ffaa82;fill-opacity:1;fill-rule:nonzero;stroke:none;stroke-width:0.0181535"
       id="path32050"
       inkscape:export-filename="/home/bolarinwa/Downloads/case1-title.png"
       inkscape:export-xdpi="98.489998"
       inkscape:export-ydpi="98.489998" />
    <path
       d="m 116.50697,164.05022 c 0.0198,0.83361 -0.44694,1.52107 -1.04256,1.53524 -0.59561,0.0144 -1.09465,-0.65008 -1.11462,-1.48369 -0.02,-0.83378 0.44676,-1.52125 1.04237,-1.53542 0.5958,-0.0144 1.09484,0.65009 1.11481,1.48387"
       style="fill:#2d2222;fill-opacity:1;fill-rule:nonzero;stroke:none;stroke-width:0.0181535"
       id="path32052"
       inkscape:export-filename="/home/bolarinwa/Downloads/case1-title.png"
       inkscape:export-xdpi="98.489998"
       inkscape:export-ydpi="98.489998" />
    <path
       d="m 106.74676,164.2835 c 0.02,0.8336 -0.44675,1.52107 -1.04237,1.53523 -0.59579,0.0144 -1.09483,-0.65008 -1.1148,-1.48368 -0.0198,-0.83379 0.44694,-1.52126 1.04255,-1.53542 0.59562,-0.0144 1.09466,0.65008 1.11462,1.48387"
       style="fill:#2d2222;fill-opacity:1;fill-rule:nonzero;stroke:none;stroke-width:0.0181535"
       id="path32054"
       inkscape:export-filename="/home/bolarinwa/Downloads/case1-title.png"
       inkscape:export-xdpi="98.489998"
       inkscape:export-ydpi="98.489998" />
    <path
       d="m 104.58033,168.65593 -1.1954,0.0287 c -0.48107,0.0115 -0.88407,-0.37269 -0.89551,-0.85376 -0.0116,-0.48124 0.37269,-0.88425 0.85376,-0.89568 l 1.1954,-0.0285 c 0.48107,-0.0114 0.88407,0.37269 0.89569,0.85376 0.0114,0.48106 -0.37287,0.88407 -0.85394,0.89551"
       style="fill:#ea8a6c;fill-opacity:1;fill-rule:nonzero;stroke:none;stroke-width:0.0181535"
       id="path32056"
       inkscape:export-filename="/home/bolarinwa/Downloads/case1-title.png"
       inkscape:export-xdpi="98.489998"
       inkscape:export-ydpi="98.489998" />
    <path
       d="m 118.0088,168.04216 -1.1954,0.0285 c -0.48107,0.0116 -0.88408,-0.3727 -0.89569,-0.85376 -0.0114,-0.48107 0.37269,-0.88407 0.85375,-0.89569 l 1.19541,-0.0285 c 0.48106,-0.0114 0.88407,0.37269 0.89569,0.85377 0.0114,0.48105 -0.37269,0.88406 -0.85376,0.89568"
       style="fill:#ea8a6c;fill-opacity:1;fill-rule:nonzero;stroke:none;stroke-width:0.0181535"
       id="path32058"
       inkscape:export-filename="/home/bolarinwa/Downloads/case1-title.png"
       inkscape:export-xdpi="98.489998"
       inkscape:export-ydpi="98.489998" />
    <path
       d="m 103.03039,161.78976 c 1.43757,-0.34456 2.73119,-0.40919 4.15841,-0.1859 l -0.004,-1.3194 c -1.46553,-0.30461 -2.89838,-0.23962 -4.29764,0.20859 l 0.14341,1.29671"
       style="fill:#f9f6f2;fill-opacity:1;fill-rule:nonzero;stroke:none;stroke-width:0.0181535"
       id="path32060"
       inkscape:export-filename="/home/bolarinwa/Downloads/case1-title.png"
       inkscape:export-xdpi="98.489998"
       inkscape:export-ydpi="98.489998" />
    <path
       d="m 113.24552,161.45464 c 1.45808,-0.27739 2.75805,-0.28192 4.17747,0.007 l 0.0617,-1.31848 c -1.45373,-0.37251 -2.8933,-0.37433 -4.31816,0.009 l 0.079,1.30233"
       style="fill:#f9f6f2;fill-opacity:1;fill-rule:nonzero;stroke:none;stroke-width:0.0181535"
       id="path32062"
       inkscape:export-filename="/home/bolarinwa/Downloads/case1-title.png"
       inkscape:export-xdpi="98.489998"
       inkscape:export-ydpi="98.489998" />
    <path
       d="m 120.49728,166.45537 1.4461,-9.34303 -2.12232,-4.99238 -0.26105,14.19671 c 0.009,0.49796 0.77643,0.61141 0.93727,0.1387"
       style="fill:#f9f6f2;fill-opacity:1;fill-rule:nonzero;stroke:none;stroke-width:0.0181535"
       id="path32064"
       inkscape:export-filename="/home/bolarinwa/Downloads/case1-title.png"
       inkscape:export-xdpi="98.489998"
       inkscape:export-ydpi="98.489998" />
    <path
       d="m 101.18854,167.22344 -1.634348,-13.10678 2.564168,-3.34024 -0.007,16.23172 c 0.0316,0.49704 -0.72341,0.67332 -0.92274,0.2153"
       style="fill:#f9f6f2;fill-opacity:1;fill-rule:nonzero;stroke:none;stroke-width:0.0181535"
       id="path32066"
       inkscape:export-filename="/home/bolarinwa/Downloads/case1-title.png"
       inkscape:export-xdpi="98.489998"
       inkscape:export-ydpi="98.489998" />
    <path
       d="m 112.56749,185.26707 2.88331,-8.27797 4.37026,2.48629 -1.85256,5.00509 -3.09244,-0.52845 -2.30857,1.31504"
       style="fill:#f9f6f2;fill-opacity:1;fill-rule:nonzero;stroke:none;stroke-width:0.0181535"
       id="path32068"
       inkscape:export-filename="/home/bolarinwa/Downloads/case1-title.png"
       inkscape:export-xdpi="98.489998"
       inkscape:export-ydpi="98.489998" />
    <path
       d="m 108.86092,185.26707 -3.11205,-8.27797 -3.71728,2.40097 1.85238,5.09041 2.38536,-0.50049 2.59159,1.28708"
       style="fill:#f9f6f2;fill-opacity:1;fill-rule:nonzero;stroke:none;stroke-width:0.0181535"
       id="path32070"
       inkscape:export-filename="/home/bolarinwa/Downloads/case1-title.png"
       inkscape:export-xdpi="98.489998"
       inkscape:export-ydpi="98.489998" />
    <path
       d="m 98.422862,156.53088 c 0.61559,-4.40493 16.110278,-11.07669 23.787918,-0.0621 0,0 0.98827,-10.16321 -11.89468,-10.20497 -13.095358,-0.0417 -11.893238,10.26706 -11.893238,10.26706"
       style="fill:#f9f6f2;fill-opacity:1;fill-rule:nonzero;stroke:none;stroke-width:0.0181535"
       id="path32102"
       inkscape:export-filename="/home/bolarinwa/Downloads/case1-title.png"
       inkscape:export-xdpi="98.489998"
       inkscape:export-ydpi="98.489998" />
    <path
       d="m 114.15846,168.60946 c 0.0394,0.47817 0.21911,0.8543 0.42333,1.28254 0.31134,0.65189 0.50921,1.29379 0.5742,2.01594 0.0312,0.34619 0.57619,0.34945 0.5446,0 -0.0501,-0.55695 -0.15194,-1.09883 -0.35036,-1.62383 -0.21058,-0.55712 -0.59743,-1.06923 -0.64717,-1.67465 -0.0285,-0.34691 -0.57329,-0.34982 -0.5446,0"
       style="fill:#ea8a6c;fill-opacity:1;fill-rule:nonzero;stroke:none;stroke-width:0.0181535"
       id="path32104"
       inkscape:export-filename="/home/bolarinwa/Downloads/case1-title.png"
       inkscape:export-xdpi="98.489998"
       inkscape:export-ydpi="98.489998" />
    <path
       d="m 107.08406,168.41922 c -0.2547,0.56493 -0.55042,1.12841 -0.73631,1.72075 -0.21021,0.66951 -0.20967,1.3724 -0.20114,2.06732 0.004,0.35018 0.54896,0.35127 0.54461,0 -0.008,-0.64807 -0.0138,-1.29634 0.18153,-1.92245 0.1701,-0.54514 0.44712,-1.07069 0.68148,-1.59079 0.14287,-0.31695 -0.3264,-0.59433 -0.47017,-0.27483"
       style="fill:#ea8a6c;fill-opacity:1;fill-rule:nonzero;stroke:none;stroke-width:0.0181535"
       id="path32106"
       inkscape:export-filename="/home/bolarinwa/Downloads/case1-title.png"
       inkscape:export-xdpi="98.489998"
       inkscape:export-ydpi="98.489998" />
    <path
       d="m 105.85216,158.35584 c 1.50692,-0.95414 3.11332,-0.4266 4.6462,0.13924 1.48985,0.54988 2.86915,-0.20549 4.26787,-0.71924 0.3264,-0.11981 0.18535,-0.64626 -0.14468,-0.52518 -0.80057,0.29409 -1.61529,0.67549 -2.44963,0.86011 -1.04781,0.23182 -1.91228,-0.36688 -2.88912,-0.6243 -1.26094,-0.33238 -2.58033,-0.31331 -3.70548,0.3992 -0.29536,0.18699 -0.0225,0.65842 0.27484,0.47017"
       style="fill:#ea8a6c;fill-opacity:1;fill-rule:nonzero;stroke:none;stroke-width:0.0181535"
       id="path32108"
       inkscape:export-filename="/home/bolarinwa/Downloads/case1-title.png"
       inkscape:export-xdpi="98.489998"
       inkscape:export-ydpi="98.489998" />
    <path
       d="m 105.37945,156.49748 c 0.86192,-0.16229 1.69262,-0.70508 2.58233,-0.63319 0.80238,0.065 1.43067,0.6577 2.18168,0.89768 1.60912,0.51393 3.18121,-0.32367 4.54054,-1.10808 0.30334,-0.17518 0.0294,-0.64608 -0.27503,-0.47036 -0.89877,0.51883 -1.84003,1.07977 -2.89729,1.17617 -1.04055,0.0951 -1.71514,-0.41263 -2.60992,-0.79912 -1.33954,-0.57855 -2.3545,0.16466 -3.66718,0.41172 -0.34401,0.0649 -0.19823,0.58981 0.14487,0.52518"
       style="fill:#ea8a6c;fill-opacity:1;fill-rule:nonzero;stroke:none;stroke-width:0.0181535"
       id="path32110"
       inkscape:export-filename="/home/bolarinwa/Downloads/case1-title.png"
       inkscape:export-xdpi="98.489998"
       inkscape:export-ydpi="98.489998" />
    <g
       id="g33130"
       transform="matrix(0.01815345,0,0,-0.01815345,58.40631,328.40647)"
       inkscape:export-filename="/home/bolarinwa/Downloads/case1-title.png"
       inkscape:export-xdpi="98.489998"
       inkscape:export-ydpi="98.489998">
      <g
         id="g33132"
         clip-path="url(#clipPath33136)">
        <path
           d="m 2959.95,8811.49 h 360.141 v 245.219 H 2959.95 Z"
           style="fill:#ffc5aa;fill-opacity:1;fill-rule:nonzero;stroke:none"
           id="path33138" />
      </g>
    </g>
    <path
       d="m 118.59371,166.53779 c -0.0432,-0.0418 -0.0908,-0.079 -0.1416,-0.1111 -0.0123,-0.42788 0.0512,-0.88044 0.19951,-1.33137 0.008,-0.0255 0.0169,-0.0509 0.0258,-0.0759 0.0263,0.10457 0.0396,0.21422 0.0383,0.32695 l -0.005,0.4375 c -0.003,0.26177 -0.0438,0.51482 -0.11709,0.75391"
       style="fill:#ffc5aa;fill-opacity:1;fill-rule:nonzero;stroke:none;stroke-width:0.0181535"
       id="path33140"
       inkscape:export-filename="/home/bolarinwa/Downloads/case1-title.png"
       inkscape:export-xdpi="98.489998"
       inkscape:export-ydpi="98.489998" />
    <path
       d="m 115.44553,165.58564 c -0.58726,0 -1.07595,-0.65897 -1.09574,-1.48387 -7.2e-4,-0.0321 -7.2e-4,-0.0641 -1.8e-4,-0.0957 l 2.15681,0.0247 c 1.8e-4,0.007 3.7e-4,0.0129 5.7e-4,0.0194 0.0198,0.8336 -0.44694,1.52107 -1.04255,1.53523 -0.006,1.8e-4 -0.0125,1.8e-4 -0.0189,1.8e-4"
       style="fill:#716969;fill-opacity:1;fill-rule:nonzero;stroke:none;stroke-width:0.0181535"
       id="path33142"
       inkscape:export-filename="/home/bolarinwa/Downloads/case1-title.png"
       inkscape:export-xdpi="98.489998"
       inkscape:export-ydpi="98.489998" />
    <path
       d="m 116.79216,168.07103 c -0.47163,0 -0.86302,-0.37996 -0.87445,-0.85413 -0.0114,-0.48106 0.37269,-0.88406 0.85375,-0.89568 l 1.19541,-0.0285 c 0.007,-1.8e-4 0.0142,-1.8e-4 0.0211,-1.8e-4 0.16973,0 0.32912,0.0492 0.46418,0.13415 0.0508,0.0321 0.0984,0.0694 0.1416,0.11111 -0.1957,0.63899 -0.62394,1.17797 -1.18361,1.51871 l -0.5967,0.0141 c -0.007,1.9e-4 -0.0142,3.7e-4 -0.0212,3.7e-4"
       style="fill:#f1b09b;fill-opacity:1;fill-rule:nonzero;stroke:none;stroke-width:0.0181535"
       id="path33144"
       inkscape:export-filename="/home/bolarinwa/Downloads/case1-title.png"
       inkscape:export-xdpi="98.489998"
       inkscape:export-ydpi="98.489998" />
    <path
       d="m 114.61393,168.42393 c -0.11165,-0.01 -0.2213,-0.0264 -0.32858,-0.0493 0.0374,-0.0176 0.0799,-0.0264 0.12308,-0.0264 0.0735,0 0.14904,0.0252 0.2055,0.0757"
       style="fill:#f1b09b;fill-opacity:1;fill-rule:nonzero;stroke:none;stroke-width:0.0181535"
       id="path33146"
       inkscape:export-filename="/home/bolarinwa/Downloads/case1-title.png"
       inkscape:export-xdpi="98.489998"
       inkscape:export-ydpi="98.489998" />
    <path
       d="m 113.74256,164.13354 c -0.74774,-0.009 -1.36151,0.41808 -1.36768,0.95088 l -0.0138,1.21664 c -0.0138,1.20376 1.35007,2.19858 3.04016,2.21782 1.69008,0.0194 3.0761,-0.94417 3.0899,-2.14793 l 0.0138,-1.21664 c 0.006,-0.5328 -0.59761,-0.97338 -1.3459,-0.98191 z m 1.65523,4.68904 c -1.92535,-0.022 -3.47874,-1.15529 -3.46313,-2.52642 l 0.014,-1.21664 c 0.008,-0.70036 0.81436,-1.26094 1.79737,-1.24968 l 3.41648,0.0391 c 0.98355,0.0111 1.77686,0.58998 1.76887,1.29034 l -0.0138,1.21664 c -0.0156,1.37114 -1.59442,2.46869 -3.51977,2.44673"
       style="fill:#603721;fill-opacity:1;fill-rule:nonzero;stroke:none;stroke-width:0.0181535"
       id="path33148"
       inkscape:export-filename="/home/bolarinwa/Downloads/case1-title.png"
       inkscape:export-xdpi="98.489998"
       inkscape:export-ydpi="98.489998" />
    <path
       d="m 106.64855,168.19665 c -0.0103,0 -0.0205,0 -0.0309,-1.9e-4 l -1.16799,-0.0134 c -0.0374,-3.6e-4 -0.0748,-0.002 -0.11182,-0.004 0.0648,-0.12579 0.0998,-0.26866 0.0964,-0.41915 -0.0114,-0.47417 -0.40301,-0.85412 -0.87482,-0.85412 -0.007,0 -0.014,1.8e-4 -0.0209,3.6e-4 l -1.1954,0.0285 c -0.0427,7.5e-4 -0.0844,0.005 -0.12526,0.0122 -0.1022,-0.15775 -0.18843,-0.32676 -0.25633,-0.50448 -0.0174,-0.3077 -0.075,-0.62502 -0.17554,-0.94145 0,-0.0144 0,-0.0288 1.8e-4,-0.0432 l 0.005,-0.43749 c 0.008,-0.70472 0.58708,-1.27564 1.29017,-1.27564 0.005,0 0.01,0 0.0147,1.8e-4 l 0.56257,0.006 c -0.0492,0.18026 -0.0741,0.37741 -0.0692,0.58346 0.0198,0.82489 0.50848,1.48386 1.09593,1.48386 0.006,0 0.0125,0 0.0189,-1.9e-4 0.59561,-0.0141 1.06234,-0.70163 1.04237,-1.53523 -0.004,-0.17918 -0.0307,-0.35055 -0.0753,-0.50903 l 1.40053,0.016 c 0.70962,0.008 1.28364,0.59543 1.27565,1.30506 l -0.005,0.43749 c -0.0167,1.47133 -1.22609,2.66366 -2.69397,2.66366"
       style="fill:#ffc5aa;fill-opacity:1;fill-rule:nonzero;stroke:none;stroke-width:0.0181535"
       id="path33150"
       inkscape:export-filename="/home/bolarinwa/Downloads/case1-title.png"
       inkscape:export-xdpi="98.489998"
       inkscape:export-ydpi="98.489998" />
    <path
       d="m 102.96159,166.44284 c -0.11201,-0.29336 -0.17391,-0.61086 -0.17554,-0.94143 0.10057,0.31641 0.15811,0.63373 0.17554,0.94143"
       style="fill:#ffc5aa;fill-opacity:1;fill-rule:nonzero;stroke:none;stroke-width:0.0181535"
       id="path33152"
       inkscape:export-filename="/home/bolarinwa/Downloads/case1-title.png"
       inkscape:export-xdpi="98.489998"
       inkscape:export-ydpi="98.489998" />
    <path
       d="m 105.68551,165.81891 c -0.58744,0 -1.07613,-0.65896 -1.09592,-1.48386 -0.005,-0.20604 0.02,-0.40319 0.0692,-0.58345 l 2.01267,0.0229 c 0.0447,0.15848 0.071,0.32985 0.0753,0.50902 0.02,0.83361 -0.44675,1.52107 -1.04237,1.53525 -0.006,1.7e-4 -0.0127,1.7e-4 -0.0189,1.7e-4"
       style="fill:#716969;fill-opacity:1;fill-rule:nonzero;stroke:none;stroke-width:0.0181535"
       id="path33154"
       inkscape:export-filename="/home/bolarinwa/Downloads/case1-title.png"
       inkscape:export-xdpi="98.489998"
       inkscape:export-ydpi="98.489998" />
    <path
       d="m 105.33788,168.17958 c -0.88807,-0.047 -1.66377,-0.52826 -2.11996,-1.23225 0.0408,-0.007 0.0826,-0.0111 0.12526,-0.0122 l 1.1954,-0.0285 c 0.007,-1.9e-4 0.014,-3.6e-4 0.0209,-3.6e-4 0.47181,0 0.86338,0.37994 0.87481,0.85411 0.004,0.15049 -0.0316,0.29336 -0.0964,0.41916"
       style="fill:#f1b09b;fill-opacity:1;fill-rule:nonzero;stroke:none;stroke-width:0.0181535"
       id="path33156"
       inkscape:export-filename="/home/bolarinwa/Downloads/case1-title.png"
       inkscape:export-xdpi="98.489998"
       inkscape:export-ydpi="98.489998" />
    <path
       d="m 111.90434,165.8623 -2.59994,-0.0295 c -0.2153,-0.002 -0.38939,-0.18063 -0.38703,-0.39593 0.002,-0.2153 0.18045,-0.38958 0.39593,-0.38704 l 2.60012,0.0295 c 0.21512,0.002 0.38939,0.18063 0.38685,0.39592 v 0 c -0.002,0.21531 -0.18045,0.38957 -0.39593,0.38704"
       style="fill:#603721;fill-opacity:1;fill-rule:nonzero;stroke:none;stroke-width:0.0181535"
       id="path33158"
       inkscape:export-filename="/home/bolarinwa/Downloads/case1-title.png"
       inkscape:export-xdpi="98.489998"
       inkscape:export-ydpi="98.489998" />
    <path
       d="m 104.16099,163.87213 c -0.74774,-0.009 -1.36151,0.41808 -1.3675,0.95088 l -0.014,1.21665 c -0.0138,1.20376 1.35007,2.19856 3.04016,2.21781 1.69008,0.0194 3.0761,-0.94417 3.0899,-2.14792 l 0.014,-1.21665 c 0.006,-0.53279 -0.5978,-0.97338 -1.34608,-0.98192 z m 1.65523,4.68905 c -1.92536,-0.022 -3.47875,-1.15529 -3.46313,-2.52642 l 0.014,-1.21665 c 0.008,-0.70036 0.81436,-1.26094 1.79737,-1.24968 l 3.41648,0.039 c 0.98355,0.0111 1.77686,0.58999 1.76887,1.29035 l -0.0138,1.21663 c -0.0156,1.37114 -1.59442,2.4687 -3.51977,2.44673"
       style="fill:#603721;fill-opacity:1;fill-rule:nonzero;stroke:none;stroke-width:0.0181535"
       id="path33160"
       inkscape:export-filename="/home/bolarinwa/Downloads/case1-title.png"
       inkscape:export-xdpi="98.489998"
       inkscape:export-ydpi="98.489998" />
    <path
       d="m 120.58677,165.96105 -1.75308,-0.02 c -0.0877,-7.5e-4 -0.15847,-0.0736 -0.15757,-0.16102 l 0.008,-0.72377 c 9.1e-4,-0.0875 0.0735,-0.15849 0.16102,-0.1574 l 1.75327,0.02 c 0.0875,7.5e-4 0.15847,0.0735 0.15738,0.16103 l -0.008,0.72377 c -9e-4,0.0875 -0.0733,0.15848 -0.16102,0.15739"
       style="fill:#603721;fill-opacity:1;fill-rule:nonzero;stroke:none;stroke-width:0.0181535"
       id="path33162"
       inkscape:export-filename="/home/bolarinwa/Downloads/case1-title.png"
       inkscape:export-xdpi="98.489998"
       inkscape:export-ydpi="98.489998" />
    <path
       d="m 102.74193,165.96105 -1.75307,-0.02 c -0.0877,-7.5e-4 -0.15849,-0.0736 -0.1574,-0.16102 l 0.008,-0.72377 c 10e-4,-0.0875 0.0735,-0.15849 0.16103,-0.1574 l 1.75326,0.02 c 0.0875,7.5e-4 0.15847,0.0735 0.15739,0.16103 l -0.008,0.72377 c -10e-4,0.0875 -0.0735,0.15848 -0.16121,0.15739"
       style="fill:#603721;fill-opacity:1;fill-rule:nonzero;stroke:none;stroke-width:0.0181535"
       id="path33164"
       inkscape:export-filename="/home/bolarinwa/Downloads/case1-title.png"
       inkscape:export-xdpi="98.489998"
       inkscape:export-ydpi="98.489998" />
  </g>
</svg>
