<?xml version="1.0" encoding="UTF-8" standalone="no"?>
<!-- Created with Inkscape (http://www.inkscape.org/) -->

<svg
   width="210mm"
   height="297mm"
   viewBox="0 0 210 297"
   version="1.1"
   id="svg54715"
   inkscape:version="1.1.1 (eb90963e84, 2021-10-02)"
   sodipodi:docname="case2-tile.svg"
   inkscape:export-filename="/home/bolarinwa/Downloads/case2-tile.png"
   inkscape:export-xdpi="98.489998"
   inkscape:export-ydpi="98.489998"
   xmlns:inkscape="http://www.inkscape.org/namespaces/inkscape"
   xmlns:sodipodi="http://sodipodi.sourceforge.net/DTD/sodipodi-0.dtd"
   xmlns="http://www.w3.org/2000/svg"
   xmlns:svg="http://www.w3.org/2000/svg">
  <sodipodi:namedview
     id="namedview54717"
     pagecolor="#ffffff"
     bordercolor="#666666"
     borderopacity="1.0"
     inkscape:pageshadow="2"
     inkscape:pageopacity="0.0"
     inkscape:pagecheckerboard="0"
     inkscape:document-units="mm"
     showgrid="false"
     inkscape:zoom="1.569781"
     inkscape:cx="281.24942"
     inkscape:cy="703.60132"
     inkscape:window-width="1920"
     inkscape:window-height="1017"
     inkscape:window-x="0"
     inkscape:window-y="30"
     inkscape:window-maximized="1"
     inkscape:current-layer="layer1" />
  <defs
     id="defs54712" />
  <g
     inkscape:label="Layer 1"
     inkscape:groupmode="layer"
     id="layer1">
    <path
       d="m 49.199572,172.60882 c -1.41676,-0.27376 -2.73579,0.0571 -2.88008,0.7687 -0.14428,0.71191 0.94051,1.53529 2.35762,1.80905 1.41675,0.2734 2.94534,-0.0258 3.08962,-0.73766 0.14464,-0.71156 -1.15005,-1.56634 -2.56716,-1.84009"
       style="fill:#ffffff;fill-opacity:1;fill-rule:nonzero;stroke:none;stroke-width:0.0352778"
       id="path54255" />
    <path
       d="m 49.199572,172.60882 c -1.41676,-0.27376 -2.73579,0.0571 -2.88008,0.7687 -0.14428,0.71191 0.94051,1.53529 2.35762,1.80905 1.41675,0.2734 2.94534,-0.0258 3.08962,-0.73766 0.14464,-0.71156 -1.15005,-1.56634 -2.56716,-1.84009 z"
       style="fill:none;stroke:#0e0f0e;stroke-width:0.330555;stroke-linecap:round;stroke-linejoin:round;stroke-miterlimit:10;stroke-dasharray:none;stroke-opacity:1"
       id="path54257" />
    <path
       d="m 46.908982,174.70961 0.56339,-2.81234 c -0.5334,-0.83926 -0.36477,-1.87325 0.0208,-2.88643 0.2861,-0.75248 0.72637,-1.12748 1.23155,-1.26224 0.0825,-0.38347 1.44674,-4.59458 2.10926,-4.33564 0.83185,0.32491 -0.52882,3.98321 -0.72567,4.40514 0.0727,-0.17216 0.14535,-0.31221 0.25824,-0.49354 0.46601,-0.7493 1.93075,-0.14887 1.12888,0.99836 -0.0455,0.0656 -0.0247,0.15275 -0.054,0.22366 0.36125,-0.13299 0.72214,-0.11253 0.93134,0.11042 0.19649,0.2092 0.19403,0.53375 0.0561,0.85372 0.18768,0.002 0.36054,0.0473 0.47695,0.1711 0.28575,0.3048 0.15593,0.87489 -0.28998,1.27353 -0.10866,0.097 -0.20708,0.67733 -0.61701,1.17792 -0.28187,0.34396 -0.89888,0.77612 -1.29222,0.94792 l -0.37889,1.85349 c 0,0 -0.94932,0.47414 -2.25813,0.24836 -1.30845,-0.22613 -1.16064,-0.47343 -1.16064,-0.47343"
       style="fill:#efdac9;fill-opacity:1;fill-rule:nonzero;stroke:none;stroke-width:0.0352778"
       id="path54259" />
    <path
       d="m 46.908982,174.70961 0.56339,-2.81234 c -0.5334,-0.83926 -0.36477,-1.87325 0.0208,-2.88643 0.2861,-0.75248 0.72637,-1.12748 1.23155,-1.26224 0.0825,-0.38347 1.44674,-4.59458 2.10926,-4.33564 0.83185,0.32491 -0.52882,3.98321 -0.72567,4.40514 0.0727,-0.17216 0.14535,-0.31221 0.25824,-0.49354 0.46601,-0.7493 1.93075,-0.14887 1.12888,0.99836 -0.0455,0.0656 -0.0247,0.15275 -0.054,0.22366 0.36125,-0.13299 0.72214,-0.11253 0.93134,0.11042 0.19649,0.2092 0.19403,0.53375 0.0561,0.85372 0.18768,0.002 0.36054,0.0473 0.47695,0.1711 0.28575,0.3048 0.15593,0.87489 -0.28998,1.27353 -0.10866,0.097 -0.20708,0.67733 -0.61701,1.17792 -0.28187,0.34396 -0.89888,0.77612 -1.29222,0.94792 l -0.37889,1.85349 c 0,0 -0.94932,0.47414 -2.25813,0.24836 -1.30845,-0.22613 -1.16064,-0.47343 -1.16064,-0.47343 z"
       style="fill:none;stroke:#0e0f0e;stroke-width:0.330555;stroke-linecap:round;stroke-linejoin:round;stroke-miterlimit:10;stroke-dasharray:none;stroke-opacity:1"
       id="path54261" />
    <path
       d="m 50.945822,173.58531 -0.30021,1.24671 c 0,0 -1.8916,0.81527 -3.82941,-0.6932 l 0.20391,-1.50037 c 0,0 1.04422,1.66476 3.92571,0.94686"
       style="fill:#ffffff;fill-opacity:1;fill-rule:nonzero;stroke:none;stroke-width:0.0352778"
       id="path54263" />
    <path
       d="m 50.945822,173.58531 -0.30021,1.24671 c 0,0 -1.8916,0.81527 -3.82941,-0.6932 l 0.20391,-1.50037 c 0,0 1.04422,1.66476 3.92571,0.94686 z"
       style="fill:none;stroke:#0e0f0e;stroke-width:0.330555;stroke-linecap:round;stroke-linejoin:round;stroke-miterlimit:10;stroke-dasharray:none;stroke-opacity:1"
       id="path54265" />
    <path
       d="m 52.344232,171.14797 c -0.79798,0.6036 -1.48202,-0.019 -1.2453,-0.48507 0.18379,-0.36231 0.48471,-0.63924 0.82303,-0.84808"
       style="fill:none;stroke:#0e0f0e;stroke-width:0.330555;stroke-linecap:round;stroke-linejoin:miter;stroke-miterlimit:10;stroke-dasharray:none;stroke-opacity:1"
       id="path54267" />
    <path
       d="m 51.034012,170.6823 c -0.29739,0.21061 -0.83114,-0.0512 -0.98248,-0.31644 -0.0967,-0.16969 -0.0378,-0.38559 0.0727,-0.55986 0.21625,-0.3422 0.73131,-0.87383 1.07985,-1.06821"
       style="fill:none;stroke:#0e0f0e;stroke-width:0.330555;stroke-linecap:round;stroke-linejoin:miter;stroke-miterlimit:10;stroke-dasharray:none;stroke-opacity:1"
       id="path54269" />
    <path
       d="m 47.396172,169.28495 c 0.16933,-0.93204 1.32856,-2.01966 2.36608,-1.52295 0.58773,0.28152 1.52047,0.30339 1.42522,0.64277 -0.19861,0.7052 -1.21249,0.55068 -1.68522,0.43709 -0.12805,-0.031 -0.30197,0.43815 -0.32596,0.70696 0,0 0.40146,0.49213 0.26705,1.76495"
       style="fill:none;stroke:#0e0f0e;stroke-width:0.330555;stroke-linecap:round;stroke-linejoin:miter;stroke-miterlimit:10;stroke-dasharray:none;stroke-opacity:1"
       id="path54271" />
    <path
       d="m 49.502252,168.84186 c -0.13511,-0.0882 -0.26846,-0.0109 -0.32596,0.0854 -0.0529,0.10231 -0.0494,0.23283 0.0787,0.32279 0.0716,-0.0381 0.11183,-0.067 0.14323,-0.0921 0.0328,-0.0243 0.0504,-0.0455 0.0653,-0.0677 0.0261,-0.048 0.018,-0.0963 0.0388,-0.24835"
       style="fill:#0e0f0e;fill-opacity:1;fill-rule:nonzero;stroke:none;stroke-width:0.0352778"
       id="path54273" />
    <path
       d="m 49.369262,169.22356 c 0,0 0.0903,0.39476 0.63641,0.48719"
       style="fill:none;stroke:#0e0f0e;stroke-width:0.330555;stroke-linecap:round;stroke-linejoin:miter;stroke-miterlimit:10;stroke-dasharray:none;stroke-opacity:1"
       id="path54275" />
    <path
       d="m 37.021682,168.9304 c 0,0 2.67159,2.16253 4.32012,4.52085 1.64853,2.35832 3.41595,4.93466 3.41595,4.93466 0.58525,-1.66159 1.22731,-3.32987 1.56492,-5.02673 0,0 -0.067,0.71896 1.21426,1.11477 2.19463,0.67804 4.2298,-0.025 4.2298,-0.025 0,0 -2.28741,8.896 -3.69958,10.60273 0,0 -1.24072,1.83445 -2.71568,1.63795 -0.68968,0.0127 -1.11725,-0.5147 -1.11725,-0.5147 0,0 -2.63348,-2.27013 -4.87115,-6.37399 -2.23767,-4.10422 -2.609504,-7.03333 -2.609504,-7.03333 l 0.268114,-3.83717"
       style="fill:#ffffff;fill-opacity:1;fill-rule:nonzero;stroke:none;stroke-width:0.0352778"
       id="path54277" />
    <path
       d="m 37.021682,168.9304 c 0,0 2.67159,2.16253 4.32012,4.52085 1.64853,2.35832 3.41595,4.93466 3.41595,4.93466 0.58525,-1.66159 1.22731,-3.32987 1.56492,-5.02673 0,0 -0.067,0.71896 1.21426,1.11477 2.19463,0.67804 4.2298,-0.025 4.2298,-0.025 0,0 -2.28741,8.896 -3.69958,10.60273 0,0 -1.24072,1.83445 -2.71568,1.63795 -0.68968,0.0127 -1.11725,-0.5147 -1.11725,-0.5147 0,0 -2.63348,-2.27013 -4.87115,-6.37399 -2.23767,-4.10422 -2.609504,-7.03333 -2.609504,-7.03333 z"
       style="fill:none;stroke:#0e0f0e;stroke-width:0.330555;stroke-linecap:round;stroke-linejoin:round;stroke-miterlimit:10;stroke-dasharray:none;stroke-opacity:1"
       id="path54279" />
    <path
       d="m 30.176378,176.94728 c 0.0385,0.23036 0.0649,0.46919 0.0766,0.71543 0.0914,1.9043 -0.70556,3.13267 -1.7586,3.17924 -1.05375,0.0462 -1.96462,-1.10702 -2.05599,-3.01131 -0.012,-0.24624 -0.008,-0.48648 0.007,-0.71897 0,0 0.85196,0.0649 1.87078,0.0183 1.01812,-0.0466 1.85984,-0.18274 1.85984,-0.18274"
       style="fill:#ffffff;fill-opacity:1;fill-rule:nonzero;stroke:none;stroke-width:0.0352778"
       id="path54291" />
    <path
       d="m 30.176378,176.94728 c 0.0385,0.23036 0.0649,0.46919 0.0766,0.71543 0.0914,1.9043 -0.70556,3.13267 -1.7586,3.17924 -1.05375,0.0462 -1.96462,-1.10702 -2.05599,-3.01131 -0.012,-0.24624 -0.008,-0.48648 0.007,-0.71897 0,0 0.85196,0.0649 1.87078,0.0183 1.01812,-0.0466 1.85984,-0.18274 1.85984,-0.18274 z"
       style="fill:none;stroke:#0e0f0e;stroke-width:0.330555;stroke-linecap:round;stroke-linejoin:round;stroke-miterlimit:10;stroke-dasharray:none;stroke-opacity:1"
       id="path54293" />
    <path
       d="m 28.222698,177.49267 0.11536,-0.007 c 0.13405,-0.008 0.23636,-0.12241 0.2286,-0.25611 l -0.1009,-1.77201 c -0.008,-0.13405 -0.12241,-0.23636 -0.25647,-0.2286 l -0.11535,0.007 c -0.13371,0.007 -0.23601,0.12206 -0.2286,0.25576 l 0.10124,1.77235 c 0.007,0.13371 0.12206,0.23601 0.25612,0.2286"
       style="fill:#61abd8;fill-opacity:1;fill-rule:nonzero;stroke:none;stroke-width:0.0352778"
       id="path54295" />
    <path
       d="m 28.222698,177.49267 0.11536,-0.007 c 0.13405,-0.008 0.23636,-0.12241 0.2286,-0.25611 l -0.1009,-1.77201 c -0.008,-0.13405 -0.12241,-0.23636 -0.25647,-0.2286 l -0.11535,0.007 c -0.13371,0.007 -0.23601,0.12206 -0.2286,0.25576 l 0.10124,1.77235 c 0.007,0.13371 0.12206,0.23601 0.25612,0.2286 z"
       style="fill:none;stroke:#0e0f0e;stroke-width:0.330555;stroke-linecap:round;stroke-linejoin:miter;stroke-miterlimit:10;stroke-dasharray:none;stroke-opacity:1"
       id="path54297" />
    <path
       d="m 28.262208,178.45117 0.11571,-0.007 c 0.13371,-0.008 0.23566,-0.12206 0.22825,-0.25612 l -0.10089,-1.772 c -0.008,-0.1337 -0.12242,-0.23636 -0.25647,-0.2286 l -0.11536,0.007 c -0.13406,0.007 -0.23636,0.12242 -0.22825,0.25612 l 0.10089,1.77235 c 0.007,0.13371 0.12242,0.23566 0.25612,0.22825"
       style="fill:#cccbcd;fill-opacity:1;fill-rule:nonzero;stroke:none;stroke-width:0.0352778"
       id="path54299" />
    <path
       d="m 28.262208,178.45117 0.11571,-0.007 c 0.13371,-0.008 0.23566,-0.12206 0.22825,-0.25612 l -0.10089,-1.772 c -0.008,-0.1337 -0.12242,-0.23636 -0.25647,-0.2286 l -0.11536,0.007 c -0.13406,0.007 -0.23636,0.12242 -0.22825,0.25612 l 0.10089,1.77235 c 0.007,0.13371 0.12242,0.23566 0.25612,0.22825 z"
       style="fill:none;stroke:#0e0f0e;stroke-width:0.330555;stroke-linecap:round;stroke-linejoin:miter;stroke-miterlimit:10;stroke-dasharray:none;stroke-opacity:1"
       id="path54301" />
    <path
       d="m 28.939898,168.08339 c 0,0 1.62877,2.52341 3.84775,6.1542 2.22814,3.64632 5.608814,9.43364 5.608814,9.43364 0,0 0.62406,-1.6055 0.53587,-4.62139 -0.0882,-3.0159 -0.69533,-8.29381 -2.06552,-9.80582 0,0 -7.341654,-5.72558 -7.926914,-1.16063"
       style="fill:#ffffff;fill-opacity:1;fill-rule:nonzero;stroke:none;stroke-width:0.0352778"
       id="path54309" />
    <path
       d="m 28.939898,168.08339 c 0,0 1.62877,2.52341 3.84775,6.1542 2.22814,3.64632 5.608814,9.43364 5.608814,9.43364 0,0 0.62406,-1.6055 0.53587,-4.62139 -0.0882,-3.0159 -0.69533,-8.29381 -2.06552,-9.80582 0,0 -7.341654,-5.72558 -7.926914,-1.16063 z"
       style="fill:none;stroke:#0e0f0e;stroke-width:0.330555;stroke-linecap:round;stroke-linejoin:round;stroke-miterlimit:10;stroke-dasharray:none;stroke-opacity:1"
       id="path54311" />
    <path
       d="m 36.317188,173.45125 c 0,0 0.690744,0.84737 1.116544,1.89583 0.46708,1.15076 1.05339,3.53307 1.04422,4.46934 -0.0123,1.30951 0.12418,2.53471 -0.0815,3.85481 0,0 -2.252494,-2.32516 -3.023664,-4.97629 -0.15769,-0.54116 -0.24059,-1.93534 -0.28399,-3.11079 -0.0374,-1.0153 0.23672,-1.83692 0.23672,-1.83692 l 0.99166,-0.29598"
       style="fill:#859bb9;fill-opacity:1;fill-rule:nonzero;stroke:none;stroke-width:0.0352778"
       id="path54313" />
    <path
       d="m 36.317188,173.45125 c 0,0 0.690744,0.84737 1.116544,1.89583 0.46708,1.15076 1.05339,3.53307 1.04422,4.46934 -0.0123,1.30951 0.12418,2.53471 -0.0815,3.85481 0,0 -2.252494,-2.32516 -3.023664,-4.97629 -0.15769,-0.54116 -0.24059,-1.93534 -0.28399,-3.11079 -0.0374,-1.0153 0.23672,-1.83692 0.23672,-1.83692 z"
       style="fill:none;stroke:#0e0f0e;stroke-width:0.330555;stroke-linecap:round;stroke-linejoin:round;stroke-miterlimit:10;stroke-dasharray:none;stroke-opacity:1"
       id="path54315" />
    <path
       d="m 38.072612,173.51899 c 0,0 -0.70379,-1.27389 -1.495434,-2.03977 -0.79163,-0.76588 -1.47813,-1.13453 -1.47813,-1.13453 0,0 -1.60267,1.48308 -1.85244,3.20075"
       style="fill:none;stroke:#0e0f0e;stroke-width:0.330555;stroke-linecap:round;stroke-linejoin:round;stroke-miterlimit:10;stroke-dasharray:none;stroke-opacity:1"
       id="path54317" />
    <path
       d="m 36.915152,171.95935 c 0,0 -0.157344,1.03329 -0.572924,1.70216 0,0 -0.20143,0.17603 -0.7754,0.15381 -0.57362,-0.0222 -1.14194,-0.42157 -1.92652,-1.55117 0,0 0.62935,-1.55504 1.32962,-2.24684 0,0 1.870074,1.45309 1.945224,1.94204"
       style="fill:#859bb9;fill-opacity:1;fill-rule:nonzero;stroke:none;stroke-width:0.0352778"
       id="path54319" />
    <path
       d="m 36.915152,171.95935 c 0,0 -0.157344,1.03329 -0.572924,1.70216 0,0 -0.20143,0.17603 -0.7754,0.15381 -0.57362,-0.0222 -1.14194,-0.42157 -1.92652,-1.55117 0,0 0.62935,-1.55504 1.32962,-2.24684 0,0 1.870074,1.45309 1.945224,1.94204 z"
       style="fill:none;stroke:#0e0f0e;stroke-width:0.330555;stroke-linecap:round;stroke-linejoin:round;stroke-miterlimit:10;stroke-dasharray:none;stroke-opacity:1"
       id="path54321" />
    <path
       d="m 35.056708,167.88583 2.826464,1.50177 0.49706,0.91299 1.4411,1.3896 c 0,0 0.66251,4.65243 -1.35114,12.11544 0,0 -0.0593,-3.13196 -0.18239,-8.05956 -0.0561,-2.25248 -0.51858,-3.64384 -0.91581,-4.66372 -0.22613,-0.57997 -1.452384,-2.21403 -2.315284,-3.19652"
       style="fill:#ffffff;fill-opacity:1;fill-rule:nonzero;stroke:none;stroke-width:0.0352778"
       id="path54323" />
    <path
       d="m 35.056708,167.88583 2.826464,1.50177 0.49706,0.91299 1.4411,1.3896 c 0,0 0.66251,4.65243 -1.35114,12.11544 0,0 -0.0593,-3.13196 -0.18239,-8.05956 -0.0561,-2.25248 -0.51858,-3.64384 -0.91581,-4.66372 -0.22613,-0.57997 -1.452384,-2.21403 -2.315284,-3.19652 z"
       style="fill:none;stroke:#0e0f0e;stroke-width:0.330555;stroke-linecap:round;stroke-linejoin:round;stroke-miterlimit:10;stroke-dasharray:none;stroke-opacity:1"
       id="path54325" />
    <path
       d="m 36.825892,186.59011 c -0.0152,0.37677 -0.302334,0.67204 -0.640994,0.65863 -0.33867,-0.013 -0.60043,-0.32878 -0.58491,-0.7059 0.0152,-0.37677 0.30233,-0.67169 0.641,-0.65899 0.33831,0.013 0.600424,0.32949 0.584904,0.70626"
       style="fill:#ffffff;fill-opacity:1;fill-rule:nonzero;stroke:none;stroke-width:0.0352778"
       id="path54327" />
    <path
       d="m 36.825892,186.59011 c -0.0152,0.37677 -0.302334,0.67204 -0.640994,0.65863 -0.33867,-0.013 -0.60043,-0.32878 -0.58491,-0.7059 0.0152,-0.37677 0.30233,-0.67169 0.641,-0.65899 0.33831,0.013 0.600424,0.32949 0.584904,0.70626 z"
       style="fill:none;stroke:#0e0f0e;stroke-width:0.330555;stroke-linecap:round;stroke-linejoin:round;stroke-miterlimit:10;stroke-dasharray:none;stroke-opacity:1"
       id="path54329" />
    <path
       d="m 39.688682,186.45817 c -0.0349,0.84596 -1.1363,0.93451 -1.09608,-0.0423 0.0138,-0.33691 0.26988,-0.60043 0.57291,-0.58879 0.30268,0.0116 0.53658,0.29422 0.52317,0.63112"
       style="fill:#ffffff;fill-opacity:1;fill-rule:nonzero;stroke:none;stroke-width:0.0352778"
       id="path54335" />
    <path
       d="m 39.688682,186.45817 c -0.0349,0.84596 -1.1363,0.93451 -1.09608,-0.0423 0.0138,-0.33691 0.26988,-0.60043 0.57291,-0.58879 0.30268,0.0116 0.53658,0.29422 0.52317,0.63112 z"
       style="fill:none;stroke:#0e0f0e;stroke-width:0.330555;stroke-linecap:round;stroke-linejoin:round;stroke-miterlimit:10;stroke-dasharray:none;stroke-opacity:1"
       id="path54337" />
    <path
       d="m 35.500148,163.18295 c -0.15628,1.11513 -0.14957,2.41441 -0.16474,3.50379 -0.009,0.6537 -0.0321,1.00365 -0.0642,1.64006 -0.0116,0.22437 -0.41275,1.14053 -0.41275,1.14053 0,0 -0.5655,-0.16016 -2.52342,-1.03999 -1.8221,-0.81879 -2.32304,-1.39347 -2.32304,-1.39347 0.10583,-0.22507 0.0243,-2.43134 -0.0833,-4.38079 l 5.57142,0.52987"
       style="fill:#efdac9;fill-opacity:1;fill-rule:nonzero;stroke:none;stroke-width:0.0352778"
       id="path54343" />
    <path
       d="m 35.500148,163.18295 c -0.15628,1.11513 -0.14957,2.41441 -0.16474,3.50379 -0.009,0.6537 -0.0321,1.00365 -0.0642,1.64006 -0.0116,0.22437 -0.41275,1.14053 -0.41275,1.14053 0,0 -0.5655,-0.16016 -2.52342,-1.03999 -1.8221,-0.81879 -2.32304,-1.39347 -2.32304,-1.39347 0.10583,-0.22507 0.0243,-2.43134 -0.0833,-4.38079 z"
       style="fill:none;stroke:#0e0f0e;stroke-width:0.330555;stroke-linecap:round;stroke-linejoin:round;stroke-miterlimit:10;stroke-dasharray:none;stroke-opacity:1"
       id="path54345" />
    <path
       d="m 28.939898,167.45685 c 0,0 -0.14817,-0.0258 -0.94862,0.3175 -0.74401,0.31927 -1.39524,0.85443 -1.39524,0.85443 0,0 1.397,1.60373 2.53189,2.30576 0.23883,0.14746 -1.3081,1.01353 -1.3081,1.01353 4.70253,6.11258 4.25767,6.72817 11.503734,12.71622 0,0 -4.779084,-9.88448 -7.399514,-13.79114 -0.17392,-0.25964 -2.89102,-3.18629 -2.98415,-3.4163"
       style="fill:#ffffff;fill-opacity:1;fill-rule:nonzero;stroke:none;stroke-width:0.0352778"
       id="path54347" />
    <path
       d="m 28.939898,167.45685 c 0,0 -0.14817,-0.0258 -0.94862,0.3175 -0.74401,0.31927 -1.39524,0.85443 -1.39524,0.85443 0,0 1.397,1.60373 2.53189,2.30576 0.23883,0.14746 -1.3081,1.01353 -1.3081,1.01353 4.70253,6.11258 4.25767,6.72817 11.503734,12.71622 0,0 -4.779084,-9.88448 -7.399514,-13.79114 -0.17392,-0.25964 -2.89102,-3.18629 -2.98415,-3.4163 z"
       style="fill:none;stroke:#0e0f0e;stroke-width:0.330555;stroke-linecap:round;stroke-linejoin:round;stroke-miterlimit:10;stroke-dasharray:none;stroke-opacity:1"
       id="path54349" />
    <path
       d="m 118.22727,134.29121 c -0.64558,-5.13539 -3.26955,-5.4476 -3.26955,-5.4476 -1.05868,2.86914 -2.57633,7.24253 -0.94227,15.05868 -0.11147,0.0938 -1.26929,1.85843 -3.07551,3.15912 -2.38831,1.71979 -4.36492,3.1369 -4.36492,3.1369 0,0 0.80257,0.12771 2.01083,1.50456 1.20791,1.37626 1.52647,2.66101 1.52647,2.66101 0,0 2.99367,-2.77524 5.99264,-4.96532 2.63419,-1.92334 2.95204,-4.55753 3.15595,-5.25674 0.36195,-1.23931 -1.03364,-9.85061 -1.03364,-9.85061"
       style="fill:#ffffff;fill-opacity:1;fill-rule:nonzero;stroke:none;stroke-width:0.0352778"
       id="path54379" />
    <path
       d="m 22.286508,184.76201 c 1.64606,0 1.63795,0.31398 1.63795,0.31398 0,0 -0.86607,-0.85902 -2.22744,-0.95215"
       style="fill:none;stroke:#0e0f0e;stroke-width:0.330555;stroke-linecap:round;stroke-linejoin:round;stroke-miterlimit:10;stroke-dasharray:none;stroke-opacity:1"
       id="path54383" />
    <path
       d="m 29.114168,160.79147 c 0.27199,0.81633 0.84279,2.23379 0.0892,2.48461 -0.75283,0.25083 -1.56527,-0.0624 -2.29164,-1.64394 -0.35913,-0.78211 -0.0526,-1.82069 0.70061,-2.07187 0.75283,-0.25082 1.23014,0.41487 1.50178,1.2312"
       style="fill:#efdac9;fill-opacity:1;fill-rule:nonzero;stroke:none;stroke-width:0.0352778"
       id="path54385" />
    <path
       d="m 29.114168,160.79147 c 0.27199,0.81633 0.84279,2.23379 0.0892,2.48461 -0.75283,0.25083 -1.56527,-0.0624 -2.29164,-1.64394 -0.35913,-0.78211 -0.0526,-1.82069 0.70061,-2.07187 0.75283,-0.25082 1.23014,0.41487 1.50178,1.2312 z"
       style="fill:none;stroke:#0e0f0e;stroke-width:0.330555;stroke-linecap:round;stroke-linejoin:round;stroke-miterlimit:10;stroke-dasharray:none;stroke-opacity:1"
       id="path54387" />
    <path
       d="m 33.324568,152.05881 c 2.00484,-0.0321 4.116924,1.1818 4.776264,4.43406 0,0 1.56175,8.90235 -3.528134,10.35403 0,0 -3.60645,0.89605 -5.3527,-3.38773 0,0 -1.09396,-3.41947 -1.14582,-6.38386 -0.0286,-1.62243 0.8629,-4.94595 5.25039,-5.0165"
       style="fill:#efdac9;fill-opacity:1;fill-rule:nonzero;stroke:none;stroke-width:0.0352778"
       id="path54389" />
    <path
       d="m 38.359062,159.17292 c 0,0 0.4946,6.44384 -3.823054,7.79181"
       style="fill:none;stroke:#0e0f0e;stroke-width:0.330555;stroke-linecap:round;stroke-linejoin:round;stroke-miterlimit:10;stroke-dasharray:none;stroke-opacity:1"
       id="path54391" />
    <path
       d="m 34.884198,166.87689 c 0,0 -1.27247,0.50941 -2.99226,-0.4826"
       style="fill:none;stroke:#0e0f0e;stroke-width:0.330555;stroke-linecap:round;stroke-linejoin:round;stroke-miterlimit:10;stroke-dasharray:none;stroke-opacity:1"
       id="path54393" />
    <path
       d="m 29.011158,162.74621 c 0,0 0.13723,0.98284 1.33703,2.6102"
       style="fill:none;stroke:#0e0f0e;stroke-width:0.330555;stroke-linecap:round;stroke-linejoin:round;stroke-miterlimit:10;stroke-dasharray:none;stroke-opacity:1"
       id="path54395" />
    <path
       d="m 31.908168,160.33603 c 0.005,0.27799 0.21625,0.49989 0.47237,0.49601 0.25682,-0.004 0.46108,-0.23284 0.45649,-0.51082 -0.005,-0.27799 -0.2159,-0.50024 -0.47237,-0.49636 -0.25646,0.004 -0.46072,0.23318 -0.45649,0.51117"
       style="fill:#0e0f0e;fill-opacity:1;fill-rule:nonzero;stroke:none;stroke-width:0.0352778"
       id="path54397" />
    <path
       d="m 36.308008,160.32933 c 0.005,0.27799 0.2159,0.50024 0.47273,0.496 0.256114,-0.004 0.460724,-0.23283 0.456144,-0.51082 -0.005,-0.27799 -0.2159,-0.50024 -0.472374,-0.496 -0.25682,0.004 -0.46108,0.23283 -0.4565,0.51082"
       style="fill:#0e0f0e;fill-opacity:1;fill-rule:nonzero;stroke:none;stroke-width:0.0352778"
       id="path54399" />
    <path
       d="m 37.558262,159.01488 c 0,0 -0.57221,-0.768 -1.751544,-0.25965"
       style="fill:none;stroke:#0e0f0e;stroke-width:0.330555;stroke-linecap:round;stroke-linejoin:round;stroke-miterlimit:10;stroke-dasharray:none;stroke-opacity:1"
       id="path54401" />
    <path
       d="m 31.184268,159.01488 c 0,0 0.7112,-0.78387 1.69474,-0.23848"
       style="fill:none;stroke:#0e0f0e;stroke-width:0.330555;stroke-linecap:round;stroke-linejoin:round;stroke-miterlimit:10;stroke-dasharray:none;stroke-opacity:1"
       id="path54403" />
    <path
       d="m 34.572698,161.73021 0.42757,1.23296 -0.23037,0.16016"
       style="fill:none;stroke:#0e0f0e;stroke-width:0.330555;stroke-linecap:round;stroke-linejoin:round;stroke-miterlimit:10;stroke-dasharray:none;stroke-opacity:1"
       id="path54405" />
    <path
       d="m 26.350158,156.21418 c -0.31433,-2.17841 1.3716,-6.97301 5.35763,-5.55202 0.63606,-0.53305 4.56318,-1.52647 6.484054,2.16006 0.62901,0.80327 0.92393,2.01542 0.92393,3.44205 0,1.77553 -0.29633,2.12513 -0.75671,2.90865 -0.0494,0.0836 -3.146424,-2.5026 -4.308124,-4.81824 -1.24954,2.48638 -5.64444,5.29979 -5.72417,5.29979 -0.81562,0.001 -1.72367,-1.68311 -1.97661,-3.44029"
       style="fill:#4e545d;fill-opacity:1;fill-rule:nonzero;stroke:none;stroke-width:0.0352778"
       id="path54407" />
    <path
       d="m 26.350158,156.21418 c -0.31433,-2.17841 1.3716,-6.97301 5.35763,-5.55202 0.63606,-0.53305 4.56318,-1.52647 6.484054,2.16006 0.62901,0.80327 0.92393,2.01542 0.92393,3.44205 0,1.77553 -0.29633,2.12513 -0.75671,2.90865 -0.0494,0.0836 -3.146424,-2.5026 -4.308124,-4.81824 -1.24954,2.48638 -5.64444,5.29979 -5.72417,5.29979 -0.81562,0.001 -1.72367,-1.68311 -1.97661,-3.44029 z"
       style="fill:none;stroke:#0e0f0e;stroke-width:0.330555;stroke-linecap:round;stroke-linejoin:round;stroke-miterlimit:10;stroke-dasharray:none;stroke-opacity:1"
       id="path54409" />
    <path
       d="m 36.024028,154.86515 c 0,0 0.60501,0.29034 0.862544,1.39912"
       style="fill:none;stroke:#0e0f0e;stroke-width:0.330555;stroke-linecap:round;stroke-linejoin:round;stroke-miterlimit:10;stroke-dasharray:none;stroke-opacity:1"
       id="path54411" />
    <path
       d="m 37.411502,154.90537 c 0,0 0.75353,0.61948 0.9084,1.93569"
       style="fill:none;stroke:#0e0f0e;stroke-width:0.330555;stroke-linecap:round;stroke-linejoin:round;stroke-miterlimit:10;stroke-dasharray:none;stroke-opacity:1"
       id="path54413" />
    <path
       d="m 30.758108,155.02285 c 0,0 -0.95391,0.85054 -0.96414,1.97626"
       style="fill:none;stroke:#0e0f0e;stroke-width:0.330555;stroke-linecap:round;stroke-linejoin:round;stroke-miterlimit:10;stroke-dasharray:none;stroke-opacity:1"
       id="path54415" />
    <path
       d="m 29.070068,155.06341 c 0,0 -1.15746,0.94757 -0.89993,2.33786"
       style="fill:none;stroke:#0e0f0e;stroke-width:0.330555;stroke-linecap:round;stroke-linejoin:round;stroke-miterlimit:10;stroke-dasharray:none;stroke-opacity:1"
       id="path54417" />
    <path
       d="m 33.130548,164.05149 c 1.12465,1.8422 2.13007,0.0113 2.13007,0.0113 l -2.13007,-0.0113"
       style="fill:#ffffff;fill-opacity:1;fill-rule:nonzero;stroke:none;stroke-width:0.0352778"
       id="path54419" />
    <path
       d="m 33.130548,164.05149 c 1.12465,1.8422 2.13007,0.0113 2.13007,0.0113 z"
       style="fill:none;stroke:#0e0f0e;stroke-width:0.247916;stroke-linecap:round;stroke-linejoin:round;stroke-miterlimit:10;stroke-dasharray:none;stroke-opacity:1"
       id="path54421" />
    <path
       d="m 27.695648,159.32215 2.35338,0.51576"
       style="fill:none;stroke:#0e0f0e;stroke-width:0.330555;stroke-linecap:round;stroke-linejoin:round;stroke-miterlimit:10;stroke-dasharray:none;stroke-opacity:1"
       id="path54423" />
    <path
       d="m 34.824938,160.14977 c 0,0 -0.59373,-0.25859 -1.07668,0.0162"
       style="fill:none;stroke:#0e0f0e;stroke-width:0.330555;stroke-linecap:round;stroke-linejoin:round;stroke-miterlimit:10;stroke-dasharray:none;stroke-opacity:1"
       id="path54425" />
    <path
       d="m 38.187612,160.08697 c 0.0236,0.254 -0.073,0.45297 0.0949,0.43991 0.16722,-0.0127 0.47343,-0.24941 0.45015,-0.50306 -0.0233,-0.25364 -0.36689,-0.42862 -0.53482,-0.41592 -0.16721,0.013 -0.0332,0.22542 -0.0102,0.47907"
       style="fill:#0e0f0e;fill-opacity:1;fill-rule:nonzero;stroke:none;stroke-width:0.0352778"
       id="path54427" />
    <path
       d="m 30.410628,160.08697 c -0.0233,0.254 0.073,0.45297 -0.0945,0.43991 -0.16757,-0.0127 -0.47342,-0.24941 -0.45049,-0.50306 0.0236,-0.25364 0.36689,-0.42862 0.53481,-0.41592 0.16757,0.013 0.0335,0.22542 0.0102,0.47907"
       style="fill:#0e0f0e;fill-opacity:1;fill-rule:nonzero;stroke:none;stroke-width:0.0352778"
       id="path54429" />
    <path
       d="m 37.796032,161.35803 h -2.426054 c -0.24695,0 -0.44732,-0.20003 -0.44732,-0.44697 v -0.86501 c 0,-0.24695 0.20037,-0.44697 0.44732,-0.44697 h 2.426054 c 0.24659,0 0.44661,0.20002 0.44661,0.44697 v 0.86501 c 0,0.24694 -0.20002,0.44697 -0.44661,0.44697 z"
       style="fill:none;stroke:#0e0f0e;stroke-width:0.330555;stroke-linecap:round;stroke-linejoin:round;stroke-miterlimit:10;stroke-dasharray:none;stroke-opacity:1"
       id="path54431" />
    <path
       d="m 33.244488,161.35803 h -2.42605 c -0.24659,0 -0.44662,-0.20003 -0.44662,-0.44697 v -0.86501 c 0,-0.24695 0.20003,-0.44697 0.44662,-0.44697 h 2.42605 c 0.24695,0 0.44697,0.20002 0.44697,0.44697 v 0.86501 c 0,0.24694 -0.20002,0.44697 -0.44697,0.44697 z"
       style="fill:none;stroke:#0e0f0e;stroke-width:0.330555;stroke-linecap:round;stroke-linejoin:round;stroke-miterlimit:10;stroke-dasharray:none;stroke-opacity:1"
       id="path54433" />
    <path
       d="m 78.938838,183.1966 -3.070302,1.10328 c -0.175064,0.0625 -0.367507,-0.0292 -0.42897,-0.20454 l -3.546119,-10.09428 c -0.371791,-1.0582 0.184889,-2.2174 1.243084,-2.58919 1.058187,-0.37179 1.954171,0.14786 2.589186,1.24308 l 3.713629,9.18773 c 0.290686,0.50882 0.05112,1.15668 -0.500508,1.35392"
       style="fill:#bab7bc;fill-opacity:1;fill-rule:nonzero;stroke:none;stroke-width:0.0251891"
       id="path48056" />
    <path
       d="m 55.628834,183.1966 3.070559,1.10328 c 0.174806,0.0625 0.367257,-0.0292 0.428713,-0.20454 l 3.546125,-10.09428 c 0.371792,-1.0582 -0.184639,-2.2174 -1.242833,-2.58919 h -2.5e-4 c -1.058195,-0.37179 -1.954171,0.14786 -2.588937,1.24308 l -3.713885,9.18773 c -0.290678,0.50882 -0.05112,1.15668 0.500508,1.35392"
       style="fill:#bab7bc;fill-opacity:1;fill-rule:nonzero;stroke:none;stroke-width:0.0251891"
       id="path48060" />
    <path
       d="m 69.073774,171.29247 h -4.233029 v -4.90734 h 4.233029 v 4.90734"
       style="fill:#3c95ae;fill-opacity:1;fill-rule:nonzero;stroke:none;stroke-width:0.0251891"
       id="path48062" />
    <path
       d="m 70.119881,169.54913 v 0 c 0.205795,0.52621 0.714365,0.88389 1.250638,1.06223 0.536273,0.17809 1.108576,0.20554 1.671047,0.2607 0.164482,0.0164 0.330735,0.0355 0.485142,0.094 0.221411,0.0841 0.409827,0.24585 0.638293,0.30832 0.07154,0.0194 0.149116,0.0282 0.218391,0.001 0.05362,-0.0206 0.09748,-0.0612 0.136271,-0.10404 0.237533,-0.26247 0.328214,-0.633 0.313605,-0.9869 -0.01464,-0.35366 -0.124939,-0.69598 -0.246858,-1.02848 -0.319397,-0.87179 -0.725947,-1.7116 -1.211339,-2.50279 -0.40832,-0.66524 -1.370793,-1.60681 -2.243849,-1.13099 -0.618393,0.33678 -0.782119,1.42419 -0.976832,2.02899 -0.191437,0.5942 -0.266502,1.40428 -0.03449,1.99749"
       style="fill:#6d3622;fill-opacity:1;fill-rule:nonzero;stroke:none;stroke-width:0.0251891"
       id="path48064" />
    <path
       d="m 73.423182,154.00872 c 0.316376,0.48438 0.546098,3.39322 0.70454,3.9834 0.195213,0.72671 0.127703,1.54006 -0.0091,2.32017 -0.115872,0.6602 -0.286152,1.32948 -0.625698,1.89976 -0.318139,0.53452 -0.775827,0.96626 -1.021172,1.54485 -0.151637,0.35743 -0.212343,0.75013 -0.359446,1.10958 -0.259197,0.63225 -0.795471,1.12545 -1.376078,1.26525 -0.580864,0.1398 -1.742335,0.29345 -2.112112,-0.18766 -0.205796,-0.26801 -3.783403,0.44106 -4.675095,-0.11688 -5.088199,-3.1834 -3.478872,-8.20963 -3.482899,-8.91065 0,0 4.842104,4.47158 4.415905,3.05192 -0.411341,-1.37004 -0.332499,-2.91262 -0.248873,-4.41162 0.01385,-0.24433 0.0282,-0.49346 0.105547,-0.72847 0.11083,-0.33653 0.338289,-0.61059 0.558944,-0.87306 0.547362,-0.65038 1.11588,-1.31839 1.821427,-1.68842 0.764989,-0.40127 1.609077,-0.40782 2.410345,-0.33653 0.497738,0.0441 1.003786,0.11965 1.427965,0.38917 0.680613,0.43199 0.553153,1.07633 0.843589,1.75342 0.361459,0.84182 1.135273,-0.81034 1.622179,-0.0643"
       style="fill:#6d3622;fill-opacity:1;fill-rule:nonzero;stroke:none;stroke-width:0.0251891"
       id="path48066" />
    <path
       d="m 75.015887,172.72271 -5.048907,0.65064 h -5.769561 l -4.898277,-0.70581 c 0,0 1.100515,3.43379 2.169035,6.78469 l 0.806302,6.8658 h 9.519469 l 1.02797,-6.78696 2.193969,-6.80836"
       style="fill:#3c95ae;fill-opacity:1;fill-rule:nonzero;stroke:none;stroke-width:0.0251891"
       id="path48068" />
    <path
       d="m 65.458631,167.70529 c 0.403787,-0.23628 1.498754,-0.45416 1.639816,-0.40328 0.139042,-0.0541 0.871542,0.0307 1.28439,0.25694 2.512365,1.37708 6.769578,2.20404 6.780659,4.47585 0,0 -0.02092,1.53502 -1.32671,1.55114 l -6.614156,0.0816 -6.614157,0.0814 c -1.305553,0.0161 -1.386409,-1.5179 -1.386409,-1.5179 -0.03906,-2.14158 3.779118,-3.08743 6.236567,-4.52573"
       style="fill:#3c95ae;fill-opacity:1;fill-rule:nonzero;stroke:none;stroke-width:0.0251891"
       id="path48696" />
    <path
       d="m 67.022125,170.28768 c 2.409082,0 3.218411,-0.58011 4.251665,-1.45341 -1.189932,-0.53553 -1.635024,-0.64308 -2.717653,-1.22797 -0.413347,-0.22343 -1.429729,-0.35441 -1.569027,-0.299 -0.141312,-0.0498 -0.75038,-0.0927 -1.154667,0.14661 -1.13351,0.67103 -1.841826,0.88061 -3.042847,1.50807 0.948621,0.64736 1.475076,1.3257 4.232529,1.3257"
       style="fill:#f89a74;fill-opacity:1;fill-rule:nonzero;stroke:none;stroke-width:0.0251891"
       id="path48718" />
    <path
       d="m 67.022125,170.28768 h -0.250379 c -0.770287,0 -1.400518,-0.62998 -1.400518,-1.40026 v -5.46957 c 0,-0.77003 0.630231,-1.40026 1.400518,-1.40026 h 0.250379 c 0.77028,0 1.400262,0.63023 1.400262,1.40026 v 5.46957 c 0,0.77028 -0.629982,1.40026 -1.400262,1.40026"
       style="fill:#f89a74;fill-opacity:1;fill-rule:nonzero;stroke:none;stroke-width:0.0251891"
       id="path48720" />
    <path
       d="m 65.371228,165.57127 3.110351,-0.72015 -0.04634,1.15441 c -0.125946,1.82621 -2.560726,2.18314 -3.075086,0.0945 l 0.01107,-0.52872"
       style="fill:#ea765d;fill-opacity:1;fill-rule:nonzero;stroke:none;stroke-width:0.0251891"
       id="path48722" />
    <path
       d="m 66.83925,166.27783 h -0.09043 c -2.74133,0 -4.984416,-2.2431 -4.984416,-4.98468 v -3.86703 c 0,-2.74158 2.243086,-4.98468 4.984416,-4.98468 h 0.09043 c 2.74158,0 4.984673,2.2431 4.984673,4.98468 v 3.86703 c 0,2.74158 -2.243093,4.98468 -4.984673,4.98468"
       style="fill:#f89a74;fill-opacity:1;fill-rule:nonzero;stroke:none;stroke-width:0.0251891"
       id="path48724" />
    <path
       d="m 65.23445,162.30802 h 2.986425 c 0.272792,0 0.453654,0.27986 0.344587,0.52998 -0.241061,0.55265 -0.771543,1.3393 -1.837799,1.3393 -1.066257,0 -1.596739,-0.78665 -1.83805,-1.3393 -0.109067,-0.25012 0.07204,-0.52998 0.344837,-0.52998"
       style="fill:#fbf9f4;fill-opacity:1;fill-rule:nonzero;stroke:none;stroke-width:0.0251891"
       id="path48726" />
    <path
       d="m 68.508533,159.77475 c -2.5e-4,0.46877 0.271036,0.84913 0.606048,0.84913 0.335019,2.5e-4 0.606804,-0.3796 0.607061,-0.84862 2.5e-4,-0.46877 -0.271292,-0.84913 -0.606304,-0.84913 -0.334762,-2.5e-4 -0.606555,0.3796 -0.606805,0.84862"
       style="fill:#572715;fill-opacity:1;fill-rule:nonzero;stroke:none;stroke-width:0.0251891"
       id="path48728" />
    <path
       d="m 70.282856,158.4498 c -0.519908,-0.11561 -1.017895,-0.16019 -1.540316,-0.13475 -0.217634,0.0106 -0.395718,-0.17205 -0.386907,-0.38993 l 2.57e-4,-0.003 c 0.0076,-0.18589 0.15088,-0.33979 0.336018,-0.35844 0.609075,-0.061 1.203791,-0.009 1.783642,0.15895 0.179847,0.0519 0.292449,0.23098 0.264737,0.41587 l -2.49e-4,0.002 c -0.03249,0.21714 -0.243075,0.35668 -0.457182,0.30907"
       style="fill:#572715;fill-opacity:1;fill-rule:nonzero;stroke:none;stroke-width:0.0251891"
       id="path48730" />
    <path
       d="m 64.975003,159.77475 c 2.5e-4,0.46877 -0.271286,0.84913 -0.606298,0.84913 -0.335019,2.5e-4 -0.606554,-0.3796 -0.606811,-0.84862 -2.5e-4,-0.46877 0.271035,-0.84913 0.606055,-0.84913 0.335012,-2.5e-4 0.606804,0.3796 0.607054,0.84862"
       style="fill:#572715;fill-opacity:1;fill-rule:nonzero;stroke:none;stroke-width:0.0251891"
       id="path48732" />
    <path
       d="m 63.216303,158.4498 c 0.5199,-0.11561 1.017888,-0.16019 1.540309,-0.13475 0.217634,0.0106 0.395725,-0.17205 0.386907,-0.38993 l -2.5e-4,-0.003 c -0.0076,-0.18589 -0.150887,-0.33979 -0.336275,-0.35844 -0.608826,-0.061 -1.203534,-0.009 -1.783642,0.15895 -0.179598,0.0519 -0.292192,0.23098 -0.264488,0.41587 l 2.57e-4,0.002 c 0.03249,0.21714 0.243075,0.35668 0.457182,0.30907"
       style="fill:#572715;fill-opacity:1;fill-rule:nonzero;stroke:none;stroke-width:0.0251891"
       id="path48734" />
    <path
       d="m 73.456427,161.02514 c -0.308315,0.86726 -1.096481,1.3791 -1.760214,1.14308 -0.663734,-0.23602 -0.951898,-1.13049 -0.643584,-1.99774 0.308572,-0.86727 1.096488,-1.37886 1.760221,-1.14283 0.663984,0.23602 0.951892,1.13023 0.643577,1.99749"
       style="fill:#f89a74;fill-opacity:1;fill-rule:nonzero;stroke:none;stroke-width:0.0251891"
       id="path48770" />
    <path
       d="m 70.693183,161.79215 h -0.564991 c -0.227209,0 -0.413104,-0.1859 -0.413104,-0.4131 0,-0.22746 0.185895,-0.41335 0.413104,-0.41335 h 0.564991 c 0.227209,0 0.413105,0.18589 0.413105,0.41335 0,0.2272 -0.185896,0.4131 -0.413105,0.4131"
       style="fill:#ea765d;fill-opacity:1;fill-rule:nonzero;stroke:none;stroke-width:0.0251891"
       id="path48772" />
    <path
       d="m 63.325369,161.79215 h -0.564991 c -0.227209,0 -0.413104,-0.1859 -0.413104,-0.4131 0,-0.22746 0.185895,-0.41335 0.413104,-0.41335 h 0.564991 c 0.227209,0 0.413105,0.18589 0.413105,0.41335 0,0.2272 -0.185896,0.4131 -0.413105,0.4131"
       style="fill:#ea765d;fill-opacity:1;fill-rule:nonzero;stroke:none;stroke-width:0.0251891"
       id="path48808" />
    <path
       d="m 73.07204,159.30195 c 0.07683,-0.0216 0.111338,-0.10856 0.14736,-0.17632 0.211586,-0.39648 0.125947,-0.87935 0.134508,-1.33099 0.0088,-0.47129 0.125696,-0.92898 0.19295,-1.39322 0.259447,-1.79195 -0.283881,-3.76048 -1.650141,-5.11766 -1.366509,-1.35744 -3.586675,-1.97861 -5.353693,-1.30808 -0.361717,0.13729 -0.698992,0.32243 -1.02293,0.52318 -0.157427,0.0972 -0.315869,0.20227 -0.415118,0.3529 -0.295462,0.44938 -0.293448,1.40934 -0.206802,1.94334 0.08413,0.51814 0.475824,0.90832 0.826709,1.30455 0.995475,1.12343 2.09599,2.18415 3.368291,3.03175 0.707054,0.47105 2.561476,2.57232 3.978866,2.17055"
       style="fill:#7a3d2a;fill-opacity:1;fill-rule:nonzero;stroke:none;stroke-width:0.0251891"
       id="path48954" />
    <path
       d="m 64.374746,155.66792 v 0 c -0.775071,0.65769 -1.463988,0.69623 -2.094976,1.49346 -0.396225,0.50051 -0.34131,1.67155 -0.515367,2.26904 -0.13023,0.44584 -0.569275,-0.0602 -0.612852,-0.0257 -0.112094,0.0879 -0.253656,-0.0675 -0.305044,-0.20051 -0.374812,-0.97305 -0.357183,-2.04661 -0.334256,-3.08919 0.0088,-0.40957 0.01842,-0.82318 0.119899,-1.21991 0.06476,-0.25365 0.166246,-0.49673 0.282874,-0.73099 0.548369,-1.10227 1.446359,-2.02747 2.532008,-2.60833 0.147359,-0.0788 0.300253,-0.15239 0.464235,-0.18564 0.302774,-0.062 0.614366,0.0169 0.913106,0.095 0.634765,0.166 1.484644,0.59774 1.425959,1.39145 -0.02114,0.28665 -0.213607,0.52897 -0.372298,0.75517 -0.229223,0.3272 -0.410335,0.67179 -0.61663,1.01234 -0.237533,0.3922 -0.53703,0.74711 -0.886658,1.04384"
       style="fill:#7a3d2a;fill-opacity:1;fill-rule:nonzero;stroke:none;stroke-width:0.0251891"
       id="path48956" />
    <path
       d="m 59.969423,161.02514 c 0.308565,0.86726 1.096481,1.3791 1.760214,1.14308 0.663984,-0.23602 0.951899,-1.13049 0.643584,-1.99774 -0.308315,-0.86727 -1.096481,-1.37886 -1.760214,-1.14283 -0.663733,0.23602 -0.951898,1.13023 -0.643584,1.99749"
       style="fill:#f89a74;fill-opacity:1;fill-rule:nonzero;stroke:none;stroke-width:0.0251891"
       id="path48962" />
    <path
       d="m 72.563221,165.76573 -1.747369,1.17709 c -0.307308,0.20731 -0.728216,0.12519 -0.935518,-0.18212 l -0.07834,-0.11637 c -0.207052,-0.30731 -0.124939,-0.72847 0.182369,-0.93553 l 1.747368,-1.17709 c 0.307308,-0.20705 0.728217,-0.12519 0.935276,0.18237 l 0.07834,0.11612 c 0.207309,0.30757 0.125189,0.72848 -0.182119,0.93553"
       style="fill:#3c95ae;fill-opacity:1;fill-rule:nonzero;stroke:none;stroke-width:0.0251891"
       id="path48964" />
    <path
       d="m 67.368976,170.30128 c 0,0 -2.620925,0.0554 -2.528231,-3.91615 l -1.92848,2.2907 c -0.237784,0.2126 -0.34408,0.53854 -0.278083,0.85265 l 0.552146,2.62571 c 0.105033,0.50001 0.682369,0.72419 1.090433,0.42368 l 3.092215,-2.27659"
       style="fill:#4fbdc9;fill-opacity:1;fill-rule:nonzero;stroke:none;stroke-width:0.0251891"
       id="path48966" />
    <path
       d="m 66.544287,170.17382 c 0,0 2.631,0.37583 2.536035,-3.78869 l 2.207577,2.07987 c 0.252643,0.22266 0.365494,0.56448 0.294963,0.89396 l -0.589925,2.75392 c -0.112344,0.52419 -0.72671,0.7597 -1.160971,0.44509 l -3.287679,-2.38415"
       style="fill:#4fbdc9;fill-opacity:1;fill-rule:nonzero;stroke:none;stroke-width:0.0251891"
       id="path48968" />
    <path
       d="m 68.624148,177.59252 0.548119,32.10327 c 0.03806,0.57834 0.570532,0.99497 1.141064,0.8927 L 75.4043,210.0026 c 0.574317,-0.10303 1.018902,-0.1854 0.938546,-0.76324 l -1.17935,-17.4359 c -0.122669,-0.88112 -0.489176,-3.90758 -0.785395,-4.74638 -0.288165,-0.81664 -0.623184,-1.87457 -0.66474,-2.48465 -0.07482,-1.09447 2.775082,-10.65827 1.450135,-13.08499 -1.325203,-2.42697 -2.897251,-2.95242 -2.897251,-2.95242 l -3.642097,9.0575"
       style="fill:#dedcdd;fill-opacity:1;fill-rule:nonzero;stroke:none;stroke-width:0.0251891"
       id="path48970" />
    <path
       d="m 70.744572,167.95315 c 0,0 2.182886,0.38968 3.302544,1.97382 l -2.445361,3.88416 -1.734524,0.64383 0.823689,0.93099 -2.066772,5.1945 c 0,0 -1.303033,-3.85695 1.408322,-9.25977 0.473561,-0.94358 0.712102,-1.98792 0.712102,-3.04385 v -0.32368"
       style="fill:#f4f6f4;fill-opacity:1;fill-rule:nonzero;stroke:none;stroke-width:0.0251891"
       id="path48972" />
    <path
       d="m 65.883075,177.25675 -0.547869,32.10302 c -0.03806,0.57833 -0.570533,0.99522 -1.141065,0.89295 l -5.090969,-0.5859 c -0.574316,-0.10302 -1.018902,-0.18539 -0.938546,-0.76323 l 1.17935,-17.4359 c 0.122676,-0.88112 0.489176,-3.90758 0.785403,-4.74639 0.288157,-0.81662 0.623177,-1.87457 0.66474,-2.4849 0.07481,-1.09447 -2.775089,-10.65801 -1.450143,-13.08499 1.325203,-2.42672 2.897251,-2.95216 2.897251,-2.95216 l 3.641848,9.0575"
       style="fill:#dedcdd;fill-opacity:1;fill-rule:nonzero;stroke:none;stroke-width:0.0251891"
       id="path48974" />
    <path
       d="m 63.762901,167.61713 c 0,0 -1.998498,0.29874 -3.302795,1.97382 l 2.445611,3.88441 1.734524,0.64383 -0.823682,0.931 2.009837,5.53026 c 0,0 1.359961,-4.19272 -1.351394,-9.59553 -0.473554,-0.94384 -0.712101,-1.98818 -0.712101,-3.04411 v -0.32368"
       style="fill:#f4f6f4;fill-opacity:1;fill-rule:nonzero;stroke:none;stroke-width:0.0251891"
       id="path48976" />
    <path
       d="m 74.549387,183.33413 h -4.505828 c -0.180862,0 -0.328471,-0.14786 -0.328471,-0.32847 v -2.49977 c 0,-0.1806 0.147609,-0.32846 0.328471,-0.32846 h 4.505828 c 0.180855,0 0.328715,0.14786 0.328715,0.32846 v 2.49977 c 0,0.18061 -0.14786,0.32847 -0.328715,0.32847"
       style="fill:#4fbdc9;fill-opacity:1;fill-rule:nonzero;stroke:none;stroke-width:0.0251891"
       id="path49002" />
    <path
       d="m 71.947099,182.14571 h -1.768526 c -0.07457,0 -0.135521,-0.061 -0.135521,-0.13552 v -1.31211 c 0,-0.0746 0.06098,-0.13551 0.135521,-0.13551 h 1.768526 c 0.07456,0 0.135514,0.061 0.135514,0.13551 v 1.31211 c 0,0.0745 -0.06098,0.13552 -0.135514,0.13552"
       style="fill:#f6fbfe;fill-opacity:1;fill-rule:nonzero;stroke:none;stroke-width:0.0251891"
       id="path49004" />
    <path
       d="m 74.079354,182.06006 h -1.312101 c -0.149116,0 -0.271036,-0.12191 -0.271036,-0.27104 0,-0.14911 0.12192,-0.27103 0.271036,-0.27103 h 1.312101 c 0.148866,0 0.271036,0.12192 0.271036,0.27103 0,0.14913 -0.12217,0.27104 -0.271036,0.27104"
       style="fill:#f6fbfe;fill-opacity:1;fill-rule:nonzero;stroke:none;stroke-width:0.0251891"
       id="path49008" />
    <path
       d="m 55.985959,187.28685 h -8.690328 l 0.0889,-5.03978 c 2.809169,-0.87101 5.634919,-0.95003 8.481131,-0.0244 l 0.120297,5.06413"
       style="fill:#504b81;fill-opacity:1;fill-rule:nonzero;stroke:none;stroke-width:0.0352778"
       id="path52474" />
    <path
       d="m 42.580755,168.02483 c -0.08925,2.54353 0.189089,5.63527 0.969786,8.06415 0.760589,2.36572 2.881137,3.92183 5.938662,4.14937 1.145822,0.085 0.766233,0.49001 1.940278,0.56832 1.745544,0.11607 1.441803,-0.56726 3.175,-0.73907 2.293053,-0.22718 3.990273,-1.04351 4.762503,-2.89842 0.61277,-1.47214 0.81491,-3.66889 1.07879,-5.21582 0.33232,-1.94804 0.15769,-3.94335 -0.25682,-5.86599 -0.41451,-1.92264 -0.77823,-3.77225 -2.54,-4.92654 -2.633134,-1.72473 -11.702346,1.05093 -11.702346,1.05093 0,0 -3.130903,-0.88195 -3.365853,5.81307"
       style="fill:#422319;fill-opacity:1;fill-rule:nonzero;stroke:none;stroke-width:0.0352778"
       id="path52518" />
    <path
       d="m 48.421697,183.95804 c 0.792339,-0.48578 2.941814,-0.94298 3.218745,-0.84138 0.27305,-0.11218 2.246136,0.24906 3.05682,0.70344 4.934302,2.76613 12.600522,3.08998 12.783612,8.80992 0,0 -0.0392,3.12103 -2.60245,3.17112 l -12.985393,0.2533 -12.985398,0.25364 c -2.563284,0.0501 -2.723798,-3.06705 -2.723798,-3.06705 -0.225425,-5.40879 7.415037,-6.32671 12.237862,-9.28299"
       style="fill:#504b81;fill-opacity:1;fill-rule:nonzero;stroke:none;stroke-width:0.0352778"
       id="path52520" />
    <path
       d="m 52.561192,187.33236 h -1.877131 c -1.364544,0 -2.481086,-1.11654 -2.481086,-2.48109 v -6.62023 c 0,-1.36454 1.116542,-2.48108 2.481086,-2.48108 h 1.877131 c 1.364545,0 2.481086,1.11654 2.481086,2.48108 v 6.62023 c 0,1.36455 -1.116541,2.48109 -2.481086,2.48109"
       style="fill:#f89a74;fill-opacity:1;fill-rule:nonzero;stroke:none;stroke-width:0.0352778"
       id="path52738" />
    <path
       d="m 48.132419,180.15368 6.971595,-1.00859 -0.103364,1.61678 c -0.282222,2.55764 -5.7404,3.05753 -6.893278,0.13229 l 0.02505,-0.74048"
       style="fill:#ea765d;fill-opacity:1;fill-rule:nonzero;stroke:none;stroke-width:0.0352778"
       id="path52740" />
    <path
       d="m 51.810481,181.71649 h -0.126647 c -3.839281,0 -6.980768,-3.14149 -6.980768,-6.98112 v -5.41585 c 0,-3.83963 3.141487,-6.98112 6.980768,-6.98112 h 0.126647 c 3.839633,0 6.981123,3.14149 6.981123,6.98112 v 5.41585 c 0,3.83963 -3.14149,6.98112 -6.981123,6.98112"
       style="fill:#f89a74;fill-opacity:1;fill-rule:nonzero;stroke:none;stroke-width:0.0352778"
       id="path52742" />
    <path
       d="m 61.077954,174.36001 c -0.4318,1.21462 -1.53564,1.93146 -2.46521,1.60091 -0.92957,-0.33055 -1.33315,-1.58327 -0.90135,-2.79788 0.43215,-1.21462 1.53564,-1.93111 2.46521,-1.60056 0.92992,0.33056 1.33315,1.58327 0.90135,2.79753"
       style="fill:#f89a74;fill-opacity:1;fill-rule:nonzero;stroke:none;stroke-width:0.0352778"
       id="path52744" />
    <path
       d="m 42.189172,174.36001 c 0.432153,1.21462 1.535642,1.93146 2.465211,1.60091 0.929922,-0.33055 1.333147,-1.58327 0.901347,-2.79788 -0.4318,-1.21462 -1.535641,-1.93111 -2.465211,-1.60056 -0.929569,0.33056 -1.333147,1.58327 -0.901347,2.79753"
       style="fill:#f89a74;fill-opacity:1;fill-rule:nonzero;stroke:none;stroke-width:0.0352778"
       id="path52746" />
    <path
       d="m 57.207984,175.43422 h -0.79128 c -0.31821,0 -0.578559,-0.26035 -0.578559,-0.57855 0,-0.31856 0.260349,-0.57891 0.578559,-0.57891 h 0.79128 c 0.3182,0 0.57855,0.26035 0.57855,0.57891 0,0.3182 -0.26035,0.57855 -0.57855,0.57855"
       style="fill:#ea765d;fill-opacity:1;fill-rule:nonzero;stroke:none;stroke-width:0.0352778"
       id="path52748" />
    <path
       d="M 46.889231,175.43422 H 46.09795 c -0.318206,0 -0.578556,-0.26035 -0.578556,-0.57855 0,-0.31856 0.26035,-0.57891 0.578556,-0.57891 h 0.791281 c 0.318205,0 0.578555,0.26035 0.578555,0.57891 0,0.3182 -0.26035,0.57855 -0.578555,0.57855"
       style="fill:#ea765d;fill-opacity:1;fill-rule:nonzero;stroke:none;stroke-width:0.0352778"
       id="path52750" />
    <path
       d="m 54.148339,172.60882 c -3.52e-4,0.65652 0.379589,1.18922 0.848784,1.18922 0.469194,3.5e-4 0.849841,-0.53164 0.850194,-1.18851 3.53e-4,-0.65652 -0.379942,-1.18921 -0.849136,-1.18921 -0.468842,-3.6e-4 -0.849489,0.53198 -0.849842,1.1885"
       style="fill:#422319;fill-opacity:1;fill-rule:nonzero;stroke:none;stroke-width:0.0352778"
       id="path52752" />
    <path
       d="m 56.633304,170.75321 c -0.728131,-0.16157 -1.425573,-0.22436 -2.157234,-0.18873 -0.3048,0.0148 -0.554214,-0.24095 -0.541867,-0.5461 l 3.53e-4,-0.004 c 0.01058,-0.26035 0.211314,-0.47589 0.470606,-0.50165 0.853016,-0.0857 1.685925,-0.0134 2.498022,0.22225 0.25188,0.0727 0.40957,0.3235 0.37077,0.58244 l -3.6e-4,0.003 c -0.0455,0.3041 -0.34043,0.49954 -0.64029,0.43286"
       style="fill:#5d301f;fill-opacity:1;fill-rule:nonzero;stroke:none;stroke-width:0.0352778"
       id="path52754" />
    <path
       d="m 49.199572,172.60882 c 3.53e-4,0.65652 -0.379941,1.18922 -0.849136,1.18922 -0.469194,3.5e-4 -0.849489,-0.53164 -0.849842,-1.18851 -3.52e-4,-0.65652 0.379589,-1.18921 0.848784,-1.18921 0.469194,-3.6e-4 0.849842,0.53198 0.850194,1.1885"
       style="fill:#422319;fill-opacity:1;fill-rule:nonzero;stroke:none;stroke-width:0.0352778"
       id="path52756" />
    <path
       d="m 46.736478,170.75321 c 0.728133,-0.16157 1.425575,-0.22436 2.157236,-0.18873 0.3048,0.0148 0.554214,-0.24095 0.541867,-0.5461 l -3.53e-4,-0.004 c -0.01058,-0.26035 -0.211314,-0.47589 -0.470958,-0.50165 -0.852664,-0.0857 -1.685573,-0.0134 -2.49802,0.22225 -0.251531,0.0727 -0.409222,0.3235 -0.370417,0.58244 l 3.53e-4,0.003 c 0.04551,0.3041 0.340431,0.49954 0.640292,0.43286"
       style="fill:#5d301f;fill-opacity:1;fill-rule:nonzero;stroke:none;stroke-width:0.0352778"
       id="path52758" />
    <path
       d="m 41.294527,208.98551 c -0.402519,2.03411 -1.074208,7.27745 -1.153936,9.80546 -0.111478,1.5628 -1.220964,2.60314 0.509411,2.8194 1.903942,0.23777 8.429626,1.4679 11.367207,1.40934 3.704167,-0.0734 8.244415,-0.82373 10.735385,-1.34831 1.71555,-0.3609 0.89923,-1.32751 0.50941,-3.67701 -0.38206,-4.53496 -1.07492,-6.48441 -1.47744,-8.51852 -0.98495,-4.97664 3.14396,-8.99019 2.794,-13.85076 -0.20814,-2.89384 -1.72931,-6.60542 -4.65455,-7.91493 -0.95038,-0.42509 -6.720766,-0.68862 -7.555791,-0.13687 -0.130175,0.0861 -0.890059,-0.004 -0.992012,0.13758 -0.101952,-0.14147 -0.498122,-0.17851 -0.628297,-0.26458 -0.835378,-0.5514 -6.836834,-0.16122 -7.786864,0.26387 -2.925234,1.30951 -4.119034,4.89832 -4.327526,7.79251 -0.349955,4.86057 3.645959,8.50618 2.661003,13.48282"
       style="fill:#504b81;fill-opacity:1;fill-rule:nonzero;stroke:none;stroke-width:0.0352778"
       id="path53334" />
    <path
       d="m 46.755175,184.95111 c 0,0 0.914753,2.34385 5.173839,2.38125 3.322109,0.0296 4.64503,-2.58692 4.64503,-2.58692 l -3.322113,-1.64642 -3.40995,0.0589 -3.086806,1.79317"
       style="fill:#f89a74;fill-opacity:1;fill-rule:nonzero;stroke:none;stroke-width:0.0352778"
       id="path53338" />
    <path
       d="m 33.527066,206.23807 5.458531,1.36984 c 0.252236,0.0635 0.524227,-0.15981 0.606072,-0.49742 l 3.277306,-13.49728 c 0.4953,-2.03905 -0.672748,-4.02766 -2.199217,-4.39808 l -0.299861,-0.073 c -1.20015,-0.29104 -2.664178,-0.14746 -3.927475,2.84303 l -3.678062,11.92777 c -0.398286,1.01283 -0.03351,2.12549 0.762706,2.32516"
       style="fill:#504b81;fill-opacity:1;fill-rule:nonzero;stroke:none;stroke-width:0.0352778"
       id="path53346" />
    <path
       d="m 62.165214,192.96388 c 4.36104,7.30793 5.49169,15.06176 4.99004,22.88723 -0.10371,1.61876 3.60081,1.61541 3.70417,0 0.51435,-8.02099 -0.65264,-16.06546 -5.12233,-23.5562 -0.88407,-1.48099 -4.46864,-0.83359 -3.57188,0.66897"
       style="fill:#f89a74;fill-opacity:1;fill-rule:nonzero;stroke:none;stroke-width:0.0290735"
       id="path53352" />
    <path
       d="m 70.466434,206.23807 -5.45854,1.36984 c -0.25223,0.0635 -0.52458,-0.15981 -0.60642,-0.49742 l -3.27731,-13.49728 c -0.49494,-2.03905 0.6731,-4.02766 2.19957,-4.39808 l 0.29986,-0.073 c 1.1998,-0.29104 2.66418,-0.14746 3.92713,2.84303 l 3.67841,11.92777 c 0.39829,1.01283 0.0332,2.12549 -0.7627,2.32516"
       style="fill:#504b81;fill-opacity:1;fill-rule:nonzero;stroke:none;stroke-width:0.0352778"
       id="path53354" />
    <path
       d="m 41.144244,201.34716 c 0.549981,-3.13267 1.415697,-6.1602 2.605264,-9.11013 0.254706,-0.63147 -0.768703,-0.90594 -1.020586,-0.28152 -1.189214,2.94993 -2.054931,5.97747 -2.605264,9.11049 -0.11677,0.66604 0.903111,0.95179 1.020586,0.28116"
       style="fill:#333050;fill-opacity:1;fill-rule:nonzero;stroke:none;stroke-width:0.0352778"
       id="path53368" />
    <path
       d="m 63.622544,201.066 c -0.54998,-3.13302 -1.4157,-6.16056 -2.60492,-9.11049 -0.25153,-0.62371 -1.27564,-0.35101 -1.02058,0.28152 1.18921,2.94993 2.05493,5.97746 2.60491,9.11013 0.11783,0.66957 1.13771,0.38594 1.02059,-0.28116"
       style="fill:#333050;fill-opacity:1;fill-rule:nonzero;stroke:none;stroke-width:0.0352778"
       id="path53370" />
    <path
       d="m 53.706661,167.36408 -5.361517,-0.28046 c -1.453091,-0.0762 -2.602441,-1.41852 -2.616552,-3.05647 l -0.0014,-0.15099 c -0.01729,-2.00519 1.433337,-3.65548 3.239912,-3.68582 l 11.05888,-0.18662 0.004,0.43145 c 0.03,3.46357 -1.07632,6.83965 -6.322831,6.92891"
       style="fill:#422319;fill-opacity:1;fill-rule:nonzero;stroke:none;stroke-width:0.0352778"
       id="path53650" />
    <path
       d="m 57.618964,175.94293 c -1.03046,-0.005 -2.107491,-0.11113 -3.065283,-0.45473 -0.857603,-0.30763 -1.771297,-0.42828 -2.682522,-0.42933 l -0.728487,-7.1e-4 c -0.847725,-7.1e-4 -1.697214,0.10866 -2.499077,0.38417 -0.930628,0.31997 -2.006953,0.44874 -3.012017,0.4438 l -0.919692,-0.004 c 0,0 1.256947,6.3059 6.901392,6.04132 5.644446,-0.26459 6.790976,-4.67431 7.055556,-5.975 l -1.04987,-0.005"
       style="fill:#b86544;fill-opacity:1;fill-rule:nonzero;stroke:none;stroke-width:0.0352778"
       id="path53656" />
    <path
       d="m 49.562933,176.15671 h 4.182534 c 0.382058,0 0.635353,0.39194 0.4826,0.74224 -0.337608,0.774 -1.080558,1.87572 -2.573867,1.87572 -1.493308,0 -2.236258,-1.10172 -2.574219,-1.87572 -0.152753,-0.3503 0.100894,-0.74224 0.482952,-0.74224"
       style="fill:#fbf9f4;fill-opacity:1;fill-rule:nonzero;stroke:none;stroke-width:0.0352778"
       id="path53662" />
    <path
       d="m 45.770219,176.34509 -1.080205,-0.46319 -0.242711,-4.03472 c 0.451202,0.10583 0.789869,0.48013 0.8509,0.9398 l 0.472016,3.55811"
       style="fill:#b86544;fill-opacity:1;fill-rule:nonzero;stroke:none;stroke-width:0.0352778"
       id="path53664" />
    <path
       d="m 57.632374,176.34509 1.08056,-0.46319 0.24236,-4.03472 c -0.45121,0.10583 -0.78987,0.48013 -0.8509,0.9398 l -0.47202,3.55811"
       style="fill:#b86544;fill-opacity:1;fill-rule:nonzero;stroke:none;stroke-width:0.0352778"
       id="path53666" />
    <path
       d="m 52.087059,187.34153 c 0,0 3.142191,0.38065 3.786011,-5.11034 l 2.465214,2.27295 c 0.51929,0.47836 0.72566,1.20791 0.53446,1.88736 l -1.0922,3.88091 c -0.19086,0.67804 -1.01565,0.93592 -1.55858,0.48718 l -4.134905,-3.41806"
       style="fill:#6966a3;fill-opacity:1;fill-rule:nonzero;stroke:none;stroke-width:0.0352778"
       id="path53672" />
    <path
       d="m 51.678542,187.32213 c 0,0 -1.074561,0.0628 -1.605139,-0.17604 l -3.923242,3.77896 0.07373,0.17956 c 0.2286,0.55739 0.951441,0.70238 1.377597,0.27587 l 4.077053,-4.05835"
       style="fill:#333050;fill-opacity:1;fill-rule:nonzero;stroke:none;stroke-width:0.0352778"
       id="path53674" />
    <path
       d="m 51.764972,187.32213 c 0,0 1.074562,0.0628 1.605139,-0.17604 l 3.923243,3.77896 -0.0734,0.17956 c -0.22895,0.55739 -0.95179,0.70238 -1.377948,0.27587 l -4.077054,-4.05835"
       style="fill:#333050;fill-opacity:1;fill-rule:nonzero;stroke:none;stroke-width:0.0352778"
       id="path53676" />
    <path
       d="m 52.135036,189.06697 c 0,0.27587 -0.223661,0.49988 -0.499886,0.49988 -0.275872,0 -0.499886,-0.22401 -0.499886,-0.49988 0,-0.27588 0.224014,-0.49989 0.499886,-0.49989 0.276225,0 0.499886,0.22401 0.499886,0.49989"
       style="fill:#333050;fill-opacity:1;fill-rule:nonzero;stroke:none;stroke-width:0.0352778"
       id="path53678" />
    <path
       d="m 52.135036,191.03652 c 0,0.27623 -0.223661,0.49989 -0.499886,0.49989 -0.275872,0 -0.499886,-0.22366 -0.499886,-0.49989 0,-0.27587 0.224014,-0.49953 0.499886,-0.49953 0.276225,0 0.499886,0.22366 0.499886,0.49953"
       style="fill:#333050;fill-opacity:1;fill-rule:nonzero;stroke:none;stroke-width:0.0352778"
       id="path53680" />
    <path
       d="m 52.135036,193.00644 c 0,0.27587 -0.223661,0.49953 -0.499886,0.49953 -0.275872,0 -0.499886,-0.22366 -0.499886,-0.49953 0,-0.27623 0.224014,-0.49989 0.499886,-0.49989 0.276225,0 0.499886,0.22366 0.499886,0.49989"
       style="fill:#333050;fill-opacity:1;fill-rule:nonzero;stroke:none;stroke-width:0.0352778"
       id="path53682" />
    <path
       d="m 59.660844,196.62241 h -2.82222 c -0.32456,0 -0.58808,-0.26317 -0.58808,-0.58808 0,-0.32456 0.26352,-0.58808 0.58808,-0.58808 h 2.82222 c 0.32491,0 0.58808,0.26352 0.58808,0.58808 0,0.32491 -0.26317,0.58808 -0.58808,0.58808"
       style="fill:#feffff;fill-opacity:1;fill-rule:nonzero;stroke:none;stroke-width:0.0352778"
       id="path53690" />
    <path
       d="m 51.107747,187.51298 c 0,0 -3.440289,-0.43603 -3.73133,-5.28179 l -2.465212,2.27295 c -0.518936,0.47836 -0.725664,1.20791 -0.534458,1.88736 l 1.09855,3.90349 c 0.189089,0.67204 1.0033,0.93309 1.547636,0.496 l 4.084814,-3.27801"
       style="fill:#6966a3;fill-opacity:1;fill-rule:nonzero;stroke:none;stroke-width:0.0352778"
       id="path53692" />
    <path
       d="m 52.059542,187.33059 c 0,0 0.841375,0.0533 1.406525,-0.35066 l 4.313057,3.3274 -0.0536,0.18662 c -0.16651,0.57926 -0.86924,0.80257 -1.3395,0.4251 l -4.326462,-3.58846"
       style="fill:#feffff;fill-opacity:1;fill-rule:nonzero;stroke:none;stroke-width:0.0352778"
       id="path53696" />
    <path
       d="m 69.989723,208.62574 c 0.61747,-0.37856 2.292559,-0.73486 2.508371,-0.65596 0.212787,-0.0874 1.750408,0.19437 2.382178,0.54847 3.845297,2.15536 9.819571,2.40802 9.962261,6.86557 0,0 -0.03055,2.43221 -2.028088,2.47097 l -10.119508,0.19767 -10.119516,0.19767 c -1.997563,0.039 -2.122656,-2.39015 -2.122656,-2.39015 -0.17567,-4.21507 5.778537,-4.93041 9.536958,-7.23424"
       style="fill:#e33635;fill-opacity:1;fill-rule:nonzero;stroke:none;stroke-width:0.027492"
       id="path50519" />
    <path
       d="m 72.81837,211.25535 h -0.629012 c -0.917134,0 -1.667389,-0.75026 -1.667389,-1.66739 v -5.69138 c 0,-0.91714 0.750255,-1.66739 1.667389,-1.66739 h 0.629012 c 0.916862,0 1.667389,0.75025 1.667389,1.66739 v 5.69138 c 0,0.91713 -0.750527,1.66739 -1.667389,1.66739"
       style="fill:#f89a74;fill-opacity:1;fill-rule:nonzero;stroke:none;stroke-width:0.027492"
       id="path50695" />
    <path
       d="m 70.481009,205.66073 4.040489,-0.78572 -0.05993,1.25996 c -0.163583,1.99316 -3.327079,2.38273 -3.995134,0.1031 l 0.01457,-0.57734"
       style="fill:#ea765d;fill-opacity:1;fill-rule:nonzero;stroke:none;stroke-width:0.027492"
       id="path50697" />
    <path
       d="m 87.280244,220.08302 -2.706312,-6.25415 c -1.232735,-2.20953 -2.379428,-2.19634 -3.284187,-1.86863 l -0.225981,0.0819 c -1.151095,0.41677 -1.886778,2.05667 -1.330062,3.59402 l 2.299698,6.34954 c 0.204542,0.56496 0.828613,0.8572 1.393847,0.65238 l 3.259444,-1.18049 c 0.556988,-0.20152 0.828605,-0.83109 0.593553,-1.3746"
       style="fill:#e33635;fill-opacity:1;fill-rule:nonzero;stroke:none;stroke-width:0.027492"
       id="path51275" />
    <path
       d="m 58.308117,220.22048 2.706313,-6.25415 c 1.232734,-2.20953 2.379154,-2.19633 3.283913,-1.86863 l 0.226254,0.0819 c 1.150815,0.41677 1.886497,2.05667 1.329789,3.59402 l -2.299705,6.34954 c -0.204535,0.56496 -0.828606,0.8572 -1.393567,0.65238 l -3.259716,-1.1805 c -0.556989,-0.20151 -0.828614,-0.83108 -0.593281,-1.37459"
       style="fill:#e33635;fill-opacity:1;fill-rule:nonzero;stroke:none;stroke-width:0.027492"
       id="path51299" />
    <path
       d="m 67.089599,189.13422 c -1.693776,1.15823 -2.128976,3.71307 -2.291452,5.63145 -0.186946,2.20925 0.159452,4.91034 0.817056,7.02667 0.640561,2.06134 2.426716,3.41725 5.001888,3.61519 0.964967,0.0742 0.645236,0.42723 1.63412,0.49541 1.470274,0.10117 1.214601,-0.4943 2.674143,-0.64387 1.931588,-0.19821 3.360893,-0.90942 4.011351,-2.52568 0.516302,-1.28278 0.68675,-3.19677 0.908889,-4.54442 0.27959,-1.69735 0.132512,-3.43622 -0.216364,-5.11131 -0.34915,-1.67535 -0.655407,-3.28693 -2.139427,-4.29232 -2.217769,-1.50298 -5.337563,-0.46296 -5.337563,-0.46296 0,0 -2.426715,-0.99053 -5.062641,0.81184"
       style="fill:#333050;fill-opacity:1;fill-rule:nonzero;stroke:none;stroke-width:0.027492"
       id="path51479" />
    <path
       d="m 72.572322,206.66941 h -0.106671 c -3.234155,0 -5.879978,-2.64582 -5.879978,-5.8797 v -4.56174 c 0,-3.23415 2.646096,-5.87998 5.879978,-5.87998 h 0.106671 c 3.233875,0 5.879706,2.64583 5.879706,5.87998 v 4.56174 c 0,3.23388 -2.645831,5.8797 -5.879706,5.8797"
       style="fill:#f89a74;fill-opacity:1;fill-rule:nonzero;stroke:none;stroke-width:0.027492"
       id="path51481" />
    <path
       d="m 70.678951,201.98698 h 3.522816 c 0.321929,0 0.53527,0.32991 0.406607,0.6249 -0.284265,0.65211 -0.910261,1.57996 -2.168019,1.57996 -1.25775,0 -1.883473,-0.92785 -2.168011,-1.57996 -0.128662,-0.29499 0.08495,-0.6249 0.406607,-0.6249"
       style="fill:#fbf9f4;fill-opacity:1;fill-rule:nonzero;stroke:none;stroke-width:0.027492"
       id="path51483" />
    <path
       d="m 80.37784,200.47355 c -0.363722,1.02298 -1.293497,1.6267 -2.076474,1.3482 -0.78297,-0.27849 -1.122768,-1.33335 -0.759054,-2.35633 0.363995,-1.02325 1.293497,-1.6267 2.076475,-1.34821 0.78297,0.27822 1.123041,1.33337 0.759053,2.35634"
       style="fill:#f89a74;fill-opacity:1;fill-rule:nonzero;stroke:none;stroke-width:0.027492"
       id="path51485" />
    <path
       d="m 64.468519,200.47355 c 0.363714,1.02298 1.293497,1.6267 2.076467,1.3482 0.78297,-0.27849 1.122768,-1.33335 0.759053,-2.35633 -0.363995,-1.02325 -1.293497,-1.6267 -2.076467,-1.34821 -0.782978,0.27822 -1.122776,1.33337 -0.759053,2.35634"
       style="fill:#f89a74;fill-opacity:1;fill-rule:nonzero;stroke:none;stroke-width:0.027492"
       id="path51487" />
    <path
       d="m 77.118116,201.37831 h -0.66613 c -0.268047,0 -0.487436,-0.21938 -0.487436,-0.48743 0,-0.26832 0.219389,-0.48744 0.487436,-0.48744 h 0.66613 c 0.268321,0 0.487709,0.21912 0.487709,0.48744 0,0.26805 -0.219388,0.48743 -0.487709,0.48743"
       style="fill:#ea765d;fill-opacity:1;fill-rule:nonzero;stroke:none;stroke-width:0.027492"
       id="path51489" />
    <path
       d="m 68.42708,201.37831 h -0.666403 c -0.268048,0 -0.487428,-0.21938 -0.487428,-0.48743 0,-0.26832 0.21938,-0.48744 0.487428,-0.48744 h 0.666403 c 0.268048,0 0.487436,0.21912 0.487436,0.48744 0,0.26805 -0.219388,0.48743 -0.487436,0.48743"
       style="fill:#ea765d;fill-opacity:1;fill-rule:nonzero;stroke:none;stroke-width:0.027492"
       id="path51491" />
    <path
       d="m 74.541292,198.99834 c -2.73e-4,0.55313 0.319731,1.0018 0.714789,1.0018 0.395339,2.7e-4 0.715896,-0.44785 0.716169,-1.00099 2.72e-4,-0.55313 -0.319731,-1.00153 -0.715062,-1.0018 -0.395066,-2.7e-4 -0.715615,0.44812 -0.715896,1.00099"
       style="fill:#291e1e;fill-opacity:1;fill-rule:nonzero;stroke:none;stroke-width:0.027492"
       id="path51493" />
    <path
       d="m 76.634257,197.43541 c -0.613067,-0.13608 -1.200846,-0.18886 -1.816945,-0.1589 -0.256771,0.0126 -0.466816,-0.20289 -0.456365,-0.45967 l 2.72e-4,-0.004 c 0.009,-0.21939 0.177876,-0.40056 0.396438,-0.42256 0.718366,-0.0723 1.419962,-0.011 2.104233,0.18722 0.211962,0.0613 0.344747,0.27245 0.312032,0.49074 l -2.73e-4,0.002 c -0.03819,0.25596 -0.286743,0.42063 -0.539392,0.36454"
       style="fill:#39233c;fill-opacity:1;fill-rule:nonzero;stroke:none;stroke-width:0.027492"
       id="path51495" />
    <path
       d="m 70.372967,198.99834 c 2.73e-4,0.55313 -0.319739,1.0018 -0.715069,1.0018 -0.395059,2.7e-4 -0.715616,-0.44785 -0.715888,-1.00099 -2.81e-4,-0.55313 0.319731,-1.00153 0.715061,-1.0018 0.395059,-2.7e-4 0.715616,0.44812 0.715896,1.00099"
       style="fill:#291e1e;fill-opacity:1;fill-rule:nonzero;stroke:none;stroke-width:0.027492"
       id="path51497" />
    <path
       d="m 68.298417,197.43541 c 0.613348,-0.13608 1.200854,-0.18886 1.816945,-0.1589 0.256779,0.0126 0.467089,-0.20289 0.456366,-0.45967 l -2.73e-4,-0.004 c -0.009,-0.21939 -0.177875,-0.40056 -0.39643,-0.42256 -0.718366,-0.0723 -1.419962,-0.011 -2.10396,0.18722 -0.211962,0.0613 -0.345028,0.27245 -0.312313,0.49074 l 2.73e-4,0.002 c 0.0385,0.25596 0.286743,0.42063 0.539392,0.36454"
       style="fill:#39233c;fill-opacity:1;fill-rule:nonzero;stroke:none;stroke-width:0.027492"
       id="path51499" />
    <path
       d="m 75.069688,186.63572 c -1.104072,-0.007 -2.135023,0.47039 -2.749742,0.82696 l -0.05385,0.0437 c -0.580905,-0.4143 -1.496933,-0.9405 -2.527611,-1.05019 -0.265297,-0.0283 -0.4275,0.28179 -0.2477,0.47918 l 1.213221,1.33199 1.625322,1.56539 1.435361,-1.53736 c 0.08962,0.0198 0.183096,-0.004 0.252096,-0.0643 l 1.24539,-1.09142 c 0.200686,-0.17568 0.0745,-0.50228 -0.192448,-0.50394"
       style="fill:#333050;fill-opacity:1;fill-rule:nonzero;stroke:none;stroke-width:0.027492"
       id="path51519" />
    <path
       d="m 70.652003,190.93164 c 0.363995,2.39647 1.848841,4.58126 3.893412,5.87118 0.623798,0.39342 1.422985,-0.13305 1.316042,-0.86297 l -0.444817,-3.03318 c -0.126192,-0.85941 -0.574585,-2.6758 -1.210197,-3.26742 -0.570736,-0.53087 -1.249513,-0.1798 -1.961824,0.0319 -0.440422,0.13087 -0.882222,0.27272 -1.237964,0.56303 -0.356023,0.2906 -0.563037,0.93501 -0.254301,1.27536 l -0.100351,-0.57788"
       style="fill:#333050;fill-opacity:1;fill-rule:nonzero;stroke:none;stroke-width:0.027492"
       id="path51525" />
    <path
       d="m 73.358869,191.2533 c 2.25269,2.28073 3.594566,4.87185 4.413555,7.8561 0.182823,0.66586 1.135689,0.6884 1.335836,0.0277 0.787365,-2.59826 0.39671,-5.31529 -0.914383,-7.89294 -0.493757,-0.97129 -2.453936,-1.55686 -3.584677,-1.5838 -0.05167,-0.002 -0.09952,0.0217 -0.133611,0.061 l -1.125518,1.29845 c -0.05884,0.0682 -0.0544,0.16963 0.0088,0.23341"
       style="fill:#333050;fill-opacity:1;fill-rule:nonzero;stroke:none;stroke-width:0.027492"
       id="path51527" />
    <path
       d="m 65.987997,199.3923 c 0.164128,0.56303 0.992461,0.50887 1.077413,-0.0715 0.377734,-2.58231 1.458716,-5.07666 3.19099,-7.10089 0.52619,-0.615 1.140917,-1.34519 0.776096,-2.16032 -0.212788,-0.47561 -0.699943,-0.76702 -1.219268,-0.80799 -1.416385,-0.11189 -2.605962,0.89047 -3.203085,2.10451 -0.502282,1.0216 -0.949577,3.14618 -1.027927,4.28187 -0.101995,1.48182 0.117393,2.76487 0.405781,3.75431"
       style="fill:#333050;fill-opacity:1;fill-rule:nonzero;stroke:none;stroke-width:0.027492"
       id="path51535" />
    <path
       d="m 71.479791,192.0841 c 0.567984,1.5731 1.483739,2.94852 2.739845,4.05617 0.428599,0.37829 1.061469,-0.24991 0.630119,-0.63039 -1.138167,-1.00373 -1.99454,-2.23399 -2.510568,-3.66275 -0.193267,-0.53555 -1.055141,-0.30462 -0.859396,0.23697"
       style="fill:#42406a;fill-opacity:1;fill-rule:nonzero;stroke:none;stroke-width:0.027492"
       id="path51537" />
    <path
       d="m 75.02625,192.42281 c 1.386974,1.80402 2.292279,3.8299 2.706313,6.06802 0.104465,0.56331 0.963588,0.32468 0.859668,-0.23698 -0.426947,-2.30685 -1.366073,-4.4207 -2.796204,-6.28109 -0.344747,-0.44839 -1.119472,-0.005 -0.769777,0.45005"
       style="fill:#42406a;fill-opacity:1;fill-rule:nonzero;stroke:none;stroke-width:0.027492"
       id="path51539" />
    <path
       d="m 66.863618,198.15351 c 0.186946,-1.85213 0.842625,-3.54619 1.912611,-5.06622 0.330727,-0.47012 -0.441792,-0.91576 -0.769776,-0.44977 -1.164835,1.65446 -1.831237,3.50522 -2.034128,5.51599 -0.05775,0.57018 0.834108,0.56606 0.891293,0"
       style="fill:#42406a;fill-opacity:1;fill-rule:nonzero;stroke:none;stroke-width:0.027492"
       id="path51541" />
    <path
       d="m 67.760132,209.76171 c 0,0 0.713137,2.52459 4.940026,2.52459 4.226889,0 4.788273,-2.58892 4.788273,-2.58892 l -2.399774,-1.00951 -6.267337,0.58421 -1.061188,0.48963"
       style="fill:#feffff;fill-opacity:1;fill-rule:nonzero;stroke:none;stroke-width:0.027492"
       id="path51897" />
    <path
       d="m 68.662413,209.33641 c 0,0 0.741456,1.88952 4.060563,1.91894 2.588919,0.0228 3.61987,-2.01599 3.61987,-2.01599 l -2.588919,-1.28305 -2.657372,0.0459 -2.434142,1.33419"
       style="fill:#f89a74;fill-opacity:1;fill-rule:nonzero;stroke:none;stroke-width:0.027492"
       id="path51899" />
  </g>
</svg>
