<?xml version="1.0" encoding="UTF-8" standalone="no"?>
<!-- Created with Inkscape (http://www.inkscape.org/) -->

<svg
   width="55.428398mm"
   height="36.357361mm"
   viewBox="0 0 55.428398 36.357361"
   version="1.1"
   id="svg54715"
   inkscape:version="1.1.1 (eb90963e84, 2021-10-02)"
   sodipodi:docname="case2-tile.svg"
   inkscape:export-filename="/home/bolarinwa/Downloads/case2-tile.png"
   inkscape:export-xdpi="98.489998"
   inkscape:export-ydpi="98.489998"
   xmlns:inkscape="http://www.inkscape.org/namespaces/inkscape"
   xmlns:sodipodi="http://sodipodi.sourceforge.net/DTD/sodipodi-0.dtd"
   xmlns="http://www.w3.org/2000/svg"
   xmlns:svg="http://www.w3.org/2000/svg">
  <sodipodi:namedview
     id="namedview54717"
     pagecolor="#ffffff"
     bordercolor="#666666"
     borderopacity="1.0"
     inkscape:pageshadow="2"
     inkscape:pageopacity="0.0"
     inkscape:pagecheckerboard="0"
     inkscape:document-units="mm"
     showgrid="false"
     inkscape:zoom="0.25000001"
     inkscape:cx="-285.99999"
     inkscape:cy="65.999998"
     inkscape:window-width="1920"
     inkscape:window-height="1017"
     inkscape:window-x="0"
     inkscape:window-y="30"
     inkscape:window-maximized="1"
     inkscape:current-layer="layer1"
     fit-margin-top="0"
     fit-margin-left="0"
     fit-margin-right="0"
     fit-margin-bottom="0" />
  <defs
     id="defs54712" />
  <g
     inkscape:label="Layer 1"
     inkscape:groupmode="layer"
     id="layer1"
     transform="translate(-81.348472,-144.07261)">
    <path
       d="m 101.36345,160.31959 c -1.1823,-0.22846 -2.28304,0.0477 -2.40345,0.64148 -0.120403,0.5941 0.78486,1.28122 1.96745,1.50967 1.18229,0.22815 2.45791,-0.0215 2.57831,-0.61558 0.12071,-0.59381 -0.95972,-1.30713 -2.14231,-1.53557"
       style="fill:#ffffff;fill-opacity:1;fill-rule:nonzero;stroke:none;stroke-width:0.0294396"
       id="path54255"
       inkscape:export-filename="/home/bolarinwa/Downloads/path54255.png"
       inkscape:export-xdpi="98.489998"
       inkscape:export-ydpi="98.489998" />
    <path
       d="m 101.36345,160.31959 c -1.1823,-0.22846 -2.28304,0.0477 -2.40345,0.64148 -0.120403,0.5941 0.78486,1.28122 1.96745,1.50967 1.18229,0.22815 2.45791,-0.0215 2.57831,-0.61558 0.12071,-0.59381 -0.95972,-1.30713 -2.14231,-1.53557 z"
       style="fill:none;stroke:#0e0f0e;stroke-width:0.275851;stroke-linecap:round;stroke-linejoin:round;stroke-miterlimit:10;stroke-dasharray:none;stroke-opacity:1"
       id="path54257"
       inkscape:export-filename="/home/bolarinwa/Downloads/path54255.png"
       inkscape:export-xdpi="98.489998"
       inkscape:export-ydpi="98.489998" />
    <path
       d="m 99.45193,162.07271 0.47016,-2.34692 c -0.44513,-0.70037 -0.30441,-1.56324 0.0174,-2.40875 0.23875,-0.62795 0.60616,-0.94089 1.02773,-1.05335 0.0688,-0.32 1.20732,-3.83421 1.7602,-3.61812 0.69418,0.27114 -0.44131,3.32402 -0.60558,3.67612 0.0607,-0.14367 0.12129,-0.26054 0.2155,-0.41186 0.38889,-0.6253 1.61123,-0.12423 0.94206,0.83314 -0.038,0.0547 -0.0206,0.12747 -0.0451,0.18665 0.30146,-0.11099 0.60263,-0.0939 0.77721,0.0921 0.16397,0.17458 0.16192,0.44542 0.0468,0.71244 0.15662,0.002 0.30087,0.0395 0.39801,0.14278 0.23846,0.25436 0.13013,0.7301 -0.24199,1.06277 -0.0907,0.081 -0.17281,0.56524 -0.5149,0.98299 -0.23522,0.28703 -0.75012,0.64768 -1.07836,0.79104 l -0.31619,1.54676 c 0,0 -0.79221,0.39567 -1.88443,0.20725 -1.09191,-0.1887 -0.96856,-0.39508 -0.96856,-0.39508"
       style="fill:#efdac9;fill-opacity:1;fill-rule:nonzero;stroke:none;stroke-width:0.0294396"
       id="path54259"
       inkscape:export-filename="/home/bolarinwa/Downloads/path54255.png"
       inkscape:export-xdpi="98.489998"
       inkscape:export-ydpi="98.489998" />
    <path
       d="m 99.45193,162.07271 0.47016,-2.34692 c -0.44513,-0.70037 -0.30441,-1.56324 0.0174,-2.40875 0.23875,-0.62795 0.60616,-0.94089 1.02773,-1.05335 0.0688,-0.32 1.20732,-3.83421 1.7602,-3.61812 0.69418,0.27114 -0.44131,3.32402 -0.60558,3.67612 0.0607,-0.14367 0.12129,-0.26054 0.2155,-0.41186 0.38889,-0.6253 1.61123,-0.12423 0.94206,0.83314 -0.038,0.0547 -0.0206,0.12747 -0.0451,0.18665 0.30146,-0.11099 0.60263,-0.0939 0.77721,0.0921 0.16397,0.17458 0.16192,0.44542 0.0468,0.71244 0.15662,0.002 0.30087,0.0395 0.39801,0.14278 0.23846,0.25436 0.13013,0.7301 -0.24199,1.06277 -0.0907,0.081 -0.17281,0.56524 -0.5149,0.98299 -0.23522,0.28703 -0.75012,0.64768 -1.07836,0.79104 l -0.31619,1.54676 c 0,0 -0.79221,0.39567 -1.88443,0.20725 -1.09191,-0.1887 -0.96856,-0.39508 -0.96856,-0.39508 z"
       style="fill:none;stroke:#0e0f0e;stroke-width:0.275851;stroke-linecap:round;stroke-linejoin:round;stroke-miterlimit:10;stroke-dasharray:none;stroke-opacity:1"
       id="path54261"
       inkscape:export-filename="/home/bolarinwa/Downloads/path54255.png"
       inkscape:export-xdpi="98.489998"
       inkscape:export-ydpi="98.489998" />
    <path
       d="m 102.82071,161.13448 -0.25053,1.04039 c 0,0 -1.57855,0.68034 -3.19567,-0.57849 l 0.17016,-1.25207 c 0,0 0.87141,1.38926 3.27604,0.79017"
       style="fill:#ffffff;fill-opacity:1;fill-rule:nonzero;stroke:none;stroke-width:0.0294396"
       id="path54263"
       inkscape:export-filename="/home/bolarinwa/Downloads/path54255.png"
       inkscape:export-xdpi="98.489998"
       inkscape:export-ydpi="98.489998" />
    <path
       d="m 102.82071,161.13448 -0.25053,1.04039 c 0,0 -1.57855,0.68034 -3.19567,-0.57849 l 0.17016,-1.25207 c 0,0 0.87141,1.38926 3.27604,0.79017 z"
       style="fill:none;stroke:#0e0f0e;stroke-width:0.275851;stroke-linecap:round;stroke-linejoin:round;stroke-miterlimit:10;stroke-dasharray:none;stroke-opacity:1"
       id="path54265"
       inkscape:export-filename="/home/bolarinwa/Downloads/path54255.png"
       inkscape:export-xdpi="98.489998"
       inkscape:export-ydpi="98.489998" />
    <path
       d="m 103.98769,159.1005 c -0.66592,0.50371 -1.23676,-0.0159 -1.03921,-0.4048 0.15337,-0.30235 0.40449,-0.53345 0.68682,-0.70773"
       style="fill:none;stroke:#0e0f0e;stroke-width:0.275851;stroke-linecap:round;stroke-linejoin:miter;stroke-miterlimit:10;stroke-dasharray:none;stroke-opacity:1"
       id="path54267"
       inkscape:export-filename="/home/bolarinwa/Downloads/path54255.png"
       inkscape:export-xdpi="98.489998"
       inkscape:export-ydpi="98.489998" />
    <path
       d="m 102.8943,158.71189 c -0.24817,0.17576 -0.69359,-0.0427 -0.81988,-0.26407 -0.0807,-0.14161 -0.0315,-0.32178 0.0607,-0.46721 0.18047,-0.28557 0.61029,-0.72922 0.90115,-0.89143"
       style="fill:none;stroke:#0e0f0e;stroke-width:0.275851;stroke-linecap:round;stroke-linejoin:miter;stroke-miterlimit:10;stroke-dasharray:none;stroke-opacity:1"
       id="path54269"
       inkscape:export-filename="/home/bolarinwa/Downloads/path54255.png"
       inkscape:export-xdpi="98.489998"
       inkscape:export-ydpi="98.489998" />
    <path
       d="m 99.8585,157.54579 c 0.14131,-0.77779 1.10869,-1.68542 1.97451,-1.27091 0.49046,0.23493 1.26884,0.25318 1.18936,0.53639 -0.16574,0.5885 -1.01184,0.45955 -1.40633,0.36476 -0.10686,-0.0259 -0.252,0.36564 -0.27202,0.58996 0,0 0.33502,0.41069 0.22286,1.47287"
       style="fill:none;stroke:#0e0f0e;stroke-width:0.275851;stroke-linecap:round;stroke-linejoin:miter;stroke-miterlimit:10;stroke-dasharray:none;stroke-opacity:1"
       id="path54271"
       inkscape:export-filename="/home/bolarinwa/Downloads/path54255.png"
       inkscape:export-xdpi="98.489998"
       inkscape:export-ydpi="98.489998" />
    <path
       d="m 101.61604,157.17603 c -0.11275,-0.0736 -0.22403,-0.009 -0.27202,0.0713 -0.0441,0.0854 -0.0412,0.19429 0.0657,0.26937 0.0597,-0.0318 0.0933,-0.0559 0.11953,-0.0769 0.0274,-0.0203 0.042,-0.038 0.0545,-0.0565 0.0218,-0.04 0.015,-0.0804 0.0324,-0.20725"
       style="fill:#0e0f0e;fill-opacity:1;fill-rule:nonzero;stroke:none;stroke-width:0.0294396"
       id="path54273"
       inkscape:export-filename="/home/bolarinwa/Downloads/path54255.png"
       inkscape:export-xdpi="98.489998"
       inkscape:export-ydpi="98.489998" />
    <path
       d="m 101.50506,157.49456 c 0,0 0.0754,0.32943 0.53109,0.40656"
       style="fill:none;stroke:#0e0f0e;stroke-width:0.275851;stroke-linecap:round;stroke-linejoin:miter;stroke-miterlimit:10;stroke-dasharray:none;stroke-opacity:1"
       id="path54275"
       inkscape:export-filename="/home/bolarinwa/Downloads/path54255.png"
       inkscape:export-xdpi="98.489998"
       inkscape:export-ydpi="98.489998" />
    <path
       d="m 133.11415,168.60151 c -0.035,0.2094 -0.059,0.42649 -0.0696,0.65032 -0.0831,1.73098 0.64134,2.84755 1.59854,2.88988 0.95785,0.042 1.7858,-1.00627 1.86886,-2.73723 0.011,-0.22383 0.008,-0.44221 -0.007,-0.65354 0,0 -0.77443,0.0591 -1.70051,0.0166 -0.92546,-0.0424 -1.69056,-0.16611 -1.69056,-0.16611"
       style="fill:#ffffff;fill-opacity:1;fill-rule:nonzero;stroke:none;stroke-width:0.0320669"
       id="path54291"
       inkscape:export-filename="/home/bolarinwa/Downloads/path54255.png"
       inkscape:export-xdpi="98.489998"
       inkscape:export-ydpi="98.489998" />
    <path
       d="m 133.11415,168.60151 c -0.035,0.2094 -0.059,0.42649 -0.0696,0.65032 -0.0831,1.73098 0.64134,2.84755 1.59854,2.88988 0.95785,0.042 1.7858,-1.00627 1.86886,-2.73723 0.011,-0.22383 0.008,-0.44221 -0.007,-0.65354 0,0 -0.77443,0.0591 -1.70051,0.0166 -0.92546,-0.0424 -1.69056,-0.16611 -1.69056,-0.16611 z"
       style="fill:none;stroke:#0e0f0e;stroke-width:0.30047;stroke-linecap:round;stroke-linejoin:round;stroke-miterlimit:10;stroke-dasharray:none;stroke-opacity:1"
       id="path54293"
       inkscape:export-filename="/home/bolarinwa/Downloads/path54255.png"
       inkscape:export-xdpi="98.489998"
       inkscape:export-ydpi="98.489998" />
    <path
       d="m 134.89002,169.09726 -0.10489,-0.007 c -0.12184,-0.008 -0.21485,-0.11127 -0.2078,-0.2328 l 0.0917,-1.61073 c 0.008,-0.12185 0.11128,-0.21484 0.23313,-0.20779 l 0.10489,0.007 c 0.12155,0.007 0.21453,0.11095 0.2078,0.23249 l -0.092,1.61103 c -0.007,0.12154 -0.11096,0.21453 -0.23281,0.2078"
       style="fill:#61abd8;fill-opacity:1;fill-rule:nonzero;stroke:none;stroke-width:0.0320669"
       id="path54295"
       inkscape:export-filename="/home/bolarinwa/Downloads/path54255.png"
       inkscape:export-xdpi="98.489998"
       inkscape:export-ydpi="98.489998" />
    <path
       d="m 134.89002,169.09726 -0.10489,-0.007 c -0.12184,-0.008 -0.21485,-0.11127 -0.2078,-0.2328 l 0.0917,-1.61073 c 0.008,-0.12185 0.11128,-0.21484 0.23313,-0.20779 l 0.10489,0.007 c 0.12155,0.007 0.21453,0.11095 0.2078,0.23249 l -0.092,1.61103 c -0.007,0.12154 -0.11096,0.21453 -0.23281,0.2078 z"
       style="fill:none;stroke:#0e0f0e;stroke-width:0.30047;stroke-linecap:round;stroke-linejoin:miter;stroke-miterlimit:10;stroke-dasharray:none;stroke-opacity:1"
       id="path54297"
       inkscape:export-filename="/home/bolarinwa/Downloads/path54255.png"
       inkscape:export-xdpi="98.489998"
       inkscape:export-ydpi="98.489998" />
    <path
       d="m 134.8541,169.96853 -0.10521,-0.007 c -0.12154,-0.008 -0.21421,-0.11096 -0.20747,-0.23281 l 0.0917,-1.61073 c 0.008,-0.12152 0.11127,-0.21485 0.23313,-0.20779 l 0.10488,0.007 c 0.12186,0.007 0.21484,0.11129 0.20747,0.23281 l -0.0917,1.61104 c -0.007,0.12154 -0.11128,0.21421 -0.23281,0.20748"
       style="fill:#cccbcd;fill-opacity:1;fill-rule:nonzero;stroke:none;stroke-width:0.0320669"
       id="path54299"
       inkscape:export-filename="/home/bolarinwa/Downloads/path54255.png"
       inkscape:export-xdpi="98.489998"
       inkscape:export-ydpi="98.489998" />
    <path
       d="m 134.8541,169.96853 -0.10521,-0.007 c -0.12154,-0.008 -0.21421,-0.11096 -0.20747,-0.23281 l 0.0917,-1.61073 c 0.008,-0.12152 0.11127,-0.21485 0.23313,-0.20779 l 0.10488,0.007 c 0.12186,0.007 0.21484,0.11129 0.20747,0.23281 l -0.0917,1.61104 c -0.007,0.12154 -0.11128,0.21421 -0.23281,0.20748 z"
       style="fill:none;stroke:#0e0f0e;stroke-width:0.30047;stroke-linecap:round;stroke-linejoin:miter;stroke-miterlimit:10;stroke-dasharray:none;stroke-opacity:1"
       id="path54301"
       inkscape:export-filename="/home/bolarinwa/Downloads/path54255.png"
       inkscape:export-xdpi="98.489998"
       inkscape:export-ydpi="98.489998" />
    <path
       d="m 134.23809,160.54439 c 0,0 -1.48053,2.29374 -3.49754,5.59406 -2.02534,3.31445 -5.09832,8.57503 -5.09832,8.57503 0,0 -0.56727,-1.45938 -0.48711,-4.20077 0.0802,-2.7414 0.63205,-7.53894 1.87753,-8.91333 0,0 6.67345,-5.20446 7.20544,-1.05499"
       style="fill:#ffffff;fill-opacity:1;fill-rule:nonzero;stroke:none;stroke-width:0.0320669"
       id="path54309"
       inkscape:export-filename="/home/bolarinwa/Downloads/path54255.png"
       inkscape:export-xdpi="98.489998"
       inkscape:export-ydpi="98.489998" />
    <path
       d="m 134.23809,160.54439 c 0,0 -1.48053,2.29374 -3.49754,5.59406 -2.02534,3.31445 -5.09832,8.57503 -5.09832,8.57503 0,0 -0.56727,-1.45938 -0.48711,-4.20077 0.0802,-2.7414 0.63205,-7.53894 1.87753,-8.91333 0,0 6.67345,-5.20446 7.20544,-1.05499 z"
       style="fill:none;stroke:#0e0f0e;stroke-width:0.30047;stroke-linecap:round;stroke-linejoin:round;stroke-miterlimit:10;stroke-dasharray:none;stroke-opacity:1"
       id="path54311"
       inkscape:export-filename="/home/bolarinwa/Downloads/path54255.png"
       inkscape:export-xdpi="98.489998"
       inkscape:export-ydpi="98.489998" />
    <path
       d="m 127.53225,165.42368 c 0,0 -0.62788,0.77024 -1.01493,1.72328 -0.42456,1.04602 -0.9575,3.2115 -0.94917,4.06256 0.0111,1.19032 -0.11288,2.30401 0.0741,3.50396 0,0 2.04748,-2.11353 2.74847,-4.52337 0.14333,-0.49191 0.21868,-1.7592 0.25813,-2.82765 0.0341,-0.92289 -0.21517,-1.66973 -0.21517,-1.66973 l -0.9014,-0.26905"
       style="fill:#859bb9;fill-opacity:1;fill-rule:nonzero;stroke:none;stroke-width:0.0320669"
       id="path54313"
       inkscape:export-filename="/home/bolarinwa/Downloads/path54255.png"
       inkscape:export-xdpi="98.489998"
       inkscape:export-ydpi="98.489998" />
    <path
       d="m 127.53225,165.42368 c 0,0 -0.62788,0.77024 -1.01493,1.72328 -0.42456,1.04602 -0.9575,3.2115 -0.94917,4.06256 0.0111,1.19032 -0.11288,2.30401 0.0741,3.50396 0,0 2.04748,-2.11353 2.74847,-4.52337 0.14333,-0.49191 0.21868,-1.7592 0.25813,-2.82765 0.0341,-0.92289 -0.21517,-1.66973 -0.21517,-1.66973 z"
       style="fill:none;stroke:#0e0f0e;stroke-width:0.30047;stroke-linecap:round;stroke-linejoin:round;stroke-miterlimit:10;stroke-dasharray:none;stroke-opacity:1"
       id="path54315"
       inkscape:export-filename="/home/bolarinwa/Downloads/path54255.png"
       inkscape:export-xdpi="98.489998"
       inkscape:export-ydpi="98.489998" />
    <path
       d="m 125.9366,165.48526 c 0,0 0.63973,-1.15795 1.35932,-1.85412 0.71959,-0.69617 1.3436,-1.03127 1.3436,-1.03127 0,0 1.4568,1.34809 1.68384,2.90943"
       style="fill:none;stroke:#0e0f0e;stroke-width:0.30047;stroke-linecap:round;stroke-linejoin:round;stroke-miterlimit:10;stroke-dasharray:none;stroke-opacity:1"
       id="path54317"
       inkscape:export-filename="/home/bolarinwa/Downloads/path54255.png"
       inkscape:export-xdpi="98.489998"
       inkscape:export-ydpi="98.489998" />
    <path
       d="m 126.98871,164.06757 c 0,0 0.14303,0.93924 0.52078,1.54724 0,0 0.1831,0.16001 0.70483,0.1398 0.52141,-0.0202 1.03801,-0.38319 1.75118,-1.40998 0,0 -0.57207,-1.41351 -1.20861,-2.04235 0,0 -1.69987,1.32084 -1.76818,1.76529"
       style="fill:#859bb9;fill-opacity:1;fill-rule:nonzero;stroke:none;stroke-width:0.0320669"
       id="path54319"
       inkscape:export-filename="/home/bolarinwa/Downloads/path54255.png"
       inkscape:export-xdpi="98.489998"
       inkscape:export-ydpi="98.489998" />
    <path
       d="m 126.98871,164.06757 c 0,0 0.14303,0.93924 0.52078,1.54724 0,0 0.1831,0.16001 0.70483,0.1398 0.52141,-0.0202 1.03801,-0.38319 1.75118,-1.40998 0,0 -0.57207,-1.41351 -1.20861,-2.04235 0,0 -1.69987,1.32084 -1.76818,1.76529 z"
       style="fill:none;stroke:#0e0f0e;stroke-width:0.30047;stroke-linecap:round;stroke-linejoin:round;stroke-miterlimit:10;stroke-dasharray:none;stroke-opacity:1"
       id="path54321"
       inkscape:export-filename="/home/bolarinwa/Downloads/path54255.png"
       inkscape:export-xdpi="98.489998"
       inkscape:export-ydpi="98.489998" />
    <path
       d="m 128.67801,160.3648 -2.56922,1.36509 -0.45181,0.82989 -1.30994,1.26313 c 0,0 -0.60221,4.22898 1.22816,11.01274 0,0 0.0539,-2.8469 0.16579,-7.32602 0.051,-2.04746 0.47139,-3.31219 0.83245,-4.23924 0.20556,-0.52718 1.32021,-2.01251 2.10457,-2.90559"
       style="fill:#ffffff;fill-opacity:1;fill-rule:nonzero;stroke:none;stroke-width:0.0320669"
       id="path54323"
       inkscape:export-filename="/home/bolarinwa/Downloads/path54255.png"
       inkscape:export-xdpi="98.489998"
       inkscape:export-ydpi="98.489998" />
    <path
       d="m 128.67801,160.3648 -2.56922,1.36509 -0.45181,0.82989 -1.30994,1.26313 c 0,0 -0.60221,4.22898 1.22816,11.01274 0,0 0.0539,-2.8469 0.16579,-7.32602 0.051,-2.04746 0.47139,-3.31219 0.83245,-4.23924 0.20556,-0.52718 1.32021,-2.01251 2.10457,-2.90559 z"
       style="fill:none;stroke:#0e0f0e;stroke-width:0.30047;stroke-linecap:round;stroke-linejoin:round;stroke-miterlimit:10;stroke-dasharray:none;stroke-opacity:1"
       id="path54325"
       inkscape:export-filename="/home/bolarinwa/Downloads/path54255.png"
       inkscape:export-xdpi="98.489998"
       inkscape:export-ydpi="98.489998" />
    <path
       d="m 127.06985,177.36669 c 0.0138,0.34247 0.27481,0.61087 0.58265,0.59868 0.30785,-0.0118 0.54579,-0.29885 0.53168,-0.64164 -0.0138,-0.34249 -0.27482,-0.61056 -0.58266,-0.59902 -0.30752,0.0118 -0.54579,0.2995 -0.53167,0.64198 z"
       style="fill:none;stroke:#0e0f0e;stroke-width:0.30047;stroke-linecap:round;stroke-linejoin:round;stroke-miterlimit:10;stroke-dasharray:none;stroke-opacity:1"
       id="path54329"
       inkscape:export-filename="/home/bolarinwa/Downloads/path54255.png"
       inkscape:export-xdpi="98.489998"
       inkscape:export-ydpi="98.489998" />
    <path
       d="m 124.46762,177.24676 c 0.0317,0.76896 1.03287,0.84945 0.99632,-0.0384 -0.0126,-0.30625 -0.24533,-0.54578 -0.52077,-0.5352 -0.27513,0.011 -0.48774,0.26744 -0.47555,0.57367 z"
       style="fill:none;stroke:#0e0f0e;stroke-width:0.30047;stroke-linecap:round;stroke-linejoin:round;stroke-miterlimit:10;stroke-dasharray:none;stroke-opacity:1"
       id="path54337"
       inkscape:export-filename="/home/bolarinwa/Downloads/path54255.png"
       inkscape:export-xdpi="98.489998"
       inkscape:export-ydpi="98.489998" />
    <path
       d="m 128.27493,156.08996 c 0.14206,1.01364 0.13595,2.19466 0.14975,3.18489 0.008,0.59421 0.0292,0.9123 0.0584,1.49079 0.011,0.20395 0.37518,1.03673 0.37518,1.03673 0,0 0.51403,-0.14559 2.29375,-0.94534 1.65625,-0.74426 2.11161,-1.26664 2.11161,-1.26664 -0.0962,-0.20459 -0.022,-2.21005 0.0757,-3.98207 l -5.06433,0.48164"
       style="fill:#efdac9;fill-opacity:1;fill-rule:nonzero;stroke:none;stroke-width:0.0320669"
       id="path54343"
       inkscape:export-filename="/home/bolarinwa/Downloads/path54255.png"
       inkscape:export-xdpi="98.489998"
       inkscape:export-ydpi="98.489998" />
    <path
       d="m 128.27493,156.08996 c 0.14206,1.01364 0.13595,2.19466 0.14975,3.18489 0.008,0.59421 0.0292,0.9123 0.0584,1.49079 0.011,0.20395 0.37518,1.03673 0.37518,1.03673 0,0 0.51403,-0.14559 2.29375,-0.94534 1.65625,-0.74426 2.11161,-1.26664 2.11161,-1.26664 -0.0962,-0.20459 -0.022,-2.21005 0.0757,-3.98207 z"
       style="fill:none;stroke:#0e0f0e;stroke-width:0.30047;stroke-linecap:round;stroke-linejoin:round;stroke-miterlimit:10;stroke-dasharray:none;stroke-opacity:1"
       id="path54345"
       inkscape:export-filename="/home/bolarinwa/Downloads/path54255.png"
       inkscape:export-xdpi="98.489998"
       inkscape:export-ydpi="98.489998" />
    <path
       d="m 134.23809,159.97487 c 0,0 0.13468,-0.0235 0.86228,0.28861 0.67629,0.29021 1.26825,0.77666 1.26825,0.77666 0,0 -1.26984,1.45776 -2.30145,2.0959 -0.21709,0.13403 1.18905,0.92128 1.18905,0.92128 -4.27453,5.55623 -3.87015,6.11579 -10.45671,11.55883 0,0 4.34411,-8.98483 6.72604,-12.53591 0.15808,-0.23602 2.62788,-2.89629 2.71254,-3.10537"
       style="fill:#ffffff;fill-opacity:1;fill-rule:nonzero;stroke:none;stroke-width:0.0320669"
       id="path54347"
       inkscape:export-filename="/home/bolarinwa/Downloads/path54255.png"
       inkscape:export-xdpi="98.489998"
       inkscape:export-ydpi="98.489998" />
    <path
       d="m 134.23809,159.97487 c 0,0 0.13468,-0.0235 0.86228,0.28861 0.67629,0.29021 1.26825,0.77666 1.26825,0.77666 0,0 -1.26984,1.45776 -2.30145,2.0959 -0.21709,0.13403 1.18905,0.92128 1.18905,0.92128 -4.27453,5.55623 -3.87015,6.11579 -10.45671,11.55883 0,0 4.34411,-8.98483 6.72604,-12.53591 0.15808,-0.23602 2.62788,-2.89629 2.71254,-3.10537 z"
       style="fill:none;stroke:#0e0f0e;stroke-width:0.30047;stroke-linecap:round;stroke-linejoin:round;stroke-miterlimit:10;stroke-dasharray:none;stroke-opacity:1"
       id="path54349"
       inkscape:export-filename="/home/bolarinwa/Downloads/path54255.png"
       inkscape:export-xdpi="98.489998"
       inkscape:export-ydpi="98.489998" />
    <path
       d="m 134.07969,153.91615 c -0.24725,0.74203 -0.76609,2.03048 -0.0811,2.25847 0.68431,0.228 1.42281,-0.0567 2.08306,-1.49432 0.32645,-0.71092 0.0478,-1.65498 -0.63684,-1.88329 -0.68431,-0.22799 -1.11818,0.37711 -1.36509,1.11914"
       style="fill:#efdac9;fill-opacity:1;fill-rule:nonzero;stroke:none;stroke-width:0.0320669"
       id="path54385"
       inkscape:export-filename="/home/bolarinwa/Downloads/path54255.png"
       inkscape:export-xdpi="98.489998"
       inkscape:export-ydpi="98.489998" />
    <path
       d="m 134.07969,153.91615 c -0.24725,0.74203 -0.76609,2.03048 -0.0811,2.25847 0.68431,0.228 1.42281,-0.0567 2.08306,-1.49432 0.32645,-0.71092 0.0478,-1.65498 -0.63684,-1.88329 -0.68431,-0.22799 -1.11818,0.37711 -1.36509,1.11914 z"
       style="fill:none;stroke:#0e0f0e;stroke-width:0.30047;stroke-linecap:round;stroke-linejoin:round;stroke-miterlimit:10;stroke-dasharray:none;stroke-opacity:1"
       id="path54387"
       inkscape:export-filename="/home/bolarinwa/Downloads/path54255.png"
       inkscape:export-xdpi="98.489998"
       inkscape:export-ydpi="98.489998" />
    <path
       d="m 130.2525,145.9783 c -1.82237,-0.0292 -3.74223,1.07424 -4.34156,4.03049 0,0 -1.4196,8.09209 3.20702,9.41165 0,0 3.27822,0.81449 4.86553,-3.07939 0,0 0.99439,-3.10825 1.04153,-5.80283 0.026,-1.47476 -0.78436,-4.49579 -4.77252,-4.55992"
       style="fill:#efdac9;fill-opacity:1;fill-rule:nonzero;stroke:none;stroke-width:0.0320669"
       id="path54389"
       inkscape:export-filename="/home/bolarinwa/Downloads/path54255.png"
       inkscape:export-xdpi="98.489998"
       inkscape:export-ydpi="98.489998" />
    <path
       d="m 125.67622,152.44492 c 0,0 -0.44959,5.85734 3.4751,7.08263"
       style="fill:none;stroke:#0e0f0e;stroke-width:0.30047;stroke-linecap:round;stroke-linejoin:round;stroke-miterlimit:10;stroke-dasharray:none;stroke-opacity:1"
       id="path54391"
       inkscape:export-filename="/home/bolarinwa/Downloads/path54255.png"
       inkscape:export-xdpi="98.489998"
       inkscape:export-ydpi="98.489998" />
    <path
       d="m 128.83482,159.44769 c 0,0 1.15665,0.46305 2.71991,-0.43867"
       style="fill:none;stroke:#0e0f0e;stroke-width:0.30047;stroke-linecap:round;stroke-linejoin:round;stroke-miterlimit:10;stroke-dasharray:none;stroke-opacity:1"
       id="path54393"
       inkscape:export-filename="/home/bolarinwa/Downloads/path54255.png"
       inkscape:export-xdpi="98.489998"
       inkscape:export-ydpi="98.489998" />
    <path
       d="m 134.17332,155.69298 c 0,0 -0.12475,0.89338 -1.21535,2.37263"
       style="fill:none;stroke:#0e0f0e;stroke-width:0.30047;stroke-linecap:round;stroke-linejoin:round;stroke-miterlimit:10;stroke-dasharray:none;stroke-opacity:1"
       id="path54395"
       inkscape:export-filename="/home/bolarinwa/Downloads/path54255.png"
       inkscape:export-xdpi="98.489998"
       inkscape:export-ydpi="98.489998" />
    <path
       d="m 131.77761,153.54463 c -0.004,0.25268 -0.19657,0.45439 -0.42938,0.45087 -0.23345,-0.003 -0.41911,-0.21165 -0.41494,-0.46433 0.004,-0.25269 0.19625,-0.45472 0.42938,-0.45118 0.23311,0.003 0.41878,0.21195 0.41494,0.46464"
       style="fill:#0e0f0e;fill-opacity:1;fill-rule:nonzero;stroke:none;stroke-width:0.0320669"
       id="path54397"
       inkscape:export-filename="/home/bolarinwa/Downloads/path54255.png"
       inkscape:export-xdpi="98.489998"
       inkscape:export-ydpi="98.489998" />
    <path
       d="m 128.07771,153.54793 c -0.004,0.25269 -0.19626,0.45471 -0.42971,0.45085 -0.23281,-0.003 -0.41879,-0.21164 -0.41463,-0.46432 0.004,-0.2527 0.19626,-0.45471 0.42939,-0.45086 0.23345,0.003 0.41911,0.21164 0.41495,0.46433"
       style="fill:#0e0f0e;fill-opacity:1;fill-rule:nonzero;stroke:none;stroke-width:0.0320669"
       id="path54399"
       inkscape:export-filename="/home/bolarinwa/Downloads/path54255.png"
       inkscape:export-xdpi="98.489998"
       inkscape:export-ydpi="98.489998" />
    <path
       d="m 126.86756,152.33304 c 0,0 0.52014,-0.6981 1.59213,-0.23602"
       style="fill:none;stroke:#0e0f0e;stroke-width:0.30047;stroke-linecap:round;stroke-linejoin:round;stroke-miterlimit:10;stroke-dasharray:none;stroke-opacity:1"
       id="path54401"
       inkscape:export-filename="/home/bolarinwa/Downloads/path54255.png"
       inkscape:export-xdpi="98.489998"
       inkscape:export-ydpi="98.489998" />
    <path
       d="m 132.19799,152.33049 c 0,0 -0.64646,-0.71253 -1.54049,-0.21678"
       style="fill:none;stroke:#0e0f0e;stroke-width:0.30047;stroke-linecap:round;stroke-linejoin:round;stroke-miterlimit:10;stroke-dasharray:none;stroke-opacity:1"
       id="path54403"
       inkscape:export-filename="/home/bolarinwa/Downloads/path54255.png"
       inkscape:export-xdpi="98.489998"
       inkscape:export-ydpi="98.489998" />
    <path
       d="m 129.11796,154.76945 -0.38864,1.12074 0.2094,0.14558"
       style="fill:none;stroke:#0e0f0e;stroke-width:0.30047;stroke-linecap:round;stroke-linejoin:round;stroke-miterlimit:10;stroke-dasharray:none;stroke-opacity:1"
       id="path54405"
       inkscape:export-filename="/home/bolarinwa/Downloads/path54255.png"
       inkscape:export-xdpi="98.489998"
       inkscape:export-ydpi="98.489998" />
    <path
       d="m 136.59212,149.75547 c 0.28573,-1.98014 -1.24676,-6.33836 -4.86999,-5.0467 -0.57817,-0.48453 -4.14786,-1.38754 -5.89392,1.96346 -0.57175,0.73016 -0.83983,1.83198 -0.83983,3.12877 0,1.61393 0.26937,1.9317 0.68784,2.64392 0.045,0.076 2.86005,-2.27483 3.91602,-4.37971 1.13581,2.26008 5.1307,4.81742 5.20317,4.81742 0.74139,9.1e-4 1.56679,-1.52991 1.79671,-3.12716"
       style="fill:#4e545d;fill-opacity:1;fill-rule:nonzero;stroke:none;stroke-width:0.0320669"
       id="path54407"
       inkscape:export-filename="/home/bolarinwa/Downloads/path54255.png"
       inkscape:export-xdpi="98.489998"
       inkscape:export-ydpi="98.489998" />
    <path
       d="m 136.59212,149.75547 c 0.28573,-1.98014 -1.24676,-6.33836 -4.86999,-5.0467 -0.57817,-0.48453 -4.14786,-1.38754 -5.89392,1.96346 -0.57175,0.73016 -0.83983,1.83198 -0.83983,3.12877 0,1.61393 0.26937,1.9317 0.68784,2.64392 0.045,0.076 2.86005,-2.27483 3.91602,-4.37971 1.13581,2.26008 5.1307,4.81742 5.20317,4.81742 0.74139,9.1e-4 1.56679,-1.52991 1.79671,-3.12716 z"
       style="fill:none;stroke:#0e0f0e;stroke-width:0.30047;stroke-linecap:round;stroke-linejoin:round;stroke-miterlimit:10;stroke-dasharray:none;stroke-opacity:1"
       id="path54409"
       inkscape:export-filename="/home/bolarinwa/Downloads/path54255.png"
       inkscape:export-xdpi="98.489998"
       inkscape:export-ydpi="98.489998" />
    <path
       d="m 127.79873,148.52922 c 0,0 -0.54995,0.26392 -0.78405,1.27178"
       style="fill:none;stroke:#0e0f0e;stroke-width:0.30047;stroke-linecap:round;stroke-linejoin:round;stroke-miterlimit:10;stroke-dasharray:none;stroke-opacity:1"
       id="path54411"
       inkscape:export-filename="/home/bolarinwa/Downloads/path54255.png"
       inkscape:export-xdpi="98.489998"
       inkscape:export-ydpi="98.489998" />
    <path
       d="m 126.53754,148.56578 c 0,0 -0.68496,0.5631 -0.82572,1.75951"
       style="fill:none;stroke:#0e0f0e;stroke-width:0.30047;stroke-linecap:round;stroke-linejoin:round;stroke-miterlimit:10;stroke-dasharray:none;stroke-opacity:1"
       id="path54413"
       inkscape:export-filename="/home/bolarinwa/Downloads/path54255.png"
       inkscape:export-xdpi="98.489998"
       inkscape:export-ydpi="98.489998" />
    <path
       d="m 132.58537,148.67257 c 0,0 0.86709,0.77313 0.87639,1.79639"
       style="fill:none;stroke:#0e0f0e;stroke-width:0.30047;stroke-linecap:round;stroke-linejoin:round;stroke-miterlimit:10;stroke-dasharray:none;stroke-opacity:1"
       id="path54415"
       inkscape:export-filename="/home/bolarinwa/Downloads/path54255.png"
       inkscape:export-xdpi="98.489998"
       inkscape:export-ydpi="98.489998" />
    <path
       d="m 134.11977,148.70943 c 0,0 1.05211,0.86133 0.81802,2.12508"
       style="fill:none;stroke:#0e0f0e;stroke-width:0.30047;stroke-linecap:round;stroke-linejoin:round;stroke-miterlimit:10;stroke-dasharray:none;stroke-opacity:1"
       id="path54417"
       inkscape:export-filename="/home/bolarinwa/Downloads/path54255.png"
       inkscape:export-xdpi="98.489998"
       inkscape:export-ydpi="98.489998" />
    <path
       d="m 130.42886,156.87946 c -1.02229,1.67452 -1.9362,0.01 -1.9362,0.01 l 1.9362,-0.01"
       style="fill:#ffffff;fill-opacity:1;fill-rule:nonzero;stroke:none;stroke-width:0.0320669"
       id="path54419"
       inkscape:export-filename="/home/bolarinwa/Downloads/path54255.png"
       inkscape:export-xdpi="98.489998"
       inkscape:export-ydpi="98.489998" />
    <path
       d="m 130.42886,156.87946 c -1.02229,1.67452 -1.9362,0.01 -1.9362,0.01 z"
       style="fill:none;stroke:#0e0f0e;stroke-width:0.225352;stroke-linecap:round;stroke-linejoin:round;stroke-miterlimit:10;stroke-dasharray:none;stroke-opacity:1"
       id="path54421"
       inkscape:export-filename="/home/bolarinwa/Downloads/path54255.png"
       inkscape:export-xdpi="98.489998"
       inkscape:export-ydpi="98.489998" />
    <path
       d="m 135.36909,152.58056 -2.13918,0.46882"
       style="fill:none;stroke:#0e0f0e;stroke-width:0.30047;stroke-linecap:round;stroke-linejoin:round;stroke-miterlimit:10;stroke-dasharray:none;stroke-opacity:1"
       id="path54423"
       inkscape:export-filename="/home/bolarinwa/Downloads/path54255.png"
       inkscape:export-xdpi="98.489998"
       inkscape:export-ydpi="98.489998" />
    <path
       d="m 128.88869,153.33285 c 0,0 0.53969,-0.23505 0.97868,0.0148"
       style="fill:none;stroke:#0e0f0e;stroke-width:0.30047;stroke-linecap:round;stroke-linejoin:round;stroke-miterlimit:10;stroke-dasharray:none;stroke-opacity:1"
       id="path54425"
       inkscape:export-filename="/home/bolarinwa/Downloads/path54255.png"
       inkscape:export-xdpi="98.489998"
       inkscape:export-ydpi="98.489998" />
    <path
       d="m 125.83206,153.27577 c -0.0215,0.23088 0.0663,0.41174 -0.0863,0.39987 -0.15199,-0.0116 -0.43034,-0.22671 -0.40917,-0.45727 0.0211,-0.23056 0.33349,-0.38961 0.48613,-0.37807 0.152,0.0118 0.0302,0.20491 0.009,0.43547"
       style="fill:#0e0f0e;fill-opacity:1;fill-rule:nonzero;stroke:none;stroke-width:0.0320669"
       id="path54427"
       inkscape:export-filename="/home/bolarinwa/Downloads/path54255.png"
       inkscape:export-xdpi="98.489998"
       inkscape:export-ydpi="98.489998" />
    <path
       d="m 132.90123,153.27577 c 0.0212,0.23088 -0.0663,0.41174 0.0859,0.39987 0.15231,-0.0116 0.43032,-0.22671 0.40948,-0.45727 -0.0215,-0.23056 -0.3335,-0.38961 -0.48614,-0.37807 -0.15231,0.0118 -0.0304,0.20491 -0.009,0.43547"
       style="fill:#0e0f0e;fill-opacity:1;fill-rule:nonzero;stroke:none;stroke-width:0.0320669"
       id="path54429"
       inkscape:export-filename="/home/bolarinwa/Downloads/path54255.png"
       inkscape:export-xdpi="98.489998"
       inkscape:export-ydpi="98.489998" />
    <path
       d="m 126.18801,154.43114 h 2.20525 c 0.22447,0 0.4066,-0.18182 0.4066,-0.40628 v -0.78628 c 0,-0.22448 -0.18213,-0.4063 -0.4066,-0.4063 h -2.20525 c -0.22416,0 -0.40597,0.18182 -0.40597,0.4063 v 0.78628 c 0,0.22446 0.18181,0.40628 0.40597,0.40628 z"
       style="fill:none;stroke:#0e0f0e;stroke-width:0.30047;stroke-linecap:round;stroke-linejoin:round;stroke-miterlimit:10;stroke-dasharray:none;stroke-opacity:1"
       id="path54431"
       inkscape:export-filename="/home/bolarinwa/Downloads/path54255.png"
       inkscape:export-xdpi="98.489998"
       inkscape:export-ydpi="98.489998" />
    <path
       d="m 130.32529,154.43114 h 2.20524 c 0.22415,0 0.40597,-0.18182 0.40597,-0.40628 v -0.78628 c 0,-0.22448 -0.18182,-0.4063 -0.40597,-0.4063 h -2.20524 c -0.22447,0 -0.40629,0.18182 -0.40629,0.4063 v 0.78628 c 0,0.22446 0.18182,0.40628 0.40629,0.40628 z"
       style="fill:none;stroke:#0e0f0e;stroke-width:0.30047;stroke-linecap:round;stroke-linejoin:round;stroke-miterlimit:10;stroke-dasharray:none;stroke-opacity:1"
       id="path54433"
       inkscape:export-filename="/home/bolarinwa/Downloads/path54255.png"
       inkscape:export-xdpi="98.489998"
       inkscape:export-ydpi="98.489998" />
    <path
       d="m 119.4113,158.89269 c 2.40908,0 3.21841,-0.58011 4.25166,-1.45341 -1.18993,-0.53553 -1.63502,-0.64308 -2.71765,-1.22797 -0.41335,-0.22343 -1.42973,-0.35441 -1.56903,-0.299 -0.14131,-0.0498 -0.75038,-0.0927 -1.15467,0.14661 -1.13351,0.67103 -1.84182,0.88061 -3.04284,1.50807 0.94862,0.64736 1.47507,1.3257 4.23253,1.3257"
       style="fill:#f89a74;fill-opacity:1;fill-rule:nonzero;stroke:none;stroke-width:0.0251891"
       id="path48718"
       inkscape:export-filename="/home/bolarinwa/Downloads/path54255.png"
       inkscape:export-xdpi="98.489998"
       inkscape:export-ydpi="98.489998" />
    <path
       d="m 118.93346,158.77883 c 0,0 2.631,0.37583 2.53603,-3.78869 l 2.20758,2.07987 c 0.25264,0.22266 0.36549,0.56448 0.29496,0.89396 l -0.58992,2.75392 c -0.11235,0.52419 -0.72671,0.7597 -1.16097,0.44509 l -3.28768,-2.38415"
       style="fill:#4fbdc9;fill-opacity:1;fill-rule:nonzero;stroke:none;stroke-width:0.0251891"
       id="path48968"
       inkscape:export-filename="/home/bolarinwa/Downloads/path54255.png"
       inkscape:export-xdpi="98.489998"
       inkscape:export-ydpi="98.489998" />
    <path
       d="m 116.15207,156.22214 c 0,0 -1.9985,0.29874 -3.30279,1.97382 l 2.44561,3.88441 1.73452,0.64383 -0.82368,0.931 2.00984,5.53026 c 0,0 1.35996,-4.19272 -1.3514,-9.59553 -0.47355,-0.94384 -0.7121,-1.98818 -0.7121,-3.04411 v -0.32368"
       style="fill:#f4f6f4;fill-opacity:1;fill-rule:nonzero;stroke:none;stroke-width:0.0251891"
       id="path48976"
       inkscape:export-filename="/home/bolarinwa/Downloads/path54255.png"
       inkscape:export-xdpi="98.489998"
       inkscape:export-ydpi="98.489998" />
    <path
       d="M 107.02675,172.56852 H 99.7746 l 0.0742,-4.20574 c 2.34428,-0.72686 4.70239,-0.7928 7.07757,-0.0204 l 0.1004,4.22606"
       style="fill:#504b81;fill-opacity:1;fill-rule:nonzero;stroke:none;stroke-width:0.0294396"
       id="path52474"
       inkscape:export-filename="/home/bolarinwa/Downloads/path54255.png"
       inkscape:export-xdpi="98.489998"
       inkscape:export-ydpi="98.489998" />
    <path
       d="m 96.207384,150.95591 c 0.33102,0.50681 0.57139,3.55032 0.73716,4.16782 0.20426,0.76036 0.13362,1.61137 -0.009,2.42759 -0.12123,0.69077 -0.29939,1.39103 -0.65466,1.98772 -0.33287,0.55926 -0.81174,1.01099 -1.06845,1.61637 -0.15866,0.37398 -0.22217,0.78486 -0.37609,1.16095 -0.27119,0.66152 -0.8323,1.17756 -1.43979,1.32383 -0.60775,0.14627 -1.82299,0.30704 -2.20989,-0.19634 -0.21533,-0.28043 -3.95857,0.46148 -4.89155,-0.12229 -5.32378,-3.33079 -3.63993,-8.58973 -3.64415,-9.3232 0,0 5.06628,4.67859 4.62035,3.19321 -0.43038,-1.43346 -0.34789,-3.04746 -0.26039,-4.61587 0.0145,-0.25565 0.0295,-0.5163 0.11043,-0.7622 0.11596,-0.3521 0.35395,-0.63885 0.58483,-0.91347 0.57269,-0.6805 1.16753,-1.37944 1.90575,-1.7666 0.80041,-0.41984 1.68358,-0.42669 2.52194,-0.3521 0.52078,0.0461 1.05026,0.12519 1.49408,0.40719 0.71212,0.45199 0.57876,1.12616 0.88264,1.83459 0.3782,0.8808 1.18783,-0.84785 1.69728,-0.0672"
       style="fill:#6d3622;fill-opacity:1;fill-rule:nonzero;stroke:none;stroke-width:0.0263553"
       id="path70679" />
    <path
       d="m 96.242174,158.29718 c -0.32259,0.90741 -1.14724,1.44295 -1.84171,1.196 -0.69446,-0.24695 -0.99597,-1.18283 -0.67338,-2.09024 0.32285,-0.90741 1.14725,-1.44269 1.84171,-1.19574 0.69473,0.24695 0.99597,1.18257 0.67338,2.08998"
       style="fill:#f89a74;fill-opacity:1;fill-rule:nonzero;stroke:none;stroke-width:0.0263553"
       id="path71383" />
    <path
       d="m 95.839994,156.49421 c -0.07448,2.1226 0.157796,4.70268 0.809294,6.7296 0.634718,1.97421 2.404332,3.2728 4.955862,3.46268 0.9562,0.0709 0.63943,0.40892 1.61918,0.47427 1.45667,0.0969 1.20319,-0.47338 2.64956,-0.61676 1.91357,-0.18958 3.32991,-0.87082 3.97434,-2.41876 0.51137,-1.22851 0.68005,-3.06171 0.90026,-4.35264 0.27733,-1.62565 0.1316,-3.29076 -0.21432,-4.89522 -0.34591,-1.60445 -0.64943,-3.14797 -2.11965,-4.11123 -2.19736,-1.4393 -9.765695,0.87701 -9.765695,0.87701 0,0 -2.612763,-0.736 -2.808831,4.85105"
       style="fill:#422319;fill-opacity:1;fill-rule:nonzero;stroke:none;stroke-width:0.0294396"
       id="path52518"
       inkscape:export-filename="/home/bolarinwa/Downloads/path54255.png"
       inkscape:export-xdpi="98.489998"
       inkscape:export-ydpi="98.489998" />
    <path
       d="m 100.71431,169.7906 c 0.66121,-0.40538 2.45496,-0.78692 2.68606,-0.70214 0.22787,-0.0936 1.87443,0.20785 2.55094,0.58703 4.11772,2.30836 10.51524,2.57861 10.66803,7.35195 0,0 -0.0327,2.60452 -2.17177,2.64632 l -10.83641,0.21139 -10.836416,0.21166 c -2.139081,0.0418 -2.273031,-2.55948 -2.273031,-2.55948 -0.188119,-4.51368 6.187908,-5.27969 10.212597,-7.74673"
       style="fill:#504b81;fill-opacity:1;fill-rule:nonzero;stroke:none;stroke-width:0.0294396"
       id="path52520"
       inkscape:export-filename="/home/bolarinwa/Downloads/path54255.png"
       inkscape:export-xdpi="98.489998"
       inkscape:export-ydpi="98.489998" />
    <path
       d="m 104.16875,172.6065 h -1.56648 c -1.13872,0 -2.07049,-0.93176 -2.07049,-2.07049 v -5.52464 c 0,-1.13871 0.93177,-2.07048 2.07049,-2.07048 h 1.56648 c 1.13873,0 2.07049,0.93177 2.07049,2.07048 v 5.52464 c 0,1.13873 -0.93176,2.07049 -2.07049,2.07049"
       style="fill:#f89a74;fill-opacity:1;fill-rule:nonzero;stroke:none;stroke-width:0.0294396"
       id="path52738"
       inkscape:export-filename="/home/bolarinwa/Downloads/path54255.png"
       inkscape:export-xdpi="98.489998"
       inkscape:export-ydpi="98.489998" />
    <path
       d="m 100.4729,166.61583 5.81785,-0.84167 -0.0862,1.34921 c -0.23552,2.13437 -4.79041,2.55154 -5.7525,0.1104 l 0.0209,-0.61794"
       style="fill:#ea765d;fill-opacity:1;fill-rule:nonzero;stroke:none;stroke-width:0.0294396"
       id="path52740"
       inkscape:export-filename="/home/bolarinwa/Downloads/path54255.png"
       inkscape:export-xdpi="98.489998"
       inkscape:export-ydpi="98.489998" />
    <path
       d="m 103.54227,167.92001 h -0.10569 c -3.2039,0 -5.8255,-2.6216 -5.8255,-5.8258 v -4.51957 c 0,-3.2042 2.6216,-5.8258 5.8255,-5.8258 h 0.10569 c 3.20421,0 5.8258,2.6216 5.8258,5.8258 v 4.51957 c 0,3.2042 -2.62159,5.8258 -5.8258,5.8258"
       style="fill:#f89a74;fill-opacity:1;fill-rule:nonzero;stroke:none;stroke-width:0.0294396"
       id="path52742"
       inkscape:export-filename="/home/bolarinwa/Downloads/path54255.png"
       inkscape:export-xdpi="98.489998"
       inkscape:export-ydpi="98.489998" />
    <path
       d="m 111.27605,161.78097 c -0.36034,1.01361 -1.2815,1.61182 -2.05724,1.33597 -0.77573,-0.27585 -1.11252,-1.32125 -0.75218,-2.33485 0.36063,-1.01361 1.2815,-1.61153 2.05724,-1.33568 0.77602,0.27585 1.11252,1.32125 0.75218,2.33456"
       style="fill:#f89a74;fill-opacity:1;fill-rule:nonzero;stroke:none;stroke-width:0.0294396"
       id="path52744"
       inkscape:export-filename="/home/bolarinwa/Downloads/path54255.png"
       inkscape:export-xdpi="98.489998"
       inkscape:export-ydpi="98.489998" />
    <path
       d="m 95.513215,161.78097 c 0.360635,1.01361 1.281506,1.61182 2.057238,1.33597 0.776028,-0.27585 1.112522,-1.32125 0.752182,-2.33485 -0.360341,-1.01361 -1.281505,-1.61153 -2.057239,-1.33568 -0.775733,0.27585 -1.112522,1.32125 -0.752181,2.33456"
       style="fill:#f89a74;fill-opacity:1;fill-rule:nonzero;stroke:none;stroke-width:0.0294396"
       id="path52746"
       inkscape:export-filename="/home/bolarinwa/Downloads/path54255.png"
       inkscape:export-xdpi="98.489998"
       inkscape:export-ydpi="98.489998" />
    <path
       d="m 108.04653,162.67741 h -0.66033 c -0.26555,0 -0.4828,-0.21727 -0.4828,-0.48281 0,-0.26584 0.21725,-0.4831 0.4828,-0.4831 h 0.66033 c 0.26554,0 0.48281,0.21726 0.48281,0.4831 0,0.26554 -0.21727,0.48281 -0.48281,0.48281"
       style="fill:#ea765d;fill-opacity:1;fill-rule:nonzero;stroke:none;stroke-width:0.0294396"
       id="path52748"
       inkscape:export-filename="/home/bolarinwa/Downloads/path54255.png"
       inkscape:export-xdpi="98.489998"
       inkscape:export-ydpi="98.489998" />
    <path
       d="m 99.43545,162.67741 h -0.660328 c -0.265546,0 -0.48281,-0.21727 -0.48281,-0.48281 0,-0.26584 0.217264,-0.4831 0.48281,-0.4831 h 0.660328 c 0.26555,0 0.48281,0.21726 0.48281,0.4831 0,0.26554 -0.21726,0.48281 -0.48281,0.48281"
       style="fill:#ea765d;fill-opacity:1;fill-rule:nonzero;stroke:none;stroke-width:0.0294396"
       id="path52750"
       inkscape:export-filename="/home/bolarinwa/Downloads/path54255.png"
       inkscape:export-xdpi="98.489998"
       inkscape:export-ydpi="98.489998" />
    <path
       d="m 105.49324,160.31959 c -3e-4,0.54787 0.31677,0.99241 0.70831,0.99241 0.39155,2.9e-4 0.7092,-0.44366 0.7095,-0.99182 2.9e-4,-0.54787 -0.31706,-0.99241 -0.70862,-0.99241 -0.39125,-3e-4 -0.7089,0.44395 -0.70919,0.99182"
       style="fill:#422319;fill-opacity:1;fill-rule:nonzero;stroke:none;stroke-width:0.0294396"
       id="path52752"
       inkscape:export-filename="/home/bolarinwa/Downloads/path54255.png"
       inkscape:export-xdpi="98.489998"
       inkscape:export-ydpi="98.489998" />
    <path
       d="m 107.56696,158.77107 c -0.60763,-0.13484 -1.18965,-0.18723 -1.80023,-0.1575 -0.25436,0.0123 -0.46249,-0.20108 -0.45219,-0.45573 l 3e-4,-0.003 c 0.009,-0.21727 0.17634,-0.39714 0.39272,-0.41863 0.71185,-0.0715 1.40692,-0.0112 2.08461,0.18546 0.2102,0.0607 0.34179,0.26997 0.30941,0.48606 l -3e-4,0.002 c -0.038,0.25377 -0.28409,0.41687 -0.53432,0.36122"
       style="fill:#5d301f;fill-opacity:1;fill-rule:nonzero;stroke:none;stroke-width:0.0294396"
       id="path52754"
       inkscape:export-filename="/home/bolarinwa/Downloads/path54255.png"
       inkscape:export-xdpi="98.489998"
       inkscape:export-ydpi="98.489998" />
    <path
       d="m 101.36345,160.31959 c 2.9e-4,0.54787 -0.31706,0.99241 -0.70861,0.99241 -0.39155,2.9e-4 -0.70891,-0.44366 -0.7092,-0.99182 -2.9e-4,-0.54787 0.31677,-0.99241 0.70832,-0.99241 0.39154,-3e-4 0.7092,0.44395 0.70949,0.99182"
       style="fill:#422319;fill-opacity:1;fill-rule:nonzero;stroke:none;stroke-width:0.0294396"
       id="path52756"
       inkscape:export-filename="/home/bolarinwa/Downloads/path54255.png"
       inkscape:export-xdpi="98.489998"
       inkscape:export-ydpi="98.489998" />
    <path
       d="m 99.30798,158.77107 c 0.60763,-0.13484 1.18965,-0.18723 1.80023,-0.1575 0.25436,0.0123 0.4625,-0.20108 0.45219,-0.45573 l -2.9e-4,-0.003 c -0.009,-0.21727 -0.17635,-0.39714 -0.39302,-0.41863 -0.71156,-0.0715 -1.40663,-0.0112 -2.08462,0.18546 -0.209904,0.0607 -0.341498,0.26997 -0.309115,0.48606 l 2.94e-4,0.002 c 0.03798,0.25377 0.284091,0.41687 0.534331,0.36122"
       style="fill:#5d301f;fill-opacity:1;fill-rule:nonzero;stroke:none;stroke-width:0.0294396"
       id="path52758"
       inkscape:export-filename="/home/bolarinwa/Downloads/path54255.png"
       inkscape:export-xdpi="98.489998"
       inkscape:export-ydpi="98.489998" />
    <path
       d="m 99.32358,170.61933 c 0,0 0.76337,1.95596 4.31761,1.98717 2.77233,0.0247 3.87631,-2.15881 3.87631,-2.15881 l -2.77232,-1.37395 -2.84563,0.0492 -2.57597,1.49641"
       style="fill:#f89a74;fill-opacity:1;fill-rule:nonzero;stroke:none;stroke-width:0.0294396"
       id="path53338"
       inkscape:export-filename="/home/bolarinwa/Downloads/path54255.png"
       inkscape:export-xdpi="98.489998"
       inkscape:export-ydpi="98.489998" />
    <path
       d="m 105.12465,155.94281 -4.47423,-0.23405 c -1.21261,-0.0636 -2.171755,-1.18376 -2.183531,-2.55065 l -0.0012,-0.126 c -0.01443,-1.67334 1.196131,-3.05053 2.703731,-3.07584 l 9.22872,-0.15574 0.003,0.36005 c 0.025,2.89038 -0.8982,5.70774 -5.27645,5.78223"
       style="fill:#422319;fill-opacity:1;fill-rule:nonzero;stroke:none;stroke-width:0.0294396"
       id="path53650"
       inkscape:export-filename="/home/bolarinwa/Downloads/path54255.png"
       inkscape:export-xdpi="98.489998"
       inkscape:export-ydpi="98.489998" />
    <path
       d="m 108.3895,163.10193 c -0.85993,-0.004 -1.75872,-0.0927 -2.558,-0.37948 -0.71568,-0.25672 -1.47817,-0.3574 -2.23859,-0.35828 l -0.60793,-5.9e-4 c -0.70743,-5.9e-4 -1.41634,0.0907 -2.0855,0.32059 -0.77661,0.26702 -1.67482,0.37448 -2.51355,0.37036 l -0.76749,-0.003 c 0,0 1.048932,5.26232 5.75927,5.04153 4.71033,-0.2208 5.66712,-3.90075 5.88791,-4.98618 l -0.87612,-0.004"
       style="fill:#b86544;fill-opacity:1;fill-rule:nonzero;stroke:none;stroke-width:0.0294396"
       id="path53656"
       inkscape:export-filename="/home/bolarinwa/Downloads/path54255.png"
       inkscape:export-xdpi="98.489998"
       inkscape:export-ydpi="98.489998" />
    <path
       d="m 101.66668,163.28033 h 3.49036 c 0.31883,0 0.5302,0.32708 0.40273,0.61941 -0.28174,0.6459 -0.90173,1.5653 -2.14791,1.5653 -1.24618,0 -1.86618,-0.9194 -2.14821,-1.5653 -0.12747,-0.29233 0.0842,-0.61941 0.40303,-0.61941"
       style="fill:#fbf9f4;fill-opacity:1;fill-rule:nonzero;stroke:none;stroke-width:0.0294396"
       id="path53662"
       inkscape:export-filename="/home/bolarinwa/Downloads/path54255.png"
       inkscape:export-xdpi="98.489998"
       inkscape:export-ydpi="98.489998" />
    <path
       d="m 98.501627,163.43753 -0.901439,-0.38653 -0.202545,-3.36701 c 0.376532,0.0883 0.659152,0.40067 0.710083,0.78427 l 0.393901,2.96927"
       style="fill:#b86544;fill-opacity:1;fill-rule:nonzero;stroke:none;stroke-width:0.0294396"
       id="path53664"
       inkscape:export-filename="/home/bolarinwa/Downloads/path54255.png"
       inkscape:export-xdpi="98.489998"
       inkscape:export-ydpi="98.489998" />
    <path
       d="m 108.40069,163.43753 0.90173,-0.38653 0.20226,-3.36701 c -0.37654,0.0883 -0.65916,0.40067 -0.71009,0.78427 l -0.3939,2.96927"
       style="fill:#b86544;fill-opacity:1;fill-rule:nonzero;stroke:none;stroke-width:0.0294396"
       id="path53666"
       inkscape:export-filename="/home/bolarinwa/Downloads/path54255.png"
       inkscape:export-xdpi="98.489998"
       inkscape:export-ydpi="98.489998" />
    <path
       d="m 103.77308,172.61415 c 0,0 2.62218,0.31766 3.15946,-4.26462 l 2.05724,1.8968 c 0.43335,0.39919 0.60556,1.00801 0.44601,1.57501 l -0.91145,3.23865 c -0.15928,0.56583 -0.84757,0.78104 -1.30065,0.40656 l -3.45061,-2.8524"
       style="fill:#6966a3;fill-opacity:1;fill-rule:nonzero;stroke:none;stroke-width:0.0294396"
       id="path53672"
       inkscape:export-filename="/home/bolarinwa/Downloads/path54255.png"
       inkscape:export-xdpi="98.489998"
       inkscape:export-ydpi="98.489998" />
    <path
       d="m 103.43217,172.59796 c 0,0 -0.89673,0.0524 -1.3395,-0.1469 l -3.273978,3.15357 0.06153,0.14984 c 0.190768,0.46515 0.793988,0.58614 1.149618,0.23022 l 3.40233,-3.38673"
       style="fill:#333050;fill-opacity:1;fill-rule:nonzero;stroke:none;stroke-width:0.0294396"
       id="path53674"
       inkscape:export-filename="/home/bolarinwa/Downloads/path54255.png"
       inkscape:export-xdpi="98.489998"
       inkscape:export-ydpi="98.489998" />
    <path
       d="m 103.5043,172.59796 c 0,0 0.89672,0.0524 1.3395,-0.1469 l 3.27397,3.15357 -0.0613,0.14984 c -0.19106,0.46515 -0.79428,0.58614 -1.1499,0.23022 l -3.40234,-3.38673"
       style="fill:#333050;fill-opacity:1;fill-rule:nonzero;stroke:none;stroke-width:0.0294396"
       id="path53676"
       inkscape:export-filename="/home/bolarinwa/Downloads/path54255.png"
       inkscape:export-xdpi="98.489998"
       inkscape:export-ydpi="98.489998" />
    <path
       d="m 103.81312,174.05405 c 0,0.23021 -0.18664,0.41715 -0.41716,0.41715 -0.23022,0 -0.41716,-0.18694 -0.41716,-0.41715 0,-0.23023 0.18694,-0.41717 0.41716,-0.41717 0.23052,0 0.41716,0.18694 0.41716,0.41717"
       style="fill:#333050;fill-opacity:1;fill-rule:nonzero;stroke:none;stroke-width:0.0294396"
       id="path53678"
       inkscape:export-filename="/home/bolarinwa/Downloads/path54255.png"
       inkscape:export-xdpi="98.489998"
       inkscape:export-ydpi="98.489998" />
    <path
       d="m 103.81312,175.69765 c 0,0.23052 -0.18664,0.41716 -0.41716,0.41716 -0.23022,0 -0.41716,-0.18664 -0.41716,-0.41716 0,-0.23021 0.18694,-0.41686 0.41716,-0.41686 0.23052,0 0.41716,0.18665 0.41716,0.41686"
       style="fill:#333050;fill-opacity:1;fill-rule:nonzero;stroke:none;stroke-width:0.0294396"
       id="path53680"
       inkscape:export-filename="/home/bolarinwa/Downloads/path54255.png"
       inkscape:export-xdpi="98.489998"
       inkscape:export-ydpi="98.489998" />
    <path
       d="m 103.81312,177.34156 c 0,0.23022 -0.18664,0.41687 -0.41716,0.41687 -0.23022,0 -0.41716,-0.18665 -0.41716,-0.41687 0,-0.23051 0.18694,-0.41716 0.41716,-0.41716 0.23052,0 0.41716,0.18665 0.41716,0.41716"
       style="fill:#333050;fill-opacity:1;fill-rule:nonzero;stroke:none;stroke-width:0.0294396"
       id="path53682"
       inkscape:export-filename="/home/bolarinwa/Downloads/path54255.png"
       inkscape:export-xdpi="98.489998"
       inkscape:export-ydpi="98.489998" />
    <path
       d="m 103.75012,172.60502 c 0,0 0.70213,0.0445 1.17376,-0.29263 l 3.59927,2.77675 -0.0447,0.15573 c -0.13895,0.4834 -0.72539,0.66975 -1.11782,0.35475 l -3.61047,-2.9946"
       style="fill:#feffff;fill-opacity:1;fill-rule:nonzero;stroke:none;stroke-width:0.0294396"
       id="path53696"
       inkscape:export-filename="/home/bolarinwa/Downloads/path54255.png"
       inkscape:export-xdpi="98.489998"
       inkscape:export-ydpi="98.489998" />
    <path
       d="m 117.20357,172.3386 c 0.51909,-0.31824 1.92729,-0.61778 2.10872,-0.55145 0.17889,-0.0735 1.47153,0.16341 2.00264,0.46109 3.23265,1.81196 8.25506,2.02436 8.37502,5.77171 0,0 -0.0256,2.0447 -1.70496,2.07728 l -8.50721,0.16618 -8.50723,0.16617 c -1.6793,0.0328 -1.78446,-2.00933 -1.78446,-2.00933 -0.14768,-3.54351 4.85787,-4.14488 8.01748,-6.08165"
       style="fill:#e33635;fill-opacity:1;fill-rule:nonzero;stroke:none;stroke-width:0.0231118"
       id="path50519"
       inkscape:export-filename="/home/bolarinwa/Downloads/path54255.png"
       inkscape:export-xdpi="98.489998"
       inkscape:export-ydpi="98.489998" />
    <path
       d="m 119.58154,174.54925 h -0.52879 c -0.77102,0 -1.40173,-0.63073 -1.40173,-1.40173 v -4.7846 c 0,-0.77102 0.63071,-1.40174 1.40173,-1.40174 h 0.52879 c 0.77078,0 1.40173,0.63072 1.40173,1.40174 v 4.7846 c 0,0.771 -0.63095,1.40173 -1.40173,1.40173"
       style="fill:#f89a74;fill-opacity:1;fill-rule:nonzero;stroke:none;stroke-width:0.0231118"
       id="path50695"
       inkscape:export-filename="/home/bolarinwa/Downloads/path54255.png"
       inkscape:export-xdpi="98.489998"
       inkscape:export-ydpi="98.489998" />
    <path
       d="m 117.61658,169.84599 3.39674,-0.66053 -0.0504,1.05921 c -0.13751,1.6756 -2.79699,2.00311 -3.35861,0.0867 l 0.0123,-0.48536"
       style="fill:#ea765d;fill-opacity:1;fill-rule:nonzero;stroke:none;stroke-width:0.0231118"
       id="path50697"
       inkscape:export-filename="/home/bolarinwa/Downloads/path54255.png"
       inkscape:export-xdpi="98.489998"
       inkscape:export-ydpi="98.489998" />
    <path
       d="m 114.76551,155.95257 c -1.42392,0.9737 -1.78978,3.12149 -1.92636,4.73422 -0.15717,1.85726 0.13404,4.128 0.68687,5.90715 0.5385,1.73291 2.04008,2.87279 4.20496,3.03919 0.81123,0.0624 0.54244,0.35917 1.37376,0.41648 1.23603,0.085 1.02109,-0.41554 2.24809,-0.54128 1.62384,-0.16663 2.82542,-0.76453 3.37225,-2.12328 0.43404,-1.0784 0.57733,-2.68744 0.76407,-3.82038 0.23504,-1.42692 0.1114,-2.88874 -0.18189,-4.29695 -0.29352,-1.40842 -0.55099,-2.76323 -1.79856,-3.60844 -1.86443,-1.26352 -4.48716,-0.3892 -4.48716,-0.3892 0,0 -2.04007,-0.83271 -4.25603,0.68249"
       style="fill:#333050;fill-opacity:1;fill-rule:nonzero;stroke:none;stroke-width:0.0231118"
       id="path51479"
       inkscape:export-filename="/home/bolarinwa/Downloads/path54255.png"
       inkscape:export-xdpi="98.489998"
       inkscape:export-ydpi="98.489998" />
    <path
       d="m 119.37469,170.69397 h -0.0897 c -2.71887,0 -4.94315,-2.22428 -4.94315,-4.94292 v -3.83494 c 0,-2.71887 2.22451,-4.94315 4.94315,-4.94315 h 0.0897 c 2.71865,0 4.94293,2.22428 4.94293,4.94315 v 3.83494 c 0,2.71864 -2.22428,4.94292 -4.94293,4.94292"
       style="fill:#f89a74;fill-opacity:1;fill-rule:nonzero;stroke:none;stroke-width:0.0231118"
       id="path51481"
       inkscape:export-filename="/home/bolarinwa/Downloads/path54255.png"
       inkscape:export-xdpi="98.489998"
       inkscape:export-ydpi="98.489998" />
    <path
       d="m 117.78299,166.75756 h 2.96154 c 0.27064,0 0.44999,0.27735 0.34182,0.52534 -0.23897,0.54821 -0.76523,1.32823 -1.82259,1.32823 -1.05736,0 -1.5834,-0.78002 -1.8226,-1.32823 -0.10816,-0.24799 0.0714,-0.52534 0.34183,-0.52534"
       style="fill:#fbf9f4;fill-opacity:1;fill-rule:nonzero;stroke:none;stroke-width:0.0231118"
       id="path51483"
       inkscape:export-filename="/home/bolarinwa/Downloads/path54255.png"
       inkscape:export-xdpi="98.489998"
       inkscape:export-ydpi="98.489998" />
    <path
       d="m 125.9366,165.48526 c -0.30577,0.86 -1.08742,1.36753 -1.74564,1.1334 -0.65822,-0.23412 -0.94388,-1.12091 -0.63812,-1.98091 0.306,-0.86022 1.08741,-1.36752 1.74564,-1.1334 0.65823,0.23389 0.94411,1.12093 0.63812,1.98091"
       style="fill:#f89a74;fill-opacity:1;fill-rule:nonzero;stroke:none;stroke-width:0.0231118"
       id="path51485"
       inkscape:export-filename="/home/bolarinwa/Downloads/path54255.png"
       inkscape:export-xdpi="98.489998"
       inkscape:export-ydpi="98.489998" />
    <path
       d="m 112.56203,165.48526 c 0.30577,0.86 1.08742,1.36753 1.74564,1.1334 0.65822,-0.23412 0.94388,-1.12091 0.63811,-1.98091 -0.306,-0.86022 -1.08741,-1.36752 -1.74563,-1.1334 -0.65823,0.23389 -0.94389,1.12093 -0.63812,1.98091"
       style="fill:#f89a74;fill-opacity:1;fill-rule:nonzero;stroke:none;stroke-width:0.0231118"
       id="path51487"
       inkscape:export-filename="/home/bolarinwa/Downloads/path54255.png"
       inkscape:export-xdpi="98.489998"
       inkscape:export-ydpi="98.489998" />
    <path
       d="m 123.19623,166.24587 h -0.56 c -0.22534,0 -0.40977,-0.18443 -0.40977,-0.40977 0,-0.22557 0.18443,-0.40978 0.40977,-0.40978 h 0.56 c 0.22557,0 0.41001,0.18421 0.41001,0.40978 0,0.22534 -0.18444,0.40977 -0.41001,0.40977"
       style="fill:#ea765d;fill-opacity:1;fill-rule:nonzero;stroke:none;stroke-width:0.0231118"
       id="path51489"
       inkscape:export-filename="/home/bolarinwa/Downloads/path54255.png"
       inkscape:export-xdpi="98.489998"
       inkscape:export-ydpi="98.489998" />
    <path
       d="m 115.8899,166.24587 h -0.56023 c -0.22534,0 -0.40977,-0.18443 -0.40977,-0.40977 0,-0.22557 0.18443,-0.40978 0.40977,-0.40978 h 0.56023 c 0.22534,0 0.40977,0.18421 0.40977,0.40978 0,0.22534 -0.18443,0.40977 -0.40977,0.40977"
       style="fill:#ea765d;fill-opacity:1;fill-rule:nonzero;stroke:none;stroke-width:0.0231118"
       id="path51491"
       inkscape:export-filename="/home/bolarinwa/Downloads/path54255.png"
       inkscape:export-xdpi="98.489998"
       inkscape:export-ydpi="98.489998" />
    <path
       d="m 121.02996,164.24509 c -2.3e-4,0.465 0.26879,0.84219 0.6009,0.84219 0.33236,2.3e-4 0.60184,-0.3765 0.60207,-0.84151 2.3e-4,-0.465 -0.26879,-0.84196 -0.60113,-0.84219 -0.33213,-2.2e-4 -0.60161,0.37673 -0.60184,0.84151"
       style="fill:#291e1e;fill-opacity:1;fill-rule:nonzero;stroke:none;stroke-width:0.0231118"
       id="path51493"
       inkscape:export-filename="/home/bolarinwa/Downloads/path54255.png"
       inkscape:export-xdpi="98.489998"
       inkscape:export-ydpi="98.489998" />
    <path
       d="m 122.78946,162.93117 c -0.51539,-0.11439 -1.00952,-0.15877 -1.52746,-0.13358 -0.21586,0.0106 -0.39243,-0.17056 -0.38365,-0.38643 l 2.3e-4,-0.003 c 0.008,-0.18444 0.14954,-0.33674 0.33327,-0.35524 0.60391,-0.0608 1.19373,-0.009 1.76898,0.15739 0.17819,0.0515 0.28982,0.22904 0.26231,0.41255 l -2.2e-4,0.002 c -0.0321,0.21517 -0.24106,0.35361 -0.45346,0.30646"
       style="fill:#39233c;fill-opacity:1;fill-rule:nonzero;stroke:none;stroke-width:0.0231118"
       id="path51495"
       inkscape:export-filename="/home/bolarinwa/Downloads/path54255.png"
       inkscape:export-xdpi="98.489998"
       inkscape:export-ydpi="98.489998" />
    <path
       d="m 117.52576,164.24509 c 2.2e-4,0.465 -0.2688,0.84219 -0.60115,0.84219 -0.33211,2.3e-4 -0.6016,-0.3765 -0.60183,-0.84151 -2.3e-4,-0.465 0.26879,-0.84196 0.60114,-0.84219 0.33211,-2.2e-4 0.6016,0.37673 0.60184,0.84151"
       style="fill:#291e1e;fill-opacity:1;fill-rule:nonzero;stroke:none;stroke-width:0.0231118"
       id="path51497"
       inkscape:export-filename="/home/bolarinwa/Downloads/path54255.png"
       inkscape:export-xdpi="98.489998"
       inkscape:export-ydpi="98.489998" />
    <path
       d="m 115.78173,162.93117 c 0.51563,-0.11439 1.00953,-0.15877 1.52746,-0.13358 0.21587,0.0106 0.39267,-0.17056 0.38366,-0.38643 l -2.3e-4,-0.003 c -0.008,-0.18444 -0.14954,-0.33674 -0.33327,-0.35524 -0.60391,-0.0608 -1.19373,-0.009 -1.76874,0.15739 -0.1782,0.0515 -0.29006,0.22904 -0.26256,0.41255 l 2.3e-4,0.002 c 0.0324,0.21517 0.24106,0.35361 0.45345,0.30646"
       style="fill:#39233c;fill-opacity:1;fill-rule:nonzero;stroke:none;stroke-width:0.0231118"
       id="path51499"
       inkscape:export-filename="/home/bolarinwa/Downloads/path54255.png"
       inkscape:export-xdpi="98.489998"
       inkscape:export-ydpi="98.489998" />
    <path
       d="m 121.47417,153.85215 c -0.92816,-0.006 -1.79486,0.39544 -2.31164,0.6952 l -0.0452,0.0367 c -0.48835,-0.34829 -1.25844,-0.79065 -2.12489,-0.88287 -0.22303,-0.0238 -0.35939,0.2369 -0.20824,0.40284 l 1.01993,1.11977 1.36636,1.31598 1.20667,-1.29242 c 0.0753,0.0166 0.15393,-0.003 0.21194,-0.0541 l 1.04696,-0.91753 c 0.16871,-0.14769 0.0626,-0.42226 -0.16178,-0.42365"
       style="fill:#333050;fill-opacity:1;fill-rule:nonzero;stroke:none;stroke-width:0.0231118"
       id="path51519"
       inkscape:export-filename="/home/bolarinwa/Downloads/path54255.png"
       inkscape:export-xdpi="98.489998"
       inkscape:export-ydpi="98.489998" />
    <path
       d="m 117.76033,157.46362 c 0.30601,2.01465 1.55427,3.85135 3.2731,4.93575 0.5244,0.33074 1.19626,-0.11185 1.10636,-0.72547 l -0.37395,-2.54992 c -0.10608,-0.72249 -0.48303,-2.24948 -1.01738,-2.74684 -0.4798,-0.44629 -1.05043,-0.15115 -1.64926,0.0268 -0.37025,0.11002 -0.74166,0.22927 -1.04072,0.47332 -0.2993,0.2443 -0.47333,0.78604 -0.21379,1.07217 l -0.0844,-0.48581"
       style="fill:#333050;fill-opacity:1;fill-rule:nonzero;stroke:none;stroke-width:0.0231118"
       id="path51525"
       inkscape:export-filename="/home/bolarinwa/Downloads/path54255.png"
       inkscape:export-xdpi="98.489998"
       inkscape:export-ydpi="98.489998" />
    <path
       d="m 120.03593,157.73403 c 1.89378,1.91735 3.02186,4.09564 3.71036,6.60443 0.1537,0.55977 0.95474,0.57872 1.123,0.0233 0.66193,-2.18429 0.33351,-4.46843 -0.76869,-6.63539 -0.41509,-0.81654 -2.06297,-1.30882 -3.01355,-1.33146 -0.0435,-0.002 -0.0836,0.0182 -0.11232,0.0513 l -0.9462,1.09157 c -0.0494,0.0573 -0.0457,0.14261 0.008,0.19622"
       style="fill:#333050;fill-opacity:1;fill-rule:nonzero;stroke:none;stroke-width:0.0231118"
       id="path51527"
       inkscape:export-filename="/home/bolarinwa/Downloads/path54255.png"
       inkscape:export-xdpi="98.489998"
       inkscape:export-ydpi="98.489998" />
    <path
       d="m 113.83942,164.57628 c 0.13798,0.47333 0.83434,0.4278 0.90575,-0.0601 0.31755,-2.17088 1.22631,-4.26782 2.68259,-5.96953 0.44235,-0.51702 0.95914,-1.13087 0.65245,-1.81613 -0.17889,-0.39983 -0.58843,-0.64482 -1.02501,-0.67926 -1.19073,-0.0941 -2.19077,0.7486 -2.69276,1.76921 -0.42225,0.85883 -0.79828,2.64491 -0.86415,3.59966 -0.0858,1.24573 0.0987,2.32436 0.34113,3.15615"
       style="fill:#333050;fill-opacity:1;fill-rule:nonzero;stroke:none;stroke-width:0.0231118"
       id="path51535"
       inkscape:export-filename="/home/bolarinwa/Downloads/path54255.png"
       inkscape:export-xdpi="98.489998"
       inkscape:export-ydpi="98.489998" />
    <path
       d="m 118.45623,158.43246 c 0.4775,1.32247 1.24734,2.47875 2.30332,3.40992 0.36032,0.31802 0.89236,-0.21009 0.52973,-0.52995 -0.95683,-0.84381 -1.67676,-1.87806 -2.11057,-3.07918 -0.16248,-0.45022 -0.88703,-0.25609 -0.72248,0.19921"
       style="fill:#42406a;fill-opacity:1;fill-rule:nonzero;stroke:none;stroke-width:0.0231118"
       id="path51537"
       inkscape:export-filename="/home/bolarinwa/Downloads/path54255.png"
       inkscape:export-xdpi="98.489998"
       inkscape:export-ydpi="98.489998" />
    <path
       d="m 121.43765,158.71721 c 1.16599,1.51659 1.92706,3.2197 2.27513,5.10123 0.0878,0.47356 0.81006,0.27295 0.7227,-0.19922 -0.35893,-1.93931 -1.14842,-3.71637 -2.35069,-5.28036 -0.28983,-0.37695 -0.94111,-0.004 -0.64714,0.37835"
       style="fill:#42406a;fill-opacity:1;fill-rule:nonzero;stroke:none;stroke-width:0.0231118"
       id="path51539"
       inkscape:export-filename="/home/bolarinwa/Downloads/path54255.png"
       inkscape:export-xdpi="98.489998"
       inkscape:export-ydpi="98.489998" />
    <path
       d="m 114.57553,163.53486 c 0.15716,-1.55704 0.70837,-2.98119 1.60789,-4.25904 0.27803,-0.39522 -0.3714,-0.76986 -0.64714,-0.37811 -0.97924,1.39086 -1.53947,2.94675 -1.71003,4.63715 -0.0485,0.47934 0.70121,0.47588 0.74928,0"
       style="fill:#42406a;fill-opacity:1;fill-rule:nonzero;stroke:none;stroke-width:0.0231118"
       id="path51541"
       inkscape:export-filename="/home/bolarinwa/Downloads/path54255.png"
       inkscape:export-xdpi="98.489998"
       inkscape:export-ydpi="98.489998" />
    <path
       d="m 115.32921,173.29358 c 0,0 0.59952,2.12236 4.15296,2.12236 3.55344,0 4.02537,-2.17644 4.02537,-2.17644 l -2.01742,-0.84867 -5.2688,0.49113 -0.89211,0.41162"
       style="fill:#feffff;fill-opacity:1;fill-rule:nonzero;stroke:none;stroke-width:0.0231118"
       id="path51897"
       inkscape:export-filename="/home/bolarinwa/Downloads/path54255.png"
       inkscape:export-xdpi="98.489998"
       inkscape:export-ydpi="98.489998" />
    <path
       d="m 116.08773,172.93604 c 0,0 0.62333,1.58848 3.41362,1.61321 2.17644,0.0192 3.04313,-1.69479 3.04313,-1.69479 l -2.17644,-1.07863 -2.23398,0.0386 -2.04633,1.12162"
       style="fill:#f89a74;fill-opacity:1;fill-rule:nonzero;stroke:none;stroke-width:0.0231118"
       id="path51899"
       inkscape:export-filename="/home/bolarinwa/Downloads/path54255.png"
       inkscape:export-xdpi="98.489998"
       inkscape:export-ydpi="98.489998" />
    <path
       d="m 91.656614,169.03987 h -4.42901 v -5.13454 h 4.42901 v 5.13454"
       style="fill:#3c95ae;fill-opacity:1;fill-rule:nonzero;stroke:none;stroke-width:0.0263553"
       id="path70675" />
    <path
       d="m 92.751144,167.21582 v 0 c 0.21533,0.55056 0.74744,0.92481 1.30855,1.1114 0.5611,0.18633 1.15989,0.21506 1.74841,0.27278 0.1721,0.0171 0.34604,0.0371 0.5076,0.0983 0.23167,0.088 0.4288,0.25722 0.66784,0.32258 0.0748,0.0203 0.15603,0.0295 0.22851,0.001 0.0561,-0.0216 0.102,-0.064 0.14258,-0.10884 0.24853,-0.27463 0.34341,-0.66231 0.32812,-1.03261 -0.0153,-0.37003 -0.13071,-0.72819 -0.25828,-1.07609 -0.33418,-0.91215 -0.75955,-1.79084 -1.26743,-2.61866 -0.42721,-0.69605 -1.43425,-1.68121 -2.34773,-1.18335 -0.64702,0.35237 -0.81833,1.49012 -1.02205,2.12291 -0.20031,0.62173 -0.27884,1.46932 -0.0361,2.08998"
       style="fill:#6d3622;fill-opacity:1;fill-rule:nonzero;stroke:none;stroke-width:0.0263553"
       id="path70677" />
    <path
       d="m 87.874094,165.28661 c 0.42248,-0.24722 1.56815,-0.47519 1.71574,-0.42195 0.14548,-0.0567 0.91189,0.0321 1.34385,0.26882 2.62868,1.44085 7.08299,2.30609 7.09459,4.68308 0,0 -0.0219,1.60609 -1.38814,1.62296 l -6.92038,0.0854 -6.92037,0.0851 c -1.366,0.0169 -1.4506,-1.58817 -1.4506,-1.58817 -0.0409,-2.24073 3.95409,-3.23037 6.52531,-4.73526"
       style="fill:#3c95ae;fill-opacity:1;fill-rule:nonzero;stroke:none;stroke-width:0.0263553"
       id="path71309" />
    <path
       d="m 89.509974,167.98856 c 2.52062,0 3.36742,-0.60697 4.44851,-1.52071 -1.24502,-0.56031 -1.71072,-0.67285 -2.84347,-1.28482 -0.43249,-0.23377 -1.49593,-0.37082 -1.64167,-0.31284 -0.14786,-0.0521 -0.78513,-0.097 -1.20813,0.15339 -1.18599,0.70211 -1.9271,0.92139 -3.18372,1.5779 0.99254,0.67733 1.54336,1.38708 4.42848,1.38708"
       style="fill:#f89a74;fill-opacity:1;fill-rule:nonzero;stroke:none;stroke-width:0.0263553"
       id="path71331" />
    <path
       d="m 89.509974,167.98856 h -0.26197 c -0.80595,0 -1.46536,-0.65915 -1.46536,-1.4651 v -5.72279 c 0,-0.80568 0.65941,-1.46509 1.46536,-1.46509 h 0.26197 c 0.80595,0 1.4651,0.65941 1.4651,1.46509 v 5.72279 c 0,0.80595 -0.65915,1.4651 -1.4651,1.4651"
       style="fill:#f89a74;fill-opacity:1;fill-rule:nonzero;stroke:none;stroke-width:0.0263553"
       id="path71333" />
    <path
       d="m 87.782644,163.05378 3.25436,-0.7535 -0.0485,1.20787 c -0.13177,1.91076 -2.67928,2.28422 -3.21745,0.0988 l 0.0116,-0.55321"
       style="fill:#ea765d;fill-opacity:1;fill-rule:nonzero;stroke:none;stroke-width:0.0263553"
       id="path71335" />
    <path
       d="m 89.318634,163.79305 h -0.0946 c -2.86824,0 -5.21519,-2.34694 -5.21519,-5.21545 v -4.04607 c 0,-2.86851 2.34695,-5.21546 5.21519,-5.21546 h 0.0946 c 2.86851,0 5.21546,2.34695 5.21546,5.21546 v 4.04607 c 0,2.86851 -2.34695,5.21545 -5.21546,5.21545"
       style="fill:#f89a74;fill-opacity:1;fill-rule:nonzero;stroke:none;stroke-width:0.0263553"
       id="path71337" />
    <path
       d="m 87.639534,159.63945 h 3.12469 c 0.28543,0 0.47466,0.29281 0.36054,0.55452 -0.25222,0.57824 -0.80727,1.40131 -1.92288,1.40131 -1.11562,0 -1.67067,-0.82307 -1.92315,-1.40131 -0.11412,-0.26171 0.0754,-0.55452 0.3608,-0.55452"
       style="fill:#fbf9f4;fill-opacity:1;fill-rule:nonzero;stroke:none;stroke-width:0.0263553"
       id="path71339" />
    <path
       d="m 91.065204,156.9889 c -2.7e-4,0.49047 0.28358,0.88844 0.63411,0.88844 0.35052,2.6e-4 0.6349,-0.39718 0.63516,-0.88791 2.7e-4,-0.49048 -0.28385,-0.88844 -0.63437,-0.88844 -0.35026,-2.7e-4 -0.63464,0.39717 -0.6349,0.88791"
       style="fill:#572715;fill-opacity:1;fill-rule:nonzero;stroke:none;stroke-width:0.0263553"
       id="path71341" />
    <path
       d="m 92.921664,155.60261 c -0.54397,-0.12097 -1.06501,-0.16762 -1.61162,-0.14101 -0.22771,0.0111 -0.41405,-0.18 -0.40482,-0.40798 l 2.6e-4,-0.003 c 0.008,-0.19451 0.15788,-0.35554 0.35159,-0.37504 0.63726,-0.0638 1.25951,-0.01 1.86622,0.1663 0.18817,0.0543 0.30598,0.24168 0.27699,0.43513 l -2.7e-4,0.002 c -0.034,0.22719 -0.25433,0.3732 -0.47835,0.32338"
       style="fill:#572715;fill-opacity:1;fill-rule:nonzero;stroke:none;stroke-width:0.0263553"
       id="path71343" />
    <path
       d="m 87.368074,156.9889 c 2.7e-4,0.49047 -0.28384,0.88844 -0.63437,0.88844 -0.35052,2.6e-4 -0.63464,-0.39718 -0.6349,-0.88791 -2.6e-4,-0.49048 0.28358,-0.88844 0.63411,-0.88844 0.35053,-2.7e-4 0.6349,0.39717 0.63516,0.88791"
       style="fill:#572715;fill-opacity:1;fill-rule:nonzero;stroke:none;stroke-width:0.0263553"
       id="path71345" />
    <path
       d="m 85.527944,155.60261 c 0.54398,-0.12097 1.06502,-0.16762 1.61163,-0.14101 0.22771,0.0111 0.41404,-0.18 0.40482,-0.40798 l -2.7e-4,-0.003 c -0.008,-0.19451 -0.15786,-0.35554 -0.35183,-0.37504 -0.63702,-0.0638 -1.25927,-0.01 -1.86622,0.1663 -0.18792,0.0543 -0.30573,0.24168 -0.27674,0.43513 l 2.6e-4,0.002 c 0.034,0.22719 0.25433,0.3732 0.47835,0.32338"
       style="fill:#572715;fill-opacity:1;fill-rule:nonzero;stroke:none;stroke-width:0.0263553"
       id="path71347" />
    <path
       d="m 93.351004,159.0997 h -0.59115 c -0.23773,0 -0.43223,-0.19451 -0.43223,-0.43223 0,-0.23799 0.1945,-0.43249 0.43223,-0.43249 h 0.59115 c 0.23772,0 0.43222,0.1945 0.43222,0.43249 0,0.23772 -0.1945,0.43223 -0.43222,0.43223"
       style="fill:#ea765d;fill-opacity:1;fill-rule:nonzero;stroke:none;stroke-width:0.0263553"
       id="path71385" />
    <path
       d="m 85.642074,159.0997 h -0.59115 c -0.23773,0 -0.43223,-0.19451 -0.43223,-0.43223 0,-0.23799 0.1945,-0.43249 0.43223,-0.43249 h 0.59115 c 0.23772,0 0.43222,0.1945 0.43222,0.43249 0,0.23772 -0.1945,0.43223 -0.43222,0.43223"
       style="fill:#ea765d;fill-opacity:1;fill-rule:nonzero;stroke:none;stroke-width:0.0263553"
       id="path71421" />
    <path
       d="m 95.839994,156.49421 c 0.0804,-0.0226 0.11649,-0.11359 0.15418,-0.18449 0.22138,-0.41483 0.13177,-0.92006 0.14074,-1.39261 0.009,-0.49311 0.13151,-0.97199 0.20188,-1.45772 0.27146,-1.87491 -0.29702,-3.93458 -1.72654,-5.3546 -1.42978,-1.42029 -3.75273,-2.07021 -5.60156,-1.36864 -0.37846,0.14364 -0.73136,0.33735 -1.07029,0.5474 -0.16472,0.10173 -0.33049,0.21164 -0.43433,0.36924 -0.30915,0.47018 -0.30704,1.47458 -0.21638,2.03331 0.088,0.54214 0.49785,0.95038 0.86498,1.36495 1.04157,1.17544 2.19303,2.28526 3.52423,3.17212 0.7398,0.49285 2.68008,2.69141 4.16309,2.27104"
       style="fill:#7a3d2a;fill-opacity:1;fill-rule:nonzero;stroke:none;stroke-width:0.0263553"
       id="path71567" />
    <path
       d="m 86.740034,152.69193 v 0 c -0.81096,0.68814 -1.53178,0.72846 -2.19197,1.5626 -0.41457,0.52368 -0.35712,1.74895 -0.53924,2.37409 -0.13625,0.46649 -0.59563,-0.063 -0.64122,-0.0269 -0.11728,0.092 -0.2654,-0.0706 -0.31916,-0.20978 -0.39217,-1.01811 -0.37372,-2.14137 -0.34974,-3.23222 0.009,-0.42854 0.0193,-0.86129 0.12546,-1.27639 0.0678,-0.2654 0.17394,-0.51973 0.29597,-0.76483 0.57375,-1.15331 1.51332,-2.12134 2.64923,-2.72909 0.15418,-0.0825 0.31416,-0.15946 0.48573,-0.19424 0.31679,-0.0648 0.6428,0.0176 0.95538,0.0994 0.66415,0.17368 1.55338,0.62541 1.49197,1.45587 -0.0221,0.29992 -0.22349,0.55345 -0.38953,0.79013 -0.23983,0.34236 -0.42933,0.7029 -0.64517,1.05922 -0.24854,0.41035 -0.56191,0.7817 -0.92771,1.09216"
       style="fill:#7a3d2a;fill-opacity:1;fill-rule:nonzero;stroke:none;stroke-width:0.0263553"
       id="path71569" />
    <path
       d="m 82.130754,158.29718 c 0.32285,0.90741 1.14724,1.44295 1.8417,1.196 0.69473,-0.24695 0.99597,-1.18283 0.67338,-2.09024 -0.32258,-0.90741 -1.14725,-1.44269 -1.8417,-1.19574 -0.69447,0.24695 -0.99597,1.18257 -0.67338,2.08998"
       style="fill:#f89a74;fill-opacity:1;fill-rule:nonzero;stroke:none;stroke-width:0.0263553"
       id="path71575" />
    <path
       d="m 95.307614,163.25725 -1.82827,1.23158 c -0.32153,0.21691 -0.76193,0.13099 -0.97883,-0.19055 l -0.082,-0.12176 c -0.21664,-0.32153 -0.13072,-0.7622 0.19081,-0.97884 l 1.82827,-1.23158 c 0.32154,-0.21664 0.76194,-0.13099 0.97857,0.19081 l 0.082,0.1215 c 0.2169,0.3218 0.13099,0.7622 -0.19055,0.97884"
       style="fill:#3c95ae;fill-opacity:1;fill-rule:nonzero;stroke:none;stroke-width:0.0263553"
       id="path71577" />
    <path
       d="m 89.872884,168.00279 c 0,0 -2.74227,0.058 -2.64528,-4.09746 l -2.01776,2.39675 c -0.2488,0.22244 -0.36002,0.56347 -0.29097,0.89212 l 0.57771,2.74728 c 0.1099,0.52315 0.71397,0.75772 1.14092,0.4433 l 3.23538,-2.38199"
       style="fill:#4fbdc9;fill-opacity:1;fill-rule:nonzero;stroke:none;stroke-width:0.0263553"
       id="path71579" />
    <path
       d="m 89.010014,167.86943 c 0,0 2.75281,0.39322 2.65345,-3.9641 l 2.30979,2.17616 c 0.26434,0.23297 0.38241,0.59062 0.30861,0.93534 l -0.61724,2.88143 c -0.11755,0.54845 -0.76035,0.79488 -1.21471,0.4657 l -3.4399,-2.49453"
       style="fill:#4fbdc9;fill-opacity:1;fill-rule:nonzero;stroke:none;stroke-width:0.0263553"
       id="path71581" />
    <path
       d="m 102.95584,172.75723 c 0,0 -2.87095,-0.36387 -3.11383,-4.4077 l -2.057237,1.8968 c -0.433056,0.39919 -0.605572,1.00801 -0.446009,1.57501 l 0.916749,3.2575 c 0.157796,0.56082 0.837257,0.77867 1.291517,0.41391 l 3.40881,-2.73552"
       style="fill:#6966a3;fill-opacity:1;fill-rule:nonzero;stroke:none;stroke-width:0.0294396"
       id="path53692"
       inkscape:export-filename="/home/bolarinwa/Downloads/path54255.png"
       inkscape:export-xdpi="98.489998"
       inkscape:export-ydpi="98.489998" />
  </g>
</svg>
