<?xml version="1.0" encoding="UTF-8" standalone="no"?>
<!-- Created with Inkscape (http://www.inkscape.org/) -->

<svg
   width="43.955757mm"
   height="43.947857mm"
   viewBox="0 0 43.955757 43.947857"
   version="1.1"
   id="svg87321"
   inkscape:version="1.1.1 (eb90963e84, 2021-10-02)"
   sodipodi:docname="case3.svg"
   xmlns:inkscape="http://www.inkscape.org/namespaces/inkscape"
   xmlns:sodipodi="http://sodipodi.sourceforge.net/DTD/sodipodi-0.dtd"
   xmlns="http://www.w3.org/2000/svg"
   xmlns:svg="http://www.w3.org/2000/svg">
  <sodipodi:namedview
     id="namedview87323"
     pagecolor="#ffffff"
     bordercolor="#666666"
     borderopacity="1.0"
     inkscape:pageshadow="2"
     inkscape:pageopacity="0.0"
     inkscape:pagecheckerboard="0"
     inkscape:document-units="mm"
     showgrid="false"
     fit-margin-top="0"
     fit-margin-left="0"
     fit-margin-right="0"
     fit-margin-bottom="0"
     inkscape:zoom="1.569781"
     inkscape:cx="98.421371"
     inkscape:cy="186.96875"
     inkscape:window-width="1920"
     inkscape:window-height="1017"
     inkscape:window-x="0"
     inkscape:window-y="30"
     inkscape:window-maximized="1"
     inkscape:current-layer="layer1" />
  <defs
     id="defs87318">
    <clipPath
       clipPathUnits="userSpaceOnUse"
       id="clipPath87202">
      <rect
         style="fill:#f1f0f5;fill-opacity:1;stroke-width:0.264583"
         id="rect87204"
         width="69.0084"
         height="48.516266"
         x="26.111216"
         y="25.973635" />
    </clipPath>
  </defs>
  <g
     inkscape:label="Layer 1"
     inkscape:groupmode="layer"
     id="layer1"
     transform="translate(-77.657755,-73.371176)">
    <g
       id="g87096"
       clip-path="url(#clipPath87202)"
       transform="translate(40.381191,42.829132)">
      <path
         d="m 61.581284,67.045607 c 1.075385,-1.468663 0.981576,-16.813348 3.518222,-14.793638 1.698871,5.113346 0.04016,15.488055 -0.736555,18.195197 -1.312377,4.573296 -3.790361,10.804812 -4.010404,11.797613 l -2.700142,-0.974805 c 0.955319,-1.195683 2.192728,-10.395032 3.928879,-14.224367"
         style="fill:#f1f0f5;fill-opacity:1;fill-rule:nonzero;stroke:none;stroke-width:0.0211776"
         id="path6038" />
      <path
         d="m 66.957627,77.111324 h 7.780265 V 52.591658 h -7.780265 v 24.519666"
         style="fill:#579fb0;fill-opacity:1;fill-rule:nonzero;stroke:none;stroke-width:0.0211776"
         id="path6040" />
      <path
         d="m 65.377781,63.482688 c -1.86193,-3.725997 0.491962,-5.323848 -0.278275,-11.230719 3.125611,-0.899415 4.593865,-1.444738 5.709514,-1.636183 -0.846053,1.222372 -1.28253,3.23234 -1.407898,4.408333 -1.614378,17.800442 -1.757751,38.994997 -2.747382,55.019671 -2.331449,-0.0295 -3.804351,-0.11267 -5.79081,-0.23507 -1.865114,-20.285823 3.529037,-40.925533 4.514851,-46.326032"
         style="fill:#f1f0f5;fill-opacity:1;fill-rule:nonzero;stroke:none;stroke-width:0.0211776"
         id="path6044" />
      <path
         d="m 71.67412,53.130202 c 0.539815,-1.81026 1.000646,-2.286333 1.831873,-2.286333 1.024573,0.278697 2.425044,0.747781 4.719431,1.4081 0.220665,7.610615 0.570945,6.478876 -0.701621,11.230719 -0.935206,3.491344 4.981188,19.622534 3.455761,46.326032 -1.986457,0.1224 -9.883807,0.20564 -12.21505,0.23507 0,0 2.162252,-51.193081 2.909606,-56.913588"
         style="fill:#f1f0f5;fill-opacity:1;fill-rule:nonzero;stroke:none;stroke-width:0.0211776"
         id="path6042" />
      <path
         d="m 72.687259,49.596507 c 2.464224,0.302628 2.128566,0.941558 4.064622,3.542166 -0.456583,0.279968 -4.991982,-0.636174 -6.624366,3.279156 0.06126,-1.689134 -1.341612,-3.674749 -3.347347,-3.490929 1.532838,-1.637877 3.78467,-3.671777 5.907091,-3.330393"
         style="fill:#7ab6c5;fill-opacity:1;fill-rule:nonzero;stroke:none;stroke-width:0.0211776"
         id="path6046" />
      <path
         d="m 72.207586,36.545375 c -0.09165,-0.134689 -0.145278,-0.198434 -0.29988,-0.05908 0.08979,0.0097 0.189543,0.02902 0.29988,0.05908 z m 2.146561,0.104194 c -0.196738,-0.150997 -0.405551,-0.229565 -0.595931,-0.140407 -0.04676,0.02202 -0.08663,0.05401 -0.123899,0.09001 0.2355,-0.02435 0.476931,-0.0049 0.71983,0.0504 z m 2.198021,1.340332 c 0.01776,-0.712627 -0.688263,-0.63067 -1.222788,-0.280392 0.695476,-0.03791 1.04914,0.100383 1.222788,0.280392 z m 0.957032,0.78823 c 0.0028,-0.01102 0.0065,-0.02182 0.0084,-0.03282 0.01329,-0.06078 -0.0056,-0.117959 0.01673,-0.108642 -0.09869,-0.06925 -0.251173,-0.01947 -0.402382,0.0324 0.136597,0.01906 0.26388,0.05316 0.377182,0.109065 z m 1.30919,3.060802 c 0.0037,0.02159 0.0046,0.04384 0.0037,0.0667 0.01673,0.0037 0.03384,0.0072 0.05001,0.01186 0.107799,0.01863 0.208813,0.05189 0.299666,0.09953 0.03644,-0.198434 0.06758,-0.397081 0.01404,-0.568831 -0.0028,6.6e-4 -0.0037,8.15e-4 -0.0056,0.0017 -0.0224,0.0076 -0.04471,0.01652 -0.06693,0.02669 -0.04806,0.0233 -0.09613,0.04892 -0.144219,0.0773 -0.07808,0.0468 -0.157772,0.09911 -0.23867,0.141467 0.03616,0.0396 0.066,0.08683 0.08812,0.143584 z m 0.371883,-0.39221 c 0.02157,0.02054 0.05484,-0.01673 0,0 z M 65.68507,42.180316 c -0.744804,-0.13596 -0.321473,-0.793101 0.142751,-0.874847 -0.437965,-0.271497 -0.328055,-1.139145 0.409139,-1.508905 -0.167718,-0.23126 -0.120497,-0.547443 0.259845,-0.531347 -0.03133,-0.431388 0.678326,-0.697168 1.059533,-0.598691 0.07436,0.01249 0.150567,0.03367 0.227655,0.05994 0.03978,-0.08408 0.07752,-0.168785 0.118173,-0.233376 0.105884,-0.167939 0.279542,-0.246296 0.448747,-0.2967 0.146338,-0.04384 0.293736,-0.05633 0.438373,-0.04448 0.102511,-0.07475 0.189553,-0.151208 0.240167,-0.224059 0.03411,-0.04384 0.06665,-0.09213 0.09975,-0.142314 -0.0317,-10e-4 -0.06274,-0.0036 -0.09277,-0.0095 -0.08728,-0.01736 -0.158618,-0.04913 -0.232758,-0.09445 -0.148449,-0.09064 -0.195893,-0.174079 -0.327191,0.03219 -0.129606,0.204152 -0.246924,0.448964 -0.455737,0.568407 -0.130453,0.07497 -0.284618,0.01801 -0.373575,-0.0593 -0.07055,-0.061 -0.12284,-0.130877 -0.200763,-0.182338 -0.137025,-0.08874 -0.303274,0.280603 -0.345624,0.378444 -0.05103,0.114782 -0.386914,0.109064 -0.323593,-0.03621 0.254342,-0.604622 0.753499,-0.677261 1.106112,-0.340749 0.0037,-0.0066 0.0084,-0.01356 0.01441,-0.02075 0.05763,-0.07116 0.106312,-0.148666 0.154388,-0.227023 0.08784,-0.142737 0.159678,-0.284204 0.288224,-0.391999 0.207326,-0.174291 0.484554,-0.04066 0.646778,0.08323 0.326131,0.249896 0.439005,-0.27298 0.592343,-0.512922 0.10885,-0.168786 0.288642,-0.236555 0.46336,-0.275521 0.328891,-0.07412 0.660748,0.0049 0.959569,0.166244 -0.06795,-0.05845 -0.126427,-0.136595 -0.166454,-0.212835 -0.06562,-0.125794 -0.10844,-0.252649 -0.185304,-0.372302 -0.134905,-0.210295 -0.412756,0.185304 -0.484981,0.295851 -0.08561,0.128125 -0.46824,-0.09572 -0.361082,-0.260909 0.436273,-0.681919 1.022035,-0.414658 1.343518,0.242484 0.0065,-0.0063 0.01292,-0.01249 0.02119,-0.01842 0.08236,-0.05845 0.156498,-0.129607 0.229569,-0.201822 0.133836,-0.13109 0.249044,-0.267897 0.420796,-0.323594 0.276363,-0.08916 0.558452,0.252648 0.711781,0.49958 0.308981,0.497039 0.559512,-0.08174 0.788858,-0.271074 0.162652,-0.135325 0.380565,-0.106523 0.584926,-0.05019 0.25964,0.07158 0.995561,0.372303 1.302218,1.097212 0.13194,-0.07666 0.27298,-0.13829 0.423129,-0.180856 0.364884,-0.103982 0.608434,-0.0017 0.868065,0.181068 0.148876,0.104406 0.245874,0.277639 0.297538,0.465273 0.02398,0.08534 0.02928,0.17535 0.03495,0.268531 5.95e-4,0.06777 -0.0037,0.136808 -0.01208,0.206694 -0.0037,0.03134 -0.0056,0.0629 -0.0093,0.09445 6.05e-4,0.0074 8.18e-4,0.01291 0.0019,0.01948 0.116063,-0.0036 0.292685,-0.101017 0.392212,-0.126429 0.14592,-0.03728 0.286318,-0.0089 0.388819,0.07963 0.173872,0.150151 0.210933,0.407035 0.169215,0.675779 0.03049,0.03473 0.05912,0.07222 0.08468,0.114148 0.101441,0.199704 0.132358,0.432446 0.142732,0.663071 0.206489,-0.07815 0.416148,-0.177045 0.586199,-0.07137 0.292044,0.184881 0.164966,0.73804 0.104202,1.100813 -0.01989,0.117111 -0.11373,0.05061 -0.142314,0.0085 -0.05363,-0.07963 -0.07873,-0.192293 -0.05884,-0.308982 0.01627,-0.09805 0.03198,-0.196315 0.04592,-0.295216 0.01989,-0.141042 0.04201,-0.122195 -0.09338,-0.11203 -0.141477,0.01144 -0.289089,0.07624 -0.435632,0.123042 5.95e-4,0.104618 0.0037,0.205424 0.0119,0.297123 0.137015,0.01017 0.259213,0.07031 0.292249,0.226812 0.03244,0.15269 -0.02649,0.387126 -0.02984,0.57709 0.04573,0.06882 0.097,0.130878 0.152055,0.185305 0.0436,-0.02033 0.08663,-0.0413 0.128761,-0.06607 0.09026,-0.05294 0.17917,-0.112242 0.268954,-0.160315 0.171334,-0.09212 0.342026,-0.137654 0.488151,-0.03473 0.168787,0.118805 0.223212,0.387338 0.19038,0.669213 -0.01394,0.119229 -0.03793,0.23973 -0.05819,0.359595 0.285258,0.342865 0.05289,0.517792 -0.01032,0.520757 0.06544,0.05358 0.295428,0.305806 -0.121343,0.443037 0.658192,0.613515 0.02454,1.29607 -0.613305,1.414241 0.545745,0.570101 -0.109919,0.869553 -0.426949,0.723639 0.218564,1.207549 -1.289493,1.146133 -1.289289,1.149945 0.306434,0.693779 -0.490474,0.843928 -0.822954,0.534946 0.01803,0.549983 -0.780399,1.105896 -1.511663,0.79289 -0.101023,0.30517 -0.396024,0.502122 -0.597642,0.187212 -0.348365,0.344771 -0.97565,-0.02287 -1.108008,-0.399411 -0.0317,-0.06862 -0.05698,-0.144855 -0.07808,-0.225753 -0.09402,0.0307 -0.187424,0.06332 -0.265153,0.07899 -0.13299,0.02647 -0.249462,4.23e-4 -0.353236,-0.04787 -0.04871,0.0097 -0.09783,0.01822 -0.147817,0.02329 -0.123043,0.01249 -0.247565,0.01589 -0.371251,0.02223 -0.05633,0.05613 -0.107576,0.09721 -0.155224,0.128548 0.01404,-0.002 0.02538,-0.0028 0.04146,-0.0059 0.246516,-0.04807 0.520759,-0.135961 0.74016,-0.05845 0.137443,0.04828 0.176623,0.213259 0.161378,0.341384 -0.0119,0.10144 -0.04174,0.194832 -0.04081,0.295003 0.0028,0.174927 0.409567,0.03346 0.516521,-0.0051 0.126427,-0.0449 0.311732,0.227022 0.152687,0.284202 -0.656928,0.245873 -1.001065,-0.09784 -0.915723,-0.627916 -0.0074,0.0017 -0.01608,0.0032 -0.02556,0.0037 -0.09296,0.007 -0.186364,0.02563 -0.279969,0.04532 -0.170897,0.036 -0.33143,0.08365 -0.495764,0.0612 -0.166667,-0.02245 -0.245864,-0.157136 -0.278492,-0.30898 -0.09445,0.09911 -0.295,0.242907 -0.415506,-0.06988 -0.628977,0.7715 -1.541939,0.311099 -1.667316,-0.280604 -0.584721,0.653118 -0.897727,0.08365 -0.749055,-0.25519 -0.970157,0.37082 -0.945599,-0.447483 -0.979899,-0.823597 -0.0074,-0.007 -0.01376,-0.01377 -0.02082,-0.02054 -0.564168,0.313428 -0.879507,-0.270228 -0.671326,-0.592551 -0.950246,0.304746 -1.196548,-0.683614 -0.785689,-1.169639 -0.640835,0.01397 -0.484972,-0.720675 -0.247789,-0.739735 -0.920156,-0.486238 0.08171,-1.484339 0.07873,-1.486034"
         style="fill:#301b17;fill-opacity:1;fill-rule:nonzero;stroke:none;stroke-width:0.0211776"
         id="path6054" />
      <path
         d="m 73.557871,47.979595 c -0.108217,-1.794803 0.03077,-4.909818 -0.583438,-4.875088 -0.662227,0.03728 -1.745463,0.09953 -2.40768,0.137231 -0.614383,0.03515 -0.121993,3.114381 -0.02519,4.910032 0.097,1.81471 -0.191012,2.982655 -0.873372,3.63302 -0.183604,0.769807 0.393058,1.229364 0.63407,3.689141 1.622419,-3.531791 4.235101,-3.907058 3.738696,-5.062086 -0.261546,-0.608645 -0.421224,-1.411912 -0.483066,-2.43225"
         style="fill:#ab6f56;fill-opacity:1;fill-rule:nonzero;stroke:none;stroke-width:0.0211776"
         id="path6056" />
      <path
         d="m 70.264967,46.907372 c -0.06739,-1.008053 2.580278,-0.774677 2.593403,-1.700351 0.655246,0.373362 0.747996,1.057612 0.815341,2.065454 0.07836,1.173452 -1.611831,3.128146 -2.257112,3.171137 -0.645067,0.04321 -1.073485,-2.363 -1.151632,-3.53624"
         style="fill:#8b5744;fill-opacity:1;fill-rule:nonzero;stroke:none;stroke-width:0.0211776"
         id="path6058" />
      <path
         d="m 75.831083,44.606636 c -0.166035,0.688697 -0.02928,1.044904 -0.359604,0.965275 -0.330583,-0.07962 -0.464001,-0.702461 -0.297965,-1.391369 0.165821,-0.688907 0.568193,-1.182558 0.898777,-1.103141 0.330369,0.07963 -0.07539,0.840327 -0.241208,1.529235"
         style="fill:#8b5744;fill-opacity:1;fill-rule:nonzero;stroke:none;stroke-width:0.0211776"
         id="path6060" />
      <path
         d="m 68.239098,43.085025 c 0.332061,-0.07264 0.724069,0.42927 0.875706,1.121354 0.151841,0.692084 0.0056,1.312164 -0.326782,1.385017 -0.331857,0.07263 -0.187638,-0.280393 -0.339265,-0.972688 -0.151628,-0.692085 -0.541721,-1.460834 -0.209659,-1.533683"
         style="fill:#8b5744;fill-opacity:1;fill-rule:nonzero;stroke:none;stroke-width:0.0211776"
         id="path6062" />
      <path
         d="m 73.718617,39.43019 c 1.002543,0.730628 1.680228,1.531354 1.6294,5.698686 -0.01162,0.95977 -0.44409,1.814922 -1.120715,2.394977 -2.039199,1.751177 -2.12772,1.862572 -4.251424,-0.05167 -0.662012,-0.59615 -1.073066,-1.46189 -1.061633,-2.42145 0.01032,-0.854728 0.04917,-1.61204 0.113088,-2.281676 0.385436,-4.050643 3.161197,-1.048715 4.691284,-3.338864"
         style="fill:#ab6f56;fill-opacity:1;fill-rule:nonzero;stroke:none;stroke-width:0.0211776"
         id="path6064" />
      <path
         d="m 70.560609,43.588205 c -0.09657,0.189115 -0.314698,0.318511 -0.572014,0.313852 -0.311324,-0.0056 -0.575184,-0.205211 -0.637668,-0.46379 -0.08617,-0.744394 1.073299,0.23846 1.209682,0.149938"
         style="fill:#382a23;fill-opacity:1;fill-rule:nonzero;stroke:none;stroke-width:0.0211776"
         id="path6066" />
      <path
         d="m 70.509772,43.109591 c 0.405133,0.22554 0.791415,0.544265 0.727666,0.82741 -0.126009,0.03494 -0.255401,0.06247 -0.387545,0.07942 -0.881423,0.110971 -1.422939,-0.248837 -1.331657,-0.819151 0.0099,-0.06352 -0.06972,-0.140195 -0.04295,-0.202457 0.296069,-0.173869 0.614373,-0.119442 1.034537,0.114783"
         style="fill:#ffffff;fill-opacity:1;fill-rule:nonzero;stroke:none;stroke-width:0.0211776"
         id="path6068" />
      <path
         d="m 70.358777,42.950546 c 0.291198,0.0036 0.52457,0.242484 0.520973,0.533677 -0.0037,0.291404 -0.242482,0.523933 -0.533885,0.520758 -0.290994,-0.0036 -0.524579,-0.242485 -0.520982,-0.533466 0.0037,-0.291404 0.242909,-0.52478 0.533894,-0.520969"
         style="fill:#41231e;fill-opacity:1;fill-rule:nonzero;stroke:none;stroke-width:0.0211776"
         id="path6070" />
      <path
         d="m 70.178556,42.635635 c 0.543636,0.0061 0.921449,0.393692 0.949178,0.984336 -0.270433,-0.326559 -0.764505,-0.62474 -1.877821,-0.447907 0.184459,-0.340747 0.507206,-0.541723 0.928643,-0.536429"
         style="fill:#8a4a49;fill-opacity:1;fill-rule:nonzero;stroke:none;stroke-width:0.0211776"
         id="path6072" />
      <path
         d="m 71.228552,43.798922 c -0.909374,-1.237196 -2.133873,0.02711 -2.122653,-0.958287 0.112252,0.294792 1.902184,-0.117536 2.122653,0.958287"
         style="fill:#382a23;fill-opacity:1;fill-rule:nonzero;stroke:none;stroke-width:0.0211776"
         id="path6074" />
      <path
         d="m 70.249081,41.90649 c -0.542789,-0.02858 -1.095106,0.175985 -1.547674,0.52817 0.49938,-0.213682 1.030299,-0.322747 1.556142,-0.295217 0.414875,0.02224 0.785698,0.127913 1.106317,0.298605 -0.256675,-0.308558 -0.64147,-0.506569 -1.114785,-0.531558"
         style="fill:#382a23;fill-opacity:1;fill-rule:nonzero;stroke:none;stroke-width:0.0211776"
         id="path6076" />
      <path
         d="m 74.92235,43.502647 c -0.06925,0.256885 -0.338419,0.448542 -0.649947,0.445365 -0.257307,-0.0032 -0.471837,-0.138501 -0.562681,-0.330795 0.134049,0.09233 1.319573,-0.855787 1.212628,-0.11457"
         style="fill:#382a23;fill-opacity:1;fill-rule:nonzero;stroke:none;stroke-width:0.0211776"
         id="path6078" />
      <path
         d="m 73.773674,43.139027 c 0.42694,-0.221941 0.746936,-0.267262 1.03728,-0.08555 0.02556,0.06375 -0.0567,0.137442 -0.04852,0.201611 0.07473,0.572854 -0.476281,0.916355 -1.354097,0.780606 -0.131726,-0.02054 -0.2607,-0.05189 -0.385436,-0.09001 -0.0554,-0.285263 0.33948,-0.59255 0.750748,-0.806656"
         style="fill:#ffffff;fill-opacity:1;fill-rule:nonzero;stroke:none;stroke-width:0.0211776"
         id="path6080" />
      <path
         d="m 73.9306,42.984643 c 0.290985,0.0049 0.523297,0.2446 0.518631,0.535369 -0.0037,0.291193 -0.244601,0.523724 -0.53579,0.518852 -0.291189,-0.0044 -0.523501,-0.244178 -0.51864,-0.535794 0.0037,-0.291192 0.244601,-0.523298 0.535799,-0.518427"
         style="fill:#41231e;fill-opacity:1;fill-rule:nonzero;stroke:none;stroke-width:0.0211776"
         id="path6082" />
      <path
         d="m 74.118656,42.674813 c 0.42101,0.0068 0.737409,0.21686 0.912758,0.562266 -1.107804,-0.20754 -1.609721,0.07646 -1.8901,0.39454 0.04536,-0.589373 0.433503,-0.965912 0.977342,-0.956806"
         style="fill:#8a4a49;fill-opacity:1;fill-rule:nonzero;stroke:none;stroke-width:0.0211776"
         id="path6084" />
      <path
         d="m 75.190877,42.915815 c -0.01654,0.964217 -1.227036,-0.297969 -2.155447,0.892213 0.251163,-1.069046 2.034746,-0.601021 2.155447,-0.892213"
         style="fill:#382a23;fill-opacity:1;fill-rule:nonzero;stroke:none;stroke-width:0.0211776"
         id="path6086" />
      <path
         d="m 74.286811,41.946939 c -0.47206,0.02499 -0.894761,0.225965 -1.214116,0.538335 0.352818,-0.17281 0.74227,-0.279757 1.155443,-0.302205 0.524784,-0.02753 1.025214,0.08365 1.471219,0.299664 -0.370191,-0.356843 -0.871458,-0.564808 -1.412546,-0.535794"
         style="fill:#382a23;fill-opacity:1;fill-rule:nonzero;stroke:none;stroke-width:0.0211776"
         id="path6088" />
      <path
         d="m 72.113767,46.607285 -1.483916,-0.02837 c 0.263879,0.246507 0.692297,1.067353 1.506997,1.075612 0.814067,0.0085 1.223857,-0.795007 1.441362,-1.045115 l -1.464443,-0.0021"
         style="fill:#b73d5a;fill-opacity:1;fill-rule:nonzero;stroke:none;stroke-width:0.0211776"
         id="path6090" />
      <path
         d="m 72.113563,46.417322 c 0.333967,-0.338206 1.036851,0.186152 1.464647,0.192082 -0.402596,0.124948 -0.910006,0.238672 -1.424835,0.233378 -0.502763,-0.0053 -1.105694,-0.135326 -1.523524,-0.263874 0.542789,-0.0025 1.256261,-0.466754 1.483712,-0.161586"
         style="fill:#962846;fill-opacity:1;fill-rule:nonzero;stroke:none;stroke-width:0.0211776"
         id="path6092" />
      <path
         d="m 72.116314,46.711056 -1.03305,-0.02858 c 0.534107,0.467602 1.547451,0.567984 2.045548,0.03155 l -1.012498,-0.003"
         style="fill:#ffffff;fill-opacity:1;fill-rule:nonzero;stroke:none;stroke-width:0.0211776"
         id="path6094" />
      <path
         d="m 71.950911,45.704908 c -0.170469,0.216223 -0.35451,0.170056 -0.345187,0.0665 0.01404,-0.161162 0.18933,-0.0468 0.345187,-0.0665 z m 0.372301,-0.0066 c 0.18933,0.200128 0.368286,0.137443 0.350281,0.03473 -0.02882,-0.159256 -0.192927,-0.02901 -0.350281,-0.03473"
         style="fill:#8b5744;fill-opacity:1;fill-rule:nonzero;stroke:none;stroke-width:0.0211776"
         id="path6096" />
      <path
         d="m 70.251414,44.782834 c 0.602076,0 1.108436,-0.412116 1.255193,-0.968664 0.0074,-0.06353 0.01906,-0.122619 0.03421,-0.176198 0.0065,-0.05083 0.0099,-0.102288 0.0099,-0.154596 0,-0.38501 -0.959132,-0.694839 -1.753298,-0.694839 -0.258358,0 -0.474803,0.03282 -0.62643,0.09488 -0.145493,0.05951 -0.219187,0.141043 -0.219187,0.242696 0,0.745663 0.08282,1.656725 1.299458,1.656725 z m 2.472488,-1.144651 c 0.01543,0.05358 0.02668,0.112454 0.03421,0.175987 0.146766,0.556548 0.653117,0.968664 1.255202,0.968664 1.216654,0 1.299458,-0.911062 1.299458,-1.656725 0,-0.101653 -0.07371,-0.183186 -0.219196,-0.242696 -0.151618,-0.06206 -0.368063,-0.09488 -0.626421,-0.09488 -0.794166,0 -1.753503,0.309829 -1.753503,0.694839 0,0.05252 0.0037,0.10377 0.01013,0.154807 z m -3.775134,-1.095518 c 0.187415,-0.07666 0.447474,-0.117323 0.752867,-0.117323 0.624319,0 1.449607,0.179797 1.851988,0.513134 0.446842,0.370608 0.710507,0.370608 1.157563,0 0.402381,-0.333337 1.227678,-0.513134 1.851988,-0.513134 0.30517,0 0.565656,0.04066 0.752867,0.117323 0.29606,0.121137 0.358321,0.307711 0.358321,0.442824 0,0.901744 -0.19843,1.99112 -1.603568,1.99112 -0.657142,0 -1.222584,-0.397716 -1.470159,-0.964641 -0.04201,-0.0108 -0.07334,-0.04679 -0.07334,-0.09212 0,-0.05316 -0.0037,-0.102711 -0.0084,-0.149725 -0.08003,-0.312159 -0.690606,-0.328465 -0.770862,-0.0078 -0.0056,0.04871 -0.0106,0.09911 -0.0106,0.157561 0,0.04532 -0.03133,0.08132 -0.07343,0.09212 -0.247362,0.566925 -0.812795,0.964641 -1.469946,0.964641 -1.405147,0 -1.603586,-1.089377 -1.603586,-1.99112 0,-0.135113 0.06228,-0.321687 0.35834,-0.442823"
         style="fill:#eeaf3a;fill-opacity:1;fill-rule:nonzero;stroke:none;stroke-width:0.0211776"
         id="path6098" />
      <path
         d="m 40.33148,58.215209 c 0.02919,0.174651 0.04921,0.355712 0.05805,0.542402 0.06931,1.443742 -0.534914,2.375022 -1.333273,2.410322 -0.798901,0.035 -1.489458,-0.83928 -1.558735,-2.283002 -0.0092,-0.18669 -0.0067,-0.36883 0.0058,-0.545089 0,0 0.645918,0.04929 1.418321,0.01385 0.771886,-0.03536 1.410031,-0.138545 1.410031,-0.138545"
         style="fill:#ffffff;fill-opacity:1;fill-rule:nonzero;stroke:none;stroke-width:0.0267456"
         id="path54291"
         inkscape:export-filename="/home/bolarinwa/Downloads/path54255.png"
         inkscape:export-xdpi="98.489998"
         inkscape:export-ydpi="98.489998" />
      <path
         d="m 39.394043,51.495114 c 0,0 1.234854,1.913108 2.91715,4.665763 1.689248,2.764434 4.252291,7.152066 4.252291,7.152066 0,0 0.473135,-1.21721 0.406277,-3.503682 -0.06689,-2.286486 -0.527165,-6.287907 -1.565966,-7.434226 0,0 -5.566034,-4.340817 -6.009744,-0.879921"
         style="fill:#ffffff;fill-opacity:1;fill-rule:nonzero;stroke:none;stroke-width:0.0267456"
         id="path54309"
         inkscape:export-filename="/home/bolarinwa/Downloads/path54255.png"
         inkscape:export-xdpi="98.489998"
         inkscape:export-ydpi="98.489998" />
      <path
         d="m 39.394043,51.495114 c 0,0 1.234854,1.913108 2.91715,4.665763 1.689248,2.764434 4.252291,7.152066 4.252291,7.152066 0,0 0.473135,-1.21721 0.406277,-3.503682 -0.06689,-2.286486 -0.527165,-6.287907 -1.565966,-7.434226 0,0 -5.566034,-4.340817 -6.009752,-0.879921 z"
         style="fill:none;stroke:#0e0f0e;stroke-width:0.250609;stroke-linecap:round;stroke-linejoin:round;stroke-miterlimit:10;stroke-dasharray:none;stroke-opacity:1"
         id="path54311"
         inkscape:export-filename="/home/bolarinwa/Downloads/path54255.png"
         inkscape:export-xdpi="98.489998"
         inkscape:export-ydpi="98.489998" />
      <path
         d="m 44.9871,55.564719 c 0,0 0.523688,0.642423 0.846509,1.437313 0.354107,0.872439 0.798609,2.678569 0.791662,3.388411 -0.0093,0.99279 0.09415,1.92167 -0.0618,2.9225 0,0 -1.707714,-1.76281 -2.292379,-3.772752 -0.119545,-0.41028 -0.182392,-1.467272 -0.215299,-2.35842 -0.02844,-0.769743 0.179468,-1.392649 0.179468,-1.392649 l 0.751818,-0.224403"
         style="fill:#859bb9;fill-opacity:1;fill-rule:nonzero;stroke:none;stroke-width:0.0267456"
         id="path54313"
         inkscape:export-filename="/home/bolarinwa/Downloads/path54255.png"
         inkscape:export-xdpi="98.489998"
         inkscape:export-ydpi="98.489998" />
      <path
         d="m 44.9871,55.564719 c 0,0 0.523688,0.642423 0.846509,1.437313 0.354107,0.872439 0.798609,2.678569 0.791662,3.388411 -0.0093,0.99279 0.09415,1.92167 -0.0618,2.9225 0,0 -1.707714,-1.76281 -2.292379,-3.772752 -0.119545,-0.41028 -0.182392,-1.467272 -0.215299,-2.35842 -0.02844,-0.769743 0.179468,-1.392649 0.179468,-1.392649 z"
         style="fill:none;stroke:#0e0f0e;stroke-width:0.250609;stroke-linecap:round;stroke-linejoin:round;stroke-miterlimit:10;stroke-dasharray:none;stroke-opacity:1"
         id="path54315"
         inkscape:export-filename="/home/bolarinwa/Downloads/path54255.png"
         inkscape:export-xdpi="98.489998"
         inkscape:export-ydpi="98.489998" />
      <path
         d="m 45.440443,54.433645 c 0,0 -0.119295,0.783381 -0.434359,1.290487 0,0 -0.152716,0.133457 -0.587869,0.116601 -0.434889,-0.01685 -0.865763,-0.319602 -1.460587,-1.176005 0,0 0.477139,-1.178947 1.008049,-1.703435 0,0 1.417792,1.101655 1.474766,1.472352"
         style="fill:#859bb9;fill-opacity:1;fill-rule:nonzero;stroke:none;stroke-width:0.0267456"
         id="path54319"
         inkscape:export-filename="/home/bolarinwa/Downloads/path54255.png"
         inkscape:export-xdpi="98.489998"
         inkscape:export-ydpi="98.489998" />
      <path
         d="m 45.440443,54.433645 c 0,0 -0.119295,0.783381 -0.434359,1.290487 0,0 -0.152716,0.133457 -0.587869,0.116601 -0.434889,-0.01685 -0.865763,-0.319602 -1.460587,-1.176005 0,0 0.477139,-1.178947 1.008049,-1.703435 0,0 1.417792,1.101655 1.474766,1.472352 z"
         style="fill:none;stroke:#0e0f0e;stroke-width:0.250609;stroke-linecap:round;stroke-linejoin:round;stroke-miterlimit:10;stroke-dasharray:none;stroke-opacity:1"
         id="path54321"
         inkscape:export-filename="/home/bolarinwa/Downloads/path54255.png"
         inkscape:export-xdpi="98.489998"
         inkscape:export-ydpi="98.489998" />
      <path
         d="m 44.031468,51.345325 2.142878,1.138563 0.376836,0.692175 1.092564,1.053521 c 0,0 0.502277,3.52721 -1.024355,9.185249 0,0 -0.04496,-2.37447 -0.138279,-6.110314 -0.04254,-1.707697 -0.393165,-2.762555 -0.69431,-3.535767 -0.171449,-0.439698 -1.10113,-1.678547 -1.755334,-2.423427"
         style="fill:#ffffff;fill-opacity:1;fill-rule:nonzero;stroke:none;stroke-width:0.0267456"
         id="path54323"
         inkscape:export-filename="/home/bolarinwa/Downloads/path54255.png"
         inkscape:export-xdpi="98.489998"
         inkscape:export-ydpi="98.489998" />
      <path
         d="m 44.031468,51.345325 2.142878,1.138563 0.376836,0.692175 1.092564,1.053521 c 0,0 0.502277,3.52721 -1.024355,9.185249 0,0 -0.04496,-2.37447 -0.138279,-6.110314 -0.04254,-1.707697 -0.393165,-2.762555 -0.69431,-3.535767 -0.171449,-0.439698 -1.10113,-1.678547 -1.755334,-2.423427 z"
         style="fill:none;stroke:#0e0f0e;stroke-width:0.250609;stroke-linecap:round;stroke-linejoin:round;stroke-miterlimit:10;stroke-dasharray:none;stroke-opacity:1"
         id="path54325"
         inkscape:export-filename="/home/bolarinwa/Downloads/path54255.png"
         inkscape:export-xdpi="98.489998"
         inkscape:export-ydpi="98.489998" />
      <path
         d="m 44.367663,47.779864 c -0.118486,0.845436 -0.11339,1.830474 -0.1249,2.656381 -0.0067,0.495605 -0.02435,0.76091 -0.04871,1.243404 -0.0092,0.170105 -0.312925,0.864691 -0.312925,0.864691 0,0 -0.42873,-0.12143 -1.913117,-0.788467 -1.381402,-0.620755 -1.761206,-1.056449 -1.761206,-1.056449 0.08024,-0.17064 0.01835,-1.843307 -0.06314,-3.321275 l 4.223937,0.401715"
         style="fill:#efdac9;fill-opacity:1;fill-rule:nonzero;stroke:none;stroke-width:0.0267456"
         id="path54343"
         inkscape:export-filename="/home/bolarinwa/Downloads/path54255.png"
         inkscape:export-xdpi="98.489998"
         inkscape:export-ydpi="98.489998" />
      <path
         d="m 44.367663,47.779864 c -0.118486,0.845436 -0.11339,1.830474 -0.1249,2.656381 -0.0067,0.495605 -0.02435,0.76091 -0.04871,1.243404 -0.0092,0.170105 -0.312925,0.864691 -0.312925,0.864691 0,0 -0.42873,-0.12143 -1.913117,-0.788467 -1.381402,-0.620755 -1.761206,-1.056449 -1.761206,-1.056449 0.08024,-0.17064 0.01835,-1.843307 -0.06314,-3.321275 z"
         style="fill:none;stroke:#0e0f0e;stroke-width:0.250609;stroke-linecap:round;stroke-linejoin:round;stroke-miterlimit:10;stroke-dasharray:none;stroke-opacity:1"
         id="path54345"
         inkscape:export-filename="/home/bolarinwa/Downloads/path54255.png"
         inkscape:export-xdpi="98.489998"
         inkscape:export-ydpi="98.489998" />
      <path
         d="m 39.394043,51.020102 c 0,0 -0.112331,-0.0196 -0.719191,0.240717 -0.564055,0.242051 -1.057783,0.647778 -1.057783,0.647778 0,0 1.059118,1.215854 1.919539,1.748099 0.181065,0.111789 -0.991735,0.7684 -0.991735,0.7684 3.565195,4.634215 3.22792,5.100915 8.721487,9.640717 0,0 -3.623237,-7.493854 -5.609902,-10.455657 -0.131847,-0.196854 -2.191796,-2.41567 -2.262407,-2.590054"
         style="fill:#ffffff;fill-opacity:1;fill-rule:nonzero;stroke:none;stroke-width:0.0267456"
         id="path54347"
         inkscape:export-filename="/home/bolarinwa/Downloads/path54255.png"
         inkscape:export-xdpi="98.489998"
         inkscape:export-ydpi="98.489998" />
      <path
         d="m 39.394043,51.020102 c 0,0 -0.112331,-0.0196 -0.719191,0.240717 -0.564055,0.242051 -1.057783,0.647778 -1.057783,0.647778 0,0 1.059118,1.215854 1.919539,1.748099 0.181065,0.111789 -0.991735,0.7684 -0.991735,0.7684 3.565195,4.634215 3.22792,5.100915 8.721487,9.640717 0,0 -3.623237,-7.493854 -5.609902,-10.455657 -0.131847,-0.196854 -2.191796,-2.41567 -2.262415,-2.590054 z"
         style="fill:none;stroke:#0e0f0e;stroke-width:0.250609;stroke-linecap:round;stroke-linejoin:round;stroke-miterlimit:10;stroke-dasharray:none;stroke-opacity:1"
         id="path54349"
         inkscape:export-filename="/home/bolarinwa/Downloads/path54255.png"
         inkscape:export-xdpi="98.489998"
         inkscape:export-ydpi="98.489998" />
      <path
         d="m 39.526157,45.966784 c 0.206229,0.618895 0.638971,1.693535 0.06764,1.883691 -0.570753,0.190165 -1.186704,-0.04729 -1.737398,-1.246347 -0.272269,-0.592948 -0.03987,-1.380347 0.531169,-1.57077 0.570753,-0.190157 0.932625,0.314531 1.138562,0.933426"
         style="fill:#efdac9;fill-opacity:1;fill-rule:nonzero;stroke:none;stroke-width:0.0267456"
         id="path54385"
         inkscape:export-filename="/home/bolarinwa/Downloads/path54255.png"
         inkscape:export-xdpi="98.489998"
         inkscape:export-ydpi="98.489998" />
      <path
         d="m 39.526157,45.966784 c 0.206229,0.618895 0.638971,1.693535 0.06764,1.883691 -0.570753,0.190165 -1.186704,-0.04729 -1.737398,-1.246347 -0.272269,-0.592948 -0.03987,-1.380347 0.531169,-1.57077 0.570753,-0.190157 0.932625,0.314531 1.138562,0.933426 z"
         style="fill:none;stroke:#0e0f0e;stroke-width:0.250609;stroke-linecap:round;stroke-linejoin:round;stroke-miterlimit:10;stroke-dasharray:none;stroke-opacity:1"
         id="path54387"
         inkscape:export-filename="/home/bolarinwa/Downloads/path54255.png"
         inkscape:export-xdpi="98.489998"
         inkscape:export-ydpi="98.489998" />
      <path
         d="m 42.718254,39.346168 c 1.519964,-0.02435 3.121235,0.895977 3.621111,3.361657 0,0 1.184026,6.749263 -2.674841,7.849851 0,0 -2.734216,0.67933 -4.058122,-2.568389 0,0 -0.829378,-2.592456 -0.868695,-4.839888 -0.02169,-1.230033 0.6542,-3.749743 3.980547,-3.803231"
         style="fill:#efdac9;fill-opacity:1;fill-rule:nonzero;stroke:none;stroke-width:0.0267456"
         id="path54389"
         inkscape:export-filename="/home/bolarinwa/Downloads/path54255.png"
         inkscape:export-xdpi="98.489998"
         inkscape:export-ydpi="98.489998" />
      <path
         d="m 46.535134,44.739695 c 0,0 0.374984,4.885355 -2.898434,5.907317"
         style="fill:none;stroke:#0e0f0e;stroke-width:0.250609;stroke-linecap:round;stroke-linejoin:round;stroke-miterlimit:10;stroke-dasharray:none;stroke-opacity:1"
         id="path54391"
         inkscape:export-filename="/home/bolarinwa/Downloads/path54255.png"
         inkscape:export-xdpi="98.489998"
         inkscape:export-ydpi="98.489998" />
      <path
         d="m 39.448073,47.44876 c 0,0 0.104048,0.74513 1.01367,1.978911"
         style="fill:none;stroke:#0e0f0e;stroke-width:0.250609;stroke-linecap:round;stroke-linejoin:round;stroke-miterlimit:10;stroke-dasharray:none;stroke-opacity:1"
         id="path54395"
         inkscape:export-filename="/home/bolarinwa/Downloads/path54255.png"
         inkscape:export-xdpi="98.489998"
         inkscape:export-ydpi="98.489998" />
      <path
         d="m 41.446226,45.656915 c 0.0033,0.210749 0.163951,0.378987 0.358127,0.376051 0.194711,-0.0025 0.349562,-0.176528 0.346084,-0.387278 -0.0033,-0.210757 -0.163684,-0.379262 -0.358127,-0.376309 -0.194427,0.0025 -0.349287,0.176778 -0.346084,0.387536"
         style="fill:#0e0f0e;fill-opacity:1;fill-rule:nonzero;stroke:none;stroke-width:0.0267456"
         id="path54397"
         inkscape:export-filename="/home/bolarinwa/Downloads/path54255.png"
         inkscape:export-xdpi="98.489998"
         inkscape:export-ydpi="98.489998" />
      <path
         d="m 44.532156,45.659667 c 0.0033,0.210758 0.163692,0.379254 0.358402,0.376035 0.194177,-0.0025 0.349295,-0.17652 0.345825,-0.387269 -0.0033,-0.210767 -0.163692,-0.379254 -0.358135,-0.376043 -0.194711,0.0025 -0.349562,0.17652 -0.346092,0.387277"
         style="fill:#0e0f0e;fill-opacity:1;fill-rule:nonzero;stroke:none;stroke-width:0.0267456"
         id="path54399"
         inkscape:export-filename="/home/bolarinwa/Downloads/path54255.png"
         inkscape:export-xdpi="98.489998"
         inkscape:export-ydpi="98.489998" />
      <path
         d="m 45.541489,44.64638 c 0,0 -0.433826,-0.582254 -1.327926,-0.196854"
         style="fill:none;stroke:#0e0f0e;stroke-width:0.250609;stroke-linecap:round;stroke-linejoin:round;stroke-miterlimit:10;stroke-dasharray:none;stroke-opacity:1"
         id="path54401"
         inkscape:export-filename="/home/bolarinwa/Downloads/path54255.png"
         inkscape:export-xdpi="98.489998"
         inkscape:export-ydpi="98.489998" />
      <path
         d="m 41.095605,44.644254 c 0,0 0.539185,-0.594291 1.284856,-0.180807"
         style="fill:none;stroke:#0e0f0e;stroke-width:0.250609;stroke-linecap:round;stroke-linejoin:round;stroke-miterlimit:10;stroke-dasharray:none;stroke-opacity:1"
         id="path54403"
         inkscape:export-filename="/home/bolarinwa/Downloads/path54255.png"
         inkscape:export-xdpi="98.489998"
         inkscape:export-ydpi="98.489998" />
      <path
         d="m 43.664524,46.678484 0.324148,0.93476 -0.174651,0.121422"
         style="fill:none;stroke:#0e0f0e;stroke-width:0.250609;stroke-linecap:round;stroke-linejoin:round;stroke-miterlimit:10;stroke-dasharray:none;stroke-opacity:1"
         id="path54405"
         inkscape:export-filename="/home/bolarinwa/Downloads/path54255.png"
         inkscape:export-xdpi="98.489998"
         inkscape:export-ydpi="98.489998" />
      <path
         d="m 37.430657,42.496541 c -0.238315,-1.651548 1.03986,-5.28655 4.061843,-4.209233 0.482226,-0.404125 3.459553,-1.157286 4.915866,1.637637 0.476872,0.608995 0.700466,1.527975 0.700466,2.609571 0,1.346109 -0.22467,1.611147 -0.573698,2.205179 -0.03753,0.06339 -2.385443,-1.897337 -3.266186,-3.652926 -0.94733,1.885034 -4.279289,4.018 -4.339742,4.018 -0.618361,7.59e-4 -1.306791,-1.276031 -1.498549,-2.608228"
         style="fill:#4e545d;fill-opacity:1;fill-rule:nonzero;stroke:none;stroke-width:0.0267456"
         id="path54407"
         inkscape:export-filename="/home/bolarinwa/Downloads/path54255.png"
         inkscape:export-xdpi="98.489998"
         inkscape:export-ydpi="98.489998" />
      <path
         d="m 37.430657,42.496541 c -0.238315,-1.651548 1.03986,-5.28655 4.061843,-4.209233 0.482226,-0.404125 3.459553,-1.157286 4.915866,1.637637 0.476872,0.608995 0.700466,1.527975 0.700466,2.609571 0,1.346109 -0.22467,1.611147 -0.573698,2.205179 -0.03753,0.06339 -2.385443,-1.897337 -3.266186,-3.652926 -0.94733,1.885034 -4.279289,4.018 -4.339742,4.018 -0.618361,7.59e-4 -1.306791,-1.276031 -1.498549,-2.608228 z"
         style="fill:none;stroke:#0e0f0e;stroke-width:0.250609;stroke-linecap:round;stroke-linejoin:round;stroke-miterlimit:10;stroke-dasharray:none;stroke-opacity:1"
         id="path54409"
         inkscape:export-filename="/home/bolarinwa/Downloads/path54255.png"
         inkscape:export-xdpi="98.489998"
         inkscape:export-ydpi="98.489998" />
      <path
         d="m 44.764841,41.47378 c 0,0 0.458689,0.220124 0.653942,1.060736"
         style="fill:none;stroke:#0e0f0e;stroke-width:0.250609;stroke-linecap:round;stroke-linejoin:round;stroke-miterlimit:10;stroke-dasharray:none;stroke-opacity:1"
         id="path54411"
         inkscape:export-filename="/home/bolarinwa/Downloads/path54255.png"
         inkscape:export-xdpi="98.489998"
         inkscape:export-ydpi="98.489998" />
      <path
         d="m 45.816745,41.504273 c 0,0 0.571295,0.469657 0.688697,1.46753"
         style="fill:none;stroke:#0e0f0e;stroke-width:0.250609;stroke-linecap:round;stroke-linejoin:round;stroke-miterlimit:10;stroke-dasharray:none;stroke-opacity:1"
         id="path54413"
         inkscape:export-filename="/home/bolarinwa/Downloads/path54255.png"
         inkscape:export-xdpi="98.489998"
         inkscape:export-ydpi="98.489998" />
      <path
         d="m 40.772513,41.593342 c 0,0 -0.723211,0.644834 -0.730967,1.49829"
         style="fill:none;stroke:#0e0f0e;stroke-width:0.250609;stroke-linecap:round;stroke-linejoin:round;stroke-miterlimit:10;stroke-dasharray:none;stroke-opacity:1"
         id="path54415"
         inkscape:export-filename="/home/bolarinwa/Downloads/path54255.png"
         inkscape:export-xdpi="98.489998"
         inkscape:export-ydpi="98.489998" />
      <path
         d="m 39.492737,41.624085 c 0,0 -0.87752,0.718398 -0.682284,1.772437"
         style="fill:none;stroke:#0e0f0e;stroke-width:0.250609;stroke-linecap:round;stroke-linejoin:round;stroke-miterlimit:10;stroke-dasharray:none;stroke-opacity:1"
         id="path54417"
         inkscape:export-filename="/home/bolarinwa/Downloads/path54255.png"
         inkscape:export-xdpi="98.489998"
         inkscape:export-ydpi="98.489998" />
      <path
         d="m 42.57116,48.438355 c 0.852647,1.396644 1.614904,0.0083 1.614904,0.0083 l -1.614904,-0.0083"
         style="fill:#ffffff;fill-opacity:1;fill-rule:nonzero;stroke:none;stroke-width:0.0267456"
         id="path54419"
         inkscape:export-filename="/home/bolarinwa/Downloads/path54255.png"
         inkscape:export-xdpi="98.489998"
         inkscape:export-ydpi="98.489998" />
      <path
         d="m 42.57116,48.438355 c 0.852647,1.396644 1.614904,0.0083 1.614904,0.0083 z"
         style="fill:none;stroke:#0e0f0e;stroke-width:0.187956;stroke-linecap:round;stroke-linejoin:round;stroke-miterlimit:10;stroke-dasharray:none;stroke-opacity:1"
         id="path54421"
         inkscape:export-filename="/home/bolarinwa/Downloads/path54255.png"
         inkscape:export-xdpi="98.489998"
         inkscape:export-ydpi="98.489998" />
      <path
         d="m 38.450725,44.852826 1.784205,0.391022"
         style="fill:none;stroke:#0e0f0e;stroke-width:0.250609;stroke-linecap:round;stroke-linejoin:round;stroke-miterlimit:10;stroke-dasharray:none;stroke-opacity:1"
         id="path54423"
         inkscape:export-filename="/home/bolarinwa/Downloads/path54255.png"
         inkscape:export-xdpi="98.489998"
         inkscape:export-ydpi="98.489998" />
      <path
         d="m 43.855749,45.480278 c 0,0 -0.450132,-0.196045 -0.816275,0.01234"
         style="fill:none;stroke:#0e0f0e;stroke-width:0.250609;stroke-linecap:round;stroke-linejoin:round;stroke-miterlimit:10;stroke-dasharray:none;stroke-opacity:1"
         id="path54425"
         inkscape:export-filename="/home/bolarinwa/Downloads/path54255.png"
         inkscape:export-xdpi="98.489998"
         inkscape:export-ydpi="98.489998" />
      <path
         d="m 46.405155,45.43267 c 0.01793,0.192567 -0.0553,0.343415 0.07198,0.333515 0.126768,-0.0097 0.358928,-0.189089 0.341271,-0.381389 -0.0176,-0.1923 -0.27815,-0.324957 -0.40546,-0.315332 -0.126777,0.0098 -0.02519,0.170906 -0.0075,0.363206"
         style="fill:#0e0f0e;fill-opacity:1;fill-rule:nonzero;stroke:none;stroke-width:0.0267456"
         id="path54427"
         inkscape:export-filename="/home/bolarinwa/Downloads/path54255.png"
         inkscape:export-xdpi="98.489998"
         inkscape:export-ydpi="98.489998" />
      <path
         d="m 40.509059,45.43267 c -0.01768,0.192567 0.0553,0.343415 -0.07164,0.333515 -0.127035,-0.0097 -0.358911,-0.189089 -0.34153,-0.381389 0.01793,-0.1923 0.278158,-0.324957 0.405469,-0.315332 0.127035,0.0098 0.02536,0.170906 0.0075,0.363206"
         style="fill:#0e0f0e;fill-opacity:1;fill-rule:nonzero;stroke:none;stroke-width:0.0267456"
         id="path54429"
         inkscape:export-filename="/home/bolarinwa/Downloads/path54255.png"
         inkscape:export-xdpi="98.489998"
         inkscape:export-ydpi="98.489998" />
      <path
         d="m 46.108273,46.396314 h -1.839304 c -0.18722,0 -0.339131,-0.151648 -0.339131,-0.33886 v -0.655802 c 0,-0.187229 0.151911,-0.338877 0.339131,-0.338877 h 1.839304 c 0.186962,0 0.338601,0.151648 0.338601,0.338877 v 0.655802 c 0,0.187212 -0.151639,0.33886 -0.338601,0.33886 z"
         style="fill:none;stroke:#0e0f0e;stroke-width:0.250609;stroke-linecap:round;stroke-linejoin:round;stroke-miterlimit:10;stroke-dasharray:none;stroke-opacity:1"
         id="path54431"
         inkscape:export-filename="/home/bolarinwa/Downloads/path54255.png"
         inkscape:export-xdpi="98.489998"
         inkscape:export-ydpi="98.489998" />
      <path
         d="m 42.657543,46.396314 h -1.839299 c -0.186954,0 -0.338593,-0.151648 -0.338593,-0.33886 v -0.655802 c 0,-0.187229 0.151639,-0.338877 0.338593,-0.338877 h 1.839299 c 0.187221,0 0.338869,0.151648 0.338869,0.338877 v 0.655802 c 0,0.187212 -0.151648,0.33886 -0.338869,0.33886 z"
         style="fill:none;stroke:#0e0f0e;stroke-width:0.250609;stroke-linecap:round;stroke-linejoin:round;stroke-miterlimit:10;stroke-dasharray:none;stroke-opacity:1"
         id="path54433"
         inkscape:export-filename="/home/bolarinwa/Downloads/path54255.png"
         inkscape:export-xdpi="98.489998"
         inkscape:export-ydpi="98.489998" />
      <path
         d="m 49.172511,51.376389 c -2.457272,1.276818 -1.928518,9.562428 -2.382091,17.621251 -0.02907,0.521277 -1.11109,9.423281 -1.42801,11.472259 -0.209756,1.357388 -1.168409,3.363171 -1.384396,4.33469 -0.215987,0.971943 0.417022,3.193296 0.691991,3.433791 0.274968,0.240496 -0.0033,-1.38481 -0.0162,-2.221764 -0.136653,-1.358649 0.507986,-2.088436 0.689499,-2.384163 0,0 0.42076,-0.836955 0.549936,-0.318169 0.128763,0.518786 -0.112147,1.582107 0.170298,2.107957 0.282445,0.526251 0.327304,-0.01542 0.284938,-0.735192 -0.04279,-0.719403 0.348486,-1.419284 0.309028,-1.864553 -0.05483,-0.621384 -0.28203,-1.023031 -0.28203,-1.023031 0,0 3.677601,-10.209562 3.515611,-12.653957 -0.07476,-1.129781 0.275383,-5.883165 0.532492,-9.101793 0.140392,-1.758636 0.525015,-2.727672 0.906731,-4.023181 0.09844,-1.78148 -0.712343,-2.677829 -2.157797,-4.644145"
         style="fill:#ed1b24;fill-opacity:1;fill-rule:nonzero;stroke:none;stroke-width:0.0415361"
         id="path856" />
      <path
         d="m 49.172511,51.376389 c -4.181433,1.590831 -1.928518,9.562428 -2.382091,17.621251 -0.02907,0.521277 -1.11109,9.423281 -1.42801,11.472259 -0.209756,1.357388 -1.168409,3.363171 -1.384396,4.33469 -0.215987,0.971943 0.417022,3.193296 0.691991,3.433791 0.274968,0.240496 -0.0033,-1.38481 -0.0162,-2.221764 -0.136653,-1.358649 0.507986,-2.088436 0.689499,-2.384163 0,0 0.42076,-0.836955 0.549936,-0.318169 0.128763,0.518786 -0.112147,1.582107 0.170298,2.107957 0.282445,0.526251 0.327304,-0.01542 0.284938,-0.735192 -0.04279,-0.719403 0.348486,-1.419284 0.309028,-1.864553 -0.05483,-0.621384 -0.28203,-1.023031 -0.28203,-1.023031 0,0 3.810101,-11.905894 3.522672,-14.338659 -0.185251,-1.569232 -1.026772,-6.114105 -0.761771,-8.445523 0.128346,-1.127288 1.813463,-3.080728 1.813463,-3.080728 0.324397,-1.5846 0.243401,-2.956951 -1.777327,-4.558166"
         style="fill:#f04a58;fill-opacity:1;fill-rule:nonzero;stroke:none;stroke-width:0.0415361"
         id="path858" />
      <path
         d="m 45.11361,81.49957 c -0.366348,1.204126 -0.969868,2.559042 -1.135596,3.305019 -0.215987,0.971943 0.417022,3.193296 0.691991,3.433791 0.274968,0.240496 -0.0033,-1.38481 -0.0162,-2.221764 -0.136653,-1.358649 0.507986,-2.088436 0.689499,-2.384163 0,0 0.42076,-0.836955 0.549936,-0.318169 0.128763,0.518786 -0.112147,1.582107 0.170298,2.107957 0.282445,0.526251 0.327304,-0.01542 0.284938,-0.735192 -0.04279,-0.719403 0.348486,-1.419284 0.309028,-1.864553 -0.05483,-0.621384 -0.28203,-1.023031 -0.28203,-1.023031 0,0 -1.150964,-0.663747 -1.261864,-0.299895"
         style="fill:#ffaa80;fill-opacity:1;fill-rule:nonzero;stroke:none;stroke-width:0.0415361"
         id="path860" />
      <path
         d="m 44.784645,87.761133 c 0.119623,0.238824 0.366762,0.67246 0.336441,-0.02202 -0.0162,-0.378393 -0.05358,-0.485972 -0.05358,-0.485972 0,0 0.32855,0.856476 0.202696,-0.616816 -0.0084,-0.09513 -0.02658,-0.175691 -0.03656,-0.245052 -0.05483,0.214322 0.405392,0.803717 0.295321,-0.05734 -0.247969,-1.941803 0.06479,-3.080725 0.06479,-3.080725 0,0 -0.297814,-0.140805 -0.341842,-0.114208 l -0.04154,0.06229 c -0.555337,0.937469 -0.761356,2.040669 -0.617642,3.120191 l 0.191897,1.439642"
         style="fill:#ea8c6c;fill-opacity:1;fill-rule:nonzero;stroke:none;stroke-width:0.0415361"
         id="path862" />
      <path
         d="m 65.91735,87.086589 c -0.806629,-9.311138 -6.357506,-18.124671 -5.566244,-20.975705 0.385039,-1.383981 2.434427,-3.52184 1.86206,-7.233916 -0.462711,-3.003471 -0.755956,-2.399538 -1.160932,-4.709357 l -0.239663,-2.51833 C 54.34624,51.754364 56.109445,51.925497 50.57726,50.621264 l -1.404749,0.755125 c 0,0 1.634859,3.574177 1.168824,4.199294 -3.40637,4.569379 0.72065,9.515907 0.337688,9.648822 -7.476487,2.596002 -8.109911,13.34387 -4.813612,16.869451 1.33663,1.428834 6.100815,2.596001 10.591691,2.076804 -6.386166,2.180638 -10.980052,-0.856888 -10.980052,-0.856888 0.122532,8.840527 -0.03614,48.055898 -0.03614,48.055898 1.511913,1.63482 7.889356,5.61078 23.03755,0.78334 -0.0025,-1.18087 -1.859984,-36.967001 -2.561113,-45.066521"
         style="fill:#f04a58;fill-opacity:1;fill-rule:nonzero;stroke:none;stroke-width:0.0415361"
         id="path866" />
      <path
         d="m 65.099506,52.251969 c 1.496128,1.399765 2.951551,14.666376 2.365062,16.200717 -0.218065,0.569874 -4.862209,-2.301097 -10.297615,-0.126269 -0.345995,0.138315 -0.338104,-0.837366 -0.338104,-0.837366 0.916285,0.437374 5.363965,-1.258958 6.736316,-1.722085 -0.711098,-1.124381 -1.189177,-6.647844 -1.189177,-6.647844 0,0 -0.08099,-1.842122 -0.78794,-2.362569 -2.282405,-1.679717 1.634444,-6.454285 3.511458,-4.504584"
         style="fill:#ed1b24;fill-opacity:1;fill-rule:nonzero;stroke:none;stroke-width:0.0415361"
         id="path868" />
      <path
         d="m 65.099506,52.251969 c 1.496128,1.399765 3.710414,15.886705 2.156966,16.420443 -2.820712,0.969035 -5.714944,0.448174 -11.833617,-0.519201 -0.0702,-0.420345 -0.04113,-0.822828 0.218064,-1.183362 0.268738,-0.166558 5.695837,-0.3921 7.68126,-1.121887 1.047954,-0.385039 2.627985,-0.53997 2.922061,-0.464374 -0.984405,-0.149529 -2.392477,0.119208 -2.392477,0.119208 -0.750972,-1.428424 0.578597,-5.21568 -2.263715,-8.746243 -3.105649,-0.680776 1.245251,-6.859261 3.511458,-4.504584"
         style="fill:#f04a58;fill-opacity:1;fill-rule:nonzero;stroke:none;stroke-width:0.0415361"
         id="path870" />
      <path
         d="M 65.01768,52.170974 C 56.689288,56.547211 52.452612,54.894492 50.116625,50.868819 L 54.754955,48.294 c 0.09636,0.176113 0.192312,0.33478 0.292829,0.476004 0.06978,0.09429 0.134992,0.184419 0.204773,0.261261 0.174036,0.201034 0.347657,0.350564 0.529584,0.448174 0.06936,0.04693 0.138731,0.07643 0.208096,0.105918 0.220141,0.08431 0.436129,0.09969 0.651285,0.05483 0.03863,-0.0087 0.0731,-0.01786 0.111736,-0.03074 0.477249,-0.150777 0.917115,-0.620134 1.256049,-1.342861 l 0.01288,0.0087 6.104967,3.329529 c 0.286184,0.0075 0.761356,0.436959 0.890533,0.566136"
         style="fill:#ed1b24;fill-opacity:1;fill-rule:nonzero;stroke:none;stroke-width:0.0415361"
         id="path872" />
      <path
         d="m 62.172461,49.389305 c 1.296755,-1.818863 0.36344,-1.799341 -0.487633,-2.456441 0,0 2.339309,-5.192836 2.405768,-6.497067 0.07435,-1.462485 -0.137485,-4.576026 -0.774648,-5.974545 -1.125627,-2.469317 -5.659285,-3.987459 -7.111386,-3.916847 -1.647734,0.0137 -4.244983,2.214285 -5.293768,3.911032 -0.81369,1.316278 -0.261261,4.54612 -0.400822,6.10663 0.03157,4.114975 2.243776,6.106628 2.243776,6.106628 -1.197483,0.05524 -0.986065,0.890118 -0.97402,2.322279 -1.190838,0.06188 -1.438393,1.753236 -1.438393,1.753236 2.429859,4.005737 6.434349,4.688589 13.774182,1.022203 1.190422,-0.680775 -1.334969,-2.445642 -1.943056,-2.377108"
         style="fill:#b2b92d;fill-opacity:1;fill-rule:nonzero;stroke:none;stroke-width:0.0415361"
         id="path874" />
      <path
         d="m 56.611201,50.220856 c -2.402861,0.925009 -3.254764,0.07061 -4.245399,-0.48514 -0.407053,-0.355964 -0.642562,-0.497602 -0.587735,-0.969451 0.915869,1.728314 4.833134,1.454591 4.833134,1.454591"
         style="fill:#7e8b1f;fill-opacity:1;fill-rule:nonzero;stroke:none;stroke-width:0.0415361"
         id="path876" />
      <path
         d="m 62.172461,49.389305 c 0.35804,-0.45025 0.497602,-0.819505 0.497602,-0.819505 -1.617413,1.751159 -5.868212,3.386848 -6.930704,3.647694 2.468072,-0.07186 4.184757,-1.17547 6.433102,-2.828189"
         style="fill:#7e8b1f;fill-opacity:1;fill-rule:nonzero;stroke:none;stroke-width:0.0415361"
         id="path878" />
      <path
         d="m 51.095215,43.945177 c 0.63924,1.830908 1.607029,3.304192 2.362154,3.945924 0.117963,0.100102 0.709851,0.368009 1.435486,0.443604 -0.973189,-0.127515 -2.762978,-2.519576 -3.79764,-4.389528"
         style="fill:#7e8b1f;fill-opacity:1;fill-rule:nonzero;stroke:none;stroke-width:0.0415361"
         id="path880" />
      <path
         d="m 62.979922,43.882457 c -0.608088,1.841293 -1.582524,4.05018 -2.326434,4.704373 -0.116304,0.101762 -1.032586,0.463956 -1.756975,0.552013 0.970698,-0.143715 3.080313,-3.369819 4.083409,-5.256386"
         style="fill:#7e8b1f;fill-opacity:1;fill-rule:nonzero;stroke:none;stroke-width:0.0415361"
         id="path882" />
      <path
         d="m 59.707298,44.547864 c -0.776725,0.957822 -2.593511,2.130385 -3.670541,2.18272 -0.575274,-0.01661 -2.461425,-1.114828 -3.141786,-1.995392 -0.632594,-0.815353 -0.832798,-1.869953 -0.885133,-2.914584 0.06812,0.798738 0.277461,1.589169 0.847751,2.325603 0.679945,0.880148 2.566512,1.978362 3.14137,1.998714 1.077445,-0.05608 2.897554,-1.228636 3.670956,-2.182718 0.962804,-1.190424 0.883056,-3.334929 0.872672,-4.575195 0.01454,1.28014 0.127515,3.970014 -0.835289,5.160852"
         style="fill:#7e8b1f;fill-opacity:1;fill-rule:nonzero;stroke:none;stroke-width:0.0415361"
         id="path884" />
      <path
         d="m 59.670745,43.96096 c -0.775477,0.957406 -2.593511,2.129138 -3.670125,2.183134 -0.575274,-0.01827 -2.463502,-1.116488 -3.143447,-1.996637 -1.177131,-1.523541 -0.814521,-3.27927 -0.841104,-4.841441 -0.0084,-0.512139 -0.07227,-3.113957 0.805799,-4.081331 0.05275,-0.05856 1.013895,-1.239435 2.941167,-1.646488 3.554654,0.648377 4.776228,4.415695 4.779137,5.660531 0.0029,1.208699 0.130838,3.484874 -0.871427,4.722232"
         style="fill:#ffaa80;fill-opacity:1;fill-rule:nonzero;stroke:none;stroke-width:0.0415361"
         id="path886" />
      <path
         d="m 60.54674,39.79365 c -0.0038,-1.244421 -1.448362,-5.203636 -4.802396,-5.533847 -3.569608,0.429482 -3.719138,4.079669 -3.728691,5.045383 -0.0087,-0.511309 -0.07269,-3.113127 0.805384,-4.079671 0.05483,-0.06022 1.01431,-1.241512 2.942413,-1.647318 3.554239,0.670807 4.774983,4.415281 4.778722,5.660116 0.0016,0.701543 0.0071,1.118149 0.0046,0.555337"
         style="fill:#ea8c6c;fill-opacity:1;fill-rule:nonzero;stroke:none;stroke-width:0.0415361"
         id="path888" />
      <path
         d="m 55.308215,41.69683 c 0.135823,0.297398 0.516293,0.451082 0.653362,0.440699 0.105918,-0.0084 0.606011,-0.245063 0.656269,-0.483065 -0.08017,-0.117552 -0.286598,-0.442358 -0.69739,-0.439036 -0.354718,0.0033 -0.612241,0.481402 -0.612241,0.481402"
         style="fill:#f29972;fill-opacity:1;fill-rule:nonzero;stroke:none;stroke-width:0.0415361"
         id="path890" />
      <path
         d="m 55.308215,41.69683 c 0.135823,0.297398 0.516293,0.451082 0.653362,0.440699 0.218895,-0.01703 0.606011,-0.245063 0.656269,-0.483065 -0.05649,0.169467 -0.480986,0.296152 -0.669561,0.306952 -0.142053,0.0084 -0.527507,-0.05815 -0.64007,-0.264586"
         style="fill:#ea8c6c;fill-opacity:1;fill-rule:nonzero;stroke:none;stroke-width:0.0415361"
         id="path892" />
      <path
         d="m 52.477534,40.246392 c 0.222633,0.204358 0.527923,0.345581 0.860211,0.42616 0.319828,0.07808 0.665823,0.09803 0.986897,0.06313 0.210587,-0.02159 0.412038,-0.06854 0.587735,-0.13707 0.03157,-0.01329 0.03655,-0.524599 0.03489,-0.708604 -0.08224,-0.08058 -0.195634,-0.175698 -0.329381,-0.265416 -0.25503,-0.174451 -0.583581,-0.331458 -0.903409,-0.331458 -0.107167,0 -0.213494,0.01166 -0.316504,0.03406 l -0.0013,8.32e-4 c -0.366348,0.07643 -0.690744,0.279537 -0.880148,0.530415 0,0 -0.152853,0.284522 -0.03904,0.387946"
         style="fill:#ffffff;fill-opacity:1;fill-rule:nonzero;stroke:none;stroke-width:0.0415361"
         id="path894" />
      <path
         d="m 53.032041,40.029989 c 0.0021,0.25877 0.120453,0.48971 0.305704,0.642563 0.319828,0.07808 0.665823,0.09803 0.986897,0.06313 0.238416,-0.149946 0.395838,-0.417022 0.393346,-0.71982 -0.0013,-0.141639 -0.03738,-0.274138 -0.100102,-0.39127 -0.255031,-0.174451 -0.583582,-0.331458 -0.903409,-0.331458 -0.107167,0 -0.213495,0.01166 -0.316504,0.03406 l -0.0013,8.32e-4 c -0.222218,0.153268 -0.367178,0.410791 -0.364686,0.701958"
         style="fill:#442219;fill-opacity:1;fill-rule:nonzero;stroke:none;stroke-width:0.0415361"
         id="path896" />
      <path
         d="m 54.619132,39.625429 c -4.15e-4,0 -8.3e-4,-4.16e-4 -0.0013,-8.31e-4 -0.25503,-0.174452 -0.583581,-0.331458 -0.903409,-0.331458 -0.107167,0 -0.213494,0.01166 -0.316504,0.03406 l -0.0013,8.31e-4 c -0.0049,8.3e-4 -0.01036,0.0021 -0.01537,0.0033 0.01036,-0.0066 0.0162,-0.01001 0.0162,-0.01001 0.103423,-0.02202 0.209757,-0.03988 0.31692,-0.03988 0.319827,4.14e-4 0.632178,0.135406 0.88721,0.309858 0.0058,0.01083 0.01166,0.02243 0.01745,0.03406"
         style="fill:#f5a883;fill-opacity:1;fill-rule:nonzero;stroke:none;stroke-width:0.0415361"
         id="path898" />
      <path
         d="m 53.031625,39.984715 c 0.0013,-0.01288 0.0025,-0.02534 0.0038,-0.03738 -8.32e-4,0.01205 -0.0016,0.0245 -0.0025,0.03656 -4.15e-4,4.15e-4 -8.3e-4,4.15e-4 -0.0013,8.3e-4 m 1.685948,-0.01454 c -4.16e-4,0 -8.31e-4,0 -0.0013,-4.16e-4 -0.0021,-0.03406 -0.0062,-0.0677 -0.01246,-0.100514 0.0087,0.03863 0.01371,0.07352 0.01371,0.100926 m -1.63029,-0.248385 c 0.08681,-0.24174 0.242986,-0.357626 0.294075,-0.390439 0.0049,-0.0013 0.01036,-0.0025 0.01537,-0.0033 l 0.0013,-8.32e-4 c 0.10301,-0.02243 0.209341,-0.03406 0.316503,-0.03406 0.319828,0 0.648379,0.157006 0.90341,0.331458 4.15e-4,4.16e-4 8.31e-4,8.31e-4 0.0013,8.31e-4 0.0021,0.0049 0.0046,0.01036 0.0071,0.01537 -0.0029,-0.0054 -0.0054,-0.01083 -0.0084,-0.0162 -0.255031,-0.174451 -0.583582,-0.331457 -0.90341,-0.331457 -0.107166,0 -0.213494,0.01166 -0.316503,0.03406 l -0.0013,8.31e-4 c -0.139146,0.09636 -0.248386,0.233017 -0.309443,0.393761"
         style="fill:#f5f5f5;fill-opacity:1;fill-rule:nonzero;stroke:none;stroke-width:0.0415361"
         id="path900" />
      <path
         d="m 53.032871,39.983885 c 8.31e-4,-0.01205 0.0016,-0.0245 0.0025,-0.03656 0.01001,-0.08515 0.02825,-0.159914 0.05192,-0.225541 0.06106,-0.160744 0.170297,-0.297398 0.309443,-0.393761 l 0.0013,-8.31e-4 c 0.10301,-0.02243 0.209341,-0.03406 0.316503,-0.03406 0.319828,0 0.648379,0.157006 0.90341,0.331458 0.0029,0.0054 0.0054,0.01083 0.0084,0.0162 0.03365,0.07269 0.06188,0.156591 0.07767,0.228448 0.0062,0.03281 0.01036,0.06645 0.01246,0.100515 -0.297812,-0.141222 -0.595626,-0.21391 -0.878901,-0.21391 -0.287845,0 -0.561153,0.07476 -0.804554,0.228033"
         style="fill:#4d2e26;fill-opacity:1;fill-rule:nonzero;stroke:none;stroke-width:0.0415361"
         id="path902" />
      <path
         d="m 54.947267,39.890013 -0.0013,-0.0041 c -0.03032,-0.107167 -0.100927,-0.199372 -0.191482,-0.264584 -0.392931,-0.283276 -0.679114,-0.529585 -0.988142,-0.530415 -0.646716,-0.0013 -1.305062,0.181927 -1.412641,-0.0033 -0.01661,0.146207 0.195635,0.262092 0.23717,0.31775 -0.08806,0.03281 -0.269568,0.03447 -0.576519,-0.142053 0,0 0.243816,0.544538 0.502586,0.595628 0.404976,-0.202697 1.113166,-0.536231 1.192499,-0.522524 0.732696,0.124608 1.236943,0.55326 1.237774,0.553675"
         style="fill:#2b1b17;fill-opacity:1;fill-rule:nonzero;stroke:none;stroke-width:0.0415361"
         id="path904" />
      <path
         d="m 59.626718,40.2493 c -0.218896,0.208096 -0.522109,0.355133 -0.853151,0.441113 -0.318167,0.08308 -0.663746,0.108827 -0.985651,0.07933 -0.211003,-0.01786 -0.412868,-0.06147 -0.589811,-0.1271 -0.03157,-0.01288 -0.04527,-0.523769 -0.04693,-0.707774 0.08099,-0.08224 0.192727,-0.17902 0.325227,-0.270815 0.251708,-0.17902 0.577766,-0.341426 0.897594,-0.346826 0.107167,-0.0021 0.213496,0.0084 0.317335,0.02866 l 8.31e-4,8.31e-4 c 0.367594,0.0702 0.695314,0.267906 0.888871,0.515877 0,0 0.157838,0.281614 0.0457,0.386701"
         style="fill:#ffffff;fill-opacity:1;fill-rule:nonzero;stroke:none;stroke-width:0.0415361"
         id="path906" />
      <path
         d="m 59.068472,40.04245 c 0.0025,0.25877 -0.112147,0.491787 -0.294905,0.647963 -0.318167,0.08308 -0.663746,0.108827 -0.985651,0.07933 -0.240493,-0.145792 -0.402899,-0.40996 -0.405391,-0.713173 -0.0013,-0.141223 0.03281,-0.274553 0.09387,-0.392516 0.251708,-0.17902 0.577766,-0.341426 0.897594,-0.346826 0.107167,-0.0021 0.213495,0.0084 0.317335,0.02866 l 8.31e-4,8.31e-4 c 0.224709,0.149944 0.373824,0.40456 0.376316,0.695727"
         style="fill:#442219;fill-opacity:1;fill-rule:nonzero;stroke:none;stroke-width:0.0415361"
         id="path908" />
      <path
         d="m 57.475151,39.664887 c 0.0054,-0.01205 0.01119,-0.02368 0.01703,-0.03489 0.251708,-0.17819 0.561566,-0.318581 0.88181,-0.323982 0.0054,-4.14e-4 0.01118,-4.14e-4 0.01702,-4.14e-4 0.10135,0 0.201865,0.01537 0.300305,0.03447 0,0 0.0058,0.0033 0.01661,0.01001 -0.0054,-0.0013 -0.01083,-0.0021 -0.01579,-0.0033 l -8.31e-4,-8.31e-4 c -0.09595,-0.01868 -0.193557,-0.02907 -0.292414,-0.02907 -0.0084,0 -0.01661,0 -0.02493,4.15e-4 -0.319827,0.0054 -0.645886,0.167806 -0.897594,0.346826 -4.15e-4,0 -8.31e-4,4.16e-4 -0.0013,8.3e-4"
         style="fill:#f5a883;fill-opacity:1;fill-rule:nonzero;stroke:none;stroke-width:0.0415361"
         id="path910" />
      <path
         d="m 57.382109,40.011298 c 0,-0.02783 0.0041,-0.06313 0.01205,-0.101762 -0.0054,0.03323 -0.0092,0.06688 -0.01083,0.10135 -4.16e-4,0 -8.31e-4,4.16e-4 -0.0013,4.16e-4 m 1.686363,-0.01412 c -4.16e-4,-4.16e-4 -0.0013,-4.16e-4 -0.0016,-8.32e-4 -4.16e-4,-0.01246 -0.0016,-0.0245 -0.0029,-0.03697 0.0016,0.01246 0.0029,0.02493 0.0046,0.03779 m -0.0594,-0.260432 c -0.06397,-0.159913 -0.175697,-0.295737 -0.316919,-0.390023 l -8.32e-4,-8.31e-4 c -0.09595,-0.01868 -0.193557,-0.02907 -0.292414,-0.02907 -0.0084,0 -0.01661,0 -0.02493,4.15e-4 -0.319828,0.0054 -0.645886,0.167806 -0.897594,0.346826 -0.0029,0.0054 -0.0058,0.01083 -0.0084,0.0162 0.0025,-0.0054 0.0046,-0.01036 0.0071,-0.01537 4.14e-4,-4.14e-4 8.3e-4,-8.3e-4 0.0013,-8.3e-4 0.251708,-0.17902 0.577766,-0.341426 0.897594,-0.346827 0.0084,-4.14e-4 0.01661,-4.14e-4 0.02493,-4.14e-4 0.09886,0 0.196466,0.01036 0.292414,0.02907 l 8.32e-4,8.31e-4 c 0.0049,0.0013 0.01036,0.0021 0.01579,0.0033 0.05151,0.03198 0.210173,0.145791 0.301136,0.3867"
         style="fill:#f5f5f5;fill-opacity:1;fill-rule:nonzero;stroke:none;stroke-width:0.0415361"
         id="path912" />
      <path
         d="m 57.383356,40.010883 c 0.0016,-0.03448 0.0054,-0.06813 0.01083,-0.101351 0.01495,-0.07186 0.04154,-0.155761 0.07393,-0.22928 0.0025,-0.0054 0.0054,-0.01083 0.0084,-0.0162 0.251708,-0.17902 0.577767,-0.341426 0.897594,-0.346826 0.0084,-4.15e-4 0.01661,-4.15e-4 0.02493,-4.15e-4 0.09885,0 0.196466,0.01036 0.292414,0.02907 l 8.31e-4,8.32e-4 c 0.141222,0.09429 0.252954,0.230109 0.31692,0.390023 0.02409,0.06479 0.04361,0.13873 0.05483,0.222633 0.0013,0.01246 0.0025,0.0245 0.0029,0.03697 -0.237586,-0.14413 -0.502586,-0.214325 -0.780462,-0.214325 -0.291583,0 -0.597704,0.07767 -0.902993,0.228863"
         style="fill:#4d2e26;fill-opacity:1;fill-rule:nonzero;stroke:none;stroke-width:0.0415361"
         id="path914" />
      <path
         d="m 57.151585,39.934456 0.0013,-0.0038 c 0.02825,-0.107579 0.09719,-0.201034 0.186496,-0.267907 0.388363,-0.289507 0.669977,-0.5408 0.97942,-0.546615 0.646716,-0.01246 1.307555,0.159914 1.412226,-0.027 0.01869,0.145791 -0.191066,0.265 -0.231771,0.321488 0.08847,0.03115 0.269984,0.02949 0.574028,-0.151605 0,0 -0.234263,0.54869 -0.492202,0.603933 -0.408714,-0.19605 -1.130195,-0.518785 -1.20953,-0.503832 -0.730618,0.136654 -1.219498,0.575274 -1.219913,0.575274"
         style="fill:#2b1b17;fill-opacity:1;fill-rule:nonzero;stroke:none;stroke-width:0.0415361"
         id="path916" />
      <path
         d="m 59.896701,38.374363 c -0.223048,-0.0457 -0.869349,-0.120455 -1.148056,-0.08722 -0.454405,0.05441 -1.526034,0.236757 -1.526034,0.236757 -0.252954,-0.109652 -0.375901,-0.322736 -0.318166,-0.368425 0.16116,-0.129177 2.070156,-0.234264 2.326019,-0.18442 0.140392,0.027 0.700713,0.352641 0.666237,0.403315"
         style="fill:#2b1b17;fill-opacity:1;fill-rule:nonzero;stroke:none;stroke-width:0.0415361"
         id="path918" />
      <path
         d="m 52.176397,38.439159 c 0.222634,-0.04943 0.660839,-0.139561 0.940376,-0.110899 0.455236,0.04693 1.736207,0.215572 1.736207,0.215572 0.250878,-0.113807 0.370086,-0.328965 0.311521,-0.373824 -0.163237,-0.126269 -2.07348,-0.199373 -2.328926,-0.145376 -0.139562,0.02991 -0.694068,0.364687 -0.659178,0.414529"
         style="fill:#2b1b17;fill-opacity:1;fill-rule:nonzero;stroke:none;stroke-width:0.0415361"
         id="path920" />
      <path
         d="m 57.65957,43.199605 c -1.639012,0.301136 -2.794544,0.06064 -3.147185,0.05109 1.007249,0.939546 1.807233,1.159271 3.147185,-0.05109"
         style="fill:#fff5f7;fill-opacity:1;fill-rule:nonzero;stroke:none;stroke-width:0.0415361"
         id="path922" />
      <path
         d="m 57.788747,43.138131 c -0.404975,0.05856 -1.612014,-0.04652 -1.80308,0.0071 -0.776307,-0.108827 -1.271832,0.1379 -1.473282,0.105507 0.520862,0.268738 1.209944,0.124193 1.471207,0.112983 0.26043,-0.01166 1.158855,0.07518 1.805155,-0.225541"
         style="fill:#f5384e;fill-opacity:1;fill-rule:nonzero;stroke:none;stroke-width:0.0415361"
         id="path924" />
      <path
         d="m 56.006021,44.302802 c 0.358456,0.0049 1.294678,-0.51214 1.782726,-1.164671 -0.524185,0.180267 -1.460823,0.612657 -1.837554,0.590642 -0.325643,-0.0187 -0.948268,-0.274137 -1.438808,-0.478079 0.544952,0.78337 1.195407,1.047955 1.493636,1.052108"
         style="fill:#ff5072;fill-opacity:1;fill-rule:nonzero;stroke:none;stroke-width:0.0415361"
         id="path926" />
      <path
         d="m 53.449893,65.134372 c -0.446097,-0.231356 -1.742022,-0.311936 -2.015329,-0.307782 -0.334365,0.0049 -1.337876,-0.03988 -1.72333,0.183174 -0.444851,0.257523 -0.127101,0.429898 0.06936,0.473096 -0.208096,0.01412 -0.59438,0.06812 -0.476002,0.279122 0.10467,0.186081 0.386284,0.250877 0.577765,0.262923 -0.07809,0.03323 -0.145376,0.100102 -0.107167,0.236755 0.06188,0.224294 0.710266,0.277045 0.710266,0.277045 0,0 -0.465619,0.144962 -0.100514,0.317336 0.621794,0.294491 2.624246,0.286183 2.882185,0.449836 0.666238,0.422005 2.155721,0.847334 2.155721,0.847334 0,0 0.01536,-0.981081 0.218064,-1.183362 0,0 -1.778158,-1.621566 -2.191026,-1.835477"
         style="fill:#ffaa80;fill-opacity:1;fill-rule:nonzero;stroke:none;stroke-width:0.0415361"
         id="path928" />
    </g>
  </g>
</svg>
