<?xml version="1.0" encoding="UTF-8" standalone="no"?>
<!-- Created with Inkscape (http://www.inkscape.org/) -->

<svg
   width="53.827614mm"
   height="32.032288mm"
   viewBox="0 0 53.827614 32.032288"
   version="1.1"
   id="svg54715"
   inkscape:version="1.1.2 (b8e25be833, 2022-02-05)"
   sodipodi:docname="case2-tile.svg"
   inkscape:export-filename="/home/bolarinwa/Downloads/case2-tile.png"
   inkscape:export-xdpi="98.489998"
   inkscape:export-ydpi="98.489998"
   xmlns:inkscape="http://www.inkscape.org/namespaces/inkscape"
   xmlns:sodipodi="http://sodipodi.sourceforge.net/DTD/sodipodi-0.dtd"
   xmlns="http://www.w3.org/2000/svg"
   xmlns:svg="http://www.w3.org/2000/svg">
  <sodipodi:namedview
     id="namedview54717"
     pagecolor="#ffffff"
     bordercolor="#666666"
     borderopacity="1.0"
     inkscape:pageshadow="2"
     inkscape:pageopacity="0.0"
     inkscape:pagecheckerboard="0"
     inkscape:document-units="mm"
     showgrid="false"
     inkscape:zoom="2.8284273"
     inkscape:cx="68.412578"
     inkscape:cy="61.34151"
     inkscape:window-width="1920"
     inkscape:window-height="1017"
     inkscape:window-x="0"
     inkscape:window-y="30"
     inkscape:window-maximized="1"
     inkscape:current-layer="layer1"
     fit-margin-top="0"
     fit-margin-left="0"
     fit-margin-right="0"
     fit-margin-bottom="0" />
  <defs
     id="defs54712">
    <clipPath
       clipPathUnits="userSpaceOnUse"
       id="clipPath11102">
      <rect
         style="fill:#ffffff;fill-opacity:1;stroke-width:0.0470001;stroke-miterlimit:10;stroke-dasharray:none"
         id="rect11104"
         width="89.343277"
         height="80.727928"
         x="41.85738"
         y="67.15477" />
    </clipPath>
    <clipPath
       clipPathUnits="userSpaceOnUse"
       id="clipPath11098">
      <rect
         style="fill:#ffffff;fill-opacity:1;stroke-width:0.0470001;stroke-miterlimit:10;stroke-dasharray:none"
         id="rect11100"
         width="89.343277"
         height="80.727928"
         x="41.85738"
         y="67.15477" />
    </clipPath>
    <clipPath
       clipPathUnits="userSpaceOnUse"
       id="clipPath11094">
      <rect
         style="fill:#ffffff;fill-opacity:1;stroke-width:0.0470001;stroke-miterlimit:10;stroke-dasharray:none"
         id="rect11096"
         width="89.343277"
         height="80.727928"
         x="41.85738"
         y="67.15477" />
    </clipPath>
    <clipPath
       clipPathUnits="userSpaceOnUse"
       id="clipPath11090">
      <rect
         style="fill:#ffffff;fill-opacity:1;stroke-width:0.0470001;stroke-miterlimit:10;stroke-dasharray:none"
         id="rect11092"
         width="89.343277"
         height="80.727928"
         x="41.85738"
         y="67.15477" />
    </clipPath>
    <clipPath
       clipPathUnits="userSpaceOnUse"
       id="clipPath11086">
      <rect
         style="fill:#ffffff;fill-opacity:1;stroke-width:0.0470001;stroke-miterlimit:10;stroke-dasharray:none"
         id="rect11088"
         width="89.343277"
         height="80.727928"
         x="41.85738"
         y="67.15477" />
    </clipPath>
    <clipPath
       clipPathUnits="userSpaceOnUse"
       id="clipPath11082">
      <rect
         style="fill:#ffffff;fill-opacity:1;stroke-width:0.0470001;stroke-miterlimit:10;stroke-dasharray:none"
         id="rect11084"
         width="89.343277"
         height="80.727928"
         x="41.85738"
         y="67.15477" />
    </clipPath>
    <clipPath
       clipPathUnits="userSpaceOnUse"
       id="clipPath11078">
      <rect
         style="fill:#ffffff;fill-opacity:1;stroke-width:0.0470001;stroke-miterlimit:10;stroke-dasharray:none"
         id="rect11080"
         width="89.343277"
         height="80.727928"
         x="41.85738"
         y="67.15477" />
    </clipPath>
    <clipPath
       clipPathUnits="userSpaceOnUse"
       id="clipPath11074">
      <rect
         style="fill:#ffffff;fill-opacity:1;stroke-width:0.0470001;stroke-miterlimit:10;stroke-dasharray:none"
         id="rect11076"
         width="89.343277"
         height="80.727928"
         x="41.85738"
         y="67.15477" />
    </clipPath>
    <clipPath
       clipPathUnits="userSpaceOnUse"
       id="clipPath11070">
      <rect
         style="fill:#ffffff;fill-opacity:1;stroke-width:0.0470001;stroke-miterlimit:10;stroke-dasharray:none"
         id="rect11072"
         width="89.343277"
         height="80.727928"
         x="41.85738"
         y="67.15477" />
    </clipPath>
    <clipPath
       clipPathUnits="userSpaceOnUse"
       id="clipPath11066">
      <rect
         style="fill:#ffffff;fill-opacity:1;stroke-width:0.0470001;stroke-miterlimit:10;stroke-dasharray:none"
         id="rect11068"
         width="89.343277"
         height="80.727928"
         x="41.85738"
         y="67.15477" />
    </clipPath>
    <clipPath
       clipPathUnits="userSpaceOnUse"
       id="clipPath11062">
      <rect
         style="fill:#ffffff;fill-opacity:1;stroke-width:0.0470001;stroke-miterlimit:10;stroke-dasharray:none"
         id="rect11064"
         width="89.343277"
         height="80.727928"
         x="41.85738"
         y="67.15477" />
    </clipPath>
    <clipPath
       clipPathUnits="userSpaceOnUse"
       id="clipPath11058">
      <rect
         style="fill:#ffffff;fill-opacity:1;stroke-width:0.0470001;stroke-miterlimit:10;stroke-dasharray:none"
         id="rect11060"
         width="89.343277"
         height="80.727928"
         x="41.85738"
         y="67.15477" />
    </clipPath>
    <clipPath
       clipPathUnits="userSpaceOnUse"
       id="clipPath11054">
      <rect
         style="fill:#ffffff;fill-opacity:1;stroke-width:0.0470001;stroke-miterlimit:10;stroke-dasharray:none"
         id="rect11056"
         width="89.343277"
         height="80.727928"
         x="41.85738"
         y="67.15477" />
    </clipPath>
    <clipPath
       clipPathUnits="userSpaceOnUse"
       id="clipPath11050">
      <rect
         style="fill:#ffffff;fill-opacity:1;stroke-width:0.0470001;stroke-miterlimit:10;stroke-dasharray:none"
         id="rect11052"
         width="89.343277"
         height="80.727928"
         x="41.85738"
         y="67.15477" />
    </clipPath>
    <clipPath
       clipPathUnits="userSpaceOnUse"
       id="clipPath11046">
      <rect
         style="fill:#ffffff;fill-opacity:1;stroke-width:0.0470001;stroke-miterlimit:10;stroke-dasharray:none"
         id="rect11048"
         width="89.343277"
         height="80.727928"
         x="41.85738"
         y="67.15477" />
    </clipPath>
    <clipPath
       clipPathUnits="userSpaceOnUse"
       id="clipPath11042">
      <rect
         style="fill:#ffffff;fill-opacity:1;stroke-width:0.0470001;stroke-miterlimit:10;stroke-dasharray:none"
         id="rect11044"
         width="89.343277"
         height="80.727928"
         x="41.85738"
         y="67.15477" />
    </clipPath>
    <clipPath
       clipPathUnits="userSpaceOnUse"
       id="clipPath11038">
      <rect
         style="fill:#ffffff;fill-opacity:1;stroke-width:0.0470001;stroke-miterlimit:10;stroke-dasharray:none"
         id="rect11040"
         width="89.343277"
         height="80.727928"
         x="41.85738"
         y="67.15477" />
    </clipPath>
    <clipPath
       clipPathUnits="userSpaceOnUse"
       id="clipPath11034">
      <rect
         style="fill:#ffffff;fill-opacity:1;stroke-width:0.0470001;stroke-miterlimit:10;stroke-dasharray:none"
         id="rect11036"
         width="89.343277"
         height="80.727928"
         x="41.85738"
         y="67.15477" />
    </clipPath>
    <clipPath
       clipPathUnits="userSpaceOnUse"
       id="clipPath11030">
      <rect
         style="fill:#ffffff;fill-opacity:1;stroke-width:0.0470001;stroke-miterlimit:10;stroke-dasharray:none"
         id="rect11032"
         width="89.343277"
         height="80.727928"
         x="41.85738"
         y="67.15477" />
    </clipPath>
    <clipPath
       clipPathUnits="userSpaceOnUse"
       id="clipPath11026">
      <rect
         style="fill:#ffffff;fill-opacity:1;stroke-width:0.0470001;stroke-miterlimit:10;stroke-dasharray:none"
         id="rect11028"
         width="89.343277"
         height="80.727928"
         x="41.85738"
         y="67.15477" />
    </clipPath>
    <clipPath
       clipPathUnits="userSpaceOnUse"
       id="clipPath11022">
      <rect
         style="fill:#ffffff;fill-opacity:1;stroke-width:0.0470001;stroke-miterlimit:10;stroke-dasharray:none"
         id="rect11024"
         width="89.343277"
         height="80.727928"
         x="41.85738"
         y="67.15477" />
    </clipPath>
    <clipPath
       clipPathUnits="userSpaceOnUse"
       id="clipPath11018">
      <rect
         style="fill:#ffffff;fill-opacity:1;stroke-width:0.0470001;stroke-miterlimit:10;stroke-dasharray:none"
         id="rect11020"
         width="89.343277"
         height="80.727928"
         x="41.85738"
         y="67.15477" />
    </clipPath>
    <clipPath
       clipPathUnits="userSpaceOnUse"
       id="clipPath11014">
      <rect
         style="fill:#ffffff;fill-opacity:1;stroke-width:0.0470001;stroke-miterlimit:10;stroke-dasharray:none"
         id="rect11016"
         width="89.343277"
         height="80.727928"
         x="41.85738"
         y="67.15477" />
    </clipPath>
    <clipPath
       clipPathUnits="userSpaceOnUse"
       id="clipPath11010">
      <rect
         style="fill:#ffffff;fill-opacity:1;stroke-width:0.0470001;stroke-miterlimit:10;stroke-dasharray:none"
         id="rect11012"
         width="89.343277"
         height="80.727928"
         x="41.85738"
         y="67.15477" />
    </clipPath>
    <clipPath
       clipPathUnits="userSpaceOnUse"
       id="clipPath11006">
      <rect
         style="fill:#ffffff;fill-opacity:1;stroke-width:0.0470001;stroke-miterlimit:10;stroke-dasharray:none"
         id="rect11008"
         width="89.343277"
         height="80.727928"
         x="41.85738"
         y="67.15477" />
    </clipPath>
    <clipPath
       clipPathUnits="userSpaceOnUse"
       id="clipPath11002">
      <rect
         style="fill:#ffffff;fill-opacity:1;stroke-width:0.0470001;stroke-miterlimit:10;stroke-dasharray:none"
         id="rect11004"
         width="89.343277"
         height="80.727928"
         x="41.85738"
         y="67.15477" />
    </clipPath>
    <clipPath
       clipPathUnits="userSpaceOnUse"
       id="clipPath10998">
      <rect
         style="fill:#ffffff;fill-opacity:1;stroke-width:0.0470001;stroke-miterlimit:10;stroke-dasharray:none"
         id="rect11000"
         width="89.343277"
         height="80.727928"
         x="41.85738"
         y="67.15477" />
    </clipPath>
    <clipPath
       clipPathUnits="userSpaceOnUse"
       id="clipPath10994">
      <rect
         style="fill:#ffffff;fill-opacity:1;stroke-width:0.0470001;stroke-miterlimit:10;stroke-dasharray:none"
         id="rect10996"
         width="89.343277"
         height="80.727928"
         x="41.85738"
         y="67.15477" />
    </clipPath>
    <clipPath
       clipPathUnits="userSpaceOnUse"
       id="clipPath10990">
      <rect
         style="fill:#ffffff;fill-opacity:1;stroke-width:0.0470001;stroke-miterlimit:10;stroke-dasharray:none"
         id="rect10992"
         width="89.343277"
         height="80.727928"
         x="41.85738"
         y="67.15477" />
    </clipPath>
    <clipPath
       clipPathUnits="userSpaceOnUse"
       id="clipPath10986">
      <rect
         style="fill:#ffffff;fill-opacity:1;stroke-width:0.0470001;stroke-miterlimit:10;stroke-dasharray:none"
         id="rect10988"
         width="89.343277"
         height="80.727928"
         x="41.85738"
         y="67.15477" />
    </clipPath>
    <clipPath
       clipPathUnits="userSpaceOnUse"
       id="clipPath10982">
      <rect
         style="fill:#ffffff;fill-opacity:1;stroke-width:0.0470001;stroke-miterlimit:10;stroke-dasharray:none"
         id="rect10984"
         width="89.343277"
         height="80.727928"
         x="41.85738"
         y="67.15477" />
    </clipPath>
    <clipPath
       clipPathUnits="userSpaceOnUse"
       id="clipPath10978">
      <rect
         style="fill:#ffffff;fill-opacity:1;stroke-width:0.0470001;stroke-miterlimit:10;stroke-dasharray:none"
         id="rect10980"
         width="89.343277"
         height="80.727928"
         x="41.85738"
         y="67.15477" />
    </clipPath>
    <clipPath
       clipPathUnits="userSpaceOnUse"
       id="clipPath10974">
      <rect
         style="fill:#ffffff;fill-opacity:1;stroke-width:0.0470001;stroke-miterlimit:10;stroke-dasharray:none"
         id="rect10976"
         width="89.343277"
         height="80.727928"
         x="41.85738"
         y="67.15477" />
    </clipPath>
    <clipPath
       clipPathUnits="userSpaceOnUse"
       id="clipPath10970">
      <rect
         style="fill:#ffffff;fill-opacity:1;stroke-width:0.0470001;stroke-miterlimit:10;stroke-dasharray:none"
         id="rect10972"
         width="89.343277"
         height="80.727928"
         x="41.85738"
         y="67.15477" />
    </clipPath>
    <clipPath
       clipPathUnits="userSpaceOnUse"
       id="clipPath10966">
      <rect
         style="fill:#ffffff;fill-opacity:1;stroke-width:0.0470001;stroke-miterlimit:10;stroke-dasharray:none"
         id="rect10968"
         width="89.343277"
         height="80.727928"
         x="41.85738"
         y="67.15477" />
    </clipPath>
    <clipPath
       clipPathUnits="userSpaceOnUse"
       id="clipPath10962">
      <rect
         style="fill:#ffffff;fill-opacity:1;stroke-width:0.0470001;stroke-miterlimit:10;stroke-dasharray:none"
         id="rect10964"
         width="89.343277"
         height="80.727928"
         x="41.85738"
         y="67.15477" />
    </clipPath>
  </defs>
  <g
     inkscape:label="Layer 1"
     inkscape:groupmode="layer"
     id="layer1"
     transform="translate(-80.953291,-148.39768)">
    <path
       d="m 99.45193,162.07271 0.47016,-2.34692 c -0.44513,-0.70037 -0.30441,-1.56324 0.0174,-2.40875 0.23875,-0.62795 0.60616,-0.94089 1.02773,-1.05335 0.0688,-0.32 1.20732,-3.83421 1.7602,-3.61812 0.69418,0.27114 -0.44131,3.32402 -0.60558,3.67612 0.0607,-0.14367 0.12129,-0.26054 0.2155,-0.41186 0.38889,-0.6253 1.61123,-0.12423 0.94206,0.83314 -0.038,0.0547 -0.0206,0.12747 -0.0451,0.18665 0.30146,-0.11099 0.60263,-0.0939 0.77721,0.0921 0.16397,0.17458 0.16192,0.44542 0.0468,0.71244 0.15662,0.002 0.30087,0.0395 0.39801,0.14278 0.23846,0.25436 0.13013,0.7301 -0.24199,1.06277 -0.0907,0.081 -0.17281,0.56524 -0.5149,0.98299 -0.23522,0.28703 -0.75012,0.64768 -1.07836,0.79104 l -0.31619,1.54676 c 0,0 -0.79221,0.39567 -1.88443,0.20725 -1.09191,-0.1887 -0.96856,-0.39508 -0.96856,-0.39508"
       style="fill:#efdac9;fill-opacity:1;fill-rule:nonzero;stroke:none;stroke-width:0.0294396"
       id="path54259"
       inkscape:export-filename="/home/bolarinwa/Downloads/path54255.png"
       inkscape:export-xdpi="98.489998"
       inkscape:export-ydpi="98.489998" />
    <path
       d="m 99.45193,162.07271 0.47016,-2.34692 c -0.44513,-0.70037 -0.30441,-1.56324 0.0174,-2.40875 0.23875,-0.62795 0.60616,-0.94089 1.02773,-1.05335 0.0688,-0.32 1.20732,-3.83421 1.7602,-3.61812 0.69418,0.27114 -0.44131,3.32402 -0.60558,3.67612 0.0607,-0.14367 0.12129,-0.26054 0.2155,-0.41186 0.38889,-0.6253 1.61123,-0.12423 0.94206,0.83314 -0.038,0.0547 -0.0206,0.12747 -0.0451,0.18665 0.30146,-0.11099 0.60263,-0.0939 0.77721,0.0921 0.16397,0.17458 0.16192,0.44542 0.0468,0.71244 0.15662,0.002 0.30087,0.0395 0.39801,0.14278 0.23846,0.25436 0.13013,0.7301 -0.24199,1.06277 -0.0907,0.081 -0.17281,0.56524 -0.5149,0.98299 -0.23522,0.28703 -0.75012,0.64768 -1.07836,0.79104 l -0.31619,1.54676 c 0,0 -0.79221,0.39567 -1.88443,0.20725 -1.09191,-0.1887 -0.96856,-0.39508 -0.96856,-0.39508 z"
       style="fill:none;stroke:#0e0f0e;stroke-width:0.275851;stroke-linecap:round;stroke-linejoin:round;stroke-miterlimit:10;stroke-dasharray:none;stroke-opacity:1"
       id="path54261"
       inkscape:export-filename="/home/bolarinwa/Downloads/path54255.png"
       inkscape:export-xdpi="98.489998"
       inkscape:export-ydpi="98.489998" />
    <path
       d="m 132.76166,163.8823 c 0,0 -1.17755,1.82435 -2.7818,4.44929 -1.61087,2.63617 -4.05499,6.82022 -4.05499,6.82022 0,0 -0.45118,-1.16073 -0.38743,-3.34112 0.0638,-2.18039 0.50271,-5.99616 1.49331,-7.08929 0,0 5.30779,-4.13941 5.73091,-0.8391"
       style="fill:#ffffff;fill-opacity:1;fill-rule:nonzero;stroke:none;stroke-width:0.0255047"
       id="path54309"
       inkscape:export-filename="/home/bolarinwa/Downloads/path54255.png"
       inkscape:export-xdpi="98.489998"
       inkscape:export-ydpi="98.489998" />
    <path
       d="m 132.76166,163.8823 c 0,0 -1.17755,1.82435 -2.7818,4.44929 -1.61087,2.63617 -4.05499,6.82022 -4.05499,6.82022 0,0 -0.45118,-1.16073 -0.38743,-3.34112 0.0638,-2.18039 0.50271,-5.99616 1.49331,-7.08929 0,0 5.30779,-4.13941 5.73091,-0.8391 z"
       style="fill:none;stroke:#0e0f0e;stroke-width:0.238981;stroke-linecap:round;stroke-linejoin:round;stroke-miterlimit:10;stroke-dasharray:none;stroke-opacity:1"
       id="path54311"
       inkscape:export-filename="/home/bolarinwa/Downloads/path54255.png"
       inkscape:export-xdpi="98.489998"
       inkscape:export-ydpi="98.489998" />
    <path
       d="m 127.42811,167.76309 c 0,0 -0.49939,0.61261 -0.80723,1.37062 -0.33768,0.83196 -0.76156,2.5543 -0.75493,3.2312 0.009,0.94673 -0.0898,1.83251 0.0589,2.7869 0,0 1.62848,-1.68101 2.18602,-3.5977 0.11399,-0.39125 0.17392,-1.3992 0.2053,-2.249 0.0271,-0.73403 -0.17114,-1.32803 -0.17114,-1.32803 l -0.71693,-0.21399"
       style="fill:#859bb9;fill-opacity:1;fill-rule:nonzero;stroke:none;stroke-width:0.0255047"
       id="path54313"
       inkscape:export-filename="/home/bolarinwa/Downloads/path54255.png"
       inkscape:export-xdpi="98.489998"
       inkscape:export-ydpi="98.489998" />
    <path
       d="m 127.42811,167.76309 c 0,0 -0.49939,0.61261 -0.80723,1.37062 -0.33768,0.83196 -0.76156,2.5543 -0.75493,3.2312 0.009,0.94673 -0.0898,1.83251 0.0589,2.7869 0,0 1.62848,-1.68101 2.18602,-3.5977 0.11399,-0.39125 0.17392,-1.3992 0.2053,-2.249 0.0271,-0.73403 -0.17114,-1.32803 -0.17114,-1.32803 z"
       style="fill:none;stroke:#0e0f0e;stroke-width:0.238981;stroke-linecap:round;stroke-linejoin:round;stroke-miterlimit:10;stroke-dasharray:none;stroke-opacity:1"
       id="path54315"
       inkscape:export-filename="/home/bolarinwa/Downloads/path54255.png"
       inkscape:export-xdpi="98.489998"
       inkscape:export-ydpi="98.489998" />
    <path
       d="m 126.159,167.81207 c 0,0 0.50881,-0.92099 1.08115,-1.47469 0.57233,-0.55371 1.06864,-0.82023 1.06864,-0.82023 0,0 1.15868,1.07221 1.33926,2.31404"
       style="fill:none;stroke:#0e0f0e;stroke-width:0.238981;stroke-linecap:round;stroke-linejoin:round;stroke-miterlimit:10;stroke-dasharray:none;stroke-opacity:1"
       id="path54317"
       inkscape:export-filename="/home/bolarinwa/Downloads/path54255.png"
       inkscape:export-xdpi="98.489998"
       inkscape:export-ydpi="98.489998" />
    <path
       d="m 126.9958,166.68449 c 0,0 0.11377,0.74704 0.41421,1.23061 0,0 0.14563,0.12727 0.56059,0.1112 0.41471,-0.0161 0.82559,-0.30478 1.39282,-1.12144 0,0 -0.455,-1.12425 -0.96128,-1.6244 0,0 -1.352,1.05054 -1.40634,1.40403"
       style="fill:#859bb9;fill-opacity:1;fill-rule:nonzero;stroke:none;stroke-width:0.0255047"
       id="path54319"
       inkscape:export-filename="/home/bolarinwa/Downloads/path54255.png"
       inkscape:export-xdpi="98.489998"
       inkscape:export-ydpi="98.489998" />
    <path
       d="m 126.9958,166.68449 c 0,0 0.11377,0.74704 0.41421,1.23061 0,0 0.14563,0.12727 0.56059,0.1112 0.41471,-0.0161 0.82559,-0.30478 1.39282,-1.12144 0,0 -0.455,-1.12425 -0.96128,-1.6244 0,0 -1.352,1.05054 -1.40634,1.40403 z"
       style="fill:none;stroke:#0e0f0e;stroke-width:0.238981;stroke-linecap:round;stroke-linejoin:round;stroke-miterlimit:10;stroke-dasharray:none;stroke-opacity:1"
       id="path54321"
       inkscape:export-filename="/home/bolarinwa/Downloads/path54255.png"
       inkscape:export-xdpi="98.489998"
       inkscape:export-ydpi="98.489998" />
    <path
       d="m 128.3394,163.73946 -2.04345,1.08574 -0.35935,0.66006 -1.04187,1.00464 c 0,0 -0.47897,3.36356 0.97683,8.75908 0,0 0.0429,-2.26431 0.13186,-5.82681 0.0406,-1.62847 0.37492,-2.63438 0.6621,-3.37172 0.16349,-0.4193 1.05004,-1.60067 1.67388,-2.31099"
       style="fill:#ffffff;fill-opacity:1;fill-rule:nonzero;stroke:none;stroke-width:0.0255047"
       id="path54323"
       inkscape:export-filename="/home/bolarinwa/Downloads/path54255.png"
       inkscape:export-xdpi="98.489998"
       inkscape:export-ydpi="98.489998" />
    <path
       d="m 128.3394,163.73946 -2.04345,1.08574 -0.35935,0.66006 -1.04187,1.00464 c 0,0 -0.47897,3.36356 0.97683,8.75908 0,0 0.0429,-2.26431 0.13186,-5.82681 0.0406,-1.62847 0.37492,-2.63438 0.6621,-3.37172 0.16349,-0.4193 1.05004,-1.60067 1.67388,-2.31099 z"
       style="fill:none;stroke:#0e0f0e;stroke-width:0.238981;stroke-linecap:round;stroke-linejoin:round;stroke-miterlimit:10;stroke-dasharray:none;stroke-opacity:1"
       id="path54325"
       inkscape:export-filename="/home/bolarinwa/Downloads/path54255.png"
       inkscape:export-xdpi="98.489998"
       inkscape:export-ydpi="98.489998" />
    <path
       d="m 128.01881,160.33943 c 0.11299,0.80621 0.10813,1.74554 0.11911,2.53313 0.006,0.47261 0.0232,0.72561 0.0464,1.18572 0.009,0.16221 0.29841,0.82457 0.29841,0.82457 0,0 0.40884,-0.1158 1.82435,-0.75189 1.31731,-0.59195 1.67949,-1.00743 1.67949,-1.00743 -0.0765,-0.16272 -0.0175,-1.75778 0.0602,-3.16717 l -4.02796,0.38307"
       style="fill:#efdac9;fill-opacity:1;fill-rule:nonzero;stroke:none;stroke-width:0.0255047"
       id="path54343"
       inkscape:export-filename="/home/bolarinwa/Downloads/path54255.png"
       inkscape:export-xdpi="98.489998"
       inkscape:export-ydpi="98.489998" />
    <path
       d="m 128.01881,160.33943 c 0.11299,0.80621 0.10813,1.74554 0.11911,2.53313 0.006,0.47261 0.0232,0.72561 0.0464,1.18572 0.009,0.16221 0.29841,0.82457 0.29841,0.82457 0,0 0.40884,-0.1158 1.82435,-0.75189 1.31731,-0.59195 1.67949,-1.00743 1.67949,-1.00743 -0.0765,-0.16272 -0.0175,-1.75778 0.0602,-3.16717 z"
       style="fill:none;stroke:#0e0f0e;stroke-width:0.238981;stroke-linecap:round;stroke-linejoin:round;stroke-miterlimit:10;stroke-dasharray:none;stroke-opacity:1"
       id="path54345"
       inkscape:export-filename="/home/bolarinwa/Downloads/path54255.png"
       inkscape:export-xdpi="98.489998"
       inkscape:export-ydpi="98.489998" />
    <path
       d="m 132.76166,163.42933 c 0,0 0.10712,-0.0187 0.68582,0.22955 0.5379,0.23082 1.00872,0.61772 1.00872,0.61772 0,0 -1.00998,1.15944 -1.83048,1.66699 -0.17267,0.10661 0.94572,0.73275 0.94572,0.73275 -3.39978,4.4192 -3.07816,4.86425 -8.31683,9.19342 0,0 3.45512,-7.14617 5.34961,-9.97055 0.12573,-0.18772 2.09011,-2.30359 2.15744,-2.46988"
       style="fill:#ffffff;fill-opacity:1;fill-rule:nonzero;stroke:none;stroke-width:0.0255047"
       id="path54347"
       inkscape:export-filename="/home/bolarinwa/Downloads/path54255.png"
       inkscape:export-xdpi="98.489998"
       inkscape:export-ydpi="98.489998" />
    <path
       d="m 132.76166,163.42933 c 0,0 0.10712,-0.0187 0.68582,0.22955 0.5379,0.23082 1.00872,0.61772 1.00872,0.61772 0,0 -1.00998,1.15944 -1.83048,1.66699 -0.17267,0.10661 0.94572,0.73275 0.94572,0.73275 -3.39978,4.4192 -3.07816,4.86425 -8.31683,9.19342 0,0 3.45512,-7.14617 5.34961,-9.97055 0.12573,-0.18772 2.09011,-2.30359 2.15744,-2.46988 z"
       style="fill:none;stroke:#0e0f0e;stroke-width:0.238981;stroke-linecap:round;stroke-linejoin:round;stroke-miterlimit:10;stroke-dasharray:none;stroke-opacity:1"
       id="path54349"
       inkscape:export-filename="/home/bolarinwa/Downloads/path54255.png"
       inkscape:export-xdpi="98.489998"
       inkscape:export-ydpi="98.489998" />
    <path
       d="m 132.63568,158.61047 c -0.19666,0.59018 -0.60932,1.61496 -0.0645,1.7963 0.54428,0.18134 1.13165,-0.0451 1.65678,-1.18852 0.25965,-0.56544 0.038,-1.3163 -0.50651,-1.49789 -0.54427,-0.18134 -0.88936,0.29993 -1.08574,0.89011"
       style="fill:#efdac9;fill-opacity:1;fill-rule:nonzero;stroke:none;stroke-width:0.0255047"
       id="path54385"
       inkscape:export-filename="/home/bolarinwa/Downloads/path54255.png"
       inkscape:export-xdpi="98.489998"
       inkscape:export-ydpi="98.489998" />
    <path
       d="m 132.63568,158.61047 c -0.19666,0.59018 -0.60932,1.61496 -0.0645,1.7963 0.54428,0.18134 1.13165,-0.0451 1.65678,-1.18852 0.25965,-0.56544 0.038,-1.3163 -0.50651,-1.49789 -0.54427,-0.18134 -0.88936,0.29993 -1.08574,0.89011 z"
       style="fill:none;stroke:#0e0f0e;stroke-width:0.238981;stroke-linecap:round;stroke-linejoin:round;stroke-miterlimit:10;stroke-dasharray:none;stroke-opacity:1"
       id="path54387"
       inkscape:export-filename="/home/bolarinwa/Downloads/path54255.png"
       inkscape:export-xdpi="98.489998"
       inkscape:export-ydpi="98.489998" />
    <path
       d="m 129.59169,152.29704 c -1.44944,-0.0232 -2.97642,0.8544 -3.4531,3.20568 0,0 -1.12909,6.43612 2.55073,7.48564 0,0 2.60736,0.64781 3.86984,-2.44922 0,0 0.7909,-2.47217 0.82839,-4.61533 0.0207,-1.17296 -0.62384,-3.57577 -3.79586,-3.62677"
       style="fill:#efdac9;fill-opacity:1;fill-rule:nonzero;stroke:none;stroke-width:0.0255047"
       id="path54389"
       inkscape:export-filename="/home/bolarinwa/Downloads/path54255.png"
       inkscape:export-xdpi="98.489998"
       inkscape:export-ydpi="98.489998" />
    <path
       d="m 125.9519,157.44032 c 0,0 -0.35758,4.65868 2.76396,5.63323"
       style="fill:none;stroke:#0e0f0e;stroke-width:0.238981;stroke-linecap:round;stroke-linejoin:round;stroke-miterlimit:10;stroke-dasharray:none;stroke-opacity:1"
       id="path54391"
       inkscape:export-filename="/home/bolarinwa/Downloads/path54255.png"
       inkscape:export-xdpi="98.489998"
       inkscape:export-ydpi="98.489998" />
    <path
       d="m 128.46412,163.01003 c 0,0 0.91996,0.36829 2.16331,-0.3489"
       style="fill:none;stroke:#0e0f0e;stroke-width:0.238981;stroke-linecap:round;stroke-linejoin:round;stroke-miterlimit:10;stroke-dasharray:none;stroke-opacity:1"
       id="path54393"
       inkscape:export-filename="/home/bolarinwa/Downloads/path54255.png"
       inkscape:export-xdpi="98.489998"
       inkscape:export-ydpi="98.489998" />
    <path
       d="m 132.71015,160.02369 c 0,0 -0.0992,0.71056 -0.96664,1.88709"
       style="fill:none;stroke:#0e0f0e;stroke-width:0.238981;stroke-linecap:round;stroke-linejoin:round;stroke-miterlimit:10;stroke-dasharray:none;stroke-opacity:1"
       id="path54395"
       inkscape:export-filename="/home/bolarinwa/Downloads/path54255.png"
       inkscape:export-xdpi="98.489998"
       inkscape:export-ydpi="98.489998" />
    <path
       d="m 130.8047,158.31498 c -0.003,0.20097 -0.15635,0.36141 -0.34151,0.35861 -0.18568,-0.002 -0.33335,-0.16834 -0.33003,-0.36931 0.003,-0.20098 0.15609,-0.36167 0.34151,-0.35885 0.18541,0.002 0.33308,0.16857 0.33003,0.36955"
       style="fill:#0e0f0e;fill-opacity:1;fill-rule:nonzero;stroke:none;stroke-width:0.0255047"
       id="path54397"
       inkscape:export-filename="/home/bolarinwa/Downloads/path54255.png"
       inkscape:export-xdpi="98.489998"
       inkscape:export-ydpi="98.489998" />
    <path
       d="m 127.86195,158.31761 c -0.003,0.20098 -0.1561,0.36166 -0.34177,0.35859 -0.18517,-0.002 -0.33309,-0.16833 -0.32978,-0.36931 0.003,-0.20098 0.15609,-0.36165 0.34152,-0.35859 0.18567,0.002 0.33334,0.16833 0.33003,0.36931"
       style="fill:#0e0f0e;fill-opacity:1;fill-rule:nonzero;stroke:none;stroke-width:0.0255047"
       id="path54399"
       inkscape:export-filename="/home/bolarinwa/Downloads/path54255.png"
       inkscape:export-xdpi="98.489998"
       inkscape:export-ydpi="98.489998" />
    <path
       d="m 126.89945,157.35133 c 0,0 0.4137,-0.55524 1.26631,-0.18772"
       style="fill:none;stroke:#0e0f0e;stroke-width:0.238981;stroke-linecap:round;stroke-linejoin:round;stroke-miterlimit:10;stroke-dasharray:none;stroke-opacity:1"
       id="path54401"
       inkscape:export-filename="/home/bolarinwa/Downloads/path54255.png"
       inkscape:export-xdpi="98.489998"
       inkscape:export-ydpi="98.489998" />
    <path
       d="m 131.13905,157.34931 c 0,0 -0.51417,-0.56672 -1.22524,-0.17242"
       style="fill:none;stroke:#0e0f0e;stroke-width:0.238981;stroke-linecap:round;stroke-linejoin:round;stroke-miterlimit:10;stroke-dasharray:none;stroke-opacity:1"
       id="path54403"
       inkscape:export-filename="/home/bolarinwa/Downloads/path54255.png"
       inkscape:export-xdpi="98.489998"
       inkscape:export-ydpi="98.489998" />
    <path
       d="m 128.68932,159.28915 -0.30911,0.89139 0.16655,0.11579"
       style="fill:none;stroke:#0e0f0e;stroke-width:0.238981;stroke-linecap:round;stroke-linejoin:round;stroke-miterlimit:10;stroke-dasharray:none;stroke-opacity:1"
       id="path54405"
       inkscape:export-filename="/home/bolarinwa/Downloads/path54255.png"
       inkscape:export-xdpi="98.489998"
       inkscape:export-ydpi="98.489998" />
    <path
       d="m 134.63396,155.30124 c 0.22726,-1.57492 -0.99162,-5.04127 -3.87339,-4.01393 -0.45985,-0.38538 -3.29903,-1.1036 -4.68778,1.56165 -0.45475,0.58074 -0.66796,1.45708 -0.66796,2.48849 0,1.28366 0.21424,1.5364 0.54707,2.10287 0.0358,0.0605 2.27477,-1.80931 3.11464,-3.48344 0.90338,1.79757 4.08075,3.83158 4.13839,3.83158 0.58967,7.2e-4 1.24616,-1.21683 1.42903,-2.48722"
       style="fill:#4e545d;fill-opacity:1;fill-rule:nonzero;stroke:none;stroke-width:0.0255047"
       id="path54407"
       inkscape:export-filename="/home/bolarinwa/Downloads/path54255.png"
       inkscape:export-xdpi="98.489998"
       inkscape:export-ydpi="98.489998" />
    <path
       d="m 134.63396,155.30124 c 0.22726,-1.57492 -0.99162,-5.04127 -3.87339,-4.01393 -0.45985,-0.38538 -3.29903,-1.1036 -4.68778,1.56165 -0.45475,0.58074 -0.66796,1.45708 -0.66796,2.48849 0,1.28366 0.21424,1.5364 0.54707,2.10287 0.0358,0.0605 2.27477,-1.80931 3.11464,-3.48344 0.90338,1.79757 4.08075,3.83158 4.13839,3.83158 0.58967,7.2e-4 1.24616,-1.21683 1.42903,-2.48722 z"
       style="fill:none;stroke:#0e0f0e;stroke-width:0.238981;stroke-linecap:round;stroke-linejoin:round;stroke-miterlimit:10;stroke-dasharray:none;stroke-opacity:1"
       id="path54409"
       inkscape:export-filename="/home/bolarinwa/Downloads/path54255.png"
       inkscape:export-xdpi="98.489998"
       inkscape:export-ydpi="98.489998" />
    <path
       d="m 127.64006,154.32593 c 0,0 -0.43741,0.20991 -0.6236,1.01152"
       style="fill:none;stroke:#0e0f0e;stroke-width:0.238981;stroke-linecap:round;stroke-linejoin:round;stroke-miterlimit:10;stroke-dasharray:none;stroke-opacity:1"
       id="path54411"
       inkscape:export-filename="/home/bolarinwa/Downloads/path54255.png"
       inkscape:export-xdpi="98.489998"
       inkscape:export-ydpi="98.489998" />
    <path
       d="m 126.63696,154.35501 c 0,0 -0.54479,0.44787 -0.65674,1.39944"
       style="fill:none;stroke:#0e0f0e;stroke-width:0.238981;stroke-linecap:round;stroke-linejoin:round;stroke-miterlimit:10;stroke-dasharray:none;stroke-opacity:1"
       id="path54413"
       inkscape:export-filename="/home/bolarinwa/Downloads/path54255.png"
       inkscape:export-xdpi="98.489998"
       inkscape:export-ydpi="98.489998" />
    <path
       d="m 131.44716,154.43995 c 0,0 0.68964,0.61491 0.69704,1.42877"
       style="fill:none;stroke:#0e0f0e;stroke-width:0.238981;stroke-linecap:round;stroke-linejoin:round;stroke-miterlimit:10;stroke-dasharray:none;stroke-opacity:1"
       id="path54415"
       inkscape:export-filename="/home/bolarinwa/Downloads/path54255.png"
       inkscape:export-xdpi="98.489998"
       inkscape:export-ydpi="98.489998" />
    <path
       d="m 132.66756,154.46926 c 0,0 0.8368,0.68507 0.65061,1.69021"
       style="fill:none;stroke:#0e0f0e;stroke-width:0.238981;stroke-linecap:round;stroke-linejoin:round;stroke-miterlimit:10;stroke-dasharray:none;stroke-opacity:1"
       id="path54417"
       inkscape:export-filename="/home/bolarinwa/Downloads/path54255.png"
       inkscape:export-xdpi="98.489998"
       inkscape:export-ydpi="98.489998" />
    <path
       d="m 129.73196,160.96737 c -0.81309,1.33184 -1.53998,0.008 -1.53998,0.008 l 1.53998,-0.008"
       style="fill:#ffffff;fill-opacity:1;fill-rule:nonzero;stroke:none;stroke-width:0.0255047"
       id="path54419"
       inkscape:export-filename="/home/bolarinwa/Downloads/path54255.png"
       inkscape:export-xdpi="98.489998"
       inkscape:export-ydpi="98.489998" />
    <path
       d="m 129.73196,160.96737 c -0.81309,1.33184 -1.53998,0.008 -1.53998,0.008 z"
       style="fill:none;stroke:#0e0f0e;stroke-width:0.179236;stroke-linecap:round;stroke-linejoin:round;stroke-miterlimit:10;stroke-dasharray:none;stroke-opacity:1"
       id="path54421"
       inkscape:export-filename="/home/bolarinwa/Downloads/path54255.png"
       inkscape:export-xdpi="98.489998"
       inkscape:export-ydpi="98.489998" />
    <path
       d="m 133.66121,157.5482 -1.70141,0.37288"
       style="fill:none;stroke:#0e0f0e;stroke-width:0.238981;stroke-linecap:round;stroke-linejoin:round;stroke-miterlimit:10;stroke-dasharray:none;stroke-opacity:1"
       id="path54423"
       inkscape:export-filename="/home/bolarinwa/Downloads/path54255.png"
       inkscape:export-xdpi="98.489998"
       inkscape:export-ydpi="98.489998" />
    <path
       d="m 128.50697,158.14654 c 0,0 0.42925,-0.18695 0.7784,0.0118"
       style="fill:none;stroke:#0e0f0e;stroke-width:0.238981;stroke-linecap:round;stroke-linejoin:round;stroke-miterlimit:10;stroke-dasharray:none;stroke-opacity:1"
       id="path54425"
       inkscape:export-filename="/home/bolarinwa/Downloads/path54255.png"
       inkscape:export-xdpi="98.489998"
       inkscape:export-ydpi="98.489998" />
    <path
       d="m 126.07585,158.10114 c -0.0171,0.18364 0.0527,0.32748 -0.0686,0.31804 -0.12088,-0.009 -0.34227,-0.18031 -0.32543,-0.36369 0.0168,-0.18338 0.26524,-0.30988 0.38664,-0.3007 0.1209,0.009 0.024,0.16297 0.007,0.34635"
       style="fill:#0e0f0e;fill-opacity:1;fill-rule:nonzero;stroke:none;stroke-width:0.0255047"
       id="path54427"
       inkscape:export-filename="/home/bolarinwa/Downloads/path54255.png"
       inkscape:export-xdpi="98.489998"
       inkscape:export-ydpi="98.489998" />
    <path
       d="m 131.69838,158.10114 c 0.0169,0.18364 -0.0527,0.32748 0.0683,0.31804 0.12114,-0.009 0.34226,-0.18031 0.32568,-0.36369 -0.0171,-0.18338 -0.26525,-0.30988 -0.38665,-0.3007 -0.12114,0.009 -0.0242,0.16297 -0.007,0.34635"
       style="fill:#0e0f0e;fill-opacity:1;fill-rule:nonzero;stroke:none;stroke-width:0.0255047"
       id="path54429"
       inkscape:export-filename="/home/bolarinwa/Downloads/path54255.png"
       inkscape:export-xdpi="98.489998"
       inkscape:export-ydpi="98.489998" />
    <path
       d="m 126.35896,159.02008 h 1.75397 c 0.17853,0 0.32339,-0.14462 0.32339,-0.32314 v -0.62538 c 0,-0.17854 -0.14486,-0.32315 -0.32339,-0.32315 h -1.75397 c -0.17829,0 -0.32289,0.14461 -0.32289,0.32315 v 0.62538 c 0,0.17852 0.1446,0.32314 0.32289,0.32314 z"
       style="fill:none;stroke:#0e0f0e;stroke-width:0.238981;stroke-linecap:round;stroke-linejoin:round;stroke-miterlimit:10;stroke-dasharray:none;stroke-opacity:1"
       id="path54431"
       inkscape:export-filename="/home/bolarinwa/Downloads/path54255.png"
       inkscape:export-xdpi="98.489998"
       inkscape:export-ydpi="98.489998" />
    <path
       d="m 129.64958,159.02008 h 1.75396 c 0.17828,0 0.32289,-0.14462 0.32289,-0.32314 v -0.62538 c 0,-0.17854 -0.14461,-0.32315 -0.32289,-0.32315 h -1.75396 c -0.17853,0 -0.32314,0.14461 -0.32314,0.32315 v 0.62538 c 0,0.17852 0.14461,0.32314 0.32314,0.32314 z"
       style="fill:none;stroke:#0e0f0e;stroke-width:0.238981;stroke-linecap:round;stroke-linejoin:round;stroke-miterlimit:10;stroke-dasharray:none;stroke-opacity:1"
       id="path54433"
       inkscape:export-filename="/home/bolarinwa/Downloads/path54255.png"
       inkscape:export-xdpi="98.489998"
       inkscape:export-ydpi="98.489998" />
    <path
       d="m 119.4113,158.89269 c 2.40908,0 3.21841,-0.58011 4.25166,-1.45341 -1.18993,-0.53553 -1.63502,-0.64308 -2.71765,-1.22797 -0.41335,-0.22343 -1.42973,-0.35441 -1.56903,-0.299 -0.14131,-0.0498 -0.75038,-0.0927 -1.15467,0.14661 -1.13351,0.67103 -1.84182,0.88061 -3.04284,1.50807 0.94862,0.64736 1.47507,1.3257 4.23253,1.3257"
       style="fill:#f89a74;fill-opacity:1;fill-rule:nonzero;stroke:none;stroke-width:0.0251891"
       id="path48718"
       inkscape:export-filename="/home/bolarinwa/Downloads/path54255.png"
       inkscape:export-xdpi="98.489998"
       inkscape:export-ydpi="98.489998" />
    <path
       d="m 118.93346,158.77883 c 0,0 2.631,0.37583 2.53603,-3.78869 l 2.20758,2.07987 c 0.25264,0.22266 0.36549,0.56448 0.29496,0.89396 l -0.58992,2.75392 c -0.11235,0.52419 -0.72671,0.7597 -1.16097,0.44509 l -3.28768,-2.38415"
       style="fill:#4fbdc9;fill-opacity:1;fill-rule:nonzero;stroke:none;stroke-width:0.0251891"
       id="path48968"
       inkscape:export-filename="/home/bolarinwa/Downloads/path54255.png"
       inkscape:export-xdpi="98.489998"
       inkscape:export-ydpi="98.489998" />
    <path
       d="m 116.15207,156.22214 c 0,0 -1.9985,0.29874 -3.30279,1.97382 l 2.44561,3.88441 1.73452,0.64383 -0.82368,0.931 2.00984,5.53026 c 0,0 1.35996,-4.19272 -1.3514,-9.59553 -0.47355,-0.94384 -0.7121,-1.98818 -0.7121,-3.04411 v -0.32368"
       style="fill:#f4f6f4;fill-opacity:1;fill-rule:nonzero;stroke:none;stroke-width:0.0251891"
       id="path48976"
       inkscape:export-filename="/home/bolarinwa/Downloads/path54255.png"
       inkscape:export-xdpi="98.489998"
       inkscape:export-ydpi="98.489998" />
    <path
       d="M 107.02675,172.56852 H 99.7746 l 0.0742,-4.20574 c 2.34428,-0.72686 4.70239,-0.7928 7.07757,-0.0204 l 0.1004,4.22606"
       style="fill:#504b81;fill-opacity:1;fill-rule:nonzero;stroke:none;stroke-width:0.0294396"
       id="path52474"
       inkscape:export-filename="/home/bolarinwa/Downloads/path54255.png"
       inkscape:export-xdpi="98.489998"
       inkscape:export-ydpi="98.489998" />
    <path
       d="m 104.16875,172.6065 h -1.56648 c -1.13872,0 -2.07049,-0.93176 -2.07049,-2.07049 v -5.52464 c 0,-1.13871 0.93177,-2.07048 2.07049,-2.07048 h 1.56648 c 1.13873,0 2.07049,0.93177 2.07049,2.07048 v 5.52464 c 0,1.13873 -0.93176,2.07049 -2.07049,2.07049"
       style="fill:#f89a74;fill-opacity:1;fill-rule:nonzero;stroke:none;stroke-width:0.0294396"
       id="path52738"
       inkscape:export-filename="/home/bolarinwa/Downloads/path54255.png"
       inkscape:export-xdpi="98.489998"
       inkscape:export-ydpi="98.489998" />
    <path
       d="m 119.58154,174.54925 h -0.52879 c -0.77102,0 -1.40173,-0.63073 -1.40173,-1.40173 v -4.7846 c 0,-0.77102 0.63071,-1.40174 1.40173,-1.40174 h 0.52879 c 0.77078,0 1.40173,0.63072 1.40173,1.40174 v 4.7846 c 0,0.771 -0.63095,1.40173 -1.40173,1.40173"
       style="fill:#f89a74;fill-opacity:1;fill-rule:nonzero;stroke:none;stroke-width:0.0231118"
       id="path50695"
       inkscape:export-filename="/home/bolarinwa/Downloads/path54255.png"
       inkscape:export-xdpi="98.489998"
       inkscape:export-ydpi="98.489998" />
    <path
       d="m 117.61658,169.84599 3.39674,-0.66053 -0.0504,1.05921 c -0.13751,1.6756 -2.79699,2.00311 -3.35861,0.0867 l 0.0123,-0.48536"
       style="fill:#ea765d;fill-opacity:1;fill-rule:nonzero;stroke:none;stroke-width:0.0231118"
       id="path50697"
       inkscape:export-filename="/home/bolarinwa/Downloads/path54255.png"
       inkscape:export-xdpi="98.489998"
       inkscape:export-ydpi="98.489998" />
    <path
       d="m 114.76551,155.95257 c -1.42392,0.9737 -1.78978,3.12149 -1.92636,4.73422 -0.15717,1.85726 0.13404,4.128 0.68687,5.90715 0.5385,1.73291 2.04008,2.87279 4.20496,3.03919 0.81123,0.0624 0.54244,0.35917 1.37376,0.41648 1.23603,0.085 1.02109,-0.41554 2.24809,-0.54128 1.62384,-0.16663 2.82542,-0.76453 3.37225,-2.12328 0.43404,-1.0784 0.57733,-2.68744 0.76407,-3.82038 0.23504,-1.42692 0.1114,-2.88874 -0.18189,-4.29695 -0.29352,-1.40842 -0.55099,-2.76323 -1.79856,-3.60844 -1.86443,-1.26352 -4.48716,-0.3892 -4.48716,-0.3892 0,0 -2.04007,-0.83271 -4.25603,0.68249"
       style="fill:#333050;fill-opacity:1;fill-rule:nonzero;stroke:none;stroke-width:0.0231118"
       id="path51479"
       inkscape:export-filename="/home/bolarinwa/Downloads/path54255.png"
       inkscape:export-xdpi="98.489998"
       inkscape:export-ydpi="98.489998" />
    <path
       d="m 119.37469,170.69397 h -0.0897 c -2.71887,0 -4.94315,-2.22428 -4.94315,-4.94292 v -3.83494 c 0,-2.71887 2.22451,-4.94315 4.94315,-4.94315 h 0.0897 c 2.71865,0 4.94293,2.22428 4.94293,4.94315 v 3.83494 c 0,2.71864 -2.22428,4.94292 -4.94293,4.94292"
       style="fill:#f89a74;fill-opacity:1;fill-rule:nonzero;stroke:none;stroke-width:0.0231118"
       id="path51481"
       inkscape:export-filename="/home/bolarinwa/Downloads/path54255.png"
       inkscape:export-xdpi="98.489998"
       inkscape:export-ydpi="98.489998" />
    <path
       d="m 117.78299,166.75756 h 2.96154 c 0.27064,0 0.44999,0.27735 0.34182,0.52534 -0.23897,0.54821 -0.76523,1.32823 -1.82259,1.32823 -1.05736,0 -1.5834,-0.78002 -1.8226,-1.32823 -0.10816,-0.24799 0.0714,-0.52534 0.34183,-0.52534"
       style="fill:#fbf9f4;fill-opacity:1;fill-rule:nonzero;stroke:none;stroke-width:0.0231118"
       id="path51483"
       inkscape:export-filename="/home/bolarinwa/Downloads/path54255.png"
       inkscape:export-xdpi="98.489998"
       inkscape:export-ydpi="98.489998" />
    <path
       d="m 125.9366,165.48526 c -0.30577,0.86 -1.08742,1.36753 -1.74564,1.1334 -0.65822,-0.23412 -0.94388,-1.12091 -0.63812,-1.98091 0.306,-0.86022 1.08741,-1.36752 1.74564,-1.1334 0.65823,0.23389 0.94411,1.12093 0.63812,1.98091"
       style="fill:#f89a74;fill-opacity:1;fill-rule:nonzero;stroke:none;stroke-width:0.0231118"
       id="path51485"
       inkscape:export-filename="/home/bolarinwa/Downloads/path54255.png"
       inkscape:export-xdpi="98.489998"
       inkscape:export-ydpi="98.489998" />
    <path
       d="m 112.56203,165.48526 c 0.30577,0.86 1.08742,1.36753 1.74564,1.1334 0.65822,-0.23412 0.94388,-1.12091 0.63811,-1.98091 -0.306,-0.86022 -1.08741,-1.36752 -1.74563,-1.1334 -0.65823,0.23389 -0.94389,1.12093 -0.63812,1.98091"
       style="fill:#f89a74;fill-opacity:1;fill-rule:nonzero;stroke:none;stroke-width:0.0231118"
       id="path51487"
       inkscape:export-filename="/home/bolarinwa/Downloads/path54255.png"
       inkscape:export-xdpi="98.489998"
       inkscape:export-ydpi="98.489998" />
    <path
       d="m 123.19623,166.24587 h -0.56 c -0.22534,0 -0.40977,-0.18443 -0.40977,-0.40977 0,-0.22557 0.18443,-0.40978 0.40977,-0.40978 h 0.56 c 0.22557,0 0.41001,0.18421 0.41001,0.40978 0,0.22534 -0.18444,0.40977 -0.41001,0.40977"
       style="fill:#ea765d;fill-opacity:1;fill-rule:nonzero;stroke:none;stroke-width:0.0231118"
       id="path51489"
       inkscape:export-filename="/home/bolarinwa/Downloads/path54255.png"
       inkscape:export-xdpi="98.489998"
       inkscape:export-ydpi="98.489998" />
    <path
       d="m 115.8899,166.24587 h -0.56023 c -0.22534,0 -0.40977,-0.18443 -0.40977,-0.40977 0,-0.22557 0.18443,-0.40978 0.40977,-0.40978 h 0.56023 c 0.22534,0 0.40977,0.18421 0.40977,0.40978 0,0.22534 -0.18443,0.40977 -0.40977,0.40977"
       style="fill:#ea765d;fill-opacity:1;fill-rule:nonzero;stroke:none;stroke-width:0.0231118"
       id="path51491"
       inkscape:export-filename="/home/bolarinwa/Downloads/path54255.png"
       inkscape:export-xdpi="98.489998"
       inkscape:export-ydpi="98.489998" />
    <path
       d="m 121.02996,164.24509 c -2.3e-4,0.465 0.26879,0.84219 0.6009,0.84219 0.33236,2.3e-4 0.60184,-0.3765 0.60207,-0.84151 2.3e-4,-0.465 -0.26879,-0.84196 -0.60113,-0.84219 -0.33213,-2.2e-4 -0.60161,0.37673 -0.60184,0.84151"
       style="fill:#291e1e;fill-opacity:1;fill-rule:nonzero;stroke:none;stroke-width:0.0231118"
       id="path51493"
       inkscape:export-filename="/home/bolarinwa/Downloads/path54255.png"
       inkscape:export-xdpi="98.489998"
       inkscape:export-ydpi="98.489998" />
    <path
       d="m 122.78946,162.93117 c -0.51539,-0.11439 -1.00952,-0.15877 -1.52746,-0.13358 -0.21586,0.0106 -0.39243,-0.17056 -0.38365,-0.38643 l 2.3e-4,-0.003 c 0.008,-0.18444 0.14954,-0.33674 0.33327,-0.35524 0.60391,-0.0608 1.19373,-0.009 1.76898,0.15739 0.17819,0.0515 0.28982,0.22904 0.26231,0.41255 l -2.2e-4,0.002 c -0.0321,0.21517 -0.24106,0.35361 -0.45346,0.30646"
       style="fill:#39233c;fill-opacity:1;fill-rule:nonzero;stroke:none;stroke-width:0.0231118"
       id="path51495"
       inkscape:export-filename="/home/bolarinwa/Downloads/path54255.png"
       inkscape:export-xdpi="98.489998"
       inkscape:export-ydpi="98.489998" />
    <path
       d="m 117.52576,164.24509 c 2.2e-4,0.465 -0.2688,0.84219 -0.60115,0.84219 -0.33211,2.3e-4 -0.6016,-0.3765 -0.60183,-0.84151 -2.3e-4,-0.465 0.26879,-0.84196 0.60114,-0.84219 0.33211,-2.2e-4 0.6016,0.37673 0.60184,0.84151"
       style="fill:#291e1e;fill-opacity:1;fill-rule:nonzero;stroke:none;stroke-width:0.0231118"
       id="path51497"
       inkscape:export-filename="/home/bolarinwa/Downloads/path54255.png"
       inkscape:export-xdpi="98.489998"
       inkscape:export-ydpi="98.489998" />
    <path
       d="m 115.78173,162.93117 c 0.51563,-0.11439 1.00953,-0.15877 1.52746,-0.13358 0.21587,0.0106 0.39267,-0.17056 0.38366,-0.38643 l -2.3e-4,-0.003 c -0.008,-0.18444 -0.14954,-0.33674 -0.33327,-0.35524 -0.60391,-0.0608 -1.19373,-0.009 -1.76874,0.15739 -0.1782,0.0515 -0.29006,0.22904 -0.26256,0.41255 l 2.3e-4,0.002 c 0.0324,0.21517 0.24106,0.35361 0.45345,0.30646"
       style="fill:#39233c;fill-opacity:1;fill-rule:nonzero;stroke:none;stroke-width:0.0231118"
       id="path51499"
       inkscape:export-filename="/home/bolarinwa/Downloads/path54255.png"
       inkscape:export-xdpi="98.489998"
       inkscape:export-ydpi="98.489998" />
    <path
       d="m 121.47417,153.85215 c -0.92816,-0.006 -1.79486,0.39544 -2.31164,0.6952 l -0.0452,0.0367 c -0.48835,-0.34829 -1.25844,-0.79065 -2.12489,-0.88287 -0.22303,-0.0238 -0.35939,0.2369 -0.20824,0.40284 l 1.01993,1.11977 1.36636,1.31598 1.20667,-1.29242 c 0.0753,0.0166 0.15393,-0.003 0.21194,-0.0541 l 1.04696,-0.91753 c 0.16871,-0.14769 0.0626,-0.42226 -0.16178,-0.42365"
       style="fill:#333050;fill-opacity:1;fill-rule:nonzero;stroke:none;stroke-width:0.0231118"
       id="path51519"
       inkscape:export-filename="/home/bolarinwa/Downloads/path54255.png"
       inkscape:export-xdpi="98.489998"
       inkscape:export-ydpi="98.489998" />
    <path
       d="m 117.76033,157.46362 c 0.30601,2.01465 1.55427,3.85135 3.2731,4.93575 0.5244,0.33074 1.19626,-0.11185 1.10636,-0.72547 l -0.37395,-2.54992 c -0.10608,-0.72249 -0.48303,-2.24948 -1.01738,-2.74684 -0.4798,-0.44629 -1.05043,-0.15115 -1.64926,0.0268 -0.37025,0.11002 -0.74166,0.22927 -1.04072,0.47332 -0.2993,0.2443 -0.47333,0.78604 -0.21379,1.07217 l -0.0844,-0.48581"
       style="fill:#333050;fill-opacity:1;fill-rule:nonzero;stroke:none;stroke-width:0.0231118"
       id="path51525"
       inkscape:export-filename="/home/bolarinwa/Downloads/path54255.png"
       inkscape:export-xdpi="98.489998"
       inkscape:export-ydpi="98.489998" />
    <path
       d="m 120.03593,157.73403 c 1.89378,1.91735 3.02186,4.09564 3.71036,6.60443 0.1537,0.55977 0.95474,0.57872 1.123,0.0233 0.66193,-2.18429 0.33351,-4.46843 -0.76869,-6.63539 -0.41509,-0.81654 -2.06297,-1.30882 -3.01355,-1.33146 -0.0435,-0.002 -0.0836,0.0182 -0.11232,0.0513 l -0.9462,1.09157 c -0.0494,0.0573 -0.0457,0.14261 0.008,0.19622"
       style="fill:#333050;fill-opacity:1;fill-rule:nonzero;stroke:none;stroke-width:0.0231118"
       id="path51527"
       inkscape:export-filename="/home/bolarinwa/Downloads/path54255.png"
       inkscape:export-xdpi="98.489998"
       inkscape:export-ydpi="98.489998" />
    <path
       d="m 113.83942,164.57628 c 0.13798,0.47333 0.83434,0.4278 0.90575,-0.0601 0.31755,-2.17088 1.22631,-4.26782 2.68259,-5.96953 0.44235,-0.51702 0.95914,-1.13087 0.65245,-1.81613 -0.17889,-0.39983 -0.58843,-0.64482 -1.02501,-0.67926 -1.19073,-0.0941 -2.19077,0.7486 -2.69276,1.76921 -0.42225,0.85883 -0.79828,2.64491 -0.86415,3.59966 -0.0858,1.24573 0.0987,2.32436 0.34113,3.15615"
       style="fill:#333050;fill-opacity:1;fill-rule:nonzero;stroke:none;stroke-width:0.0231118"
       id="path51535"
       inkscape:export-filename="/home/bolarinwa/Downloads/path54255.png"
       inkscape:export-xdpi="98.489998"
       inkscape:export-ydpi="98.489998" />
    <path
       d="m 118.45623,158.43246 c 0.4775,1.32247 1.24734,2.47875 2.30332,3.40992 0.36032,0.31802 0.89236,-0.21009 0.52973,-0.52995 -0.95683,-0.84381 -1.67676,-1.87806 -2.11057,-3.07918 -0.16248,-0.45022 -0.88703,-0.25609 -0.72248,0.19921"
       style="fill:#42406a;fill-opacity:1;fill-rule:nonzero;stroke:none;stroke-width:0.0231118"
       id="path51537"
       inkscape:export-filename="/home/bolarinwa/Downloads/path54255.png"
       inkscape:export-xdpi="98.489998"
       inkscape:export-ydpi="98.489998" />
    <path
       d="m 121.43765,158.71721 c 1.16599,1.51659 1.92706,3.2197 2.27513,5.10123 0.0878,0.47356 0.81006,0.27295 0.7227,-0.19922 -0.35893,-1.93931 -1.14842,-3.71637 -2.35069,-5.28036 -0.28983,-0.37695 -0.94111,-0.004 -0.64714,0.37835"
       style="fill:#42406a;fill-opacity:1;fill-rule:nonzero;stroke:none;stroke-width:0.0231118"
       id="path51539"
       inkscape:export-filename="/home/bolarinwa/Downloads/path54255.png"
       inkscape:export-xdpi="98.489998"
       inkscape:export-ydpi="98.489998" />
    <path
       d="m 114.57553,163.53486 c 0.15716,-1.55704 0.70837,-2.98119 1.60789,-4.25904 0.27803,-0.39522 -0.3714,-0.76986 -0.64714,-0.37811 -0.97924,1.39086 -1.53947,2.94675 -1.71003,4.63715 -0.0485,0.47934 0.70121,0.47588 0.74928,0"
       style="fill:#42406a;fill-opacity:1;fill-rule:nonzero;stroke:none;stroke-width:0.0231118"
       id="path51541"
       inkscape:export-filename="/home/bolarinwa/Downloads/path54255.png"
       inkscape:export-xdpi="98.489998"
       inkscape:export-ydpi="98.489998" />
    <path
       d="m 115.97931,134.57288 -5.74346,2.06385 c -0.32748,0.11687 -0.68748,-0.0546 -0.80245,-0.38261 l -6.63355,-18.88286 c -0.69549,-1.97951 0.34586,-4.14797 2.32537,-4.84346 1.97951,-0.69549 3.65557,0.27659 4.84347,2.32536 l 6.94689,17.18701 c 0.54377,0.95184 0.0956,2.16376 -0.93627,2.53271"
       style="fill:#ffffff;fill-opacity:1;fill-rule:nonzero;stroke:none;stroke-width:0.04712"
       id="path2910"
       clip-path="url(#clipPath11102)"
       transform="matrix(0.38102739,0,0,0.38102739,53.822078,120.9942)" />
    <g
       id="g1230"
       transform="translate(1.7170873,-0.68685477)">
      <path
         d="M 97.525234,112.30444 H 89.60672 v -9.17991 h 7.918514 v 9.17991"
         style="fill:#3c95ae;fill-opacity:1;fill-rule:nonzero;stroke:none;stroke-width:0.04712"
         id="path2916"
         clip-path="url(#clipPath11094)"
         transform="matrix(0.38102739,0,0,0.38102739,54.570798,124.61761)" />
      <path
         d="m 99.482127,109.04327 v 0 c 0.384971,0.98434 1.336323,1.65345 2.339503,1.98705 1.00319,0.33315 2.07376,0.3845 3.12594,0.4877 0.3077,0.0306 0.61869,0.0664 0.90754,0.17575 0.41418,0.15738 0.76664,0.45989 1.19402,0.57675 0.13382,0.0363 0.27895,0.0528 0.40853,0.003 0.10036,-0.0386 0.18235,-0.11447 0.25492,-0.1946 0.44434,-0.49099 0.61397,-1.18412 0.58664,-1.84617 -0.0273,-0.66156 -0.23372,-1.30192 -0.46178,-1.9239 -0.59748,-1.63083 -1.35799,-3.20181 -2.266,-4.68184 -0.76381,-1.24444 -2.56427,-3.00579 -4.19745,-2.11569 -1.15679,0.62999 -1.463071,2.66416 -1.827308,3.79551 -0.358112,1.11156 -0.498529,2.62694 -0.06455,3.73662"
         style="fill:#6d3622;fill-opacity:1;fill-rule:nonzero;stroke:none;stroke-width:0.04712"
         id="path2918"
         clip-path="url(#clipPath11090)"
         transform="matrix(0.38102739,0,0,0.38102739,54.570798,124.61761)" />
      <path
         d="m 105.66144,79.972598 c 0.59183,0.906117 1.02156,6.347533 1.31795,7.451555 0.36518,1.359412 0.2389,2.880915 -0.017,4.340222 -0.21676,1.235015 -0.53529,2.486992 -1.17046,3.553789 -0.59513,0.999887 -1.4513,1.807523 -1.91025,2.889868 -0.28366,0.668633 -0.39722,1.403235 -0.6724,2.075638 -0.48487,1.18271 -1.48805,2.10532 -2.57417,2.36684 -1.086583,0.26151 -3.259287,0.54894 -3.951007,-0.35105 -0.384971,-0.50135 -7.077423,0.82507 -8.74547,-0.21864 -9.518238,-5.95502 -6.507742,-15.357342 -6.515281,-16.66869 0,0 9.057876,8.364739 8.260606,5.709056 -0.769471,-2.562855 -0.621985,-5.448483 -0.465546,-8.252594 0.02591,-0.457063 0.05277,-0.923081 0.197432,-1.362709 0.207328,-0.629524 0.632822,-1.142189 1.045593,-1.633179 1.023917,-1.216639 2.087416,-2.46626 3.407246,-3.158453 1.431034,-0.750622 3.010025,-0.762873 4.508912,-0.629523 0.931091,0.08246 1.877735,0.223819 2.671235,0.728004 1.27318,0.808108 1.03475,2.013436 1.57805,3.280022 0.67617,1.574749 2.12369,-1.51585 3.03452,-0.120158"
         style="fill:#6d3622;fill-opacity:1;fill-rule:nonzero;stroke:none;stroke-width:0.04712"
         id="path2920"
         clip-path="url(#clipPath11086)"
         transform="matrix(0.38102739,0,0,0.38102739,54.570798,124.61761)" />
      <path
         d="m 108.64084,114.97991 -9.444731,1.21712 H 88.403277 l -9.162954,-1.32031 c 0,0 2.058673,6.4234 4.057502,12.69177 l 1.508311,12.8435 h 17.807584 l 1.92297,-12.69602 4.10415,-12.73606"
         style="fill:#3c95ae;fill-opacity:1;fill-rule:nonzero;stroke:none;stroke-width:0.04712"
         id="path2922"
         clip-path="url(#clipPath11082)"
         transform="matrix(0.38102739,0,0,0.38102739,54.570798,124.61761)" />
      <path
         d="m 90.762574,105.59409 c 0.755333,-0.44198 2.803639,-0.84957 3.06751,-0.75439 0.260103,-0.10131 1.630353,0.0575 2.402648,0.48062 4.699748,2.57605 12.663498,4.12301 12.684228,8.37276 0,0 -0.0391,2.87148 -2.48181,2.90164 l -12.372763,0.15267 -12.372767,0.1522 c -2.442229,0.0302 -2.593485,-2.83946 -2.593485,-2.83946 -0.07304,-4.00613 7.069413,-5.77549 11.666439,-8.46604"
         style="fill:#3c95ae;fill-opacity:1;fill-rule:nonzero;stroke:none;stroke-width:0.04712"
         id="path3550"
         clip-path="url(#clipPath11078)"
         transform="matrix(0.38102739,0,0,0.38102739,54.570798,124.61761)" />
      <path
         d="m 93.687312,110.42483 c 4.506555,0 6.02052,-1.08517 7.953378,-2.71882 -2.225944,-1.00177 -3.058554,-1.20297 -5.083771,-2.2971 -0.77324,-0.41795 -2.674531,-0.66298 -2.935104,-0.55931 -0.264344,-0.0933 -1.403704,-0.17341 -2.159981,0.27423 -2.120399,1.25528 -3.445413,1.64732 -5.692095,2.82108 1.77454,1.21098 2.759347,2.47992 7.917573,2.47992"
         style="fill:#f89a74;fill-opacity:1;fill-rule:nonzero;stroke:none;stroke-width:0.04712"
         id="path3572"
         clip-path="url(#clipPath11074)"
         transform="matrix(0.38102739,0,0,0.38102739,54.570798,124.61761)" />
      <path
         d="m 93.687312,110.42483 h -0.468373 c -1.44093,0 -2.619872,-1.17847 -2.619872,-2.6194 V 97.573799 c 0,-1.440459 1.178942,-2.619401 2.619872,-2.619401 h 0.468373 c 1.440928,0 2.6194,1.178942 2.6194,2.619401 v 10.231631 c 0,1.44093 -1.178472,2.6194 -2.6194,2.6194"
         style="fill:#f89a74;fill-opacity:1;fill-rule:nonzero;stroke:none;stroke-width:0.04712"
         id="path3574"
         clip-path="url(#clipPath11070)"
         transform="matrix(0.38102739,0,0,0.38102739,54.570798,124.61761)" />
      <path
         d="m 90.599067,101.60209 5.818376,-1.34716 -0.0867,2.1595 c -0.2356,3.4162 -4.790218,4.08389 -5.752408,0.1767 l 0.02073,-0.98904"
         style="fill:#ea765d;fill-opacity:1;fill-rule:nonzero;stroke:none;stroke-width:0.04712"
         id="path3576"
         clip-path="url(#clipPath11066)"
         transform="matrix(0.38102739,0,0,0.38102739,54.570798,124.61761)" />
      <path
         d="m 93.34522,102.9238 h -0.16916 c -5.128069,0 -9.324103,-4.196034 -9.324103,-9.324573 v -7.23386 c 0,-5.12854 4.196034,-9.324575 9.324103,-9.324575 h 0.16916 c 5.12854,0 9.32457,4.196035 9.32457,9.324575 v 7.23386 c 0,5.128539 -4.19603,9.324573 -9.32457,9.324573"
         style="fill:#f89a74;fill-opacity:1;fill-rule:nonzero;stroke:none;stroke-width:0.04712"
         id="path3578"
         clip-path="url(#clipPath11062)"
         transform="matrix(0.38102739,0,0,0.38102739,54.570798,124.61761)" />
      <path
         d="m 90.343206,95.497692 h 5.586545 c 0.51031,0 0.848631,0.523503 0.644601,0.991404 -0.450937,1.033813 -1.443284,2.50537 -3.437873,2.50537 -1.99459,0 -2.986936,-1.471557 -3.438346,-2.50537 -0.20403,-0.467901 0.134763,-0.991404 0.645073,-0.991404"
         style="fill:#fbf9f4;fill-opacity:1;fill-rule:nonzero;stroke:none;stroke-width:0.04712"
         id="path3580"
         clip-path="url(#clipPath11058)"
         transform="matrix(0.38102739,0,0,0.38102739,54.570798,124.61761)" />
      <path
         d="m 96.467862,90.758834 c -4.71e-4,0.876904 0.507011,1.588415 1.133707,1.588415 0.626695,4.71e-4 1.135121,-0.710098 1.135591,-1.587472 4.71e-4,-0.876904 -0.507482,-1.588415 -1.134178,-1.588415 -0.626224,-4.71e-4 -1.13465,0.710098 -1.13512,1.587472"
         style="fill:#572715;fill-opacity:1;fill-rule:nonzero;stroke:none;stroke-width:0.04712"
         id="path3582"
         clip-path="url(#clipPath11054)"
         transform="matrix(0.38102739,0,0,0.38102739,54.570798,124.61761)" />
      <path
         d="m 99.786993,88.280323 c -0.972556,-0.216281 -1.904118,-0.299684 -2.881387,-0.252092 -0.407116,0.01979 -0.740255,-0.321829 -0.723763,-0.729417 l 4.71e-4,-0.0056 c 0.01413,-0.347746 0.282249,-0.63565 0.628582,-0.670518 1.139361,-0.114027 2.251864,-0.01743 3.336564,0.297328 0.33644,0.09706 0.54706,0.43209 0.49523,0.77795 l -4.7e-4,0.0043 c -0.0608,0.406173 -0.45471,0.667218 -0.855227,0.578161"
         style="fill:#572715;fill-opacity:1;fill-rule:nonzero;stroke:none;stroke-width:0.04712"
         id="path3584"
         clip-path="url(#clipPath11050)"
         transform="matrix(0.38102739,0,0,0.38102739,54.570798,124.61761)" />
      <path
         d="m 89.85787,90.758834 c 4.71e-4,0.876904 -0.507482,1.588415 -1.134179,1.588415 -0.626695,4.71e-4 -1.134648,-0.710098 -1.135119,-1.587472 -4.72e-4,-0.876904 0.507011,-1.588415 1.133706,-1.588415 0.626697,-4.71e-4 1.135121,0.710098 1.135592,1.587472"
         style="fill:#572715;fill-opacity:1;fill-rule:nonzero;stroke:none;stroke-width:0.04712"
         id="path3586"
         clip-path="url(#clipPath11046)"
         transform="matrix(0.38102739,0,0,0.38102739,54.570798,124.61761)" />
      <path
         d="m 86.567952,88.280323 c 0.972556,-0.216281 1.904119,-0.299684 2.881387,-0.252092 0.407117,0.01979 0.740255,-0.321829 0.723764,-0.729417 l -4.72e-4,-0.0056 c -0.01413,-0.347746 -0.282249,-0.63565 -0.629051,-0.670518 -1.13889,-0.114027 -2.251394,-0.01743 -3.336567,0.297328 -0.335965,0.09706 -0.546592,0.43209 -0.494759,0.77795 l 4.7e-4,0.0043 c 0.06079,0.406173 0.454709,0.667218 0.855228,0.578161"
         style="fill:#572715;fill-opacity:1;fill-rule:nonzero;stroke:none;stroke-width:0.04712"
         id="path3588"
         clip-path="url(#clipPath11042)"
         transform="matrix(0.38102739,0,0,0.38102739,54.570798,124.61761)" />
      <path
         d="m 90.558544,121.34111 c 0,3.29652 -2.478511,5.9687 -5.536598,5.9687 -3.057616,0 -5.536599,-2.67218 -5.536599,-5.9687 0,-3.29651 2.478983,-5.96868 5.536599,-5.96868 3.058087,0 5.536598,2.67217 5.536598,5.96868"
         style="fill:#3c95ae;fill-opacity:1;fill-rule:nonzero;stroke:none;stroke-width:0.04712"
         id="path3590"
         clip-path="url(#clipPath11038)"
         transform="matrix(0.38102739,0,0,0.38102739,54.570798,124.61761)" />
      <path
         d="m 108.15032,121.34111 c 0,3.29652 -2.47898,5.9687 -5.5366,5.9687 -3.058085,0 -5.536597,-2.67218 -5.536597,-5.9687 0,-3.29651 2.478512,-5.96868 5.536597,-5.96868 3.05762,0 5.5366,2.67217 5.5366,5.96868"
         style="fill:#3c95ae;fill-opacity:1;fill-rule:nonzero;stroke:none;stroke-width:0.04712"
         id="path3592"
         clip-path="url(#clipPath11034)"
         transform="matrix(0.38102739,0,0,0.38102739,54.570798,124.61761)" />
      <path
         d="m 105.72364,93.09787 c -0.57675,1.622341 -2.05113,2.57982 -3.29274,2.138306 -1.24162,-0.441515 -1.78067,-2.114746 -1.20392,-3.737087 0.57722,-1.622341 2.05113,-2.579349 3.29275,-2.137834 1.24208,0.441515 1.78066,2.114274 1.20391,3.736615"
         style="fill:#f89a74;fill-opacity:1;fill-rule:nonzero;stroke:none;stroke-width:0.04712"
         id="path3624"
         clip-path="url(#clipPath11030)"
         transform="matrix(0.38102739,0,0,0.38102739,54.570798,124.61761)" />
      <path
         d="m 100.55458,94.532675 h -1.056903 c -0.425023,0 -0.772768,-0.347746 -0.772768,-0.772769 0,-0.425493 0.347745,-0.773238 0.772768,-0.773238 h 1.056903 c 0.42502,0 0.77277,0.347745 0.77277,0.773238 0,0.425023 -0.34775,0.772769 -0.77277,0.772769"
         style="fill:#ea765d;fill-opacity:1;fill-rule:nonzero;stroke:none;stroke-width:0.04712"
         id="path3626"
         clip-path="url(#clipPath11026)"
         transform="matrix(0.38102739,0,0,0.38102739,54.570798,124.61761)" />
      <path
         d="M 86.771982,94.532675 H 85.71508 c -0.425021,0 -0.772767,-0.347746 -0.772767,-0.772769 0,-0.425493 0.347746,-0.773238 0.772767,-0.773238 h 1.056902 c 0.425022,0 0.772767,0.347745 0.772767,0.773238 0,0.425023 -0.347745,0.772769 -0.772767,0.772769"
         style="fill:#ea765d;fill-opacity:1;fill-rule:nonzero;stroke:none;stroke-width:0.04712"
         id="path3662"
         clip-path="url(#clipPath11022)"
         transform="matrix(0.38102739,0,0,0.38102739,54.570798,124.61761)" />
      <path
         d="m 105.00459,89.874392 c 0.14372,-0.04053 0.20827,-0.203087 0.27565,-0.32984 0.39581,-0.741668 0.2356,-1.644958 0.25162,-2.48982 0.0165,-0.881615 0.23513,-1.737786 0.36094,-2.606206 0.48534,-3.352116 -0.53104,-7.034544 -3.08683,-9.573369 -2.55626,-2.539295 -6.709413,-3.701274 -10.014881,-2.446941 -0.676642,0.256804 -1.30758,0.603137 -1.913542,0.978683 -0.2945,0.181883 -0.590886,0.378373 -0.776538,0.66015 -0.552717,0.840621 -0.548948,2.636364 -0.386856,3.635308 0.157382,0.969258 0.890098,1.699147 1.546479,2.440344 1.862182,2.101551 3.920854,4.085775 6.300885,5.671362 1.322658,0.881143 4.791633,4.811893 7.443073,4.060329"
         style="fill:#7a3d2a;fill-opacity:1;fill-rule:nonzero;stroke:none;stroke-width:0.04712"
         id="path3808"
         clip-path="url(#clipPath11018)"
         transform="matrix(0.38102739,0,0,0.38102739,54.570798,124.61761)" />
      <path
         d="m 88.735,83.076392 v 0 c -1.449881,1.230303 -2.738612,1.302396 -3.918969,2.793744 -0.741197,0.936274 -0.638476,3.126882 -0.964074,4.244568 -0.243611,0.834024 -1.064912,-0.112612 -1.14643,-0.04806 -0.209684,0.164448 -0.474498,-0.126289 -0.570624,-0.375075 -0.701145,-1.820245 -0.66816,-3.828499 -0.625282,-5.778795 0.0165,-0.766172 0.03439,-1.539882 0.224292,-2.282021 0.121094,-0.4745 0.310992,-0.929207 0.529157,-1.367422 1.025802,-2.061971 2.70563,-3.792689 4.736501,-4.879276 0.275652,-0.147485 0.561671,-0.285075 0.868422,-0.347274 0.566382,-0.115911 1.149256,0.03158 1.708099,0.177642 1.187425,0.310521 2.777253,1.118158 2.667463,2.602909 -0.03958,0.536225 -0.399578,0.989519 -0.696434,1.412657 -0.428792,0.612088 -0.767584,1.25669 -1.153497,1.893753 C 89.949283,81.8574 89.389026,82.52132 88.735,83.076394"
         style="fill:#7a3d2a;fill-opacity:1;fill-rule:nonzero;stroke:none;stroke-width:0.04712"
         id="path3810"
         clip-path="url(#clipPath11014)"
         transform="matrix(0.38102739,0,0,0.38102739,54.570798,124.61761)" />
      <path
         d="m 80.494186,93.09787 c 0.57722,1.622341 2.051133,2.57982 3.292744,2.138306 1.242084,-0.441515 1.780665,-2.114746 1.203917,-3.737087 -0.576749,-1.622341 -2.051134,-2.579349 -3.292746,-2.137834 -1.241611,0.441515 -1.780664,2.114274 -1.203915,3.736615"
         style="fill:#f89a74;fill-opacity:1;fill-rule:nonzero;stroke:none;stroke-width:0.04712"
         id="path3816"
         clip-path="url(#clipPath11010)"
         transform="matrix(0.38102739,0,0,0.38102739,54.570798,124.61761)" />
      <path
         d="m 104.05277,101.96585 -3.26872,2.20192 c -0.57486,0.3878 -1.362236,0.23419 -1.750034,-0.34068 l -0.146542,-0.21769 c -0.387327,-0.57487 -0.233716,-1.36271 0.341148,-1.75004 l 3.268708,-2.201916 c 0.57487,-0.387326 1.36224,-0.234187 1.74957,0.341148 l 0.14654,0.217228 c 0.3878,0.57533 0.23419,1.36271 -0.34067,1.75003"
         style="fill:#3c95ae;fill-opacity:1;fill-rule:nonzero;stroke:none;stroke-width:0.04712"
         id="path3818"
         clip-path="url(#clipPath11006)"
         transform="matrix(0.38102739,0,0,0.38102739,54.570798,124.61761)" />
      <path
         d="m 94.336154,110.45027 c 0,0 -4.902835,0.10365 -4.729434,-7.32574 l -3.607506,4.28509 c -0.444812,0.3977 -0.643659,1.00743 -0.520204,1.59502 l 1.032869,4.91178 c 0.196491,0.93534 1.276482,1.3547 2.039825,0.79255 l 5.78445,-4.2587"
         style="fill:#4fbdc9;fill-opacity:1;fill-rule:nonzero;stroke:none;stroke-width:0.04712"
         id="path3820"
         clip-path="url(#clipPath11002)"
         transform="matrix(0.38102739,0,0,0.38102739,54.570798,124.61761)" />
      <path
         d="m 92.793445,110.21185 c 0,0 4.921682,0.70303 4.74404,-7.08732 l 4.129595,3.8907 c 0.47261,0.41654 0.68371,1.05596 0.55178,1.67229 l -1.10355,5.15163 c -0.21016,0.98056 -1.359416,1.42112 -2.171764,0.83261 l -6.150101,-4.45991"
         style="fill:#4fbdc9;fill-opacity:1;fill-rule:nonzero;stroke:none;stroke-width:0.04712"
         id="path3822"
         clip-path="url(#clipPath10998)"
         transform="matrix(0.38102739,0,0,0.38102739,54.570798,124.61761)" />
      <path
         d="m 96.684143,124.08962 1.02533,60.05395 c 0.07115,1.08188 1.067268,1.86124 2.134536,1.66994 l 9.523421,-1.09601 c 1.07434,-0.19272 1.90601,-0.34681 1.75569,-1.42774 l -2.20616,-32.61645 c -0.22947,-1.64826 -0.91507,-7.30972 -1.4692,-8.87882 -0.53905,-1.52764 -1.16575,-3.50667 -1.2435,-4.64791 -0.13994,-2.04737 5.19122,-19.93789 2.7127,-24.47743 -2.47898,-4.54 -5.41974,-5.52293 -5.41974,-5.52293 l -6.813077,16.9434"
         style="fill:#ffffff;fill-opacity:1;fill-rule:nonzero;stroke:none;stroke-width:0.04712"
         id="path3824"
         clip-path="url(#clipPath10994)"
         transform="matrix(0.38102739,0,0,0.38102739,54.570798,124.61761)" />
      <path
         d="m 100.6507,106.05775 c 0,0 4.08342,0.72895 6.1779,3.69233 l -4.5744,7.26588 -3.244686,1.20439 1.540826,1.74156 -3.866197,9.71708 c 0,0 -2.437517,-7.21501 2.634478,-17.32177 0.885859,-1.76511 1.332079,-3.71871 1.332079,-5.69398 v -0.60549"
         style="fill:#f4f6f4;fill-opacity:1;fill-rule:nonzero;stroke:none;stroke-width:0.04712"
         id="path3826"
         clip-path="url(#clipPath10990)"
         transform="matrix(0.38102739,0,0,0.38102739,54.570798,124.61761)" />
      <path
         d="m 91.556546,123.46151 -1.02486,60.05349 c -0.07115,1.08186 -1.067268,1.8617 -2.134536,1.67039 l -9.523421,-1.09601 c -1.074335,-0.19271 -1.906003,-0.34679 -1.75569,-1.42772 l 2.206158,-32.61646 c 0.229475,-1.64826 0.915069,-7.30972 1.469201,-8.87882 0.539053,-1.52763 1.165748,-3.50668 1.243497,-4.64839 0.139946,-2.04737 -5.191209,-19.9374 -2.712698,-24.47741 2.478982,-4.53954 5.41974,-5.52247 5.41974,-5.52247 l 6.812609,16.9434"
         style="fill:#ffffff;fill-opacity:1;fill-rule:nonzero;stroke:none;stroke-width:0.04712"
         id="path3828"
         clip-path="url(#clipPath10986)"
         transform="matrix(0.38102739,0,0,0.38102739,54.570798,124.61761)" />
      <path
         d="m 87.590456,105.42917 c 0,0 -3.738499,0.55884 -6.178373,3.69232 l 4.57488,7.26637 3.244682,1.20439 -1.540823,1.74156 3.759704,10.34518 c 0,0 2.544008,-7.84311 -2.527987,-17.94988 -0.885857,-1.76559 -1.332083,-3.71918 -1.332083,-5.69445 v -0.60549"
         style="fill:#f4f6f4;fill-opacity:1;fill-rule:nonzero;stroke:none;stroke-width:0.04712"
         id="path3830"
         clip-path="url(#clipPath10982)"
         transform="matrix(0.38102739,0,0,0.38102739,54.570798,124.61761)" />
      <path
         d="m 107.76818,134.83015 h -8.428826 c -0.338322,0 -0.614445,-0.27659 -0.614445,-0.61444 v -4.67619 c 0,-0.33785 0.276123,-0.61444 0.614445,-0.61444 h 8.428826 c 0.33832,0 0.61491,0.27659 0.61491,0.61444 v 4.67619 c 0,0.33785 -0.27659,0.61444 -0.61491,0.61444"
         style="fill:#4fbdc9;fill-opacity:1;fill-rule:nonzero;stroke:none;stroke-width:0.04712"
         id="path3856"
         clip-path="url(#clipPath10978)"
         transform="matrix(0.38102739,0,0,0.38102739,54.570798,124.61761)" />
      <path
         d="m 102.90021,132.60704 h -3.308294 c -0.139474,0 -0.253505,-0.11407 -0.253505,-0.25352 v -2.45448 c 0,-0.13947 0.114028,-0.2535 0.253505,-0.2535 h 3.308294 c 0.13948,0 0.25351,0.11407 0.25351,0.2535 v 2.45448 c 0,0.13948 -0.11403,0.25352 -0.25351,0.25352"
         style="fill:#f6fbfe;fill-opacity:1;fill-rule:nonzero;stroke:none;stroke-width:0.04712"
         id="path3858"
         clip-path="url(#clipPath10974)"
         transform="matrix(0.38102739,0,0,0.38102739,54.570798,124.61761)" />
      <path
         d="m 106.88892,130.68595 h -2.45448 c -0.27895,0 -0.50701,-0.22806 -0.50701,-0.50701 0,-0.27895 0.22806,-0.50702 0.50701,-0.50702 h 2.45448 c 0.27848,0 0.50701,0.22807 0.50701,0.50702 0,0.27895 -0.22853,0.50701 -0.50701,0.50701"
         style="fill:#f6fbfe;fill-opacity:1;fill-rule:nonzero;stroke:none;stroke-width:0.04712"
         id="path3860"
         clip-path="url(#clipPath10970)"
         transform="matrix(0.38102739,0,0,0.38102739,54.570798,124.61761)" />
      <path
         d="m 106.88892,132.44682 h -2.45448 c -0.27895,0 -0.50701,-0.22805 -0.50701,-0.50701 0,-0.27895 0.22806,-0.50701 0.50701,-0.50701 h 2.45448 c 0.27848,0 0.50701,0.22806 0.50701,0.50701 0,0.27896 -0.22853,0.50701 -0.50701,0.50701"
         style="fill:#f6fbfe;fill-opacity:1;fill-rule:nonzero;stroke:none;stroke-width:0.04712"
         id="path3862"
         clip-path="url(#clipPath10966)"
         transform="matrix(0.38102739,0,0,0.38102739,54.570798,124.61761)" />
      <path
         d="m 103.36717,129.38733 v 0 c -0.31335,0 -0.56921,-0.25586 -0.56921,-0.56922 v -1.03145 c 0,-0.31289 0.25586,-0.56922 0.56921,-0.56922 0.31288,0 0.56921,0.25633 0.56921,0.56922 v 1.03145 c 0,0.31336 -0.25633,0.56922 -0.56921,0.56922"
         style="fill:#3f6091;fill-opacity:1;fill-rule:nonzero;stroke:none;stroke-width:0.04712"
         id="path3864"
         clip-path="url(#clipPath10962)"
         transform="matrix(0.38102739,0,0,0.38102739,54.570798,124.61761)" />
    </g>
    <path
       d="m 127.06034,177.26206 c 0.011,0.27239 0.21857,0.48586 0.46342,0.47617 0.24485,-0.009 0.43409,-0.23769 0.42287,-0.51033 -0.011,-0.27241 -0.21858,-0.48562 -0.46342,-0.47644 -0.24459,0.009 -0.4341,0.23821 -0.42287,0.5106 z"
       style="fill:none;stroke:#0e0f0e;stroke-width:0.238981;stroke-linecap:round;stroke-linejoin:round;stroke-miterlimit:10;stroke-dasharray:none;stroke-opacity:1"
       id="path54329"
       inkscape:export-filename="/home/bolarinwa/Downloads/path54255.png"
       inkscape:export-xdpi="98.489998"
       inkscape:export-ydpi="98.489998" />
    <path
       d="m 124.99063,177.16668 c 0.0252,0.6116 0.82151,0.67561 0.79244,-0.0306 -0.01,-0.24357 -0.19513,-0.43409 -0.4142,-0.42567 -0.21883,0.009 -0.38793,0.21271 -0.37824,0.45627 z"
       style="fill:none;stroke:#0e0f0e;stroke-width:0.238981;stroke-linecap:round;stroke-linejoin:round;stroke-miterlimit:10;stroke-dasharray:none;stroke-opacity:1"
       id="path54337"
       inkscape:export-filename="/home/bolarinwa/Downloads/path54255.png"
       inkscape:export-xdpi="98.489998"
       inkscape:export-ydpi="98.489998" />
    <path
       d="m 100.71431,169.7906 c 0.66121,-0.40538 2.45496,-0.78692 2.68606,-0.70214 0.22787,-0.0936 1.87443,0.20785 2.55094,0.58703 4.11772,2.30836 10.51524,2.57861 10.66803,7.35195 0,0 -0.0327,2.60452 -2.17177,2.64632 l -10.83641,0.21139 -10.836416,0.21166 c -2.139081,0.0418 -2.273031,-2.55948 -2.273031,-2.55948 -0.188119,-4.51368 6.187908,-5.27969 10.212597,-7.74673"
       style="fill:#504b81;fill-opacity:1;fill-rule:nonzero;stroke:none;stroke-width:0.0294396"
       id="path52520"
       inkscape:export-filename="/home/bolarinwa/Downloads/path54255.png"
       inkscape:export-xdpi="98.489998"
       inkscape:export-ydpi="98.489998" />
    <path
       d="m 99.32358,170.61933 c 0,0 0.76337,1.95596 4.31761,1.98717 2.77233,0.0247 3.87631,-2.15881 3.87631,-2.15881 l -2.77232,-1.37395 -2.84563,0.0492 -2.57597,1.49641"
       style="fill:#f89a74;fill-opacity:1;fill-rule:nonzero;stroke:none;stroke-width:0.0294396"
       id="path53338"
       inkscape:export-filename="/home/bolarinwa/Downloads/path54255.png"
       inkscape:export-xdpi="98.489998"
       inkscape:export-ydpi="98.489998" />
    <path
       d="m 103.43217,172.59796 c 0,0 -0.89673,0.0524 -1.3395,-0.1469 l -3.273978,3.15357 0.06153,0.14984 c 0.190768,0.46515 0.793988,0.58614 1.149618,0.23022 l 3.40233,-3.38673"
       style="fill:#333050;fill-opacity:1;fill-rule:nonzero;stroke:none;stroke-width:0.0294396"
       id="path53674"
       inkscape:export-filename="/home/bolarinwa/Downloads/path54255.png"
       inkscape:export-xdpi="98.489998"
       inkscape:export-ydpi="98.489998" />
    <path
       d="m 103.77308,172.61415 c 0,0 2.62218,0.31766 3.15946,-4.26462 l 2.05724,1.8968 c 0.43335,0.39919 0.60556,1.00801 0.44601,1.57501 l -0.91145,3.23865 c -0.15928,0.56583 -0.84757,0.78104 -1.30065,0.40656 l -3.45061,-2.8524"
       style="fill:#6966a3;fill-opacity:1;fill-rule:nonzero;stroke:none;stroke-width:0.0294396"
       id="path53672"
       inkscape:export-filename="/home/bolarinwa/Downloads/path54255.png"
       inkscape:export-xdpi="98.489998"
       inkscape:export-ydpi="98.489998" />
    <path
       d="m 103.5043,172.59796 c 0,0 0.89672,0.0524 1.3395,-0.1469 l 3.27397,3.15357 -0.0613,0.14984 c -0.19106,0.46515 -0.79428,0.58614 -1.1499,0.23022 l -3.40234,-3.38673"
       style="fill:#333050;fill-opacity:1;fill-rule:nonzero;stroke:none;stroke-width:0.0294396"
       id="path53676"
       inkscape:export-filename="/home/bolarinwa/Downloads/path54255.png"
       inkscape:export-xdpi="98.489998"
       inkscape:export-ydpi="98.489998" />
    <path
       d="m 103.81312,174.05405 c 0,0.23021 -0.18664,0.41715 -0.41716,0.41715 -0.23022,0 -0.41716,-0.18694 -0.41716,-0.41715 0,-0.23023 0.18694,-0.41717 0.41716,-0.41717 0.23052,0 0.41716,0.18694 0.41716,0.41717"
       style="fill:#333050;fill-opacity:1;fill-rule:nonzero;stroke:none;stroke-width:0.0294396"
       id="path53678"
       inkscape:export-filename="/home/bolarinwa/Downloads/path54255.png"
       inkscape:export-xdpi="98.489998"
       inkscape:export-ydpi="98.489998" />
    <path
       d="m 103.81312,175.69765 c 0,0.23052 -0.18664,0.41716 -0.41716,0.41716 -0.23022,0 -0.41716,-0.18664 -0.41716,-0.41716 0,-0.23021 0.18694,-0.41686 0.41716,-0.41686 0.23052,0 0.41716,0.18665 0.41716,0.41686"
       style="fill:#333050;fill-opacity:1;fill-rule:nonzero;stroke:none;stroke-width:0.0294396"
       id="path53680"
       inkscape:export-filename="/home/bolarinwa/Downloads/path54255.png"
       inkscape:export-xdpi="98.489998"
       inkscape:export-ydpi="98.489998" />
    <path
       d="m 103.81312,177.34156 c 0,0.23022 -0.18664,0.41687 -0.41716,0.41687 -0.23022,0 -0.41716,-0.18665 -0.41716,-0.41687 0,-0.23051 0.18694,-0.41716 0.41716,-0.41716 0.23052,0 0.41716,0.18665 0.41716,0.41716"
       style="fill:#333050;fill-opacity:1;fill-rule:nonzero;stroke:none;stroke-width:0.0294396"
       id="path53682"
       inkscape:export-filename="/home/bolarinwa/Downloads/path54255.png"
       inkscape:export-xdpi="98.489998"
       inkscape:export-ydpi="98.489998" />
    <path
       d="m 109.80215,179.80084 h -2.82222 c -0.32456,0 -0.58808,-0.26317 -0.58808,-0.58808 0,-0.32456 0.26352,-0.58808 0.58808,-0.58808 h 2.82222 c 0.32491,0 0.58808,0.26352 0.58808,0.58808 0,0.32491 -0.26317,0.58808 -0.58808,0.58808"
       style="fill:#feffff;fill-opacity:1;fill-rule:nonzero;stroke:none;stroke-width:0.0352778"
       id="path53690"
       inkscape:export-filename="/home/bolarinwa/Downloads/path54255.png"
       inkscape:export-xdpi="98.489998"
       inkscape:export-ydpi="98.489998" />
    <path
       d="m 117.20357,172.3386 c 0.51909,-0.31824 1.92729,-0.61778 2.10872,-0.55145 0.17889,-0.0735 1.47153,0.16341 2.00264,0.46109 3.23265,1.81196 8.25506,2.02436 8.37502,5.77171 0,0 -0.0256,2.0447 -1.70496,2.07728 l -8.50721,0.16618 -8.50723,0.16617 c -1.6793,0.0328 -1.78446,-2.00933 -1.78446,-2.00933 -0.14768,-3.54351 4.85787,-4.14488 8.01748,-6.08165"
       style="fill:#e33635;fill-opacity:1;fill-rule:nonzero;stroke:none;stroke-width:0.0231118"
       id="path50519"
       inkscape:export-filename="/home/bolarinwa/Downloads/path54255.png"
       inkscape:export-xdpi="98.489998"
       inkscape:export-ydpi="98.489998" />
    <path
       d="m 103.75012,172.60502 c 0,0 0.70213,0.0445 1.17376,-0.29263 l 3.59927,2.77675 -0.0447,0.15573 c -0.13895,0.4834 -0.72539,0.66975 -1.11782,0.35475 l -3.61047,-2.9946"
       style="fill:#feffff;fill-opacity:1;fill-rule:nonzero;stroke:none;stroke-width:0.0294396"
       id="path53696"
       inkscape:export-filename="/home/bolarinwa/Downloads/path54255.png"
       inkscape:export-xdpi="98.489998"
       inkscape:export-ydpi="98.489998" />
    <path
       d="m 115.32921,173.29358 c 0,0 0.59952,2.12236 4.15296,2.12236 3.55344,0 4.02537,-2.17644 4.02537,-2.17644 l -2.01742,-0.84867 -5.2688,0.49113 -0.89211,0.41162"
       style="fill:#feffff;fill-opacity:1;fill-rule:nonzero;stroke:none;stroke-width:0.0231118"
       id="path51897"
       inkscape:export-filename="/home/bolarinwa/Downloads/path54255.png"
       inkscape:export-xdpi="98.489998"
       inkscape:export-ydpi="98.489998" />
    <path
       d="m 116.08773,172.93604 c 0,0 0.62333,1.58848 3.41362,1.61321 2.17644,0.0192 3.04313,-1.69479 3.04313,-1.69479 l -2.17644,-1.07863 -2.23398,0.0386 -2.04633,1.12162"
       style="fill:#f89a74;fill-opacity:1;fill-rule:nonzero;stroke:none;stroke-width:0.0231118"
       id="path51899"
       inkscape:export-filename="/home/bolarinwa/Downloads/path54255.png"
       inkscape:export-xdpi="98.489998"
       inkscape:export-ydpi="98.489998" />
    <path
       d="m 102.95584,172.75723 c 0,0 -2.87095,-0.36387 -3.11383,-4.4077 l -2.057237,1.8968 c -0.433056,0.39919 -0.605572,1.00801 -0.446009,1.57501 l 0.916749,3.2575 c 0.157796,0.56082 0.837257,0.77867 1.291517,0.41391 l 3.40881,-2.73552"
       style="fill:#6966a3;fill-opacity:1;fill-rule:nonzero;stroke:none;stroke-width:0.0294396"
       id="path53692"
       inkscape:export-filename="/home/bolarinwa/Downloads/path54255.png"
       inkscape:export-xdpi="98.489998"
       inkscape:export-ydpi="98.489998" />
    <path
       d="m 101.36345,160.31959 c -1.1823,-0.22846 -2.28304,0.0477 -2.40345,0.64148 -0.120403,0.5941 0.78486,1.28122 1.96745,1.50967 1.18229,0.22815 2.45791,-0.0215 2.57831,-0.61558 0.12071,-0.59381 -0.95972,-1.30713 -2.14231,-1.53557"
       style="fill:#ffffff;fill-opacity:1;fill-rule:nonzero;stroke:none;stroke-width:0.0294396"
       id="path54255"
       inkscape:export-filename="/home/bolarinwa/Downloads/path54255.png"
       inkscape:export-xdpi="98.489998"
       inkscape:export-ydpi="98.489998" />
    <path
       d="m 101.36345,160.31959 c -1.1823,-0.22846 -2.28304,0.0477 -2.40345,0.64148 -0.120403,0.5941 0.78486,1.28122 1.96745,1.50967 1.18229,0.22815 2.45791,-0.0215 2.57831,-0.61558 0.12071,-0.59381 -0.95972,-1.30713 -2.14231,-1.53557 z"
       style="fill:none;stroke:#0e0f0e;stroke-width:0.275851;stroke-linecap:round;stroke-linejoin:round;stroke-miterlimit:10;stroke-dasharray:none;stroke-opacity:1"
       id="path54257"
       inkscape:export-filename="/home/bolarinwa/Downloads/path54255.png"
       inkscape:export-xdpi="98.489998"
       inkscape:export-ydpi="98.489998" />
    <path
       d="m 102.82071,161.13448 -0.25053,1.04039 c 0,0 -1.57855,0.68034 -3.19567,-0.57849 l 0.17016,-1.25207 c 0,0 0.87141,1.38926 3.27604,0.79017"
       style="fill:#ffffff;fill-opacity:1;fill-rule:nonzero;stroke:none;stroke-width:0.0294396"
       id="path54263"
       inkscape:export-filename="/home/bolarinwa/Downloads/path54255.png"
       inkscape:export-xdpi="98.489998"
       inkscape:export-ydpi="98.489998" />
    <path
       d="m 102.82071,161.13448 -0.25053,1.04039 c 0,0 -1.57855,0.68034 -3.19567,-0.57849 l 0.17016,-1.25207 c 0,0 0.87141,1.38926 3.27604,0.79017 z"
       style="fill:none;stroke:#0e0f0e;stroke-width:0.275851;stroke-linecap:round;stroke-linejoin:round;stroke-miterlimit:10;stroke-dasharray:none;stroke-opacity:1"
       id="path54265"
       inkscape:export-filename="/home/bolarinwa/Downloads/path54255.png"
       inkscape:export-xdpi="98.489998"
       inkscape:export-ydpi="98.489998" />
    <path
       d="m 103.98769,159.1005 c -0.66592,0.50371 -1.23676,-0.0159 -1.03921,-0.4048 0.15337,-0.30235 0.40449,-0.53345 0.68682,-0.70773"
       style="fill:none;stroke:#0e0f0e;stroke-width:0.275851;stroke-linecap:round;stroke-linejoin:miter;stroke-miterlimit:10;stroke-dasharray:none;stroke-opacity:1"
       id="path54267"
       inkscape:export-filename="/home/bolarinwa/Downloads/path54255.png"
       inkscape:export-xdpi="98.489998"
       inkscape:export-ydpi="98.489998" />
    <path
       d="m 102.8943,158.71189 c -0.24817,0.17576 -0.69359,-0.0427 -0.81988,-0.26407 -0.0807,-0.14161 -0.0315,-0.32178 0.0607,-0.46721 0.18047,-0.28557 0.61029,-0.72922 0.90115,-0.89143"
       style="fill:none;stroke:#0e0f0e;stroke-width:0.275851;stroke-linecap:round;stroke-linejoin:miter;stroke-miterlimit:10;stroke-dasharray:none;stroke-opacity:1"
       id="path54269"
       inkscape:export-filename="/home/bolarinwa/Downloads/path54255.png"
       inkscape:export-xdpi="98.489998"
       inkscape:export-ydpi="98.489998" />
    <path
       d="m 99.8585,157.54579 c 0.14131,-0.77779 1.10869,-1.68542 1.97451,-1.27091 0.49046,0.23493 1.26884,0.25318 1.18936,0.53639 -0.16574,0.5885 -1.01184,0.45955 -1.40633,0.36476 -0.10686,-0.0259 -0.252,0.36564 -0.27202,0.58996 0,0 0.33502,0.41069 0.22286,1.47287"
       style="fill:none;stroke:#0e0f0e;stroke-width:0.275851;stroke-linecap:round;stroke-linejoin:miter;stroke-miterlimit:10;stroke-dasharray:none;stroke-opacity:1"
       id="path54271"
       inkscape:export-filename="/home/bolarinwa/Downloads/path54255.png"
       inkscape:export-xdpi="98.489998"
       inkscape:export-ydpi="98.489998" />
    <path
       d="m 101.61604,157.17603 c -0.11275,-0.0736 -0.22403,-0.009 -0.27202,0.0713 -0.0441,0.0854 -0.0412,0.19429 0.0657,0.26937 0.0597,-0.0318 0.0933,-0.0559 0.11953,-0.0769 0.0274,-0.0203 0.042,-0.038 0.0545,-0.0565 0.0218,-0.04 0.015,-0.0804 0.0324,-0.20725"
       style="fill:#0e0f0e;fill-opacity:1;fill-rule:nonzero;stroke:none;stroke-width:0.0294396"
       id="path54273"
       inkscape:export-filename="/home/bolarinwa/Downloads/path54255.png"
       inkscape:export-xdpi="98.489998"
       inkscape:export-ydpi="98.489998" />
    <path
       d="m 101.50506,157.49456 c 0,0 0.0754,0.32943 0.53109,0.40656"
       style="fill:none;stroke:#0e0f0e;stroke-width:0.275851;stroke-linecap:round;stroke-linejoin:miter;stroke-miterlimit:10;stroke-dasharray:none;stroke-opacity:1"
       id="path54275"
       inkscape:export-filename="/home/bolarinwa/Downloads/path54255.png"
       inkscape:export-xdpi="98.489998"
       inkscape:export-ydpi="98.489998" />
    <path
       d="m 95.839994,156.49421 c -0.07448,2.1226 0.157796,4.70268 0.809294,6.7296 0.634718,1.97421 2.404332,3.2728 4.955862,3.46268 0.9562,0.0709 0.63943,0.40892 1.61918,0.47427 1.45667,0.0969 1.20319,-0.47338 2.64956,-0.61676 1.91357,-0.18958 3.32991,-0.87082 3.97434,-2.41876 0.51137,-1.22851 0.68005,-3.06171 0.90026,-4.35264 0.27733,-1.62565 0.1316,-3.29076 -0.21432,-4.89522 -0.34591,-1.60445 -0.64943,-3.14797 -2.11965,-4.11123 -2.19736,-1.4393 -9.765695,0.87701 -9.765695,0.87701 0,0 -2.612763,-0.736 -2.808831,4.85105"
       style="fill:#422319;fill-opacity:1;fill-rule:nonzero;stroke:none;stroke-width:0.0294396"
       id="path52518"
       inkscape:export-filename="/home/bolarinwa/Downloads/path54255.png"
       inkscape:export-xdpi="98.489998"
       inkscape:export-ydpi="98.489998" />
    <path
       d="m 100.4729,166.61583 5.81785,-0.84167 -0.0862,1.34921 c -0.23552,2.13437 -4.79041,2.55154 -5.7525,0.1104 l 0.0209,-0.61794"
       style="fill:#ea765d;fill-opacity:1;fill-rule:nonzero;stroke:none;stroke-width:0.0294396"
       id="path52740"
       inkscape:export-filename="/home/bolarinwa/Downloads/path54255.png"
       inkscape:export-xdpi="98.489998"
       inkscape:export-ydpi="98.489998" />
    <path
       d="m 103.54227,167.92001 h -0.10569 c -3.2039,0 -5.8255,-2.6216 -5.8255,-5.8258 v -4.51957 c 0,-3.2042 2.6216,-5.8258 5.8255,-5.8258 h 0.10569 c 3.20421,0 5.8258,2.6216 5.8258,5.8258 v 4.51957 c 0,3.2042 -2.62159,5.8258 -5.8258,5.8258"
       style="fill:#f89a74;fill-opacity:1;fill-rule:nonzero;stroke:none;stroke-width:0.0294396"
       id="path52742"
       inkscape:export-filename="/home/bolarinwa/Downloads/path54255.png"
       inkscape:export-xdpi="98.489998"
       inkscape:export-ydpi="98.489998" />
    <path
       d="m 111.27605,161.78097 c -0.36034,1.01361 -1.2815,1.61182 -2.05724,1.33597 -0.77573,-0.27585 -1.11252,-1.32125 -0.75218,-2.33485 0.36063,-1.01361 1.2815,-1.61153 2.05724,-1.33568 0.77602,0.27585 1.11252,1.32125 0.75218,2.33456"
       style="fill:#f89a74;fill-opacity:1;fill-rule:nonzero;stroke:none;stroke-width:0.0294396"
       id="path52744"
       inkscape:export-filename="/home/bolarinwa/Downloads/path54255.png"
       inkscape:export-xdpi="98.489998"
       inkscape:export-ydpi="98.489998" />
    <path
       d="m 95.513215,161.78097 c 0.360635,1.01361 1.281506,1.61182 2.057238,1.33597 0.776028,-0.27585 1.112522,-1.32125 0.752182,-2.33485 -0.360341,-1.01361 -1.281505,-1.61153 -2.057239,-1.33568 -0.775733,0.27585 -1.112522,1.32125 -0.752181,2.33456"
       style="fill:#f89a74;fill-opacity:1;fill-rule:nonzero;stroke:none;stroke-width:0.0294396"
       id="path52746"
       inkscape:export-filename="/home/bolarinwa/Downloads/path54255.png"
       inkscape:export-xdpi="98.489998"
       inkscape:export-ydpi="98.489998" />
    <path
       d="m 108.04653,162.67741 h -0.66033 c -0.26555,0 -0.4828,-0.21727 -0.4828,-0.48281 0,-0.26584 0.21725,-0.4831 0.4828,-0.4831 h 0.66033 c 0.26554,0 0.48281,0.21726 0.48281,0.4831 0,0.26554 -0.21727,0.48281 -0.48281,0.48281"
       style="fill:#ea765d;fill-opacity:1;fill-rule:nonzero;stroke:none;stroke-width:0.0294396"
       id="path52748"
       inkscape:export-filename="/home/bolarinwa/Downloads/path54255.png"
       inkscape:export-xdpi="98.489998"
       inkscape:export-ydpi="98.489998" />
    <path
       d="m 99.43545,162.67741 h -0.660328 c -0.265546,0 -0.48281,-0.21727 -0.48281,-0.48281 0,-0.26584 0.217264,-0.4831 0.48281,-0.4831 h 0.660328 c 0.26555,0 0.48281,0.21726 0.48281,0.4831 0,0.26554 -0.21726,0.48281 -0.48281,0.48281"
       style="fill:#ea765d;fill-opacity:1;fill-rule:nonzero;stroke:none;stroke-width:0.0294396"
       id="path52750"
       inkscape:export-filename="/home/bolarinwa/Downloads/path54255.png"
       inkscape:export-xdpi="98.489998"
       inkscape:export-ydpi="98.489998" />
    <path
       d="m 105.49324,160.31959 c -3e-4,0.54787 0.31677,0.99241 0.70831,0.99241 0.39155,2.9e-4 0.7092,-0.44366 0.7095,-0.99182 2.9e-4,-0.54787 -0.31706,-0.99241 -0.70862,-0.99241 -0.39125,-3e-4 -0.7089,0.44395 -0.70919,0.99182"
       style="fill:#422319;fill-opacity:1;fill-rule:nonzero;stroke:none;stroke-width:0.0294396"
       id="path52752"
       inkscape:export-filename="/home/bolarinwa/Downloads/path54255.png"
       inkscape:export-xdpi="98.489998"
       inkscape:export-ydpi="98.489998" />
    <path
       d="m 107.56696,158.77107 c -0.60763,-0.13484 -1.18965,-0.18723 -1.80023,-0.1575 -0.25436,0.0123 -0.46249,-0.20108 -0.45219,-0.45573 l 3e-4,-0.003 c 0.009,-0.21727 0.17634,-0.39714 0.39272,-0.41863 0.71185,-0.0715 1.40692,-0.0112 2.08461,0.18546 0.2102,0.0607 0.34179,0.26997 0.30941,0.48606 l -3e-4,0.002 c -0.038,0.25377 -0.28409,0.41687 -0.53432,0.36122"
       style="fill:#5d301f;fill-opacity:1;fill-rule:nonzero;stroke:none;stroke-width:0.0294396"
       id="path52754"
       inkscape:export-filename="/home/bolarinwa/Downloads/path54255.png"
       inkscape:export-xdpi="98.489998"
       inkscape:export-ydpi="98.489998" />
    <path
       d="m 101.36345,160.31959 c 2.9e-4,0.54787 -0.31706,0.99241 -0.70861,0.99241 -0.39155,2.9e-4 -0.70891,-0.44366 -0.7092,-0.99182 -2.9e-4,-0.54787 0.31677,-0.99241 0.70832,-0.99241 0.39154,-3e-4 0.7092,0.44395 0.70949,0.99182"
       style="fill:#422319;fill-opacity:1;fill-rule:nonzero;stroke:none;stroke-width:0.0294396"
       id="path52756"
       inkscape:export-filename="/home/bolarinwa/Downloads/path54255.png"
       inkscape:export-xdpi="98.489998"
       inkscape:export-ydpi="98.489998" />
    <path
       d="m 99.30798,158.77107 c 0.60763,-0.13484 1.18965,-0.18723 1.80023,-0.1575 0.25436,0.0123 0.4625,-0.20108 0.45219,-0.45573 l -2.9e-4,-0.003 c -0.009,-0.21727 -0.17635,-0.39714 -0.39302,-0.41863 -0.71156,-0.0715 -1.40663,-0.0112 -2.08462,0.18546 -0.209904,0.0607 -0.341498,0.26997 -0.309115,0.48606 l 2.94e-4,0.002 c 0.03798,0.25377 0.284091,0.41687 0.534331,0.36122"
       style="fill:#5d301f;fill-opacity:1;fill-rule:nonzero;stroke:none;stroke-width:0.0294396"
       id="path52758"
       inkscape:export-filename="/home/bolarinwa/Downloads/path54255.png"
       inkscape:export-xdpi="98.489998"
       inkscape:export-ydpi="98.489998" />
    <path
       d="m 105.12465,155.94281 -4.47423,-0.23405 c -1.21261,-0.0636 -2.171755,-1.18376 -2.183531,-2.55065 l -0.0012,-0.126 c -0.01443,-1.67334 1.196131,-3.05053 2.703731,-3.07584 l 9.22872,-0.15574 0.003,0.36005 c 0.025,2.89038 -0.8982,5.70774 -5.27645,5.78223"
       style="fill:#422319;fill-opacity:1;fill-rule:nonzero;stroke:none;stroke-width:0.0294396"
       id="path53650"
       inkscape:export-filename="/home/bolarinwa/Downloads/path54255.png"
       inkscape:export-xdpi="98.489998"
       inkscape:export-ydpi="98.489998" />
    <path
       d="m 108.3895,163.10193 c -0.85993,-0.004 -1.75872,-0.0927 -2.558,-0.37948 -0.71568,-0.25672 -1.47817,-0.3574 -2.23859,-0.35828 l -0.60793,-5.9e-4 c -0.70743,-5.9e-4 -1.41634,0.0907 -2.0855,0.32059 -0.77661,0.26702 -1.67482,0.37448 -2.51355,0.37036 l -0.76749,-0.003 c 0,0 1.048932,5.26232 5.75927,5.04153 4.71033,-0.2208 5.66712,-3.90075 5.88791,-4.98618 l -0.87612,-0.004"
       style="fill:#b86544;fill-opacity:1;fill-rule:nonzero;stroke:none;stroke-width:0.0294396"
       id="path53656"
       inkscape:export-filename="/home/bolarinwa/Downloads/path54255.png"
       inkscape:export-xdpi="98.489998"
       inkscape:export-ydpi="98.489998" />
    <path
       d="m 101.66668,163.28033 h 3.49036 c 0.31883,0 0.5302,0.32708 0.40273,0.61941 -0.28174,0.6459 -0.90173,1.5653 -2.14791,1.5653 -1.24618,0 -1.86618,-0.9194 -2.14821,-1.5653 -0.12747,-0.29233 0.0842,-0.61941 0.40303,-0.61941"
       style="fill:#fbf9f4;fill-opacity:1;fill-rule:nonzero;stroke:none;stroke-width:0.0294396"
       id="path53662"
       inkscape:export-filename="/home/bolarinwa/Downloads/path54255.png"
       inkscape:export-xdpi="98.489998"
       inkscape:export-ydpi="98.489998" />
    <path
       d="m 98.501627,163.43753 -0.901439,-0.38653 -0.202545,-3.36701 c 0.376532,0.0883 0.659152,0.40067 0.710083,0.78427 l 0.393901,2.96927"
       style="fill:#b86544;fill-opacity:1;fill-rule:nonzero;stroke:none;stroke-width:0.0294396"
       id="path53664"
       inkscape:export-filename="/home/bolarinwa/Downloads/path54255.png"
       inkscape:export-xdpi="98.489998"
       inkscape:export-ydpi="98.489998" />
    <path
       d="m 108.40069,163.43753 0.90173,-0.38653 0.20226,-3.36701 c -0.37654,0.0883 -0.65916,0.40067 -0.71009,0.78427 l -0.3939,2.96927"
       style="fill:#b86544;fill-opacity:1;fill-rule:nonzero;stroke:none;stroke-width:0.0294396"
       id="path53666"
       inkscape:export-filename="/home/bolarinwa/Downloads/path54255.png"
       inkscape:export-xdpi="98.489998"
       inkscape:export-ydpi="98.489998" />
  </g>
</svg>
