<?xml version="1.0" encoding="UTF-8" standalone="no"?>
<!-- Created with Inkscape (http://www.inkscape.org/) -->

<svg
   width="23.936579mm"
   height="34.154808mm"
   viewBox="0 0 23.936579 34.154808"
   version="1.1"
   id="svg3128"
   inkscape:version="1.1.1 (eb90963e84, 2021-10-02)"
   sodipodi:docname="damilola.svg"
   xmlns:inkscape="http://www.inkscape.org/namespaces/inkscape"
   xmlns:sodipodi="http://sodipodi.sourceforge.net/DTD/sodipodi-0.dtd"
   xmlns="http://www.w3.org/2000/svg"
   xmlns:svg="http://www.w3.org/2000/svg">
  <sodipodi:namedview
     id="namedview3130"
     pagecolor="#ffffff"
     bordercolor="#666666"
     borderopacity="1.0"
     inkscape:pageshadow="2"
     inkscape:pageopacity="0.0"
     inkscape:pagecheckerboard="0"
     inkscape:document-units="mm"
     showgrid="false"
     inkscape:zoom="4.4400112"
     inkscape:cx="4.2792685"
     inkscape:cy="73.198013"
     inkscape:window-width="1920"
     inkscape:window-height="1013"
     inkscape:window-x="0"
     inkscape:window-y="30"
     inkscape:window-maximized="1"
     inkscape:current-layer="layer1"
     fit-margin-top="0"
     fit-margin-left="0"
     fit-margin-right="0"
     fit-margin-bottom="0" />
  <defs
     id="defs3125">
    <clipPath
       clipPathUnits="userSpaceOnUse"
       id="clipPath1010-6">
      <path
         d="m 2838.57,4724.66 v -47.01 h 117.56 v 47.01 z"
         id="path1008-2" />
    </clipPath>
    <linearGradient
       x1="0"
       y1="0"
       x2="1"
       y2="0"
       gradientUnits="userSpaceOnUse"
       gradientTransform="matrix(117.559,0,0,-117.559,2838.57,4701.15)"
       spreadMethod="pad"
       id="linearGradient1020">
      <stop
         style="stop-opacity:1;stop-color:#ffffff"
         offset="0"
         id="stop1012" />
      <stop
         style="stop-opacity:1;stop-color:#ffffff"
         offset="0.0077524"
         id="stop1014" />
      <stop
         style="stop-opacity:1;stop-color:#c0c3bf"
         offset="0.788782"
         id="stop1016" />
      <stop
         style="stop-opacity:1;stop-color:#c0c3bf"
         offset="1"
         id="stop1018" />
    </linearGradient>
    <clipPath
       clipPathUnits="userSpaceOnUse"
       id="clipPath1052-0">
      <path
         d="m 3028.57,4724.66 v -47.01 h 117.55 v 47.01 z"
         id="path1050-9" />
    </clipPath>
    <linearGradient
       x1="0"
       y1="0"
       x2="1"
       y2="0"
       gradientUnits="userSpaceOnUse"
       gradientTransform="matrix(117.559,0,0,-117.559,3028.57,4701.15)"
       spreadMethod="pad"
       id="linearGradient1062">
      <stop
         style="stop-opacity:1;stop-color:#ffffff"
         offset="0"
         id="stop1054" />
      <stop
         style="stop-opacity:1;stop-color:#ffffff"
         offset="0.0077524"
         id="stop1056" />
      <stop
         style="stop-opacity:1;stop-color:#c0c3bf"
         offset="0.788782"
         id="stop1058" />
      <stop
         style="stop-opacity:1;stop-color:#c0c3bf"
         offset="1"
         id="stop1060" />
    </linearGradient>
  </defs>
  <g
     inkscape:label="Layer 1"
     inkscape:groupmode="layer"
     id="layer1"
     transform="translate(-146.30458,-188.86802)">
    <g
       id="g1004"
       transform="matrix(0.03527778,0,0,-0.03527778,51.488253,373.76583)"
       inkscape:export-filename="/home/bolarinwa/Downloads/case1-title.png"
       inkscape:export-xdpi="98.489998"
       inkscape:export-ydpi="98.489998">
      <g
         id="g1006"
         clip-path="url(#clipPath1010-6)">
        <path
           d="m 2838.57,4724.66 v -47.01 h 117.56 v 47.01 h -117.56"
           style="fill:url(#linearGradient1020);fill-opacity:1;fill-rule:nonzero;stroke:none"
           id="path1022" />
      </g>
    </g>
    <g
       id="g1046"
       transform="matrix(0.03527778,0,0,-0.03527778,51.488253,373.76583)"
       inkscape:export-filename="/home/bolarinwa/Downloads/case1-title.png"
       inkscape:export-xdpi="98.489998"
       inkscape:export-ydpi="98.489998">
      <g
         id="g1048"
         clip-path="url(#clipPath1052-0)">
        <path
           d="m 3028.57,4724.66 v -47.01 h 117.55 v 47.01 h -117.55"
           style="fill:url(#linearGradient1062);fill-opacity:1;fill-rule:nonzero;stroke:none"
           id="path1064" />
      </g>
    </g>
    <path
       d="m 157.79784,211.65985 c -4.10492,0.50412 -3.54577,1.56845 -6.77086,5.90057 0.76059,0.46637 8.31568,-1.05975 11.03489,5.46241 -0.10195,-2.81376 2.23485,-6.1214 5.576,-5.81519 -2.5534,-2.72839 -6.30449,-6.11646 -9.84003,-5.54779"
       style="fill:#7ab6c5;fill-opacity:1;fill-rule:nonzero;stroke:none;stroke-width:0.0352778"
       id="path5940"
       inkscape:export-filename="/home/bolarinwa/Downloads/case1-title.png"
       inkscape:export-xdpi="98.489998"
       inkscape:export-ydpi="98.489998" />
    <path
       d="m 158.59688,189.91922 c 0.15276,-0.22437 0.24201,-0.33056 0.49954,-0.0984 -0.14958,0.0162 -0.31574,0.0483 -0.49954,0.0984 z m -3.57575,0.17356 c 0.32773,-0.25153 0.67557,-0.38241 0.99272,-0.23389 0.078,0.0367 0.14428,0.09 0.20637,0.14993 -0.39229,-0.0406 -0.79445,-0.008 -1.19909,0.084 z m -3.66148,2.23273 c -0.0296,-1.18709 1.14653,-1.05057 2.03694,-0.46707 -1.15853,-0.0632 -1.74766,0.16721 -2.03694,0.46707 z m -1.5942,1.31304 c -0.004,-0.0183 -0.0102,-0.0363 -0.0141,-0.0547 -0.0222,-0.10124 0.01,-0.19649 -0.0279,-0.18097 0.1644,-0.11536 0.4184,-0.0325 0.67028,0.054 -0.22754,0.0318 -0.43956,0.0885 -0.62829,0.18168 z m -2.18088,5.0987 c -0.007,0.036 -0.008,0.073 -0.006,0.11113 -0.0279,0.006 -0.0564,0.012 -0.0833,0.0198 -0.17956,0.0311 -0.34784,0.0864 -0.49918,0.16581 -0.0607,-0.33056 -0.11254,-0.66146 -0.0233,-0.94756 0.004,0.001 0.005,0.001 0.009,0.003 0.0374,0.0127 0.0744,0.0275 0.11148,0.0445 0.0801,0.0388 0.16016,0.0815 0.24024,0.12876 0.13017,0.078 0.26282,0.1651 0.39758,0.23566 -0.0603,0.066 -0.11007,0.14464 -0.14676,0.23918 z m -0.61947,-0.65334 c -0.036,0.0342 -0.0914,-0.0279 0,0 z m 22.49699,1.22202 c 1.24072,-0.22648 0.53551,-1.32115 -0.23777,-1.45733 0.72954,-0.45226 0.54645,-1.89759 -0.68157,-2.51354 0.2794,-0.38523 0.20073,-0.91193 -0.43286,-0.88512 0.0522,-0.71861 -1.12995,-1.16134 -1.76495,-0.9973 -0.12382,0.0208 -0.25082,0.0561 -0.37923,0.0998 -0.0663,-0.14006 -0.12912,-0.28117 -0.19685,-0.38877 -0.17639,-0.27975 -0.46567,-0.41028 -0.74754,-0.49424 -0.24377,-0.073 -0.4893,-0.0938 -0.73025,-0.0741 -0.17074,-0.12453 -0.31573,-0.25188 -0.40005,-0.37324 -0.0568,-0.073 -0.11112,-0.15346 -0.16616,-0.23707 0.0529,-0.002 0.10443,-0.006 0.15452,-0.0159 0.14534,-0.0289 0.26423,-0.0818 0.3877,-0.15734 0.2473,-0.15099 0.32632,-0.28998 0.54504,0.0536 0.2159,0.34008 0.41134,0.74789 0.75918,0.94686 0.21731,0.12488 0.47414,0.03 0.6223,-0.0988 0.11748,-0.1016 0.20461,-0.21802 0.33444,-0.30374 0.22824,-0.14782 0.50517,0.46743 0.57573,0.63041 0.085,0.19121 0.64452,0.18168 0.53904,-0.0603 -0.42368,-1.00718 -1.25518,-1.12819 -1.84256,-0.56762 -0.006,-0.0109 -0.0141,-0.0226 -0.024,-0.0346 -0.096,-0.11854 -0.1771,-0.24765 -0.25718,-0.37818 -0.1464,-0.23777 -0.26599,-0.47343 -0.48013,-0.65299 -0.34537,-0.29034 -0.80716,-0.0677 -1.07738,0.13864 -0.54328,0.41628 -0.73131,-0.45473 -0.98672,-0.85443 -0.18133,-0.28116 -0.48084,-0.39405 -0.77188,-0.45896 -0.54786,-0.12348 -1.10067,0.008 -1.59844,0.27693 0.11324,-0.0974 0.21061,-0.22754 0.27729,-0.35454 0.10936,-0.20955 0.18062,-0.42087 0.30868,-0.62019 0.22472,-0.35031 0.68756,0.30868 0.80786,0.49283 0.14252,0.21343 0.77999,-0.15945 0.60148,-0.43462 -0.72672,-1.13594 -1.7025,-0.69074 -2.23802,0.40393 -0.0102,-0.0106 -0.0215,-0.0208 -0.0353,-0.0307 -0.13723,-0.0974 -0.2607,-0.2159 -0.38241,-0.3362 -0.22295,-0.21837 -0.41486,-0.44626 -0.70097,-0.53904 -0.46037,-0.14852 -0.93027,0.42086 -1.18568,0.8322 -0.51471,0.82797 -0.93204,-0.13617 -1.3141,-0.45156 -0.27093,-0.22542 -0.63394,-0.17744 -0.97437,-0.0836 -0.43251,0.11924 -1.65841,0.62018 -2.16923,1.82774 -0.21978,-0.12771 -0.45473,-0.23037 -0.70485,-0.30127 -0.60784,-0.17322 -1.01353,-0.003 -1.44604,0.30162 -0.248,0.17392 -0.40957,0.46249 -0.49565,0.77505 -0.0399,0.14217 -0.0487,0.2921 -0.0582,0.44733 -0.001,0.11288 0.005,0.22789 0.0201,0.34431 0.005,0.0522 0.01,0.10477 0.0148,0.15734 -0.001,0.0123 -0.002,0.0215 -0.003,0.0324 -0.19332,-0.006 -0.48754,-0.16827 -0.65334,-0.21061 -0.24307,-0.0621 -0.47696,-0.0148 -0.6477,0.13265 -0.28964,0.25012 -0.35137,0.67804 -0.28187,1.12571 -0.0508,0.0579 -0.0984,0.1203 -0.14112,0.19015 -0.16898,0.33267 -0.22048,0.72037 -0.23777,1.10455 -0.34396,-0.13018 -0.69321,-0.29493 -0.97649,-0.11889 -0.48648,0.30797 -0.27481,1.22943 -0.17356,1.83374 0.0332,0.19508 0.18944,0.0843 0.23706,0.0141 0.0893,-0.13264 0.13124,-0.32032 0.0981,-0.5147 -0.0272,-0.16334 -0.0533,-0.32703 -0.0766,-0.49178 -0.0332,-0.23495 -0.0699,-0.20355 0.15558,-0.18661 0.23565,0.019 0.48154,0.127 0.72566,0.20496 -0.001,0.17427 -0.005,0.34219 -0.0198,0.49495 -0.22825,0.0169 -0.4318,0.11712 -0.48684,0.37782 -0.054,0.25435 0.0441,0.64488 0.0497,0.96132 -0.0762,0.11465 -0.16157,0.21802 -0.25329,0.30868 -0.0727,-0.0339 -0.14429,-0.0688 -0.21449,-0.11006 -0.15028,-0.0882 -0.29845,-0.18698 -0.44803,-0.26706 -0.28539,-0.15346 -0.56973,-0.2293 -0.81315,-0.0578 -0.28116,0.19791 -0.37183,0.64523 -0.31715,1.11477 0.0233,0.19862 0.0631,0.39935 0.097,0.59902 -0.47519,0.57115 -0.0882,0.86254 0.0173,0.86748 -0.109,0.0893 -0.49212,0.50941 0.20215,0.73801 -1.09644,1.022 -0.0409,2.159 1.02164,2.35585 -0.90911,0.94968 0.18309,1.44851 0.7112,1.20544 -0.36407,2.01154 2.14806,1.90924 2.14771,1.91559 -0.51047,1.1557 0.81703,1.40582 1.3709,0.89112 -0.03,0.91616 1.29998,1.8422 2.51812,1.3208 0.16828,0.50835 0.6597,0.83643 0.99554,0.31185 0.58032,0.57432 1.62525,-0.0381 1.84574,-0.66534 0.0529,-0.1143 0.0949,-0.2413 0.13017,-0.37606 0.15663,0.0512 0.31221,0.10548 0.44168,0.13159 0.22154,0.0441 0.41557,7e-4 0.58843,-0.0797 0.0811,0.0162 0.16299,0.0303 0.24624,0.0388 0.20496,0.0208 0.4124,0.0265 0.61842,0.037 0.0938,0.0935 0.17921,0.16192 0.25859,0.21413 -0.0233,-0.003 -0.0423,-0.005 -0.0692,-0.01 -0.41063,-0.0801 -0.86748,-0.22648 -1.23296,-0.0974 -0.22895,0.0804 -0.29421,0.35525 -0.26881,0.56868 0.0198,0.16898 0.0695,0.32455 0.0681,0.49142 -0.004,0.29139 -0.68227,0.0557 -0.86042,-0.008 -0.21061,-0.0748 -0.51929,0.37818 -0.25435,0.47343 1.09431,0.40957 1.66758,-0.16299 1.52541,-1.04599 0.0127,0.003 0.0268,0.005 0.0427,0.006 0.15487,0.0116 0.31045,0.0427 0.46637,0.0755 0.2847,0.06 0.5521,0.13935 0.82586,0.10196 0.27763,-0.0374 0.40957,-0.26176 0.4639,-0.51471 0.15734,0.1651 0.49142,0.40464 0.69215,-0.11641 1.04775,1.28517 2.56858,0.51823 2.77742,-0.46743 0.97402,1.08796 1.49543,0.13934 1.24778,-0.4251 1.61607,0.61771 1.57515,-0.74542 1.6323,-1.37195 0.0116,-0.0116 0.0229,-0.0229 0.0346,-0.0342 0.9398,0.52211 1.46509,-0.45015 1.11831,-0.98707 1.58291,0.50764 1.99319,-1.13877 1.3088,-1.9484 1.06751,0.0233 0.80786,-1.2005 0.41275,-1.23225 1.53282,-0.80998 -0.13617,-2.47262 -0.13123,-2.47544"
       style="fill:#301b17;fill-opacity:1;fill-rule:nonzero;stroke:none;stroke-width:0.0352778"
       id="path5948"
       inkscape:export-filename="/home/bolarinwa/Downloads/case1-title.png"
       inkscape:export-xdpi="98.489998"
       inkscape:export-ydpi="98.489998" />
    <path
       d="m 156.34757,208.9664 c 0.18027,-2.9898 -0.0512,-8.1788 0.97191,-8.12095 1.10313,0.0621 2.90759,0.16581 4.01073,0.2286 1.02341,0.0586 0.2032,5.18795 0.042,8.17915 -0.16157,3.02296 0.3182,4.96853 1.45485,6.05191 0.30586,1.28235 -0.65475,2.04787 -1.05621,6.14539 -2.70263,-5.88328 -7.05485,-6.5084 -6.22794,-8.43245 0.43568,-1.01388 0.70167,-2.35197 0.80468,-4.05165"
       style="fill:#ab6f56;fill-opacity:1;fill-rule:nonzero;stroke:none;stroke-width:0.0352778"
       id="path5950"
       inkscape:export-filename="/home/bolarinwa/Downloads/case1-title.png"
       inkscape:export-xdpi="98.489998"
       inkscape:export-ydpi="98.489998" />
    <path
       d="m 152.56086,203.3477 c 0.27657,1.14724 0.0487,1.74061 0.59901,1.60797 0.55069,-0.13265 0.77294,-1.17017 0.49636,-2.31775 -0.27622,-1.14759 -0.9465,-1.96992 -1.49719,-1.83762 -0.55033,0.13264 0.12559,1.39982 0.40182,2.5474"
       style="fill:#8b5744;fill-opacity:1;fill-rule:nonzero;stroke:none;stroke-width:0.0352778"
       id="path5954"
       inkscape:export-filename="/home/bolarinwa/Downloads/case1-title.png"
       inkscape:export-xdpi="98.489998"
       inkscape:export-ydpi="98.489998" />
    <path
       d="m 165.20759,200.813 c -0.55316,-0.12101 -1.20615,0.71508 -1.45874,1.86795 -0.25294,1.15288 -0.009,2.18582 0.54434,2.30717 0.5528,0.121 0.31256,-0.46708 0.56515,-1.62031 0.25259,-1.15288 0.9024,-2.43346 0.34925,-2.55481"
       style="fill:#8b5744;fill-opacity:1;fill-rule:nonzero;stroke:none;stroke-width:0.0352778"
       id="path5956"
       inkscape:export-filename="/home/bolarinwa/Downloads/case1-title.png"
       inkscape:export-xdpi="98.489998"
       inkscape:export-ydpi="98.489998" />
    <path
       d="m 156.07982,194.72476 c -1.67005,1.21708 -2.79894,2.55093 -2.71428,9.49289 0.0194,1.59879 0.73978,3.02331 1.8669,3.98957 3.3969,2.91712 3.54436,3.10268 7.08202,-0.0861 1.10278,-0.99307 1.78752,-2.43522 1.76847,-4.03366 -0.0173,-1.42381 -0.0818,-2.68535 -0.18838,-3.80083 -0.64206,-6.74758 -5.26592,-1.74695 -7.81473,-5.56189"
       style="fill:#ab6f56;fill-opacity:1;fill-rule:nonzero;stroke:none;stroke-width:0.0352778"
       id="path5958"
       inkscape:export-filename="/home/bolarinwa/Downloads/case1-title.png"
       inkscape:export-xdpi="98.489998"
       inkscape:export-ydpi="98.489998" />
    <path
       d="m 161.34044,201.6512 c 0.16086,0.31503 0.52423,0.53057 0.95285,0.52281 0.51858,-0.009 0.95815,-0.34184 1.06221,-0.77258 0.14359,-1.24001 -1.78787,0.39723 -2.01506,0.24977"
       style="fill:#382a23;fill-opacity:1;fill-rule:nonzero;stroke:none;stroke-width:0.0352778"
       id="path5960"
       inkscape:export-filename="/home/bolarinwa/Downloads/case1-title.png"
       inkscape:export-xdpi="98.489998"
       inkscape:export-ydpi="98.489998" />
    <path
       d="m 161.4251,200.85392 c -0.67486,0.37571 -1.31833,0.90664 -1.21214,1.3783 0.2099,0.0582 0.42545,0.10407 0.64558,0.13229 1.46826,0.18486 2.37032,-0.41451 2.21827,-1.36454 -0.0166,-0.10584 0.11606,-0.23354 0.0716,-0.33726 -0.49318,-0.28963 -1.0234,-0.19896 -1.72332,0.19121"
       style="fill:#ffffff;fill-opacity:1;fill-rule:nonzero;stroke:none;stroke-width:0.0352778"
       id="path5962"
       inkscape:export-filename="/home/bolarinwa/Downloads/case1-title.png"
       inkscape:export-xdpi="98.489998"
       inkscape:export-ydpi="98.489998" />
    <path
       d="m 161.67663,200.58898 c -0.48506,0.006 -0.87383,0.40393 -0.86783,0.889 0.006,0.48542 0.40393,0.87277 0.88935,0.86748 0.48472,-0.006 0.87383,-0.40393 0.86784,-0.88864 -0.006,-0.48543 -0.40464,-0.87419 -0.88936,-0.86784"
       style="fill:#41231e;fill-opacity:1;fill-rule:nonzero;stroke:none;stroke-width:0.0352778"
       id="path5964"
       inkscape:export-filename="/home/bolarinwa/Downloads/case1-title.png"
       inkscape:export-xdpi="98.489998"
       inkscape:export-ydpi="98.489998" />
    <path
       d="m 161.97685,200.0644 c -0.90558,0.0102 -1.53494,0.65582 -1.58115,1.63971 0.4505,-0.54398 1.27353,-1.04069 3.12808,-0.74612 -0.30727,-0.56762 -0.8449,-0.90241 -1.54693,-0.89359"
       style="fill:#8a4a49;fill-opacity:1;fill-rule:nonzero;stroke:none;stroke-width:0.0352778"
       id="path5966"
       inkscape:export-filename="/home/bolarinwa/Downloads/case1-title.png"
       inkscape:export-xdpi="98.489998"
       inkscape:export-ydpi="98.489998" />
    <path
       d="m 160.22778,202.00221 c 1.51482,-2.06093 3.55459,0.0452 3.53589,-1.59632 -0.18697,0.49107 -3.16865,-0.19579 -3.53589,1.59632"
       style="fill:#382a23;fill-opacity:1;fill-rule:nonzero;stroke:none;stroke-width:0.0352778"
       id="path5968"
       inkscape:export-filename="/home/bolarinwa/Downloads/case1-title.png"
       inkscape:export-xdpi="98.489998"
       inkscape:export-ydpi="98.489998" />
    <path
       d="m 161.85937,198.84979 c 0.90417,-0.0476 1.82422,0.29316 2.5781,0.87983 -0.83185,-0.35596 -1.71626,-0.53764 -2.59221,-0.49178 -0.69109,0.037 -1.3088,0.21308 -1.84291,0.49742 0.42757,-0.514 1.06857,-0.84384 1.85702,-0.88547"
       style="fill:#382a23;fill-opacity:1;fill-rule:nonzero;stroke:none;stroke-width:0.0352778"
       id="path5970"
       inkscape:export-filename="/home/bolarinwa/Downloads/case1-title.png"
       inkscape:export-xdpi="98.489998"
       inkscape:export-ydpi="98.489998" />
    <path
       d="m 154.07463,201.50867 c 0.11535,0.42792 0.56374,0.74719 1.08267,0.7419 0.42863,-0.005 0.78599,-0.23072 0.93733,-0.55104 -0.22331,0.15381 -2.19816,-1.42558 -2.02,-0.19086"
       style="fill:#382a23;fill-opacity:1;fill-rule:nonzero;stroke:none;stroke-width:0.0352778"
       id="path5972"
       inkscape:export-filename="/home/bolarinwa/Downloads/case1-title.png"
       inkscape:export-xdpi="98.489998"
       inkscape:export-ydpi="98.489998" />
    <path
       d="m 155.98809,200.90295 c -0.7112,-0.36971 -1.24424,-0.4452 -1.7279,-0.14252 -0.0427,0.10619 0.0945,0.22895 0.0808,0.33585 -0.12453,0.95426 0.7934,1.52647 2.25566,1.30034 0.21943,-0.0342 0.43427,-0.0864 0.64206,-0.14994 0.0924,-0.47519 -0.5655,-0.98707 -1.2506,-1.34373"
       style="fill:#ffffff;fill-opacity:1;fill-rule:nonzero;stroke:none;stroke-width:0.0352778"
       id="path5974"
       inkscape:export-filename="/home/bolarinwa/Downloads/case1-title.png"
       inkscape:export-xdpi="98.489998"
       inkscape:export-ydpi="98.489998" />
    <path
       d="m 155.72668,200.64578 c -0.48471,0.008 -0.87171,0.40746 -0.86395,0.89182 0.007,0.48507 0.40746,0.87242 0.89253,0.86431 0.48507,-0.007 0.87207,-0.40676 0.86395,-0.89253 -0.007,-0.48507 -0.40746,-0.87171 -0.89253,-0.8636"
       style="fill:#41231e;fill-opacity:1;fill-rule:nonzero;stroke:none;stroke-width:0.0352778"
       id="path5976"
       inkscape:export-filename="/home/bolarinwa/Downloads/case1-title.png"
       inkscape:export-xdpi="98.489998"
       inkscape:export-ydpi="98.489998" />
    <path
       d="m 155.41342,200.12967 c -0.70132,0.0113 -1.22837,0.36124 -1.52047,0.93662 1.84538,-0.34572 2.68146,0.12735 3.14854,0.65723 -0.0755,-0.98179 -0.72214,-1.60902 -1.62807,-1.59385"
       style="fill:#8a4a49;fill-opacity:1;fill-rule:nonzero;stroke:none;stroke-width:0.0352778"
       id="path5978"
       inkscape:export-filename="/home/bolarinwa/Downloads/case1-title.png"
       inkscape:export-xdpi="98.489998"
       inkscape:export-ydpi="98.489998" />
    <path
       d="m 153.6273,200.53113 c 0.0275,1.60619 2.044,-0.49636 3.59058,1.48625 -0.4184,-1.78082 -3.38949,-1.00118 -3.59058,-1.48625"
       style="fill:#382a23;fill-opacity:1;fill-rule:nonzero;stroke:none;stroke-width:0.0352778"
       id="path5980"
       inkscape:export-filename="/home/bolarinwa/Downloads/case1-title.png"
       inkscape:export-xdpi="98.489998"
       inkscape:export-ydpi="98.489998" />
    <path
       d="m 155.13331,198.91717 c 0.78634,0.0416 1.49049,0.37641 2.02248,0.89676 -0.58773,-0.28787 -1.23649,-0.46602 -1.92476,-0.50341 -0.87418,-0.0459 -1.7078,0.13934 -2.45075,0.49918 0.61666,-0.59443 1.45169,-0.94086 2.35303,-0.89253"
       style="fill:#382a23;fill-opacity:1;fill-rule:nonzero;stroke:none;stroke-width:0.0352778"
       id="path5982"
       inkscape:export-filename="/home/bolarinwa/Downloads/case1-title.png"
       inkscape:export-xdpi="98.489998"
       inkscape:export-ydpi="98.489998" />
    <path
       d="m 158.75317,206.6804 2.47191,-0.0473 c -0.43956,0.41064 -1.15323,1.778 -2.51037,1.79176 -1.35608,0.0141 -2.0387,-1.32433 -2.401,-1.74096 l 2.43946,-0.004"
       style="fill:#b73d5a;fill-opacity:1;fill-rule:nonzero;stroke:none;stroke-width:0.0352778"
       id="path5984"
       inkscape:export-filename="/home/bolarinwa/Downloads/case1-title.png"
       inkscape:export-xdpi="98.489998"
       inkscape:export-ydpi="98.489998" />
    <path
       d="m 158.75352,206.36395 c -0.55633,-0.56338 -1.7272,0.3101 -2.43981,0.31997 0.67063,0.20814 1.51588,0.39758 2.37349,0.38877 0.83749,-0.009 1.84185,-0.22543 2.53788,-0.43957 -0.90417,-0.004 -2.09268,-0.77752 -2.47156,-0.26917"
       style="fill:#962846;fill-opacity:1;fill-rule:nonzero;stroke:none;stroke-width:0.0352778"
       id="path5986"
       inkscape:export-filename="/home/bolarinwa/Downloads/case1-title.png"
       inkscape:export-xdpi="98.489998"
       inkscape:export-ydpi="98.489998" />
    <path
       d="m 158.74893,206.85326 1.72085,-0.0476 c -0.8897,0.77894 -2.57775,0.94615 -3.40748,0.0526 l 1.68663,-0.005"
       style="fill:#ffffff;fill-opacity:1;fill-rule:nonzero;stroke:none;stroke-width:0.0352778"
       id="path5988"
       inkscape:export-filename="/home/bolarinwa/Downloads/case1-title.png"
       inkscape:export-xdpi="98.489998"
       inkscape:export-ydpi="98.489998" />
    <path
       d="m 159.02445,205.17721 c 0.28399,0.36019 0.59055,0.28328 0.57503,0.11077 -0.0233,-0.26846 -0.31538,-0.078 -0.57503,-0.11077 z m -0.62018,-0.0109 c -0.31539,0.33338 -0.61348,0.22896 -0.5835,0.0579 0.048,-0.26529 0.32138,-0.0483 0.5835,-0.0579"
       style="fill:#8b5744;fill-opacity:1;fill-rule:nonzero;stroke:none;stroke-width:0.0352778"
       id="path5990"
       inkscape:export-filename="/home/bolarinwa/Downloads/case1-title.png"
       inkscape:export-xdpi="98.489998"
       inkscape:export-ydpi="98.489998" />
    <path
       d="m 161.85549,203.64122 c -1.00294,0 -1.84644,-0.68651 -2.09091,-1.61361 -0.0127,-0.10583 -0.0318,-0.20426 -0.0572,-0.29351 -0.0102,-0.0847 -0.0166,-0.17039 -0.0166,-0.25753 0,-0.64135 1.59773,-1.15746 2.92065,-1.15746 0.43039,0 0.79092,0.0547 1.04351,0.15804 0.24236,0.0991 0.36513,0.23495 0.36513,0.40428 0,1.24214 -0.13794,2.75979 -2.16465,2.75979 z m -4.11868,-1.90677 c -0.0258,0.0893 -0.0444,0.18733 -0.0572,0.29316 -0.24447,0.9271 -1.08796,1.61361 -2.09091,1.61361 -2.02671,0 -2.16465,-1.51765 -2.16465,-2.75979 0,-0.16933 0.12277,-0.30515 0.36513,-0.40428 0.25259,-0.10336 0.61313,-0.15804 1.04352,-0.15804 1.32291,0 2.921,0.51611 2.921,1.15746 0,0.0875 -0.007,0.17286 -0.0169,0.25788 z m 6.28862,-1.82492 c -0.31221,-0.1277 -0.74542,-0.19544 -1.25413,-0.19544 -1.03998,0 -2.41476,0.29951 -3.08504,0.85478 -0.74436,0.61736 -1.18357,0.61736 -1.92828,0 -0.67028,-0.55527 -2.04505,-0.85478 -3.08504,-0.85478 -0.50836,0 -0.94227,0.0677 -1.25413,0.19544 -0.49318,0.20179 -0.5969,0.51259 -0.5969,0.73766 0,1.50213 0.33055,3.31682 2.67124,3.31682 1.09467,0 2.03658,-0.66252 2.44898,-1.60691 0.0699,-0.018 0.12206,-0.078 0.12206,-0.15345 0,-0.0885 0.006,-0.1711 0.0141,-0.24942 0.13335,-0.51999 1.15041,-0.54716 1.28411,-0.013 0.01,0.0811 0.0176,0.1651 0.0176,0.26247 0,0.0755 0.0522,0.13546 0.12242,0.15345 0.41204,0.94439 1.35396,1.60691 2.44863,1.60691 2.34068,0 2.67123,-1.81469 2.67123,-3.31682 0,-0.22507 -0.10372,-0.53587 -0.5969,-0.73766"
       style="fill:#eeaf3a;fill-opacity:1;fill-rule:nonzero;stroke:none;stroke-width:0.0352778"
       id="path5992"
       inkscape:export-filename="/home/bolarinwa/Downloads/case1-title.png"
       inkscape:export-xdpi="98.489998"
       inkscape:export-ydpi="98.489998" />
  </g>
</svg>
