<?xml version="1.0" encoding="UTF-8" standalone="no"?>
<!-- Created with Inkscape (http://www.inkscape.org/) -->

<svg
   width="30.986471mm"
   height="35.696102mm"
   viewBox="0 0 30.986471 35.696102"
   version="1.1"
   id="svg87321"
   inkscape:version="1.1.1 (eb90963e84, 2021-10-02)"
   sodipodi:docname="maryam.svg"
   xmlns:inkscape="http://www.inkscape.org/namespaces/inkscape"
   xmlns:sodipodi="http://sodipodi.sourceforge.net/DTD/sodipodi-0.dtd"
   xmlns="http://www.w3.org/2000/svg"
   xmlns:svg="http://www.w3.org/2000/svg">
  <sodipodi:namedview
     id="namedview87323"
     pagecolor="#ffffff"
     bordercolor="#666666"
     borderopacity="1.0"
     inkscape:pageshadow="2"
     inkscape:pageopacity="0.0"
     inkscape:pagecheckerboard="0"
     inkscape:document-units="mm"
     showgrid="false"
     fit-margin-top="0"
     fit-margin-left="0"
     fit-margin-right="0"
     fit-margin-bottom="0"
     inkscape:zoom="4.4400112"
     inkscape:cx="49.436812"
     inkscape:cy="58.896248"
     inkscape:window-width="1920"
     inkscape:window-height="1017"
     inkscape:window-x="0"
     inkscape:window-y="30"
     inkscape:window-maximized="1"
     inkscape:current-layer="layer1" />
  <defs
     id="defs87318">
    <clipPath
       clipPathUnits="userSpaceOnUse"
       id="clipPath87202">
      <rect
         style="fill:#f1f0f5;fill-opacity:1;stroke-width:0.264583"
         id="rect87204"
         width="69.0084"
         height="48.516266"
         x="26.111216"
         y="25.973635" />
    </clipPath>
    <clipPath
       clipPathUnits="userSpaceOnUse"
       id="clipPath88049">
      <rect
         style="fill:#f1f0f5;stroke-width:0.264583"
         id="rect88051"
         width="43.800617"
         height="38.110741"
         x="37.28841"
         y="30.717995" />
    </clipPath>
    <clipPath
       clipPathUnits="userSpaceOnUse"
       id="clipPath90548">
      <rect
         style="fill:#f1f0f5;stroke-width:0.264583"
         id="rect90550"
         width="46.654709"
         height="36.393047"
         x="76.207367"
         y="72.674232" />
    </clipPath>
  </defs>
  <g
     inkscape:label="Layer 1"
     inkscape:groupmode="layer"
     id="layer1"
     transform="translate(-82.15977,-73.701062)">
    <g
       id="g90464"
       clip-path="url(#clipPath90548)"
       transform="translate(4.2865907,0.32988562)">
      <path
         d="m 80.712671,101.04434 c 0.02919,0.17465 0.04921,0.35571 0.05805,0.5424 0.06931,1.44375 -0.534914,2.37503 -1.333273,2.41033 -0.798901,0.035 -1.489458,-0.83928 -1.558735,-2.28301 -0.0092,-0.18669 -0.0067,-0.36883 0.0058,-0.54509 0,0 0.645918,0.0493 1.418321,0.0139 0.771886,-0.0354 1.410031,-0.13854 1.410031,-0.13854"
         style="fill:#ffffff;fill-opacity:1;fill-rule:nonzero;stroke:none;stroke-width:0.0267456"
         id="path54291"
         inkscape:export-filename="/home/bolarinwa/Downloads/path54255.png"
         inkscape:export-xdpi="98.489998"
         inkscape:export-ydpi="98.489998" />
      <path
         d="m 84.412659,94.174457 2.142878,1.138563 0.376836,0.692175 1.092564,1.053521 c 0,0 0.502277,3.527214 -1.024355,9.185254 0,0 -0.04496,-2.37447 -0.138279,-6.11032 -0.04254,-1.707696 -0.393165,-2.762554 -0.69431,-3.535766 -0.171449,-0.439698 -1.10113,-1.678547 -1.755334,-2.423427"
         style="fill:#ffffff;fill-opacity:1;fill-rule:nonzero;stroke:none;stroke-width:0.0267456"
         id="path54323"
         inkscape:export-filename="/home/bolarinwa/Downloads/path54255.png"
         inkscape:export-xdpi="98.489998"
         inkscape:export-ydpi="98.489998" />
      <path
         d="m 89.553702,94.205521 c -2.457272,1.276818 -1.928518,9.562429 -2.382091,17.621249 -0.02907,0.52128 -1.11109,9.42328 -1.42801,11.47226 -0.209756,1.35739 -1.168409,3.36317 -1.384396,4.33469 -0.215987,0.97194 0.417022,3.1933 0.691991,3.43379 0.274968,0.2405 -0.0033,-1.38481 -0.0162,-2.22176 -0.136653,-1.35865 0.507986,-2.08844 0.689499,-2.38416 0,0 0.42076,-0.83696 0.549936,-0.31817 0.128763,0.51878 -0.112147,1.5821 0.170298,2.10795 0.282445,0.52625 0.327304,-0.0154 0.284938,-0.73519 -0.04279,-0.7194 0.348486,-1.41928 0.309028,-1.86455 -0.05483,-0.62139 -0.28203,-1.02303 -0.28203,-1.02303 0,0 3.677601,-10.20957 3.515611,-12.65396 -0.07476,-1.12978 0.275383,-5.88316 0.532492,-9.10179 0.140392,-1.75864 0.525015,-2.72768 0.906731,-4.023184 0.09844,-1.78148 -0.712343,-2.677829 -2.157797,-4.644145"
         style="fill:#ed1b24;fill-opacity:1;fill-rule:nonzero;stroke:none;stroke-width:0.0415361"
         id="path856" />
      <path
         d="m 89.553702,94.205521 c -4.181433,1.590831 -1.928518,9.562429 -2.382091,17.621249 -0.02907,0.52128 -1.11109,9.42328 -1.42801,11.47226 -0.209756,1.35739 -1.168409,3.36317 -1.384396,4.33469 -0.215987,0.97194 0.417022,3.1933 0.691991,3.43379 0.274968,0.2405 -0.0033,-1.38481 -0.0162,-2.22176 -0.136653,-1.35865 0.507986,-2.08844 0.689499,-2.38416 0,0 0.42076,-0.83696 0.549936,-0.31817 0.128763,0.51878 -0.112147,1.5821 0.170298,2.10795 0.282445,0.52625 0.327304,-0.0154 0.284938,-0.73519 -0.04279,-0.7194 0.348486,-1.41928 0.309028,-1.86455 -0.05483,-0.62139 -0.28203,-1.02303 -0.28203,-1.02303 0,0 3.810101,-11.9059 3.522672,-14.33866 -0.185251,-1.56923 -1.026772,-6.11411 -0.761771,-8.44553 0.128346,-1.12728 1.813463,-3.080723 1.813463,-3.080723 0.324397,-1.5846 0.243401,-2.956951 -1.777327,-4.558166"
         style="fill:#f04a58;fill-opacity:1;fill-rule:nonzero;stroke:none;stroke-width:0.0415361"
         id="path858" />
      <path
         d="m 85.494801,124.3287 c -0.366348,1.20413 -0.969868,2.55904 -1.135596,3.30502 -0.215987,0.97194 0.417022,3.1933 0.691991,3.43379 0.274968,0.2405 -0.0033,-1.38481 -0.0162,-2.22176 -0.136653,-1.35865 0.507986,-2.08844 0.689499,-2.38416 0,0 0.42076,-0.83696 0.549936,-0.31817 0.128763,0.51878 -0.112147,1.5821 0.170298,2.10795 0.282445,0.52625 0.327304,-0.0154 0.284938,-0.73519 -0.04279,-0.7194 0.348486,-1.41928 0.309028,-1.86455 -0.05483,-0.62139 -0.28203,-1.02303 -0.28203,-1.02303 0,0 -1.150964,-0.66375 -1.261864,-0.2999"
         style="fill:#ffaa80;fill-opacity:1;fill-rule:nonzero;stroke:none;stroke-width:0.0415361"
         id="path860" />
      <path
         d="m 85.165836,130.59026 c 0.119623,0.23883 0.366762,0.67246 0.336441,-0.022 -0.0162,-0.37839 -0.05358,-0.48597 -0.05358,-0.48597 0,0 0.32855,0.85648 0.202696,-0.61681 -0.0084,-0.0951 -0.02658,-0.17569 -0.03656,-0.24506 -0.05483,0.21433 0.405392,0.80372 0.295321,-0.0573 -0.247969,-1.94181 0.06479,-3.08073 0.06479,-3.08073 0,0 -0.297814,-0.1408 -0.341842,-0.11421 l -0.04154,0.0623 c -0.555337,0.93747 -0.761356,2.04067 -0.617642,3.12019 l 0.191897,1.43965"
         style="fill:#ea8c6c;fill-opacity:1;fill-rule:nonzero;stroke:none;stroke-width:0.0415361"
         id="path862" />
      <path
         d="m 106.29854,129.91572 c -0.80663,-9.31114 -6.357505,-18.12467 -5.56624,-20.9757 0.38504,-1.38399 2.43442,-3.52184 1.86206,-7.23392 -0.46271,-3.003471 -0.75596,-2.399538 -1.16093,-4.709357 l -0.23967,-2.51833 c -6.466329,0.105083 -4.703124,0.276216 -10.235309,-1.028017 l -1.404749,0.755125 c 0,0 1.634859,3.574177 1.168824,4.199294 -3.40637,4.569375 0.72065,9.515905 0.337688,9.648825 -7.476487,2.596 -8.109911,13.34387 -4.813612,16.86945 1.33663,1.42883 6.100815,2.596 10.591691,2.0768 -6.386166,2.18064 -10.980052,-0.85689 -10.980052,-0.85689 0.122532,8.84053 -0.03614,48.0559 -0.03614,48.0559 1.511913,1.63482 7.889356,5.61078 23.037549,0.78334 -0.002,-1.18087 -1.85998,-36.967 -2.56111,-45.06652"
         style="fill:#f04a58;fill-opacity:1;fill-rule:nonzero;stroke:none;stroke-width:0.0415361"
         id="path866" />
      <path
         d="m 105.4807,95.081101 c 1.49613,1.399765 2.95155,14.666379 2.36506,16.200719 -0.21807,0.56987 -4.86221,-2.3011 -10.297616,-0.12627 -0.345995,0.13831 -0.338104,-0.83737 -0.338104,-0.83737 0.916285,0.43738 5.36397,-1.25896 6.73632,-1.72208 -0.7111,-1.12438 -1.18918,-6.64785 -1.18918,-6.64785 0,0 -0.081,-1.84212 -0.78794,-2.362565 -2.282406,-1.679717 1.63444,-6.454285 3.51146,-4.504584"
         style="fill:#ed1b24;fill-opacity:1;fill-rule:nonzero;stroke:none;stroke-width:0.0415361"
         id="path868" />
      <path
         d="m 105.4807,95.081101 c 1.49613,1.399765 3.71041,15.886709 2.15696,16.420439 -2.82071,0.96904 -5.71494,0.44818 -11.833614,-0.5192 -0.0702,-0.42034 -0.04113,-0.82282 0.218064,-1.18336 0.268738,-0.16656 5.69584,-0.3921 7.68126,-1.12189 1.04795,-0.38503 2.62799,-0.53997 2.92206,-0.46437 -0.9844,-0.14953 -2.39248,0.11921 -2.39248,0.11921 -0.75097,-1.42843 0.5786,-5.21568 -2.26371,-8.746245 -3.10565,-0.680776 1.24525,-6.859261 3.51146,-4.504584"
         style="fill:#f04a58;fill-opacity:1;fill-rule:nonzero;stroke:none;stroke-width:0.0415361"
         id="path870" />
      <path
         d="m 105.39887,95.000106 c -8.328391,4.376237 -12.565067,2.723518 -14.901054,-1.302155 l 4.63833,-2.574819 c 0.09636,0.176113 0.192312,0.33478 0.292829,0.476004 0.06978,0.09429 0.134992,0.184419 0.204773,0.261261 0.174036,0.201034 0.347657,0.350564 0.529584,0.448174 0.06936,0.04693 0.138731,0.07643 0.208096,0.105918 0.220141,0.08431 0.436129,0.09969 0.651285,0.05483 0.03863,-0.0087 0.0731,-0.01786 0.111736,-0.03074 0.477249,-0.150777 0.917115,-0.620134 1.256049,-1.342861 l 0.01288,0.0087 6.104972,3.329529 c 0.28618,0.0075 0.76135,0.436959 0.89053,0.566136"
         style="fill:#ed1b24;fill-opacity:1;fill-rule:nonzero;stroke:none;stroke-width:0.0415361"
         id="path872" />
      <path
         d="m 102.55365,92.218437 c 1.29676,-1.818863 0.36344,-1.799341 -0.48763,-2.456441 0,0 2.33931,-5.192836 2.40577,-6.497067 0.0743,-1.462485 -0.13749,-4.576026 -0.77465,-5.974545 -1.12563,-2.469317 -5.659286,-3.987459 -7.111387,-3.916847 -1.647734,0.0137 -4.244983,2.214285 -5.293768,3.911032 -0.81369,1.316278 -0.261261,4.54612 -0.400822,6.10663 0.03157,4.114975 2.243776,6.106628 2.243776,6.106628 -1.197483,0.05524 -0.986065,0.890118 -0.97402,2.322279 -1.190838,0.06188 -1.438393,1.753236 -1.438393,1.753236 2.429859,4.005737 6.434349,4.688589 13.774184,1.022203 1.19042,-0.680775 -1.33497,-2.445642 -1.94306,-2.377108"
         style="fill:#b2b92d;fill-opacity:1;fill-rule:nonzero;stroke:none;stroke-width:0.0415361"
         id="path874" />
      <path
         d="m 96.992392,93.049988 c -2.402861,0.925009 -3.254764,0.07061 -4.245399,-0.48514 -0.407053,-0.355964 -0.642562,-0.497602 -0.587735,-0.969451 0.915869,1.728314 4.833134,1.454591 4.833134,1.454591"
         style="fill:#7e8b1f;fill-opacity:1;fill-rule:nonzero;stroke:none;stroke-width:0.0415361"
         id="path876" />
      <path
         d="m 102.55365,92.218437 c 0.35804,-0.45025 0.4976,-0.819505 0.4976,-0.819505 -1.61741,1.751159 -5.868208,3.386848 -6.9307,3.647694 2.468072,-0.07186 4.18476,-1.17547 6.4331,-2.828189"
         style="fill:#7e8b1f;fill-opacity:1;fill-rule:nonzero;stroke:none;stroke-width:0.0415361"
         id="path878" />
      <path
         d="m 91.476406,86.774309 c 0.63924,1.830908 1.607029,3.304192 2.362154,3.945924 0.117963,0.100102 0.709851,0.368009 1.435486,0.443604 -0.973189,-0.127515 -2.762978,-2.519576 -3.79764,-4.389528"
         style="fill:#7e8b1f;fill-opacity:1;fill-rule:nonzero;stroke:none;stroke-width:0.0415361"
         id="path880" />
      <path
         d="m 103.36111,86.711589 c -0.60808,1.841293 -1.58252,4.05018 -2.32643,4.704373 -0.11631,0.101762 -1.03259,0.463956 -1.756976,0.552013 0.970696,-0.143715 3.080316,-3.369819 4.083406,-5.256386"
         style="fill:#7e8b1f;fill-opacity:1;fill-rule:nonzero;stroke:none;stroke-width:0.0415361"
         id="path882" />
      <path
         d="m 100.08849,87.376996 c -0.776726,0.957822 -2.593512,2.130385 -3.670542,2.18272 -0.575274,-0.01661 -2.461425,-1.114828 -3.141786,-1.995392 -0.632594,-0.815353 -0.832798,-1.869953 -0.885133,-2.914584 0.06812,0.798738 0.277461,1.589169 0.847751,2.325603 0.679945,0.880148 2.566512,1.978362 3.14137,1.998714 1.077445,-0.05608 2.897554,-1.228636 3.67096,-2.182718 0.9628,-1.190424 0.88305,-3.334929 0.87267,-4.575195 0.0145,1.28014 0.12751,3.970014 -0.83529,5.160852"
         style="fill:#7e8b1f;fill-opacity:1;fill-rule:nonzero;stroke:none;stroke-width:0.0415361"
         id="path884" />
      <path
         d="m 100.05194,86.790092 c -0.775481,0.957406 -2.593515,2.129138 -3.670129,2.183134 -0.575274,-0.01827 -2.463502,-1.116488 -3.143447,-1.996637 -1.177131,-1.523541 -0.814521,-3.27927 -0.841104,-4.841441 -0.0084,-0.512139 -0.07227,-3.113957 0.805799,-4.081331 0.05275,-0.05856 1.013895,-1.239435 2.941167,-1.646488 3.554654,0.648377 4.776224,4.415695 4.779134,5.660531 0.003,1.208699 0.13084,3.484874 -0.87142,4.722232"
         style="fill:#ffaa80;fill-opacity:1;fill-rule:nonzero;stroke:none;stroke-width:0.0415361"
         id="path886" />
      <path
         d="m 100.92793,82.622782 c -0.004,-1.244421 -1.448361,-5.203636 -4.802395,-5.533847 -3.569608,0.429482 -3.719138,4.079669 -3.728691,5.045383 -0.0087,-0.511309 -0.07269,-3.113127 0.805384,-4.079671 0.05483,-0.06022 1.01431,-1.241512 2.942413,-1.647318 3.554239,0.670807 4.774979,4.415281 4.778719,5.660116 0.002,0.701543 0.007,1.118149 0.005,0.555337"
         style="fill:#ea8c6c;fill-opacity:1;fill-rule:nonzero;stroke:none;stroke-width:0.0415361"
         id="path888" />
      <path
         d="m 95.689406,84.525962 c 0.135823,0.297398 0.516293,0.451082 0.653362,0.440699 0.105918,-0.0084 0.606011,-0.245063 0.656269,-0.483065 -0.08017,-0.117552 -0.286598,-0.442358 -0.69739,-0.439036 -0.354718,0.0033 -0.612241,0.481402 -0.612241,0.481402"
         style="fill:#f29972;fill-opacity:1;fill-rule:nonzero;stroke:none;stroke-width:0.0415361"
         id="path890" />
      <path
         d="m 95.689406,84.525962 c 0.135823,0.297398 0.516293,0.451082 0.653362,0.440699 0.218895,-0.01703 0.606011,-0.245063 0.656269,-0.483065 -0.05649,0.169467 -0.480986,0.296152 -0.669561,0.306952 -0.142053,0.0084 -0.527507,-0.05815 -0.64007,-0.264586"
         style="fill:#ea8c6c;fill-opacity:1;fill-rule:nonzero;stroke:none;stroke-width:0.0415361"
         id="path892" />
      <path
         d="m 92.858725,83.075524 c 0.222633,0.204358 0.527923,0.345581 0.860211,0.42616 0.319828,0.07808 0.665823,0.09803 0.986897,0.06313 0.210587,-0.02159 0.412038,-0.06854 0.587735,-0.13707 0.03157,-0.01329 0.03655,-0.524599 0.03489,-0.708604 -0.08224,-0.08058 -0.195634,-0.175698 -0.329381,-0.265416 -0.25503,-0.174451 -0.583581,-0.331458 -0.903409,-0.331458 -0.107167,0 -0.213494,0.01166 -0.316504,0.03406 l -0.0013,8.32e-4 c -0.366348,0.07643 -0.690744,0.279537 -0.880148,0.530415 0,0 -0.152853,0.284522 -0.03904,0.387946"
         style="fill:#ffffff;fill-opacity:1;fill-rule:nonzero;stroke:none;stroke-width:0.0415361"
         id="path894" />
      <path
         d="m 93.413232,82.859121 c 0.0021,0.25877 0.120453,0.48971 0.305704,0.642563 0.319828,0.07808 0.665823,0.09803 0.986897,0.06313 0.238416,-0.149946 0.395838,-0.417022 0.393346,-0.71982 -0.0013,-0.141639 -0.03738,-0.274138 -0.100102,-0.39127 -0.255031,-0.174451 -0.583582,-0.331458 -0.903409,-0.331458 -0.107167,0 -0.213495,0.01166 -0.316504,0.03406 l -0.0013,8.32e-4 c -0.222218,0.153268 -0.367178,0.410791 -0.364686,0.701958"
         style="fill:#442219;fill-opacity:1;fill-rule:nonzero;stroke:none;stroke-width:0.0415361"
         id="path896" />
      <path
         d="m 95.000323,82.454561 c -4.15e-4,0 -8.3e-4,-4.16e-4 -0.0013,-8.31e-4 -0.25503,-0.174452 -0.583581,-0.331458 -0.903409,-0.331458 -0.107167,0 -0.213494,0.01166 -0.316504,0.03406 l -0.0013,8.31e-4 c -0.0049,8.3e-4 -0.01036,0.0021 -0.01537,0.0033 0.01036,-0.0066 0.0162,-0.01001 0.0162,-0.01001 0.103423,-0.02202 0.209757,-0.03988 0.31692,-0.03988 0.319827,4.14e-4 0.632178,0.135406 0.88721,0.309858 0.0058,0.01083 0.01166,0.02243 0.01745,0.03406"
         style="fill:#f5a883;fill-opacity:1;fill-rule:nonzero;stroke:none;stroke-width:0.0415361"
         id="path898" />
      <path
         d="m 93.412816,82.813847 c 0.0013,-0.01288 0.0025,-0.02534 0.0038,-0.03738 -8.32e-4,0.01205 -0.0016,0.0245 -0.0025,0.03656 -4.15e-4,4.15e-4 -8.3e-4,4.15e-4 -0.0013,8.3e-4 m 1.685948,-0.01454 c -4.16e-4,0 -8.31e-4,0 -0.0013,-4.16e-4 -0.0021,-0.03406 -0.0062,-0.0677 -0.01246,-0.100514 0.0087,0.03863 0.01371,0.07352 0.01371,0.100926 m -1.63029,-0.248385 c 0.08681,-0.24174 0.242986,-0.357626 0.294075,-0.390439 0.0049,-0.0013 0.01036,-0.0025 0.01537,-0.0033 l 0.0013,-8.32e-4 c 0.10301,-0.02243 0.209341,-0.03406 0.316503,-0.03406 0.319828,0 0.648379,0.157006 0.90341,0.331458 4.15e-4,4.16e-4 8.31e-4,8.31e-4 0.0013,8.31e-4 0.0021,0.0049 0.0046,0.01036 0.0071,0.01537 -0.0029,-0.0054 -0.0054,-0.01083 -0.0084,-0.0162 -0.255031,-0.174451 -0.583582,-0.331457 -0.90341,-0.331457 -0.107166,0 -0.213494,0.01166 -0.316503,0.03406 l -0.0013,8.31e-4 c -0.139146,0.09636 -0.248386,0.233017 -0.309443,0.393761"
         style="fill:#f5f5f5;fill-opacity:1;fill-rule:nonzero;stroke:none;stroke-width:0.0415361"
         id="path900" />
      <path
         d="m 93.414062,82.813017 c 8.31e-4,-0.01205 0.0016,-0.0245 0.0025,-0.03656 0.01001,-0.08515 0.02825,-0.159914 0.05192,-0.225541 0.06106,-0.160744 0.170297,-0.297398 0.309443,-0.393761 l 0.0013,-8.31e-4 c 0.10301,-0.02243 0.209341,-0.03406 0.316503,-0.03406 0.319828,0 0.648379,0.157006 0.90341,0.331458 0.0029,0.0054 0.0054,0.01083 0.0084,0.0162 0.03365,0.07269 0.06188,0.156591 0.07767,0.228448 0.0062,0.03281 0.01036,0.06645 0.01246,0.100515 -0.297812,-0.141222 -0.595626,-0.21391 -0.878901,-0.21391 -0.287845,0 -0.561153,0.07476 -0.804554,0.228033"
         style="fill:#4d2e26;fill-opacity:1;fill-rule:nonzero;stroke:none;stroke-width:0.0415361"
         id="path902" />
      <path
         d="m 95.328458,82.719145 -0.0013,-0.0041 c -0.03032,-0.107167 -0.100927,-0.199372 -0.191482,-0.264584 -0.392931,-0.283276 -0.679114,-0.529585 -0.988142,-0.530415 -0.646716,-0.0013 -1.305062,0.181927 -1.412641,-0.0033 -0.01661,0.146207 0.195635,0.262092 0.23717,0.31775 -0.08806,0.03281 -0.269568,0.03447 -0.576519,-0.142053 0,0 0.243816,0.544538 0.502586,0.595628 0.404976,-0.202697 1.113166,-0.536231 1.192499,-0.522524 0.732696,0.124608 1.236943,0.55326 1.237774,0.553675"
         style="fill:#2b1b17;fill-opacity:1;fill-rule:nonzero;stroke:none;stroke-width:0.0415361"
         id="path904" />
      <path
         d="m 100.00791,83.078432 c -0.218897,0.208096 -0.52211,0.355133 -0.853152,0.441113 -0.318167,0.08308 -0.663746,0.108827 -0.985651,0.07933 -0.211003,-0.01786 -0.412868,-0.06147 -0.589811,-0.1271 -0.03157,-0.01288 -0.04527,-0.523769 -0.04693,-0.707774 0.08099,-0.08224 0.192727,-0.17902 0.325227,-0.270815 0.251708,-0.17902 0.577766,-0.341426 0.897594,-0.346826 0.107167,-0.0021 0.213496,0.0084 0.317335,0.02866 l 8.31e-4,8.31e-4 c 0.367594,0.0702 0.695314,0.267906 0.888871,0.515877 0,0 0.157836,0.281614 0.0457,0.386701"
         style="fill:#ffffff;fill-opacity:1;fill-rule:nonzero;stroke:none;stroke-width:0.0415361"
         id="path906" />
      <path
         d="m 99.449663,82.871582 c 0.0025,0.25877 -0.112147,0.491787 -0.294905,0.647963 -0.318167,0.08308 -0.663746,0.108827 -0.985651,0.07933 -0.240493,-0.145792 -0.402899,-0.40996 -0.405391,-0.713173 -0.0013,-0.141223 0.03281,-0.274553 0.09387,-0.392516 0.251708,-0.17902 0.577766,-0.341426 0.897594,-0.346826 0.107167,-0.0021 0.213495,0.0084 0.317335,0.02866 l 8.31e-4,8.31e-4 c 0.224709,0.149944 0.373824,0.40456 0.376316,0.695727"
         style="fill:#442219;fill-opacity:1;fill-rule:nonzero;stroke:none;stroke-width:0.0415361"
         id="path908" />
      <path
         d="m 97.856342,82.494019 c 0.0054,-0.01205 0.01119,-0.02368 0.01703,-0.03489 0.251708,-0.17819 0.561566,-0.318581 0.88181,-0.323982 0.0054,-4.14e-4 0.01118,-4.14e-4 0.01702,-4.14e-4 0.10135,0 0.201865,0.01537 0.300305,0.03447 0,0 0.0058,0.0033 0.01661,0.01001 -0.0054,-0.0013 -0.01083,-0.0021 -0.01579,-0.0033 l -8.31e-4,-8.31e-4 c -0.09595,-0.01868 -0.193557,-0.02907 -0.292414,-0.02907 -0.0084,0 -0.01661,0 -0.02493,4.15e-4 -0.319827,0.0054 -0.645886,0.167806 -0.897594,0.346826 -4.15e-4,0 -8.31e-4,4.16e-4 -0.0013,8.3e-4"
         style="fill:#f5a883;fill-opacity:1;fill-rule:nonzero;stroke:none;stroke-width:0.0415361"
         id="path910" />
      <path
         d="m 97.7633,82.84043 c 0,-0.02783 0.0041,-0.06313 0.01205,-0.101762 -0.0054,0.03323 -0.0092,0.06688 -0.01083,0.10135 -4.16e-4,0 -8.31e-4,4.16e-4 -0.0013,4.16e-4 m 1.686363,-0.01412 c -4.16e-4,-4.16e-4 -0.0013,-4.16e-4 -0.0016,-8.32e-4 -4.16e-4,-0.01246 -0.0016,-0.0245 -0.0029,-0.03697 0.0016,0.01246 0.0029,0.02493 0.0046,0.03779 m -0.0594,-0.260432 c -0.06397,-0.159913 -0.175697,-0.295737 -0.316919,-0.390023 l -8.32e-4,-8.31e-4 c -0.09595,-0.01868 -0.193557,-0.02907 -0.292414,-0.02907 -0.0084,0 -0.01661,0 -0.02493,4.15e-4 -0.319828,0.0054 -0.645886,0.167806 -0.897594,0.346826 -0.0029,0.0054 -0.0058,0.01083 -0.0084,0.0162 0.0025,-0.0054 0.0046,-0.01036 0.0071,-0.01537 4.14e-4,-4.14e-4 8.3e-4,-8.3e-4 0.0013,-8.3e-4 0.251708,-0.17902 0.577766,-0.341426 0.897594,-0.346827 0.0084,-4.14e-4 0.01661,-4.14e-4 0.02493,-4.14e-4 0.09886,0 0.196466,0.01036 0.292414,0.02907 l 8.32e-4,8.31e-4 c 0.0049,0.0013 0.01036,0.0021 0.01579,0.0033 0.05151,0.03198 0.210173,0.145791 0.301136,0.3867"
         style="fill:#f5f5f5;fill-opacity:1;fill-rule:nonzero;stroke:none;stroke-width:0.0415361"
         id="path912" />
      <path
         d="m 97.764547,82.840015 c 0.0016,-0.03448 0.0054,-0.06813 0.01083,-0.101351 0.01495,-0.07186 0.04154,-0.155761 0.07393,-0.22928 0.0025,-0.0054 0.0054,-0.01083 0.0084,-0.0162 0.251708,-0.17902 0.577767,-0.341426 0.897594,-0.346826 0.0084,-4.15e-4 0.01661,-4.15e-4 0.02493,-4.15e-4 0.09885,0 0.196466,0.01036 0.292414,0.02907 l 8.31e-4,8.32e-4 c 0.141222,0.09429 0.252954,0.230109 0.31692,0.390023 0.02409,0.06479 0.04361,0.13873 0.05483,0.222633 0.0013,0.01246 0.0025,0.0245 0.0029,0.03697 -0.237586,-0.14413 -0.502586,-0.214325 -0.780462,-0.214325 -0.291583,0 -0.597704,0.07767 -0.902993,0.228863"
         style="fill:#4d2e26;fill-opacity:1;fill-rule:nonzero;stroke:none;stroke-width:0.0415361"
         id="path914" />
      <path
         d="m 97.532776,82.763588 0.0013,-0.0038 c 0.02825,-0.107579 0.09719,-0.201034 0.186496,-0.267907 0.388363,-0.289507 0.669977,-0.5408 0.97942,-0.546615 0.646716,-0.01246 1.307558,0.159914 1.412228,-0.027 0.0187,0.145791 -0.191068,0.265 -0.231773,0.321488 0.08847,0.03115 0.269983,0.02949 0.574023,-0.151605 0,0 -0.23426,0.54869 -0.492197,0.603933 -0.408714,-0.19605 -1.130195,-0.518785 -1.20953,-0.503832 -0.730618,0.136654 -1.219498,0.575274 -1.219913,0.575274"
         style="fill:#2b1b17;fill-opacity:1;fill-rule:nonzero;stroke:none;stroke-width:0.0415361"
         id="path916" />
      <path
         d="m 100.27789,81.203495 c -0.22305,-0.0457 -0.869347,-0.120455 -1.148054,-0.08722 -0.454405,0.05441 -1.526034,0.236757 -1.526034,0.236757 -0.252954,-0.109652 -0.375901,-0.322736 -0.318166,-0.368425 0.16116,-0.129177 2.070156,-0.234264 2.326019,-0.18442 0.140392,0.027 0.700715,0.352641 0.666235,0.403315"
         style="fill:#2b1b17;fill-opacity:1;fill-rule:nonzero;stroke:none;stroke-width:0.0415361"
         id="path918" />
      <path
         d="m 92.557588,81.268291 c 0.222634,-0.04943 0.660839,-0.139561 0.940376,-0.110899 0.455236,0.04693 1.736207,0.215572 1.736207,0.215572 0.250878,-0.113807 0.370086,-0.328965 0.311521,-0.373824 -0.163237,-0.126269 -2.07348,-0.199373 -2.328926,-0.145376 -0.139562,0.02991 -0.694068,0.364687 -0.659178,0.414529"
         style="fill:#2b1b17;fill-opacity:1;fill-rule:nonzero;stroke:none;stroke-width:0.0415361"
         id="path920" />
      <path
         d="m 98.040761,86.028737 c -1.639012,0.301136 -2.794544,0.06064 -3.147185,0.05109 1.007249,0.939546 1.807233,1.159271 3.147185,-0.05109"
         style="fill:#fff5f7;fill-opacity:1;fill-rule:nonzero;stroke:none;stroke-width:0.0415361"
         id="path922" />
      <path
         d="m 98.169938,85.967263 c -0.404975,0.05856 -1.612014,-0.04652 -1.80308,0.0071 -0.776307,-0.108827 -1.271832,0.1379 -1.473282,0.105507 0.520862,0.268738 1.209944,0.124193 1.471207,0.112983 0.26043,-0.01166 1.158855,0.07518 1.805155,-0.225541"
         style="fill:#f5384e;fill-opacity:1;fill-rule:nonzero;stroke:none;stroke-width:0.0415361"
         id="path924" />
      <path
         d="m 96.387212,87.131934 c 0.358456,0.0049 1.294678,-0.51214 1.782726,-1.164671 -0.524185,0.180267 -1.460823,0.612657 -1.837554,0.590642 -0.325643,-0.0187 -0.948268,-0.274137 -1.438808,-0.478079 0.544952,0.78337 1.195407,1.047955 1.493636,1.052108"
         style="fill:#ff5072;fill-opacity:1;fill-rule:nonzero;stroke:none;stroke-width:0.0415361"
         id="path926" />
      <path
         d="m 93.831084,107.9635 c -0.446097,-0.23135 -1.742022,-0.31193 -2.015329,-0.30778 -0.334365,0.005 -1.337876,-0.0399 -1.72333,0.18318 -0.444851,0.25752 -0.127101,0.42989 0.06936,0.47309 -0.208096,0.0141 -0.59438,0.0681 -0.476002,0.27912 0.10467,0.18608 0.386284,0.25088 0.577765,0.26293 -0.07809,0.0332 -0.145376,0.1001 -0.107167,0.23675 0.06188,0.2243 0.710266,0.27705 0.710266,0.27705 0,0 -0.465619,0.14496 -0.100514,0.31733 0.621794,0.29449 2.624246,0.28619 2.882185,0.44984 0.666238,0.422 2.155721,0.84733 2.155721,0.84733 0,0 0.01536,-0.98108 0.218064,-1.18336 0,0 -1.778158,-1.62157 -2.191026,-1.83548"
         style="fill:#ffaa80;fill-opacity:1;fill-rule:nonzero;stroke:none;stroke-width:0.0415361"
         id="path928" />
    </g>
  </g>
</svg>
