<?xml version="1.0" encoding="UTF-8" standalone="no"?>
<!-- Created with Inkscape (http://www.inkscape.org/) -->

<svg
   width="26.1217mm"
   height="30.296778mm"
   viewBox="0 0 26.1217 30.296778"
   version="1.1"
   id="svg3648"
   inkscape:version="1.1.1 (eb90963e84, 2021-10-02)"
   sodipodi:docname="patel.svg"
   xmlns:inkscape="http://www.inkscape.org/namespaces/inkscape"
   xmlns:sodipodi="http://sodipodi.sourceforge.net/DTD/sodipodi-0.dtd"
   xmlns="http://www.w3.org/2000/svg"
   xmlns:svg="http://www.w3.org/2000/svg">
  <sodipodi:namedview
     id="namedview3650"
     pagecolor="#ffffff"
     bordercolor="#666666"
     borderopacity="1.0"
     inkscape:pageshadow="2"
     inkscape:pageopacity="0.0"
     inkscape:pagecheckerboard="0"
     inkscape:document-units="mm"
     showgrid="false"
     fit-margin-top="0"
     fit-margin-left="0"
     fit-margin-right="0"
     fit-margin-bottom="0"
     inkscape:zoom="4.4400112"
     inkscape:cx="13.175642"
     inkscape:cy="46.508892"
     inkscape:window-width="1920"
     inkscape:window-height="1017"
     inkscape:window-x="0"
     inkscape:window-y="30"
     inkscape:window-maximized="1"
     inkscape:current-layer="layer1" />
  <defs
     id="defs3645" />
  <g
     inkscape:label="Layer 1"
     inkscape:groupmode="layer"
     id="layer1"
     transform="translate(-95.26233,-144.53824)">
    <path
       d="m 106.12814,155.0573 c -1.1823,-0.22846 -2.28304,0.0477 -2.40345,0.64148 -0.1204,0.5941 0.78486,1.28122 1.96745,1.50967 1.18229,0.22815 2.45791,-0.0215 2.57831,-0.61558 0.12071,-0.59381 -0.95972,-1.30713 -2.14231,-1.53557"
       style="fill:#ffffff;fill-opacity:1;fill-rule:nonzero;stroke:none;stroke-width:0.0294396"
       id="path54255"
       inkscape:export-filename="/home/bolarinwa/Downloads/path54255.png"
       inkscape:export-xdpi="98.489998"
       inkscape:export-ydpi="98.489998" />
    <path
       d="m 106.12814,155.0573 c -1.1823,-0.22846 -2.28304,0.0477 -2.40345,0.64148 -0.1204,0.5941 0.78486,1.28122 1.96745,1.50967 1.18229,0.22815 2.45791,-0.0215 2.57831,-0.61558 0.12071,-0.59381 -0.95972,-1.30713 -2.14231,-1.53557 z"
       style="fill:none;stroke:#0e0f0e;stroke-width:0.275851;stroke-linecap:round;stroke-linejoin:round;stroke-miterlimit:10;stroke-dasharray:none;stroke-opacity:1"
       id="path54257"
       inkscape:export-filename="/home/bolarinwa/Downloads/path54255.png"
       inkscape:export-xdpi="98.489998"
       inkscape:export-ydpi="98.489998" />
    <path
       d="m 107.5854,155.87219 -0.25053,1.04039 c 0,0 -1.57855,0.68034 -3.19567,-0.57849 l 0.17016,-1.25207 c 0,0 0.87141,1.38926 3.27604,0.79017"
       style="fill:#ffffff;fill-opacity:1;fill-rule:nonzero;stroke:none;stroke-width:0.0294396"
       id="path54263"
       inkscape:export-filename="/home/bolarinwa/Downloads/path54255.png"
       inkscape:export-xdpi="98.489998"
       inkscape:export-ydpi="98.489998" />
    <path
       d="m 107.5854,155.87219 -0.25053,1.04039 c 0,0 -1.57855,0.68034 -3.19567,-0.57849 l 0.17016,-1.25207 c 0,0 0.87141,1.38926 3.27604,0.79017 z"
       style="fill:none;stroke:#0e0f0e;stroke-width:0.275851;stroke-linecap:round;stroke-linejoin:round;stroke-miterlimit:10;stroke-dasharray:none;stroke-opacity:1"
       id="path54265"
       inkscape:export-filename="/home/bolarinwa/Downloads/path54255.png"
       inkscape:export-xdpi="98.489998"
       inkscape:export-ydpi="98.489998" />
    <path
       d="m 108.75238,153.83821 c -0.66592,0.50371 -1.23676,-0.0159 -1.03921,-0.4048 0.15337,-0.30235 0.40449,-0.53345 0.68682,-0.70773"
       style="fill:none;stroke:#0e0f0e;stroke-width:0.275851;stroke-linecap:round;stroke-linejoin:miter;stroke-miterlimit:10;stroke-dasharray:none;stroke-opacity:1"
       id="path54267"
       inkscape:export-filename="/home/bolarinwa/Downloads/path54255.png"
       inkscape:export-xdpi="98.489998"
       inkscape:export-ydpi="98.489998" />
    <path
       d="m 107.65899,153.4496 c -0.24817,0.17576 -0.69359,-0.0427 -0.81988,-0.26407 -0.0807,-0.14161 -0.0315,-0.32178 0.0607,-0.46721 0.18047,-0.28557 0.61029,-0.72922 0.90115,-0.89143"
       style="fill:none;stroke:#0e0f0e;stroke-width:0.275851;stroke-linecap:round;stroke-linejoin:miter;stroke-miterlimit:10;stroke-dasharray:none;stroke-opacity:1"
       id="path54269"
       inkscape:export-filename="/home/bolarinwa/Downloads/path54255.png"
       inkscape:export-xdpi="98.489998"
       inkscape:export-ydpi="98.489998" />
    <path
       d="m 104.62319,152.2835 c 0.14131,-0.77779 1.10869,-1.68542 1.97451,-1.27091 0.49046,0.23493 1.26884,0.25318 1.18936,0.53639 -0.16574,0.5885 -1.01184,0.45955 -1.40633,0.36476 -0.10686,-0.0259 -0.252,0.36564 -0.27202,0.58996 0,0 0.33502,0.41069 0.22286,1.47287"
       style="fill:none;stroke:#0e0f0e;stroke-width:0.275851;stroke-linecap:round;stroke-linejoin:miter;stroke-miterlimit:10;stroke-dasharray:none;stroke-opacity:1"
       id="path54271"
       inkscape:export-filename="/home/bolarinwa/Downloads/path54255.png"
       inkscape:export-xdpi="98.489998"
       inkscape:export-ydpi="98.489998" />
    <path
       d="m 106.38073,151.91374 c -0.11275,-0.0736 -0.22403,-0.009 -0.27202,0.0713 -0.0441,0.0854 -0.0412,0.19429 0.0657,0.26937 0.0597,-0.0318 0.0933,-0.0559 0.11953,-0.0769 0.0274,-0.0203 0.042,-0.038 0.0545,-0.0565 0.0218,-0.04 0.015,-0.0804 0.0324,-0.20725"
       style="fill:#0e0f0e;fill-opacity:1;fill-rule:nonzero;stroke:none;stroke-width:0.0294396"
       id="path54273"
       inkscape:export-filename="/home/bolarinwa/Downloads/path54255.png"
       inkscape:export-xdpi="98.489998"
       inkscape:export-ydpi="98.489998" />
    <path
       d="m 106.26975,152.23227 c 0,0 0.0754,0.32943 0.53109,0.40656"
       style="fill:none;stroke:#0e0f0e;stroke-width:0.275851;stroke-linecap:round;stroke-linejoin:miter;stroke-miterlimit:10;stroke-dasharray:none;stroke-opacity:1"
       id="path54275"
       inkscape:export-filename="/home/bolarinwa/Downloads/path54255.png"
       inkscape:export-xdpi="98.489998"
       inkscape:export-ydpi="98.489998" />
    <path
       d="m 111.79144,167.30623 h -7.25215 l 0.0742,-4.20574 c 2.34428,-0.72686 4.70239,-0.7928 7.07757,-0.0204 l 0.1004,4.22606"
       style="fill:#504b81;fill-opacity:1;fill-rule:nonzero;stroke:none;stroke-width:0.0294396"
       id="path52474"
       inkscape:export-filename="/home/bolarinwa/Downloads/path54255.png"
       inkscape:export-xdpi="98.489998"
       inkscape:export-ydpi="98.489998" />
    <path
       d="m 100.60468,151.23192 c -0.0745,2.1226 0.1578,4.70268 0.8093,6.7296 0.63472,1.97421 2.40433,3.2728 4.95586,3.46268 0.9562,0.0709 0.63943,0.40892 1.61918,0.47427 1.45667,0.0969 1.20319,-0.47338 2.64956,-0.61676 1.91357,-0.18958 3.32991,-0.87082 3.97434,-2.41876 0.51137,-1.22851 0.68005,-3.06171 0.90026,-4.35264 0.27733,-1.62565 0.1316,-3.29076 -0.21432,-4.89522 -0.34591,-1.60445 -0.64943,-3.14797 -2.11965,-4.11123 -2.19736,-1.4393 -9.7657,0.87701 -9.7657,0.87701 0,0 -2.61276,-0.736 -2.80883,4.85105"
       style="fill:#422319;fill-opacity:1;fill-rule:nonzero;stroke:none;stroke-width:0.0294396"
       id="path52518"
       inkscape:export-filename="/home/bolarinwa/Downloads/path54255.png"
       inkscape:export-xdpi="98.489998"
       inkscape:export-ydpi="98.489998" />
    <path
       d="m 105.479,164.52831 c 0.66121,-0.40538 2.45496,-0.78692 2.68606,-0.70214 0.22787,-0.0936 1.87443,0.20785 2.55094,0.58703 4.11772,2.30836 10.51524,2.57861 10.66803,7.35195 0,0 -0.0327,2.60452 -2.17177,2.64632 l -10.83641,0.21139 -10.83642,0.21166 c -2.13908,0.0418 -2.27303,-2.55948 -2.27303,-2.55948 -0.18812,-4.51368 6.18791,-5.27969 10.2126,-7.74673"
       style="fill:#504b81;fill-opacity:1;fill-rule:nonzero;stroke:none;stroke-width:0.0294396"
       id="path52520"
       inkscape:export-filename="/home/bolarinwa/Downloads/path54255.png"
       inkscape:export-xdpi="98.489998"
       inkscape:export-ydpi="98.489998" />
    <path
       d="m 108.93344,167.34421 h -1.56648 c -1.13872,0 -2.07049,-0.93176 -2.07049,-2.07049 v -5.52464 c 0,-1.13871 0.93177,-2.07048 2.07049,-2.07048 h 1.56648 c 1.13873,0 2.07049,0.93177 2.07049,2.07048 v 5.52464 c 0,1.13873 -0.93176,2.07049 -2.07049,2.07049"
       style="fill:#f89a74;fill-opacity:1;fill-rule:nonzero;stroke:none;stroke-width:0.0294396"
       id="path52738"
       inkscape:export-filename="/home/bolarinwa/Downloads/path54255.png"
       inkscape:export-xdpi="98.489998"
       inkscape:export-ydpi="98.489998" />
    <path
       d="m 105.23759,161.35354 5.81785,-0.84167 -0.0862,1.34921 c -0.23552,2.13437 -4.79041,2.55154 -5.7525,0.1104 l 0.0209,-0.61794"
       style="fill:#ea765d;fill-opacity:1;fill-rule:nonzero;stroke:none;stroke-width:0.0294396"
       id="path52740"
       inkscape:export-filename="/home/bolarinwa/Downloads/path54255.png"
       inkscape:export-xdpi="98.489998"
       inkscape:export-ydpi="98.489998" />
    <path
       d="m 108.30696,162.65772 h -0.10569 c -3.2039,0 -5.8255,-2.6216 -5.8255,-5.8258 v -4.51957 c 0,-3.2042 2.6216,-5.8258 5.8255,-5.8258 h 0.10569 c 3.20421,0 5.8258,2.6216 5.8258,5.8258 v 4.51957 c 0,3.2042 -2.62159,5.8258 -5.8258,5.8258"
       style="fill:#f89a74;fill-opacity:1;fill-rule:nonzero;stroke:none;stroke-width:0.0294396"
       id="path52742"
       inkscape:export-filename="/home/bolarinwa/Downloads/path54255.png"
       inkscape:export-xdpi="98.489998"
       inkscape:export-ydpi="98.489998" />
    <path
       d="m 116.04074,156.51868 c -0.36034,1.01361 -1.2815,1.61182 -2.05724,1.33597 -0.77573,-0.27585 -1.11252,-1.32125 -0.75218,-2.33485 0.36063,-1.01361 1.2815,-1.61153 2.05724,-1.33568 0.77602,0.27585 1.11252,1.32125 0.75218,2.33456"
       style="fill:#f89a74;fill-opacity:1;fill-rule:nonzero;stroke:none;stroke-width:0.0294396"
       id="path52744"
       inkscape:export-filename="/home/bolarinwa/Downloads/path54255.png"
       inkscape:export-xdpi="98.489998"
       inkscape:export-ydpi="98.489998" />
    <path
       d="m 100.2779,156.51868 c 0.36064,1.01361 1.28151,1.61182 2.05724,1.33597 0.77603,-0.27585 1.11252,-1.32125 0.75218,-2.33485 -0.36034,-1.01361 -1.2815,-1.61153 -2.05723,-1.33568 -0.77574,0.27585 -1.11253,1.32125 -0.75219,2.33456"
       style="fill:#f89a74;fill-opacity:1;fill-rule:nonzero;stroke:none;stroke-width:0.0294396"
       id="path52746"
       inkscape:export-filename="/home/bolarinwa/Downloads/path54255.png"
       inkscape:export-xdpi="98.489998"
       inkscape:export-ydpi="98.489998" />
    <path
       d="m 112.81122,157.41512 h -0.66033 c -0.26555,0 -0.4828,-0.21727 -0.4828,-0.48281 0,-0.26584 0.21725,-0.4831 0.4828,-0.4831 h 0.66033 c 0.26554,0 0.48281,0.21726 0.48281,0.4831 0,0.26554 -0.21727,0.48281 -0.48281,0.48281"
       style="fill:#ea765d;fill-opacity:1;fill-rule:nonzero;stroke:none;stroke-width:0.0294396"
       id="path52748"
       inkscape:export-filename="/home/bolarinwa/Downloads/path54255.png"
       inkscape:export-xdpi="98.489998"
       inkscape:export-ydpi="98.489998" />
    <path
       d="m 104.20014,157.41512 h -0.66033 c -0.26554,0 -0.48281,-0.21727 -0.48281,-0.48281 0,-0.26584 0.21727,-0.4831 0.48281,-0.4831 h 0.66033 c 0.26555,0 0.48281,0.21726 0.48281,0.4831 0,0.26554 -0.21726,0.48281 -0.48281,0.48281"
       style="fill:#ea765d;fill-opacity:1;fill-rule:nonzero;stroke:none;stroke-width:0.0294396"
       id="path52750"
       inkscape:export-filename="/home/bolarinwa/Downloads/path54255.png"
       inkscape:export-xdpi="98.489998"
       inkscape:export-ydpi="98.489998" />
    <path
       d="m 110.25793,155.0573 c -3e-4,0.54787 0.31677,0.99241 0.70831,0.99241 0.39155,2.9e-4 0.7092,-0.44366 0.7095,-0.99182 2.9e-4,-0.54787 -0.31706,-0.99241 -0.70862,-0.99241 -0.39125,-3e-4 -0.7089,0.44395 -0.70919,0.99182"
       style="fill:#422319;fill-opacity:1;fill-rule:nonzero;stroke:none;stroke-width:0.0294396"
       id="path52752"
       inkscape:export-filename="/home/bolarinwa/Downloads/path54255.png"
       inkscape:export-xdpi="98.489998"
       inkscape:export-ydpi="98.489998" />
    <path
       d="m 112.33165,153.50878 c -0.60763,-0.13484 -1.18965,-0.18723 -1.80023,-0.1575 -0.25436,0.0123 -0.46249,-0.20108 -0.45219,-0.45573 l 3e-4,-0.003 c 0.009,-0.21727 0.17634,-0.39714 0.39272,-0.41863 0.71185,-0.0715 1.40692,-0.0112 2.08461,0.18546 0.2102,0.0607 0.34179,0.26997 0.30941,0.48606 l -3e-4,0.002 c -0.038,0.25377 -0.28409,0.41687 -0.53432,0.36122"
       style="fill:#5d301f;fill-opacity:1;fill-rule:nonzero;stroke:none;stroke-width:0.0294396"
       id="path52754"
       inkscape:export-filename="/home/bolarinwa/Downloads/path54255.png"
       inkscape:export-xdpi="98.489998"
       inkscape:export-ydpi="98.489998" />
    <path
       d="m 106.12814,155.0573 c 2.9e-4,0.54787 -0.31706,0.99241 -0.70861,0.99241 -0.39155,2.9e-4 -0.70891,-0.44366 -0.7092,-0.99182 -2.9e-4,-0.54787 0.31677,-0.99241 0.70832,-0.99241 0.39154,-3e-4 0.7092,0.44395 0.70949,0.99182"
       style="fill:#422319;fill-opacity:1;fill-rule:nonzero;stroke:none;stroke-width:0.0294396"
       id="path52756"
       inkscape:export-filename="/home/bolarinwa/Downloads/path54255.png"
       inkscape:export-xdpi="98.489998"
       inkscape:export-ydpi="98.489998" />
    <path
       d="m 104.07267,153.50878 c 0.60763,-0.13484 1.18965,-0.18723 1.80023,-0.1575 0.25436,0.0123 0.4625,-0.20108 0.45219,-0.45573 l -2.9e-4,-0.003 c -0.009,-0.21727 -0.17635,-0.39714 -0.39302,-0.41863 -0.71156,-0.0715 -1.40663,-0.0112 -2.08462,0.18546 -0.2099,0.0607 -0.3415,0.26997 -0.30912,0.48606 l 3e-4,0.002 c 0.038,0.25377 0.28409,0.41687 0.53433,0.36122"
       style="fill:#5d301f;fill-opacity:1;fill-rule:nonzero;stroke:none;stroke-width:0.0294396"
       id="path52758"
       inkscape:export-filename="/home/bolarinwa/Downloads/path54255.png"
       inkscape:export-xdpi="98.489998"
       inkscape:export-ydpi="98.489998" />
    <path
       d="m 104.08827,165.35704 c 0,0 0.76337,1.95596 4.31761,1.98717 2.77233,0.0247 3.87631,-2.15881 3.87631,-2.15881 l -2.77232,-1.37395 -2.84563,0.0492 -2.57597,1.49641"
       style="fill:#f89a74;fill-opacity:1;fill-rule:nonzero;stroke:none;stroke-width:0.0294396"
       id="path53338"
       inkscape:export-filename="/home/bolarinwa/Downloads/path54255.png"
       inkscape:export-xdpi="98.489998"
       inkscape:export-ydpi="98.489998" />
    <path
       d="m 109.88934,150.68052 -4.47423,-0.23405 c -1.21261,-0.0636 -2.17176,-1.18376 -2.18353,-2.55065 l -10e-4,-0.126 c -0.0144,-1.67334 1.19613,-3.05053 2.70373,-3.07584 l 9.22872,-0.15574 0.003,0.36005 c 0.025,2.89038 -0.8982,5.70774 -5.27645,5.78223"
       style="fill:#422319;fill-opacity:1;fill-rule:nonzero;stroke:none;stroke-width:0.0294396"
       id="path53650"
       inkscape:export-filename="/home/bolarinwa/Downloads/path54255.png"
       inkscape:export-xdpi="98.489998"
       inkscape:export-ydpi="98.489998" />
    <path
       d="m 113.15419,157.83964 c -0.85993,-0.004 -1.75872,-0.0927 -2.558,-0.37948 -0.71568,-0.25672 -1.47817,-0.3574 -2.23859,-0.35828 l -0.60793,-5.9e-4 c -0.70743,-5.9e-4 -1.41634,0.0907 -2.0855,0.32059 -0.77661,0.26702 -1.67482,0.37448 -2.51355,0.37036 l -0.76749,-0.003 c 0,0 1.04893,5.26232 5.75927,5.04153 4.71033,-0.2208 5.66712,-3.90075 5.88791,-4.98618 l -0.87612,-0.004"
       style="fill:#b86544;fill-opacity:1;fill-rule:nonzero;stroke:none;stroke-width:0.0294396"
       id="path53656"
       inkscape:export-filename="/home/bolarinwa/Downloads/path54255.png"
       inkscape:export-xdpi="98.489998"
       inkscape:export-ydpi="98.489998" />
    <path
       d="m 106.43137,158.01804 h 3.49036 c 0.31883,0 0.5302,0.32708 0.40273,0.61941 -0.28174,0.6459 -0.90173,1.5653 -2.14791,1.5653 -1.24618,0 -1.86618,-0.9194 -2.14821,-1.5653 -0.12747,-0.29233 0.0842,-0.61941 0.40303,-0.61941"
       style="fill:#fbf9f4;fill-opacity:1;fill-rule:nonzero;stroke:none;stroke-width:0.0294396"
       id="path53662"
       inkscape:export-filename="/home/bolarinwa/Downloads/path54255.png"
       inkscape:export-xdpi="98.489998"
       inkscape:export-ydpi="98.489998" />
    <path
       d="m 103.26632,158.17524 -0.90144,-0.38653 -0.20255,-3.36701 c 0.37654,0.0883 0.65916,0.40067 0.71009,0.78427 l 0.3939,2.96927"
       style="fill:#b86544;fill-opacity:1;fill-rule:nonzero;stroke:none;stroke-width:0.0294396"
       id="path53664"
       inkscape:export-filename="/home/bolarinwa/Downloads/path54255.png"
       inkscape:export-xdpi="98.489998"
       inkscape:export-ydpi="98.489998" />
    <path
       d="m 113.16538,158.17524 0.90173,-0.38653 0.20226,-3.36701 c -0.37654,0.0883 -0.65916,0.40067 -0.71009,0.78427 l -0.3939,2.96927"
       style="fill:#b86544;fill-opacity:1;fill-rule:nonzero;stroke:none;stroke-width:0.0294396"
       id="path53666"
       inkscape:export-filename="/home/bolarinwa/Downloads/path54255.png"
       inkscape:export-xdpi="98.489998"
       inkscape:export-ydpi="98.489998" />
    <path
       d="m 108.53777,167.35186 c 0,0 2.62218,0.31766 3.15946,-4.26462 l 2.05724,1.8968 c 0.43335,0.39919 0.60556,1.00801 0.44601,1.57501 l -0.91145,3.23865 c -0.15928,0.56583 -0.84757,0.78104 -1.30065,0.40656 l -3.45061,-2.8524"
       style="fill:#6966a3;fill-opacity:1;fill-rule:nonzero;stroke:none;stroke-width:0.0294396"
       id="path53672"
       inkscape:export-filename="/home/bolarinwa/Downloads/path54255.png"
       inkscape:export-xdpi="98.489998"
       inkscape:export-ydpi="98.489998" />
    <path
       d="m 108.19686,167.33567 c 0,0 -0.89673,0.0524 -1.3395,-0.1469 l -3.27398,3.15357 0.0615,0.14984 c 0.19077,0.46515 0.79399,0.58614 1.14962,0.23022 l 3.40233,-3.38673"
       style="fill:#333050;fill-opacity:1;fill-rule:nonzero;stroke:none;stroke-width:0.0294396"
       id="path53674"
       inkscape:export-filename="/home/bolarinwa/Downloads/path54255.png"
       inkscape:export-xdpi="98.489998"
       inkscape:export-ydpi="98.489998" />
    <path
       d="m 108.57781,168.79176 c 0,0.23021 -0.18664,0.41715 -0.41716,0.41715 -0.23022,0 -0.41716,-0.18694 -0.41716,-0.41715 0,-0.23023 0.18694,-0.41717 0.41716,-0.41717 0.23052,0 0.41716,0.18694 0.41716,0.41717"
       style="fill:#333050;fill-opacity:1;fill-rule:nonzero;stroke:none;stroke-width:0.0294396"
       id="path53678"
       inkscape:export-filename="/home/bolarinwa/Downloads/path54255.png"
       inkscape:export-xdpi="98.489998"
       inkscape:export-ydpi="98.489998" />
    <path
       d="m 108.57781,170.43536 c 0,0.23052 -0.18664,0.41716 -0.41716,0.41716 -0.23022,0 -0.41716,-0.18664 -0.41716,-0.41716 0,-0.23021 0.18694,-0.41686 0.41716,-0.41686 0.23052,0 0.41716,0.18665 0.41716,0.41686"
       style="fill:#333050;fill-opacity:1;fill-rule:nonzero;stroke:none;stroke-width:0.0294396"
       id="path53680"
       inkscape:export-filename="/home/bolarinwa/Downloads/path54255.png"
       inkscape:export-xdpi="98.489998"
       inkscape:export-ydpi="98.489998" />
    <path
       d="m 108.57781,172.07927 c 0,0.23022 -0.18664,0.41687 -0.41716,0.41687 -0.23022,0 -0.41716,-0.18665 -0.41716,-0.41687 0,-0.23051 0.18694,-0.41716 0.41716,-0.41716 0.23052,0 0.41716,0.18665 0.41716,0.41716"
       style="fill:#333050;fill-opacity:1;fill-rule:nonzero;stroke:none;stroke-width:0.0294396"
       id="path53682"
       inkscape:export-filename="/home/bolarinwa/Downloads/path54255.png"
       inkscape:export-xdpi="98.489998"
       inkscape:export-ydpi="98.489998" />
    <path
       d="m 108.51481,167.34273 c 0,0 0.70213,0.0445 1.17376,-0.29263 l 3.59927,2.77675 -0.0447,0.15573 c -0.13895,0.4834 -0.72539,0.66975 -1.11782,0.35475 l -3.61047,-2.9946"
       style="fill:#feffff;fill-opacity:1;fill-rule:nonzero;stroke:none;stroke-width:0.0294396"
       id="path53696"
       inkscape:export-filename="/home/bolarinwa/Downloads/path54255.png"
       inkscape:export-xdpi="98.489998"
       inkscape:export-ydpi="98.489998" />
    <path
       d="m 107.72053,167.49494 c 0,0 -2.87095,-0.36387 -3.11383,-4.4077 l -2.05724,1.8968 c -0.43305,0.39919 -0.60557,1.00801 -0.44601,1.57501 l 0.91675,3.2575 c 0.1578,0.56082 0.83726,0.77867 1.29152,0.41391 l 3.40881,-2.73552"
       style="fill:#6966a3;fill-opacity:1;fill-rule:nonzero;stroke:none;stroke-width:0.0294396"
       id="path53692"
       inkscape:export-filename="/home/bolarinwa/Downloads/path54255.png"
       inkscape:export-xdpi="98.489998"
       inkscape:export-ydpi="98.489998" />
  </g>
</svg>
