<?xml version="1.0" encoding="UTF-8" standalone="no"?>
<!-- Created with Inkscape (http://www.inkscape.org/) -->

<svg
   width="16.679802mm"
   height="25.158257mm"
   viewBox="0 0 16.679802 25.158257"
   version="1.1"
   id="svg5892"
   inkscape:version="1.1.1 (eb90963e84, 2021-10-02)"
   sodipodi:docname="sara.svg"
   xmlns:inkscape="http://www.inkscape.org/namespaces/inkscape"
   xmlns:sodipodi="http://sodipodi.sourceforge.net/DTD/sodipodi-0.dtd"
   xmlns="http://www.w3.org/2000/svg"
   xmlns:svg="http://www.w3.org/2000/svg">
  <sodipodi:namedview
     id="namedview5894"
     pagecolor="#ffffff"
     bordercolor="#666666"
     borderopacity="1.0"
     inkscape:pageshadow="2"
     inkscape:pageopacity="0.0"
     inkscape:pagecheckerboard="0"
     inkscape:document-units="mm"
     showgrid="false"
     fit-margin-top="0"
     fit-margin-left="0"
     fit-margin-right="0"
     fit-margin-bottom="0"
     inkscape:zoom="6.2791241"
     inkscape:cx="0.55740259"
     inkscape:cy="49.131057"
     inkscape:window-width="1920"
     inkscape:window-height="1017"
     inkscape:window-x="0"
     inkscape:window-y="30"
     inkscape:window-maximized="1"
     inkscape:current-layer="layer1" />
  <defs
     id="defs5889" />
  <g
     inkscape:label="Layer 1"
     inkscape:groupmode="layer"
     id="layer1"
     transform="translate(-84.487868,-109.91308)">
    <path
       d="m 99.34678,114.41709 c 0.33102,0.50681 0.57139,3.55032 0.73716,4.16782 0.20426,0.76036 0.13362,1.61137 -0.009,2.4276 -0.12123,0.69076 -0.29939,1.39103 -0.65466,1.98772 -0.33287,0.55925 -0.81174,1.01098 -1.06845,1.61636 -0.15866,0.37398 -0.22217,0.78487 -0.37609,1.16096 -0.27119,0.66152 -0.8323,1.17756 -1.43979,1.32382 -0.60775,0.14627 -1.82299,0.30704 -2.20989,-0.19634 -0.21533,-0.28042 -3.95857,0.46148 -4.89155,-0.12228 -5.32378,-3.3308 -3.63993,-8.58973 -3.64415,-9.32321 0,0 5.06628,4.67859 4.62035,3.19321 -0.43038,-1.43346 -0.34789,-3.04746 -0.26039,-4.61587 0.0145,-0.25565 0.0295,-0.5163 0.11043,-0.7622 0.11596,-0.3521 0.35395,-0.63885 0.58483,-0.91347 0.57269,-0.6805 1.16753,-1.37943 1.90575,-1.7666 0.80041,-0.41984 1.68358,-0.42669 2.52194,-0.3521 0.52078,0.0461 1.05026,0.12519 1.49408,0.40719 0.71212,0.45199 0.57876,1.12616 0.88264,1.83459 0.3782,0.8808 1.18783,-0.84785 1.69728,-0.0672"
       style="fill:#6d3622;fill-opacity:1;fill-rule:nonzero;stroke:none;stroke-width:0.0263553"
       id="path70679" />
    <path
       d="m 99.38157,121.75836 c -0.32259,0.90741 -1.14724,1.44295 -1.84171,1.196 -0.69446,-0.24695 -0.99597,-1.18282 -0.67338,-2.09023 0.32285,-0.90741 1.14725,-1.44269 1.84171,-1.19574 0.69473,0.24695 0.99597,1.18257 0.67338,2.08997"
       style="fill:#f89a74;fill-opacity:1;fill-rule:nonzero;stroke:none;stroke-width:0.0263553"
       id="path71383" />
    <path
       d="M 94.79601,132.50105 H 90.367 v -5.13453 h 4.42901 v 5.13453"
       style="fill:#3c95ae;fill-opacity:1;fill-rule:nonzero;stroke:none;stroke-width:0.0263553"
       id="path70675" />
    <path
       d="m 95.89054,130.677 v 0 c 0.21533,0.55056 0.74744,0.92482 1.30855,1.1114 0.5611,0.18633 1.15989,0.21506 1.74841,0.27279 0.1721,0.0171 0.34604,0.0371 0.5076,0.0983 0.23167,0.088 0.4288,0.25721 0.66784,0.32257 0.0748,0.0203 0.15603,0.0295 0.22851,0.001 0.0561,-0.0216 0.102,-0.064 0.14258,-0.10883 0.24853,-0.27463 0.34341,-0.66231 0.32812,-1.03261 -0.0153,-0.37004 -0.13071,-0.7282 -0.25828,-1.07609 -0.33418,-0.91215 -0.75955,-1.79084 -1.26743,-2.61866 -0.42721,-0.69605 -1.43425,-1.68121 -2.34773,-1.18335 -0.64702,0.35237 -0.81833,1.49012 -1.02205,2.12291 -0.20031,0.62173 -0.27884,1.46932 -0.0361,2.08998"
       style="fill:#6d3622;fill-opacity:1;fill-rule:nonzero;stroke:none;stroke-width:0.0263553"
       id="path70677" />
    <path
       d="m 91.01349,128.74779 c 0.42248,-0.24722 1.56815,-0.47519 1.71574,-0.42195 0.14548,-0.0567 0.91189,0.0321 1.34385,0.26882 2.62868,1.44085 7.08299,2.30609 7.09459,4.68308 0,0 -0.0219,1.60609 -1.38814,1.62296 l -6.92038,0.0854 -6.92037,0.0851 c -1.366,0.0169 -1.4506,-1.58817 -1.4506,-1.58817 -0.0409,-2.24073 3.95409,-3.23037 6.52531,-4.73526"
       style="fill:#3c95ae;fill-opacity:1;fill-rule:nonzero;stroke:none;stroke-width:0.0263553"
       id="path71309" />
    <path
       d="M 92.64937,131.44974 H 92.3874 c -0.80595,0 -1.46536,-0.65915 -1.46536,-1.4651 v -5.72279 c 0,-0.80567 0.65941,-1.46509 1.46536,-1.46509 h 0.26197 c 0.80595,0 1.4651,0.65942 1.4651,1.46509 v 5.72279 c 0,0.80595 -0.65915,1.4651 -1.4651,1.4651"
       style="fill:#f89a74;fill-opacity:1;fill-rule:nonzero;stroke:none;stroke-width:0.0263553"
       id="path71333" />
    <path
       d="m 90.92204,126.51496 3.25436,-0.7535 -0.0485,1.20788 c -0.13177,1.91075 -2.67928,2.28421 -3.21745,0.0988 l 0.0116,-0.55321"
       style="fill:#ea765d;fill-opacity:1;fill-rule:nonzero;stroke:none;stroke-width:0.0263553"
       id="path71335" />
    <path
       d="m 92.45803,127.25423 h -0.0946 c -2.86824,0 -5.21519,-2.34693 -5.21519,-5.21545 v -4.04607 c 0,-2.86851 2.34695,-5.21546 5.21519,-5.21546 h 0.0946 c 2.86851,0 5.21546,2.34695 5.21546,5.21546 v 4.04607 c 0,2.86851 -2.34695,5.21545 -5.21546,5.21545"
       style="fill:#f89a74;fill-opacity:1;fill-rule:nonzero;stroke:none;stroke-width:0.0263553"
       id="path71337" />
    <path
       d="m 90.77893,123.10064 h 3.12469 c 0.28543,0 0.47466,0.29281 0.36054,0.55452 -0.25222,0.57824 -0.80727,1.40131 -1.92288,1.40131 -1.11562,0 -1.67067,-0.82307 -1.92315,-1.40131 -0.11412,-0.26171 0.0754,-0.55452 0.3608,-0.55452"
       style="fill:#fbf9f4;fill-opacity:1;fill-rule:nonzero;stroke:none;stroke-width:0.0263553"
       id="path71339" />
    <path
       d="m 94.2046,120.45009 c -2.7e-4,0.49046 0.28358,0.88844 0.63411,0.88844 0.35052,2.6e-4 0.6349,-0.39718 0.63516,-0.88791 2.7e-4,-0.49048 -0.28385,-0.88845 -0.63437,-0.88845 -0.35026,-2.7e-4 -0.63464,0.39717 -0.6349,0.88792"
       style="fill:#572715;fill-opacity:1;fill-rule:nonzero;stroke:none;stroke-width:0.0263553"
       id="path71341" />
    <path
       d="m 96.06106,119.0638 c -0.54397,-0.12097 -1.06501,-0.16762 -1.61162,-0.14101 -0.22771,0.0111 -0.41405,-0.18001 -0.40482,-0.40799 l 2.6e-4,-0.003 c 0.008,-0.19451 0.15788,-0.35554 0.35159,-0.37505 0.63726,-0.0638 1.25951,-0.01 1.86622,0.16631 0.18817,0.0543 0.30598,0.24168 0.27699,0.43512 l -2.7e-4,0.002 c -0.034,0.22719 -0.25433,0.37319 -0.47835,0.32337"
       style="fill:#572715;fill-opacity:1;fill-rule:nonzero;stroke:none;stroke-width:0.0263553"
       id="path71343" />
    <path
       d="m 90.50747,120.45009 c 2.7e-4,0.49046 -0.28384,0.88844 -0.63437,0.88844 -0.35052,2.6e-4 -0.63464,-0.39718 -0.6349,-0.88791 -2.6e-4,-0.49048 0.28358,-0.88845 0.63411,-0.88845 0.35053,-2.7e-4 0.6349,0.39717 0.63516,0.88792"
       style="fill:#572715;fill-opacity:1;fill-rule:nonzero;stroke:none;stroke-width:0.0263553"
       id="path71345" />
    <path
       d="m 88.66734,119.0638 c 0.54398,-0.12097 1.06502,-0.16762 1.61163,-0.14101 0.22771,0.0111 0.41404,-0.18001 0.40482,-0.40799 l -2.7e-4,-0.003 c -0.008,-0.19451 -0.15786,-0.35554 -0.35183,-0.37505 -0.63702,-0.0638 -1.25927,-0.01 -1.86622,0.16631 -0.18792,0.0543 -0.30573,0.24168 -0.27674,0.43512 l 2.6e-4,0.002 c 0.034,0.22719 0.25433,0.37319 0.47835,0.32337"
       style="fill:#572715;fill-opacity:1;fill-rule:nonzero;stroke:none;stroke-width:0.0263553"
       id="path71347" />
    <path
       d="m 96.4904,122.56089 h -0.59115 c -0.23773,0 -0.43223,-0.19451 -0.43223,-0.43223 0,-0.23799 0.1945,-0.43249 0.43223,-0.43249 h 0.59115 c 0.23772,0 0.43222,0.1945 0.43222,0.43249 0,0.23772 -0.1945,0.43223 -0.43222,0.43223"
       style="fill:#ea765d;fill-opacity:1;fill-rule:nonzero;stroke:none;stroke-width:0.0263553"
       id="path71385" />
    <path
       d="m 88.78147,122.56089 h -0.59115 c -0.23773,0 -0.43223,-0.19451 -0.43223,-0.43223 0,-0.23799 0.1945,-0.43249 0.43223,-0.43249 h 0.59115 c 0.23772,0 0.43222,0.1945 0.43222,0.43249 0,0.23772 -0.1945,0.43223 -0.43222,0.43223"
       style="fill:#ea765d;fill-opacity:1;fill-rule:nonzero;stroke:none;stroke-width:0.0263553"
       id="path71421" />
    <path
       d="m 98.97939,119.9554 c 0.0804,-0.0226 0.11649,-0.11359 0.15418,-0.18449 0.22138,-0.41483 0.13177,-0.92007 0.14074,-1.39261 0.009,-0.49311 0.13151,-0.97199 0.20188,-1.45772 0.27146,-1.87491 -0.29702,-3.93458 -1.72654,-5.3546 -1.42978,-1.42029 -3.75273,-2.07021 -5.60156,-1.36864 -0.37846,0.14364 -0.73136,0.33734 -1.07029,0.5474 -0.16472,0.10173 -0.33049,0.21164 -0.43433,0.36924 -0.30915,0.47018 -0.30704,1.47458 -0.21638,2.03331 0.088,0.54214 0.49785,0.95038 0.86498,1.36495 1.04157,1.17544 2.19303,2.28525 3.52423,3.17212 0.7398,0.49285 2.68008,2.69141 4.16309,2.27104"
       style="fill:#7a3d2a;fill-opacity:1;fill-rule:nonzero;stroke:none;stroke-width:0.0263553"
       id="path71567" />
    <path
       d="m 89.87943,116.15312 v 0 c -0.81096,0.68814 -1.53178,0.72846 -2.19197,1.5626 -0.41457,0.52368 -0.35712,1.74895 -0.53924,2.37409 -0.13625,0.46649 -0.59563,-0.063 -0.64122,-0.0269 -0.11728,0.092 -0.2654,-0.0706 -0.31916,-0.20978 -0.39217,-1.01811 -0.37372,-2.14137 -0.34974,-3.23223 0.009,-0.42854 0.0193,-0.86129 0.12546,-1.27638 0.0678,-0.2654 0.17394,-0.51974 0.29597,-0.76483 0.57375,-1.15331 1.51332,-2.12134 2.64923,-2.72909 0.15418,-0.0825 0.31416,-0.15946 0.48573,-0.19425 0.31679,-0.0648 0.6428,0.0176 0.95538,0.0994 0.66415,0.17368 1.55338,0.62541 1.49197,1.45587 -0.0221,0.29992 -0.22349,0.55345 -0.38953,0.79014 -0.23983,0.34236 -0.42933,0.7029 -0.64517,1.05922 -0.24854,0.41035 -0.56191,0.7817 -0.92771,1.09216"
       style="fill:#7a3d2a;fill-opacity:1;fill-rule:nonzero;stroke:none;stroke-width:0.0263553"
       id="path71569" />
    <path
       d="m 85.27015,121.75836 c 0.32285,0.90741 1.14724,1.44295 1.8417,1.196 0.69473,-0.24695 0.99597,-1.18282 0.67338,-2.09023 -0.32258,-0.90741 -1.14725,-1.44269 -1.8417,-1.19574 -0.69447,0.24695 -0.99597,1.18257 -0.67338,2.08997"
       style="fill:#f89a74;fill-opacity:1;fill-rule:nonzero;stroke:none;stroke-width:0.0263553"
       id="path71575" />
    <path
       d="m 98.44701,126.71844 -1.82827,1.23158 c -0.32153,0.21691 -0.76193,0.13098 -0.97883,-0.19055 l -0.082,-0.12176 c -0.21664,-0.32153 -0.13072,-0.7622 0.19081,-0.97884 l 1.82827,-1.23158 c 0.32154,-0.21664 0.76194,-0.13099 0.97857,0.19081 l 0.082,0.1215 c 0.2169,0.3218 0.13099,0.7622 -0.19055,0.97884"
       style="fill:#3c95ae;fill-opacity:1;fill-rule:nonzero;stroke:none;stroke-width:0.0263553"
       id="path71577" />
    <path
       d="m 93.01228,131.46397 c 0,0 -2.74227,0.058 -2.64528,-4.09746 l -2.01776,2.39675 c -0.2488,0.22244 -0.36002,0.56347 -0.29097,0.89212 l 0.57771,2.74728 c 0.1099,0.52315 0.71397,0.75772 1.14092,0.4433 l 3.23538,-2.38199"
       style="fill:#4fbdc9;fill-opacity:1;fill-rule:nonzero;stroke:none;stroke-width:0.0263553"
       id="path71579" />
    <path
       d="m 92.14941,131.33061 c 0,0 2.75281,0.39322 2.65345,-3.9641 l 2.30979,2.17616 c 0.26434,0.23297 0.38241,0.59062 0.30861,0.93534 l -0.61724,2.88143 c -0.11755,0.54845 -0.76035,0.79488 -1.21471,0.4657 l -3.4399,-2.49453"
       style="fill:#4fbdc9;fill-opacity:1;fill-rule:nonzero;stroke:none;stroke-width:0.0263553"
       id="path71581" />
  </g>
</svg>
